<svg width="916" height="1431" viewBox="0 0 916 1431" fill="none" xmlns="http://www.w3.org/2000/svg">
<g clip-path="url(#clip0)">
<path d="M1021.34 1417.37C951.352 1466.08 811.046 1365.68 689.243 1314.76C566.78 1264.79 462.158 1265.24 394.034 1215.77C325.06 1165.7 293.433 1066.3 214.731 968.731C136.689 870.221 12.422 774.128 1.7362 668.492C-9.6097 563.792 93.2859 448.614 177.214 311.644C260.293 174.075 324.405 14.714 425.155 1.72315C527.415 -11.6039 665.464 120.84 799.057 160.452C931.801 199.465 1059.9 144.111 1171.13 159.535C1282.36 174.958 1378.04 259.288 1399.38 369.643C1419.88 479.4 1366.52 612.712 1303.34 716.675C1240.16 820.637 1166.97 893.716 1131.15 1031C1094.49 1167.69 1092.84 1368.32 1021.34 1417.37Z" fill="#71B4FF" fill-opacity="0.08"/>
</g>
<defs>
<clipPath id="clip0">
<rect width="916" height="1431" fill="white"/>
</clipPath>
</defs>
</svg>
