<svg width="2061" height="3231" viewBox="0 0 2061 3231" fill="none" xmlns="http://www.w3.org/2000/svg">
<path d="M2047.81 1538.1C2123.06 1722.4 1842.66 1956.01 1678.16 2183.67C1515.41 2413.41 1470.32 2639.26 1332.61 2752.19C1193.21 2866.55 962.867 2866.55 715.752 2969.29C466.89 3069.97 202.935 3271.96 -31.7811 3222.53C-264.752 3175.18 -470.229 2874.35 -731.509 2599.46C-994.468 2325.99 -1313.23 2078.46 -1297.15 1852.35C-1281.14 1622.75 -931.961 1415.99 -786.881 1155.15C-643.479 895.736 -707.597 581.607 -625.033 352.393C-542.47 123.18 -316.717 -25.2464 -67.0283 4.42872C180.982 35.5236 447.757 242.01 646.303 449.532C844.848 657.053 971.739 864.964 1254.89 1036.35C1536.37 1209.15 1972.5 1350.32 2047.81 1538.1Z" fill="#71B4FF" fill-opacity="0.06"/>
</svg>
