<svg width="2773" height="2820" viewBox="0 0 2773 2820" fill="none" xmlns="http://www.w3.org/2000/svg">
<path d="M2759.73 2444.67C2693.95 2611.77 2335.33 2598.15 2065.51 2650.13C1795.61 2704.52 1614.43 2826.93 1439.48 2819.05C1262.37 2811.1 1093.65 2672.92 845.264 2592.67C596.951 2510 271.124 2485.32 131.631 2311.81C-7.93719 2140.72 38.9036 1818.38 27.8557 1479.73C14.6469 1141.02 -56.4508 786.001 103.652 646.018C265.99 503.688 657.369 576.328 934.731 490.753C1209.93 405.111 1369.03 158.773 1579.86 56.6215C1790.69 -45.5303 2053.4 -8.32452 2216.82 161.098C2378.07 330.454 2438.01 627.131 2447.3 883.563C2456.59 1139.99 2413.15 1353.7 2508.12 1636.97C2600.92 1920.18 2827.75 2275.23 2759.73 2444.67Z" fill="#B8D4FF" fill-opacity="0.17"/>
</svg>
