<svg width="2773" height="2820" viewBox="0 0 2773 2820" fill="none" xmlns="http://www.w3.org/2000/svg">
<path d="M2759.73 2444.67C2693.95 2611.77 2335.33 2598.15 2065.51 2650.13C1795.61 2704.52 1614.43 2826.93 1439.48 2819.05C1262.37 2811.1 1093.65 2672.92 845.265 2592.67C596.952 2510 271.125 2485.32 131.632 2311.81C-7.93623 2140.72 38.9046 1818.38 27.8567 1479.73C14.6479 1141.02 -56.4498 786.001 103.653 646.018C265.991 503.688 657.37 576.328 934.732 490.753C1209.93 405.111 1369.03 158.773 1579.86 56.6214C1790.69 -45.5303 2053.4 -8.32457 2216.82 161.098C2378.07 330.454 2438.01 627.131 2447.3 883.563C2456.59 1139.99 2413.15 1353.7 2508.12 1636.97C2600.92 1920.18 2827.75 2275.23 2759.73 2444.67Z" fill="#166CCC" fill-opacity="0.24"/>
</svg>
