<svg width="4436" height="2043" viewBox="0 0 4436 2043" fill="none" xmlns="http://www.w3.org/2000/svg">
<path d="M3784.77 7.53054C4049.79 51.4773 4046 312.019 4140.65 506.64C4239.08 701.262 4439.73 829.963 4435.95 957.095C4432.16 1085.8 4223.94 1211.36 4110.36 1393.42C3993 1575.49 3970.28 1812.49 3705.27 1917.65C3444.05 2022.8 2936.74 1996.12 2406.71 2011.82C1876.69 2029.08 1323.95 2088.72 1096.8 1975.72C865.857 1861.14 960.504 1575.49 812.854 1376.16C665.205 1178.4 271.473 1068.53 101.108 917.856C-69.2568 767.182 -23.8262 575.699 233.614 453.276C491.054 332.423 952.932 282.198 1354.24 269.642C1755.54 257.085 2092.48 283.767 2531.65 208.43C2970.81 134.662 3515.98 -37.9858 3784.77 7.53054Z" fill="#4B86FF" fill-opacity="0.08"/>
</svg>
