<svg width="22837" height="6998" viewBox="0 0 22837 6998" fill="none" xmlns="http://www.w3.org/2000/svg">
<path d="M19484.4 25.7948C20848.7 176.328 20829.2 1068.78 21316.5 1735.42C21823.2 2402.07 22856.2 2842.92 22836.7 3278.39C22817.2 3719.24 21745.3 4149.33 21160.6 4772.97C20556.4 5396.61 20439.4 6208.41 19075.1 6568.62C17730.3 6928.82 15118.6 6837.43 12390 6891.19C9661.39 6950.33 6815.83 7154.62 5646.42 6767.54C4457.52 6375.07 4944.78 5396.61 4184.66 4713.83C3424.55 4036.43 1397.57 3660.1 520.515 3143.98C-356.542 2627.87 -122.66 1971.97 1202.67 1552.63C2528 1138.67 4905.8 966.628 6971.75 923.618C9037.71 880.609 10772.3 972.004 13033.2 713.947C15294 461.266 18100.6 -130.115 19484.4 25.7948Z" fill="#5999FF" fill-opacity="0.11"/>
</svg>
