<svg width="2902" height="2918" viewBox="0 0 2902 2918" fill="none" xmlns="http://www.w3.org/2000/svg">
<path d="M2815.73 2501.67C2749.95 2668.77 2391.33 2655.15 2121.51 2707.13C1851.61 2761.52 1670.43 2883.93 1495.48 2876.05C1318.37 2868.1 1149.65 2729.92 901.265 2649.67C652.952 2567 327.125 2542.32 187.632 2368.81C48.0635 2197.72 94.9043 1875.38 83.8564 1536.73C70.6476 1198.02 -0.450063 843 159.653 703.017C321.991 560.687 713.37 633.327 990.732 547.752C1265.93 462.11 1425.03 215.772 1635.86 113.62C1846.69 11.4683 2109.4 48.674 2272.82 218.097C2434.07 387.453 2494.01 684.13 2503.3 940.562C2512.59 1196.99 2469.15 1410.7 2564.12 1693.97C2656.92 1977.18 2883.75 2332.23 2815.73 2501.67Z" fill="#FF0066" fill-opacity="0.04"/>
</svg>
