<svg width="133" height="135" viewBox="0 0 133 135" fill="none" xmlns="http://www.w3.org/2000/svg">
<g filter="url(#filter0_d)">
<path d="M66.4264 126.679C100.904 126.679 128.853 98.3211 128.853 63.3396C128.853 28.3581 100.904 0 66.4264 0C31.9493 0 4 28.3581 4 63.3396C4 98.3211 31.9493 126.679 66.4264 126.679Z" fill="#EC4368"/>
</g>
<path d="M93.8762 37.439V37.4277C93.7713 36.9615 93.5403 36.5343 93.2089 36.1943C92.8775 35.8543 92.459 35.615 92.0007 35.5035C88.3069 34.5892 82.496 35.5638 76.0566 38.1798C69.8642 40.6222 64.1986 44.2623 59.3748 48.8977C58.0574 50.2273 56.8333 51.649 55.7119 53.1524C53.2345 52.9787 50.7509 53.3836 48.4518 54.3358C41.2947 57.5316 39.2508 65.7103 38.7066 69.0683C38.6279 69.5454 38.6587 70.0344 38.7967 70.4975C38.9347 70.9606 39.1762 71.3851 39.5023 71.738C39.8284 72.0909 40.2303 72.3627 40.6769 72.5322C41.1235 72.7018 41.6026 72.7645 42.077 72.7155H42.093L50.0657 71.8326C50.0757 71.9357 50.0868 72.0301 50.0955 72.1168C50.1979 73.1026 50.6311 74.0226 51.3226 74.7227L55.2136 78.6731C55.9026 79.3756 56.8092 79.8158 57.7807 79.9195L58.0472 79.9483L57.1795 88.0276V88.044C57.1376 88.4547 57.1759 88.8698 57.2922 89.2655C57.4084 89.6612 57.6003 90.0297 57.857 90.3502C58.1136 90.6706 58.4299 90.9367 58.7879 91.1331C59.1458 91.3295 59.5384 91.4524 59.9432 91.4949C60.0385 91.5049 60.1341 91.5104 60.2301 91.5114C60.4024 91.5116 60.5744 91.4973 60.7445 91.4687C64.0726 90.9253 72.1297 88.8766 75.2707 81.5758C76.2017 79.251 76.6021 76.7426 76.442 74.2385C77.9304 73.1032 79.3367 71.8612 80.6503 70.5221C85.2159 65.6741 88.8076 59.9705 91.2248 53.7296C93.7895 47.2703 94.755 41.3303 93.8762 37.439ZM80.6057 59.4333C79.5874 60.4675 78.2898 61.1721 76.8768 61.458C75.4638 61.744 73.999 61.5983 72.6676 61.0396C71.3362 60.4809 70.198 59.5341 69.3969 58.319C68.5958 57.104 68.1679 55.6751 68.1672 54.2132C68.1664 52.7514 68.5929 51.3221 69.3927 50.1062C70.1926 48.8903 71.3298 47.9423 72.6607 47.3822C73.9915 46.8221 75.4562 46.6749 76.8694 46.9594C78.2827 47.2438 79.581 47.9471 80.6003 48.9803L80.6057 48.9857C81.9711 50.3503 82.7464 52.2094 82.7609 54.1539C82.7754 56.0985 82.0279 57.9693 80.683 59.3547L80.6057 59.4333Z" fill="white"/>
<path d="M54.7673 79.7446C54.2877 79.6842 53.8027 79.8035 53.4037 80.0803C52.6117 80.6299 51.8159 81.1733 51.0127 81.7028C50.664 81.9304 50.25 82.0325 49.8372 81.9927C49.4244 81.9529 49.0368 81.7735 48.7365 81.4834C48.4363 81.1933 48.2408 80.8092 48.1815 80.3928C48.1223 79.9764 48.2026 79.5519 48.4097 79.1874L49.9157 76.5463C50.131 76.2267 50.2509 75.8509 50.261 75.4639C50.271 75.0769 50.1709 74.6953 49.9726 74.3646C49.7742 74.0339 49.4861 73.7682 49.1427 73.5995C48.7993 73.4308 48.4152 73.3663 48.0365 73.4135C46.365 73.6279 44.8113 74.4004 43.6201 75.6093C43.1664 76.0709 41.7868 77.4719 41.0443 82.8107C40.8329 84.3442 40.6997 85.8878 40.6452 87.4352C40.6385 87.6994 40.6831 87.9623 40.7766 88.209C40.8701 88.4556 41.0105 88.6812 41.1899 88.8728C41.3693 89.0644 41.5841 89.2182 41.8221 89.3255C42.06 89.4328 42.3166 89.4916 42.577 89.4984C42.5941 89.4988 42.6113 89.4991 42.6284 89.4991H42.678C44.2043 89.4442 45.7268 89.3099 47.2395 89.0966C52.5039 88.342 53.8847 86.941 54.3384 86.4807C55.5354 85.2715 56.295 83.6876 56.494 81.9857C56.5577 81.4562 56.4116 80.9228 56.0878 80.5025C55.764 80.0823 55.2891 79.8096 54.7673 79.7446V79.7446Z" fill="white"/>
<defs>
<filter id="filter0_d" x="0" y="0" width="132.853" height="134.679" filterUnits="userSpaceOnUse" color-interpolation-filters="sRGB">
<feFlood flood-opacity="0" result="BackgroundImageFix"/>
<feColorMatrix in="SourceAlpha" type="matrix" values="0 0 0 0 0 0 0 0 0 0 0 0 0 0 0 0 0 0 127 0"/>
<feOffset dy="4"/>
<feGaussianBlur stdDeviation="2"/>
<feColorMatrix type="matrix" values="0 0 0 0 0 0 0 0 0 0 0 0 0 0 0 0 0 0 0.25 0"/>
<feBlend mode="normal" in2="BackgroundImageFix" result="effect1_dropShadow"/>
<feBlend mode="normal" in="SourceGraphic" in2="effect1_dropShadow" result="shape"/>
</filter>
</defs>
</svg>
