<svg width="1632" height="1423" viewBox="0 0 1632 1423" fill="none" xmlns="http://www.w3.org/2000/svg">
<path d="M118.219 630L552.045 1179.46C483.937 1190.24 377.174 1150.22 284.761 1059.3C284.086 1058.67 283.42 1058.01 282.783 1057.35C256.998 1031.76 232.368 1002.17 210.062 968.615C202.715 957.589 195.964 946.411 189.737 935.135C189.374 934.497 189.027 933.871 188.69 933.228C165.663 891.151 150.062 848.095 139.52 808.164C139.348 807.532 139.176 806.899 139.017 806.264C113.548 708.639 118.219 630 118.219 630Z" fill="url(#paint0_radial)"/>
<path d="M477.482 860.676C477.991 861.367 478.488 862.075 478.971 862.771L478.977 862.798C520.416 920.47 546.865 980.314 560.183 1034.9C560.533 1036.35 560.884 1037.79 561.214 1039.25C574.984 1098.37 573.173 1151.02 558.143 1187.48L124.312 638.018C124.312 638.018 179.335 647.741 249.917 679.143C250.508 679.399 251.085 679.658 251.675 679.914C288.74 696.545 329.984 719.138 369.726 749.39C370.283 749.828 370.847 750.238 371.391 750.68C392.445 766.839 413.062 785.169 432.38 805.911C449.003 823.766 464.009 842.112 477.482 860.676Z" fill="#72B5FF"/>
<path d="M0 901.76L491.956 1257.27C439.871 1283.6 343.478 1276.68 245.456 1223.07C244.748 1222.7 244.04 1222.31 243.357 1221.91C215.947 1206.76 188.434 1187.94 161.764 1165.17C152.987 1157.69 144.65 1149.93 136.71 1141.96C136.252 1141.51 135.81 1141.07 135.372 1140.61C105.913 1110.81 82.184 1078.31 63.341 1047.17C63.038 1046.68 62.735 1046.19 62.442 1045.69C16.619 969.498 0 901.76 0 901.76Z" fill="url(#paint1_radial)"/>
<path d="M349.248 1006.29C349.837 1006.75 350.422 1007.22 350.991 1007.69L351.002 1007.71C399.338 1046.05 436.16 1090.03 461.039 1132.87C461.699 1134.01 462.355 1135.14 462.996 1136.29C489.411 1182.85 501.606 1227.87 498.94 1262.52L6.98438 907.008C6.98438 907.008 53.8374 901.345 118.846 910.102C119.388 910.169 119.92 910.243 120.462 910.31C154.636 915.028 193.722 923.737 233.583 939.307C234.145 939.538 234.707 939.742 235.259 939.979C256.411 948.34 277.773 958.648 298.715 971.327C316.735 982.241 333.581 993.98 349.248 1006.29Z" fill="url(#paint2_radial)"/>
<path d="M1375.83 1034.85L1206.02 1374.42C1204.49 1373.86 1202.97 1373.26 1201.5 1372.63C1126.09 1340.66 1131.09 1227.62 1200.67 1146.91C1271.6 1064.62 1375.83 1034.85 1375.83 1034.85Z" fill="url(#paint3_linear)"/>
<path d="M1206.02 1374.43L1375.83 1034.85C1375.83 1034.85 1424.39 1116.42 1404.38 1215.97C1384.38 1315.53 1287.97 1400.04 1206.02 1374.43Z" fill="url(#paint4_linear)"/>
<path d="M330.384 1139.3L271.869 1001.34L341.638 1147.12L421 1202.25C420.4 1203.89 419.756 1205.47 419.075 1207L392.329 1188.42L302.083 1192.62L383.324 1182.16L288.766 1116.46L148.433 1137.56L277.508 1108.64L162.691 1028.87L70.1916 1031.5L149.182 1019.48L9 916L104.684 982.481C104.684 982.481 82.5207 925.575 78.9545 916.681C83.2622 926.184 115.94 990.303 115.94 990.303L209.371 1055.22L157.049 921.559L218.379 1061.48L330.384 1139.3Z" fill="white"/>
<path d="M420.407 996.112L403.322 847.234L428.989 1006.8L489.506 1082.13C488.468 1083.53 487.4 1084.87 486.316 1086.14L465.921 1060.75L378.175 1039.24L459.056 1052.2L386.954 962.427L246.385 942.957L378.368 951.743L290.816 842.742L201.353 819.092L280.515 829.918L175.344 691L248.305 781.839C248.305 781.839 243.15 720.988 242.246 711.448C243.689 721.782 256.888 792.527 256.888 792.527L328.131 881.228L315.769 738.225L335 889.778L420.407 996.112Z" fill="white"/>
<path d="M1243.37 1299.74L1352.48 1254.81L1238.73 1309.02L1206.02 1374.43C1204.49 1373.86 1202.97 1373.26 1201.5 1372.63L1212.53 1350.59L1191.29 1273.95L1216.24 1343.17L1255.21 1265.23L1209.47 1145.56L1259.85 1255.96L1307.18 1161.32L1286.87 1082.82L1312.75 1150.19L1375.84 1034.86L1336.4 1113.72C1336.4 1113.72 1381.79 1096.86 1388.86 1094.13C1381.4 1097.47 1331.76 1123 1331.76 1123L1293.25 1200L1399.81 1160.17L1289.54 1207.43L1243.37 1299.74Z" fill="white"/>
<path d="M1565.47 1201.69L1209.24 1392.01C1208.39 1390.92 1207.58 1389.81 1206.82 1388.7C1167.85 1331.87 1245.57 1246.58 1353.41 1213.78C1463.36 1180.34 1565.47 1201.69 1565.47 1201.69Z" fill="url(#paint5_linear)"/>
<path d="M1209.25 1392L1565.48 1201.68C1565.48 1201.68 1550.79 1285.44 1469.97 1353.91C1389.16 1422.39 1257.55 1446.7 1209.25 1392Z" fill="url(#paint6_linear)"/>
<path d="M1287.59 1350.14L1403.46 1361.84L1277.86 1355.34L1209.24 1392C1208.39 1390.91 1207.58 1389.81 1206.82 1388.69L1229.95 1376.34L1263.11 1308.02L1237.74 1372.18L1319.5 1328.5L1361.28 1216.47L1329.23 1323.3L1428.51 1270.26L1463.61 1200.9L1440.19 1264.02L1565.47 1201.68L1482.74 1245.88C1482.74 1245.88 1529.75 1252.17 1537.13 1253.07C1529.04 1252.47 1473.01 1251.08 1473.01 1251.08L1392.22 1294.24L1502.74 1308.8L1384.43 1298.4L1287.59 1350.14Z" fill="white"/>
<path d="M1493 474.5C1493 500.181 1471.73 521 1445.5 521C1419.27 521 1398 500.181 1398 474.5C1398 448.82 1419.27 428 1445.5 428C1471.73 428 1493 448.82 1493 474.5Z" fill="#EA3968"/>
<path d="M883 248C883 280.033 856.583 306 824.006 306C791.417 306 765 280.033 765 248C765 215.969 791.417 190.001 824.006 190.001C856.583 190.001 883 215.969 883 248Z" fill="#EA3968"/>
<path d="M1007.15 245.451C1007.15 245.451 1007.24 245.418 1007.41 245.343C1008.63 244.826 1014.14 242.612 1022.35 240.611L1022.04 239.317C1012.54 241.624 1006.64 244.221 1006.61 244.233L1007.15 245.451ZM1048.69 237.185C1053.76 237.099 1059.11 237.375 1064.58 238.147L1064.76 236.822C1059.21 236.04 1053.81 235.77 1048.66 235.846L1048.69 237.185ZM1089.92 245.607C1094.53 247.774 1099.11 250.432 1103.59 253.674L1104.37 252.594C1099.82 249.303 1095.17 246.597 1090.49 244.404L1089.92 245.607ZM1122.59 272.094C1124.24 274.197 1125.87 276.423 1127.46 278.771C1128.89 280.883 1130.3 283.024 1131.72 285.2L1132.83 284.472C1131.42 282.293 1130 280.143 1128.57 278.027C1126.96 275.647 1125.31 273.397 1123.64 271.272L1122.59 272.094ZM1145.81 307.89C1148.57 312.449 1151.33 317.033 1154.13 321.613L1155.26 320.92C1152.47 316.341 1149.71 311.757 1146.95 307.198L1145.81 307.89ZM1168.41 344.233C1171.41 348.74 1174.47 353.15 1177.61 357.422L1178.68 356.625C1175.55 352.376 1172.51 347.987 1169.53 343.501L1168.41 344.233ZM1194.73 378.022C1198.51 381.957 1202.43 385.634 1206.53 388.991L1207.38 387.958C1203.33 384.644 1199.44 381.003 1195.69 377.099L1194.73 378.022ZM1229.32 403.123C1234.21 405.237 1239.31 406.897 1244.69 408.048L1244.96 406.737C1239.68 405.612 1234.65 403.976 1229.85 401.894L1229.32 403.123ZM1271.46 409.415C1276.55 408.924 1281.83 408.009 1287.33 406.657L1287.01 405.359C1281.57 406.705 1276.35 407.598 1271.32 408.084L1271.46 409.415ZM1312.64 397.84C1313.96 397.258 1315.29 396.647 1316.63 396.018L1316.07 394.814C1314.73 395.437 1313.41 396.04 1312.1 396.623L1312.64 397.84" fill="#F2BBFF"/>
<path d="M446.836 280.402C446.836 280.402 446.893 280.335 446.997 280.198C447.739 279.237 451.102 275.014 456.45 269.824L455.902 268.851C449.719 274.846 446.163 279.567 446.148 279.588L446.836 280.402ZM474.351 255.736C477.941 253.513 481.821 251.483 485.917 249.82L485.711 248.613C481.559 250.298 477.641 252.359 473.994 254.605L474.351 255.736ZM505.845 245.452C509.675 245.348 513.603 245.679 517.614 246.546L517.897 245.293C513.829 244.412 509.831 244.074 505.95 244.182L505.845 245.452ZM535.782 254.224C537.49 255.318 539.211 256.529 540.933 257.861C542.483 259.058 544.026 260.288 545.583 261.547L546.194 260.453C544.638 259.191 543.086 257.957 541.536 256.756C539.788 255.407 538.05 254.183 536.325 253.076L535.782 254.224ZM561.336 274.947C564.45 277.669 567.569 280.415 570.712 283.142L571.349 282.067C568.205 279.342 565.087 276.596 561.973 273.874L561.336 274.947ZM586.58 296.403C589.852 298.98 593.139 301.45 596.453 303.766L597.012 302.634C593.715 300.331 590.446 297.871 587.193 295.304L586.58 296.403ZM613.834 314.1C617.518 315.858 621.239 317.335 625.004 318.464L625.345 317.224C621.628 316.11 617.944 314.648 614.287 312.904L613.834 314.1ZM644.795 320.873C648.806 320.609 652.863 319.86 656.981 318.566L656.843 317.333C652.8 318.608 648.808 319.342 644.859 319.602L644.795 320.873ZM676.396 308.387C679.9 305.81 683.429 302.791 687.011 299.304L686.453 298.333C682.92 301.786 679.421 304.763 675.966 307.307L676.396 308.387ZM702.819 281.05C703.615 279.992 704.406 278.909 705.203 277.803L704.5 277.013C703.704 278.112 702.915 279.186 702.131 280.238L702.819 281.05" fill="#F2BBFF"/>
<path d="M1536.58 602.29C1536.58 602.29 1536.66 602.431 1536.83 602.705C1538.01 604.633 1543.15 613.246 1548.83 625.413L1550.71 625.675C1544.16 611.613 1538.3 602.251 1538.28 602.21L1536.58 602.29ZM1562.45 662.848C1564.2 669.752 1565.47 676.841 1566.03 683.842L1568.12 684.784C1567.55 677.686 1566.25 670.52 1564.49 663.518L1562.45 662.848ZM1562.67 714.178C1560.81 719.269 1558.2 724.054 1554.66 728.409L1556.56 730.034C1560.16 725.618 1562.82 720.75 1564.69 715.586L1562.67 714.178ZM1532.5 744.378C1529.8 745.507 1526.91 746.534 1523.82 747.442C1521.04 748.262 1518.21 749.039 1515.33 749.805L1516.8 751.698C1519.69 750.937 1522.53 750.151 1525.31 749.336C1528.44 748.411 1531.37 747.374 1534.09 746.236L1532.5 744.378ZM1485.07 756.894C1478.96 758.222 1472.82 759.532 1466.7 760.894L1468.12 762.8C1474.24 761.437 1480.39 760.127 1486.49 758.799L1485.07 756.894ZM1436.6 768.272C1430.65 769.951 1424.87 771.756 1419.33 773.752L1420.89 775.615C1426.4 773.629 1432.16 771.836 1438.08 770.171L1436.6 768.272ZM1393.23 786.035C1388.41 789.071 1384.02 792.438 1380.19 796.209L1382.04 797.897C1385.82 794.171 1390.16 790.838 1394.95 787.823L1393.23 786.035ZM1365.79 819.574C1364.11 825.063 1363.19 831.097 1363.14 837.759L1365.23 838.815C1365.28 832.271 1366.18 826.335 1367.84 820.932L1365.79 819.574ZM1369.56 873.249C1371.93 880.395 1375.01 888.016 1378.83 896.176L1380.71 896.423C1376.92 888.362 1373.89 880.82 1371.55 873.77L1369.56 873.249ZM1400.38 935.062C1401.69 937.158 1403.05 939.275 1404.44 941.421L1406.1 941.296C1404.72 939.159 1403.38 937.054 1402.07 934.978L1400.38 935.062" fill="#F2BBFF"/>
<path d="M344.12 276.875L334.465 249.596L335.81 249.019L345.465 276.313L344.12 276.875Z" fill="white"/>
<path d="M356.04 276.869L365.702 249.584L364.345 249.018L354.684 276.303L356.04 276.869Z" fill="white"/>
<path d="M349.512 276.59H350.964V252.153H349.512V276.59Z" fill="white"/>
<path d="M354.333 0.27697V252.156H335.011C335.011 252.156 233.58 143.72 257.739 67.7693C271.719 23.8132 301.888 8.14217 324.816 2.72557H324.831C332.088 1.00413 338.647 0.321461 343.708 0.0988606C350.252 -0.197939 354.333 0.27697 354.333 0.27697Z" fill="white"/>
<path d="M339.575 252.16H335.003C335.003 252.16 233.571 143.722 257.716 67.7771C271.713 23.8237 301.875 8.14499 324.796 2.74669C241.683 94.5621 339.575 252.16 339.575 252.16Z" fill="url(#paint7_radial)"/>
<path d="M346.125 0.268255V252.143H365.445C365.445 252.143 466.89 143.708 442.74 67.764C428.763 23.8126 398.587 8.12683 375.664 2.7222H375.648C368.365 0.998311 361.842 0.314907 356.763 0.0974797C350.225 -0.1976 346.125 0.268255 346.125 0.268255Z" fill="white"/>
<path d="M356.738 0.101751C354.163 -0.0180167 351.948 -0.0031042 350.226 0.0418086C348.504 -0.0031042 346.304 -0.0180167 343.699 0.101751C301.196 89.5531 343.699 252.152 343.699 252.152H346.124H354.328H356.738C356.738 252.152 399.256 89.5531 356.738 0.101751Z" fill="url(#paint8_radial)"/>
<path d="M360.875 252.148H365.435C365.435 252.148 466.879 143.71 442.739 67.7774C428.751 23.826 398.572 8.14337 375.649 2.7361C458.776 94.5519 360.875 252.148 360.875 252.148Z" fill="url(#paint9_radial)"/>
<path d="M360.181 283.941H340.277V270.181H360.181V283.941Z" fill="url(#paint10_radial)"/>
<path d="M360.875 288.189H339.582V276.598H360.875V288.189Z" fill="url(#paint11_radial)"/>
<g filter="url(#filter0_d)">
<path d="M1112.89 684.075L940.542 701.92C933.966 702.557 929.204 707.178 930.111 712.276L955.509 854.08C956.416 859.179 962.539 862.684 969.115 861.887L1141.46 844.042C1148.03 843.405 1152.8 838.784 1151.89 833.686L1126.49 691.882C1125.58 686.943 1119.46 683.437 1112.89 684.075Z" fill="#110052"/>
</g>
<path d="M1202.22 1349.71C1209.38 1351.09 1233.64 1343.66 1237.69 1340.09C1238.93 1338.99 1240.18 1335.41 1241.11 1334.04C1242.04 1329.36 1244.53 1331.84 1246.71 1331.29C1253.87 1329.91 1272.84 1325.24 1281.56 1329.64C1283.11 1333.21 1283.42 1336.51 1284.36 1338.71C1286.84 1347.79 1288.09 1356.86 1289.02 1365.94C1289.64 1371.71 1285.6 1376.66 1279.69 1377.21C1277.82 1377.21 1275.64 1377.21 1273.78 1376.94C1258.53 1373.36 1228.04 1372.54 1216.22 1367.86C1196.31 1363.19 1185.11 1353.29 1202.22 1349.71Z" fill="#2E2976"/>
<path d="M966.711 1360.44C973.555 1362.09 998.755 1356.31 1002.8 1353.01C1004.36 1351.92 1005.6 1348.62 1006.84 1347.24C1008.09 1342.84 1010.27 1345.04 1012.76 1344.77C1019.91 1343.67 1039.2 1340.09 1047.91 1345.04C1049.47 1348.62 1049.16 1352.19 1050.09 1354.11C1051.64 1363.19 1052.89 1372.54 1053.2 1381.61C1053.51 1387.39 1048.84 1392.06 1042.93 1392.34C1041.07 1392.34 1038.89 1392.34 1037.02 1391.79C1022.09 1387.39 991.6 1384.64 980.089 1379.41C960.177 1373.64 949.6 1362.91 966.711 1360.44Z" fill="#2E2976"/>
<path d="M1282.8 1330.19C1270.98 1331.84 1242.04 1332.12 1242.04 1332.12C1242.04 1332.12 1240.18 1318.64 1231.47 1292.79C1222.44 1266.67 1177.64 1184.45 1177.64 1184.45C1168.31 1170.97 1158.67 1143.2 1158.67 1143.2L1145.29 1036.78C1145.29 1036.78 1074.04 1142.92 1075.29 1167.12C1076.22 1191.32 1058.8 1285.37 1058.8 1285.37C1056.93 1299.39 1048.22 1346.14 1048.22 1346.14C1035.15 1344.49 1021.78 1344.21 1008.4 1345.04C1010.27 1325.79 1017.42 1246.32 1017.42 1246.32C1017.42 1246.32 1022.09 1184.72 1023.02 1147.32C1023.95 1109.93 1051.95 1030.73 1070.62 994.707C1073.11 988.657 1075.29 982.332 1076.84 976.008L1242.98 996.082C1239.24 1006.26 1236.13 1016.43 1233.95 1026.88C1224.31 1073.9 1217.47 1152.82 1217.47 1152.82C1243.6 1180.87 1259.78 1233.94 1259.78 1233.94C1270.04 1265.84 1282.8 1330.19 1282.8 1330.19Z" fill="#000749"/>
<path d="M1098.01 678.742C1123.52 674.067 1149.96 682.867 1149.96 682.867L1154.32 684.242L1181.7 717.79L1156.5 711.465C1149.65 709.265 1136.58 705.69 1130.36 706.24C1125.7 705.965 1115.12 708.165 1110.14 704.041C1106.41 702.391 1105.47 699.366 1097.7 691.941C1092.1 685.891 1093.65 684.241 1091.47 683.417C1088.36 682.042 1090.85 679.292 1098.01 678.742Z" fill="#FFB8B8"/>
<path d="M1196.63 639.145C1199.74 639.145 1263.52 686.167 1264.14 691.392C1264.14 694.142 1264.46 706.241 1266.63 713.941C1268.81 721.365 1275.03 731.815 1275.03 731.815C1275.03 731.815 1269.43 741.714 1255.12 743.639C1241.43 745.564 1223.08 741.164 1223.08 741.164C1223.08 741.164 1227.43 715.041 1222.14 712.291C1217.48 709.816 1216.23 712.291 1200.68 699.917C1185.12 687.542 1190.1 655.369 1190.41 653.444C1190.41 651.244 1193.52 639.145 1196.63 639.145Z" fill="#FFB8B8"/>
<path d="M1048.61 829.715C1050.02 829.648 1050.55 834.666 1051.77 834.973C1060.07 838.166 1070.83 841.972 1078.63 853.694C1080.69 857 1082.56 860.678 1084.17 864.43L1071.99 877.155C1069.01 876.689 1066.29 876.148 1063.68 874.935C1055.29 871.442 1042.95 862.911 1039.96 841.788C1038.99 837.217 1043.67 830.434 1048.61 829.715Z" fill="#FFB8B8"/>
<path d="M1275.96 641.899C1274.72 639.424 1271.6 634.199 1269.74 632.274C1266.63 629.249 1263.52 626.224 1260.09 623.475C1256.98 621.55 1249.2 617.7 1246.09 616.325C1235.52 613.3 1221.2 616.325 1210.63 616.875C1200.98 616.325 1194.14 627.599 1190.4 635.024C1186.67 642.449 1193.83 641.624 1193.2 647.398C1193.2 648.498 1196.32 650.148 1199.12 651.523C1201.92 652.898 1209.69 664.997 1212.49 670.497C1215.29 656.748 1224.94 681.222 1223.07 684.247C1226.8 686.721 1231.47 696.621 1238.63 699.646C1243.29 697.721 1252.32 690.021 1264.45 692.221C1265.38 690.021 1277.2 681.772 1278.45 667.472C1278.76 663.348 1279.69 648.223 1275.96 641.899Z" fill="#4821DB"/>
<path opacity="0.07" d="M1239.55 704.049C1239.55 704.049 1228.97 713.123 1222.44 713.123L1224 720.823L1223.69 732.097C1223.69 732.097 1227.73 725.773 1233.02 719.448C1236.13 714.773 1238.62 709.549 1239.55 704.049Z" fill="black"/>
<path opacity="0.07" d="M1145.29 1037.05C1145.29 1037.05 1164.89 1077.75 1170.49 1097.55C1176.4 1118.18 1176.4 1147.87 1193.52 1162.45C1213.12 1178.95 1236.14 1234.22 1241.74 1245.77C1249.2 1262.54 1264.76 1354.66 1260.4 1360.99C1256.05 1367.31 1238.32 1357.96 1238.32 1357.96C1238.32 1357.96 1244.85 1334.59 1239.25 1313.42C1233.65 1292.24 1207.83 1235.59 1191.65 1207.55C1177.03 1182.52 1162.09 1153.37 1158.67 1136.6C1155.25 1119.55 1145.29 1037.05 1145.29 1037.05Z" fill="black"/>
<path d="M552.116 1257.81L527.781 1262.65C527.781 1262.65 521.871 1279.3 519.09 1288.38C518.742 1288.99 518.394 1290.5 518.047 1291.41C517.699 1292.93 517.352 1294.44 517.352 1295.95C518.047 1303.82 521.523 1310.79 529.519 1314.42C538.558 1318.36 545.511 1321.99 555.245 1314.42C564.632 1306.85 566.37 1302.01 562.546 1288.69C558.722 1275.37 552.116 1257.81 552.116 1257.81Z" fill="#2E2976"/>
<path d="M692.908 1285.36C676.568 1280.82 669.615 1263.26 669.615 1263.26L636.589 1261.74C636.589 1261.74 635.893 1279.61 634.851 1289.29C633.808 1302.31 636.589 1308.06 646.323 1307.16C659.534 1306.25 713.767 1310.49 722.11 1305.64C733.583 1300.19 708.204 1289.6 692.908 1285.36Z" fill="#2E2976"/>
<path d="M501.349 853.641C501.349 853.641 489.181 868.475 485.01 908.135C481.185 947.795 489.877 1023.18 493.701 1037.71C497.873 1052.24 513.864 1188.48 518.036 1198.47C522.208 1208.46 527.423 1262.65 527.423 1262.65L553.496 1263.26C553.496 1263.26 561.145 1192.41 561.145 1173.64C561.145 1154.87 571.922 977.767 571.227 964.749C570.531 951.731 574.008 955.969 574.008 955.969C574.008 955.969 596.952 1019.24 603.558 1029.84C610.511 1040.44 622.331 1061.02 622.331 1061.02C622.331 1061.02 625.112 1127.32 628.241 1165.77C631.37 1204.22 635.194 1264.77 635.194 1264.77L670.306 1264.16C670.306 1264.16 678.302 1163.05 678.302 1141.55C678.302 1120.36 685.603 1069.2 685.603 1063.14C685.603 1057.09 662.658 953.85 662.658 953.85L646.666 853.035L501.349 853.641Z" fill="#000749"/>
<path d="M542.738 519.714C530.917 523.649 515.621 575.116 515.621 575.116L515.273 574.813L508.668 580.566L511.449 591.465L522.922 761.911L582.717 750.709L635.212 702.27L667.891 715.591C667.891 715.591 670.325 777.654 670.672 780.984C671.02 784.314 676.582 877.863 676.582 884.22C676.93 890.881 708.914 920.247 714.128 916.917C729.773 907.229 703.699 889.67 697.441 885.129C693.617 882.707 685.969 795.516 685.273 785.222C684.578 774.929 703.351 748.893 671.02 714.38C647.38 689.252 634.517 624.767 614.701 551.502C604.271 513.356 598.014 502.154 587.584 502.154C578.545 502.76 565.682 512.448 542.738 519.714Z" fill="#FFB8B8"/>
<path d="M532.649 665.032C532.301 665.638 509.704 674.72 499.97 685.316C490.236 695.61 482.24 710.747 482.24 710.747C482.24 710.747 467.986 740.113 457.904 761.911C452.69 773.718 434.959 821.552 456.166 823.369C475.982 824.882 519.786 784.314 526.739 776.746L534.387 761.911C535.082 760.095 522.567 740.113 522.915 738.297C523.262 735.269 552.117 720.738 556.289 729.517C557.679 732.545 561.504 740.719 562.894 743.141C565.675 749.499 523.957 761.608 523.957 767.058C523.957 774.021 520.481 799.452 514.919 811.864C509.356 824.277 500.665 853.946 500.665 853.946L647.373 854.249C647.373 854.249 642.506 797.332 644.592 778.562C644.592 778.562 650.849 716.499 654.673 710.444C658.498 704.389 664.755 787.039 663.712 803.993C663.017 815.8 675.185 886.945 678.661 889.367C684.223 893.303 697.782 885.432 697.782 885.432C697.782 885.432 697.086 807.323 696.739 794.608C696.044 781.59 697.086 676.839 677.271 657.766C657.455 638.996 652.24 639.299 635.9 644.445C619.561 649.289 611.565 654.133 589.315 657.464C575.757 659.583 561.504 658.069 548.988 653.225C552.465 642.326 545.164 660.794 546.207 655.647" fill="white"/>
<path d="M554.209 490.35C554.209 490.35 525.007 491.258 516.663 516.083C508.32 540.908 507.277 575.724 506.929 581.174C506.582 586.926 510.058 625.98 506.234 636.879C502.757 646.567 493.719 664.126 487.808 676.539C485.723 681.383 483.984 686.529 482.941 691.676L482.246 695.914C483.637 700.153 489.199 702.878 494.066 701.364C494.414 701.061 494.761 701.061 495.109 701.061C497.89 699.85 500.671 698.639 503.453 697.125C512.144 692.584 523.616 680.172 532.307 676.236C541.694 672.3 552.471 653.53 553.862 652.319C555.252 651.108 554.905 646.264 554.905 641.723C555.948 618.411 550.733 597.219 544.475 586.017C538.218 574.816 523.964 553.018 533.698 540.303C543.78 527.587 564.291 517.597 565.334 514.569C566.377 511.542 566.725 526.679 577.849 532.129C588.974 537.578 604.271 552.11 604.271 555.44C604.271 558.77 608.095 569.064 597.318 587.228C586.888 605.393 578.545 628.402 593.146 645.659C607.747 662.915 644.25 686.832 646.684 692.282C649.117 697.731 646.684 721.951 645.641 735.574C644.598 749.198 675.191 712.263 674.148 694.703C673.105 676.841 676.582 669.273 656.07 642.328C635.559 615.384 621.653 568.458 621.306 557.257C620.61 545.752 614.353 514.569 601.837 505.487C591.06 497.918 588.627 490.35 566.377 490.35C562.901 489.744 558.381 490.047 554.209 490.35Z" fill="#4821DB"/>
<g opacity="0.07">
<path d="M541.007 1262.35C541.354 1262.95 541.354 1263.25 541.354 1263.86C541.702 1267.49 541.354 1276.27 536.835 1281.72C531.272 1288.99 544.483 1305.34 544.483 1309.27C544.483 1313.21 538.573 1316.84 534.054 1315.93C529.882 1314.72 512.152 1306.24 519.105 1287.47C521.886 1279.91 523.624 1273.24 525.015 1269.31C526.058 1267.19 526.753 1265.07 527.448 1262.95C527.796 1262.04 527.796 1261.13 527.796 1259.92C527.448 1258.71 527.448 1257.2 527.448 1255.69C526.405 1248.42 491.64 1023.78 490.25 1015.3C489.207 1007.74 483.992 960.205 484.687 932.352C484.34 929.93 484.34 927.508 484.34 925.389C484.34 924.783 484.687 922.059 484.687 920.848C485.035 918.426 485.035 915.701 485.383 913.279C484.687 911.16 485.035 911.16 485.383 907.83C485.73 904.499 485.383 902.683 485.73 900.564C489.207 881.793 497.203 860.298 501.027 854.243L502.07 850.913C502.07 850.913 510.761 822.455 513.89 817.006C516.324 812.162 523.972 787.034 522.929 781.887C522.581 778.859 534.401 767.658 534.401 767.658L536.835 765.841C537.878 765.539 539.268 765.841 540.311 766.144C542.745 767.052 552.827 759.484 554.565 764.328C566.385 797.024 571.252 810.951 550.393 830.629C529.534 850.308 548.655 867.564 549.002 881.491C550.045 915.398 530.925 911.765 529.882 932.957C528.839 954.15 534.054 969.287 534.401 980.489C535.444 1016.82 534.749 1024.08 532.663 1038.31C530.577 1052.54 519.105 1079.49 531.62 1132.77C544.135 1186.05 542.397 1190.59 541.007 1220.87C539.616 1250.54 541.007 1262.35 541.007 1262.35Z" fill="black"/>
</g>
<path d="M521.524 713.159L521.871 712.857C523.262 712.251 531.953 708.315 538.211 706.196C545.164 703.774 553.16 724.058 555.246 727.994C555.593 728.297 555.593 728.297 553.855 728.599C548.988 729.205 543.773 729.81 539.254 731.021C532.301 732.535 524.305 737.379 523.957 737.379C523.61 737.682 521.524 733.746 517.352 724.664C516.309 722.545 514.571 717.095 516.309 715.884L521.524 713.159Z" fill="#110052"/>
<path opacity="0.07" d="M574.383 606.297C578.902 607.811 583.769 606.902 587.246 603.875C593.156 598.728 585.16 616.59 586.203 620.526C587.593 624.159 574.383 606.297 574.383 606.297Z" fill="black"/>
<path d="M534.391 760.096C534.391 760.096 562.203 744.353 562.55 744.958C563.245 746.472 565.679 752.224 565.679 752.224C565.679 752.224 567.765 755.857 567.07 757.068C566.374 758.279 539.953 767.967 539.953 767.967C538.91 767.664 537.867 767.362 537.519 766.453C536.476 764.637 535.434 762.518 534.391 760.096Z" fill="#110052"/>
<path d="M1103.55 818.263L1005.83 828.355C987.936 830.203 972.482 826.757 971.492 820.696L956.801 730.831C955.81 724.77 969.643 718.299 987.534 716.451L1085.25 706.359C1103.15 704.511 1118.59 707.958 1119.58 714.02L1134.28 803.884C1135.27 809.945 1121.44 816.415 1103.55 818.263Z" fill="url(#paint12_linear)"/>
<path d="M1123.84 859.41C1144.68 841.261 1157.75 785.164 1164.28 771.14C1170.82 757.116 1181.39 752.991 1185.75 751.616C1187.93 750.791 1199.13 747.766 1207.84 745.566L1145.93 708.443C1137.53 693.319 1154.02 684.244 1154.02 684.244L1224.33 717.792V740.616L1247.04 737.042L1274.42 731.817C1282.82 729.892 1291.22 728.792 1299.93 727.967C1303.35 727.692 1307.08 727.967 1310.5 729.342L1312.37 729.892C1316.73 731.267 1320.15 734.292 1322.33 738.141C1326.68 747.216 1329.79 757.116 1331.04 767.29C1333.53 783.514 1320.46 820.087 1307.39 846.761C1301.48 858.035 1279.08 916.333 1273.48 930.907C1246.1 991.954 1243.93 996.629 1243.93 996.629C1159.62 995.804 1077.17 977.93 1077.17 977.93C1073.44 971.33 1111 917 1111 917L1045 859.41C1033.8 862.71 1086.5 859.41 1086.5 859.41C1086.5 859.41 1106.1 874.535 1123.84 859.41Z" fill="white"/>
<ellipse cx="1032" cy="703" rx="5" ry="4" fill="#334BAE"/>
<path fill-rule="evenodd" clip-rule="evenodd" d="M1445.76 451.428C1450.77 451.428 1455.42 452.985 1459.25 455.641L1454.62 460.298C1452.03 458.751 1449 457.863 1445.76 457.863C1436.13 457.863 1428.33 465.714 1428.33 475.4C1428.33 485.085 1436.13 492.937 1445.76 492.937C1455.39 492.937 1463.19 485.085 1463.19 475.4C1463.19 472.143 1462.31 469.095 1460.77 466.482L1465.4 461.825C1468.04 465.685 1469.59 470.36 1469.59 475.4C1469.59 488.639 1458.92 499.372 1445.76 499.372C1432.6 499.372 1421.93 488.639 1421.93 475.4C1421.93 462.161 1432.6 451.428 1445.76 451.428ZM1446.85 476.493C1446.25 477.097 1445.27 477.097 1444.67 476.493C1444.07 475.889 1444.07 474.91 1444.67 474.306L1463.9 454.962L1464.34 448.75L1469.31 443.139L1469.74 449.093C1470.34 448.489 1471.31 448.489 1471.91 449.093C1472.51 449.696 1472.51 450.676 1471.91 451.28L1471.91 451.284L1477.77 451.716L1472.19 456.705L1466.08 457.141L1446.85 476.493ZM1445.76 464.491C1447.15 464.491 1448.49 464.756 1449.71 465.239L1445.3 469.674C1442.36 469.907 1440.05 472.381 1440.05 475.4C1440.05 478.573 1442.61 481.144 1445.76 481.144C1448.76 481.144 1451.22 478.816 1451.45 475.858L1455.86 471.423C1456.34 472.656 1456.6 473.997 1456.6 475.4C1456.6 481.424 1451.75 486.308 1445.76 486.308C1439.77 486.308 1434.92 481.424 1434.92 475.4C1434.92 469.375 1439.77 464.491 1445.76 464.491Z" fill="white"/>
<path fill-rule="evenodd" clip-rule="evenodd" d="M845.025 223.522H846.204C849.54 223.522 852.27 226.092 852.27 229.232V233.514C852.27 236.654 849.54 239.224 846.204 239.224H845.025C841.687 239.224 838.959 236.654 838.959 233.514V229.232C838.959 226.092 841.687 223.522 845.025 223.522ZM823.022 219H824.978C830.52 219 835.054 223.267 835.054 228.483V235.594C835.054 240.81 830.52 245.077 824.978 245.077H823.022C817.48 245.077 812.946 240.81 812.946 235.594V228.483C812.946 223.267 817.48 219 823.022 219ZM823.999 283L820.65 278.809L822.184 256.805H823.999H825.816L827.35 278.809L823.999 283ZM811.547 249.555H817.338L819.299 252.489C820.088 253.668 820.313 254.952 819.972 256.305C819.941 256.423 819.922 256.542 819.915 256.663L818.378 278.667C818.376 278.714 818.374 278.761 818.374 278.809H803.429V257.194C803.429 252.993 807.083 249.555 811.547 249.555ZM830.662 249.555H836.453C840.917 249.555 844.571 252.993 844.571 257.194V278.809H829.626C829.626 278.761 829.624 278.714 829.622 278.667L828.085 256.663C828.076 256.542 828.059 256.423 828.028 256.305C827.687 254.952 827.912 253.668 828.701 252.489L830.662 249.555ZM801.796 223.522H802.975C806.311 223.522 809.041 226.092 809.041 229.232V233.514C809.041 236.654 806.311 239.224 802.975 239.224H801.796C798.458 239.224 795.73 236.654 795.73 233.514V229.232C795.73 226.092 798.458 223.522 801.796 223.522ZM809.883 241.919C810.325 241.919 810.751 241.975 811.157 242.08C812.071 243.553 813.287 244.841 814.723 245.872C814.734 245.954 814.745 246.034 814.752 246.116H811.547C805.067 246.116 799.779 251.096 799.779 257.194V259.534H790V246.52C790 243.989 792.199 241.919 794.888 241.919C799.886 241.919 804.885 241.919 809.883 241.919ZM853.112 241.919C855.801 241.919 858 243.989 858 246.52V259.534H848.221V257.194C848.221 251.096 842.933 246.116 836.453 246.116H833.248C833.255 246.034 833.266 245.954 833.277 245.872C834.713 244.841 835.929 243.553 836.843 242.08C837.249 241.975 837.675 241.919 838.115 241.919C843.115 241.919 848.114 241.919 853.112 241.919Z" fill="white"/>
<defs>
<filter id="filter0_d" x="926" y="684" width="230" height="186" filterUnits="userSpaceOnUse" color-interpolation-filters="sRGB">
<feFlood flood-opacity="0" result="BackgroundImageFix"/>
<feColorMatrix in="SourceAlpha" type="matrix" values="0 0 0 0 0 0 0 0 0 0 0 0 0 0 0 0 0 0 127 0"/>
<feOffset dy="4"/>
<feGaussianBlur stdDeviation="2"/>
<feColorMatrix type="matrix" values="0 0 0 0 0 0 0 0 0 0 0 0 0 0 0 0 0 0 0.25 0"/>
<feBlend mode="normal" in2="BackgroundImageFix" result="effect1_dropShadow"/>
<feBlend mode="normal" in="SourceGraphic" in2="effect1_dropShadow" result="shape"/>
</filter>
<radialGradient id="paint0_radial" cx="0" cy="0" r="1" gradientUnits="userSpaceOnUse" gradientTransform="translate(171.593 387.689) rotate(-56.6369) scale(1022.37)">
<stop stop-color="#4B89CB"/>
<stop offset="0.145733" stop-color="#72B5FF"/>
<stop offset="0.145833" stop-color="#4E9BD5"/>
<stop offset="0.328125" stop-color="#4B88CB"/>
<stop offset="0.838542" stop-color="#72B5FF"/>
<stop offset="1" stop-color="#4FA4D9"/>
</radialGradient>
<radialGradient id="paint1_radial" cx="0" cy="0" r="1" gradientUnits="userSpaceOnUse" gradientTransform="translate(240.959 1082.23) rotate(-117.128) scale(273.549 143.572)">
<stop offset="0.28125" stop-color="#F6795A"/>
<stop offset="0.723958" stop-color="#EA3968"/>
<stop offset="1" stop-color="#EA3968"/>
</radialGradient>
<radialGradient id="paint2_radial" cx="0" cy="0" r="1" gradientUnits="userSpaceOnUse" gradientTransform="translate(264.349 1078.59) rotate(-117.128) scale(273.549 150.813)">
<stop stop-color="#EA3968"/>
<stop offset="1" stop-color="#F6795A"/>
</radialGradient>
<linearGradient id="paint3_linear" x1="1295.25" y1="878.543" x2="1255.3" y2="1294.78" gradientUnits="userSpaceOnUse">
<stop stop-color="#50A9DC"/>
<stop offset="0.00034055" stop-color="#4259B1"/>
<stop offset="0.734375" stop-color="#71B4FF"/>
<stop offset="0.997817" stop-color="#71B4FF"/>
</linearGradient>
<linearGradient id="paint4_linear" x1="1438.83" y1="967.732" x2="1349.38" y2="1291.72" gradientUnits="userSpaceOnUse">
<stop stop-color="#71B4FF"/>
<stop offset="0.00034055" stop-color="#4259B1"/>
<stop offset="0.651042" stop-color="#50A9DC"/>
<stop offset="0.999239" stop-color="#71B4FF"/>
</linearGradient>
<linearGradient id="paint5_linear" x1="1472.64" y1="1172.12" x2="1233.84" y2="1521.11" gradientUnits="userSpaceOnUse">
<stop stop-color="#4A85C9"/>
<stop offset="0.692708" stop-color="#72B5FF"/>
<stop offset="0.99365" stop-color="white"/>
</linearGradient>
<linearGradient id="paint6_linear" x1="1659.24" y1="1176.59" x2="1406.05" y2="1419.44" gradientUnits="userSpaceOnUse">
<stop stop-color="#4B8ACC"/>
<stop offset="0.869792" stop-color="#6DADF9"/>
<stop offset="0.99365" stop-color="#72B5FF"/>
</linearGradient>
<radialGradient id="paint7_radial" cx="0" cy="0" r="1" gradientUnits="userSpaceOnUse" gradientTransform="translate(631.88 127.38) scale(534.242 583.201)">
<stop stop-color="#E20081"/>
<stop offset="0.5464" stop-color="#FFB048"/>
<stop offset="1" stop-color="#FFFC9F"/>
</radialGradient>
<radialGradient id="paint8_radial" cx="0" cy="0" r="1" gradientUnits="userSpaceOnUse" gradientTransform="translate(460.577 -242.368) scale(934.438 1020.07)">
<stop stop-color="#E20081"/>
<stop offset="0.5464" stop-color="#FFB048"/>
<stop offset="1" stop-color="#FFFC9F"/>
</radialGradient>
<radialGradient id="paint9_radial" cx="0" cy="0" r="1" gradientUnits="userSpaceOnUse" gradientTransform="translate(699.207 52.4645) rotate(180) scale(557.998 609.135)">
<stop stop-color="#E20081"/>
<stop offset="0.5464" stop-color="#FFB048"/>
<stop offset="1" stop-color="#FFFC9F"/>
</radialGradient>
<radialGradient id="paint10_radial" cx="0" cy="0" r="1" gradientUnits="userSpaceOnUse" gradientTransform="translate(635.801 124.249) scale(216.516 236.36)">
<stop stop-color="#7929B7"/>
<stop offset="0.00055627" stop-color="#7929B7"/>
<stop offset="0.0501306" stop-color="#7628B5"/>
<stop offset="1" stop-color="#310B7A"/>
</radialGradient>
<radialGradient id="paint11_radial" cx="0" cy="0" r="1" gradientUnits="userSpaceOnUse" gradientTransform="translate(647.139 99.9125) scale(70.448 76.9038)">
<stop stop-color="#E20081"/>
<stop offset="0.5464" stop-color="#FFB048"/>
<stop offset="1" stop-color="#FFFC9F"/>
</radialGradient>
<linearGradient id="paint12_linear" x1="1054.68" y1="823.309" x2="1043.06" y2="710.717" gradientUnits="userSpaceOnUse">
<stop offset="0.140625" stop-color="#3762C5"/>
<stop offset="1" stop-color="#5689FF" stop-opacity="0.29"/>
</linearGradient>
</defs>
</svg>
