<svg width="1531" height="876" viewBox="0 0 1531 876" fill="none" xmlns="http://www.w3.org/2000/svg">
<g filter="url(#filter0_d)">
<path d="M956.788 11.5985H362.669C350.288 11.5985 323.434 30.5823 323.434 50.2621V738.049C323.434 757.767 333.504 773.735 345.885 773.735H952.298C981.812 773.735 996.198 757.767 996.198 738.049V50.3008C996.198 30.5823 969.169 11.5985 956.788 11.5985Z" fill="#F9F9F9"/>
</g>
<g filter="url(#filter1_d)">
<path d="M922.404 143.944H424.719V558.611H922.404V143.944Z" fill="white"/>
<path d="M425.219 558.111V144.444H921.904V558.111H425.219Z" stroke="#FFFCFC"/>
</g>
<g filter="url(#filter2_d)">
<path d="M1477.37 154.654H1098.09C1094.4 154.654 1090.75 155.298 1087.34 156.549C1083.94 157.801 1080.84 159.635 1078.23 161.947C1075.63 164.259 1073.56 167.004 1072.15 170.025C1070.74 173.046 1070.01 176.284 1070.01 179.553V633.077C1070.01 636.347 1070.74 639.585 1072.15 642.606C1073.56 645.627 1075.63 648.372 1078.23 650.684C1080.84 652.996 1083.94 654.83 1087.34 656.081C1090.75 657.333 1094.4 657.977 1098.09 657.977H1477.37C1481.05 657.977 1484.71 657.333 1488.11 656.081C1491.52 654.83 1494.61 652.996 1497.22 650.684C1499.83 648.372 1501.89 645.627 1503.31 642.606C1504.72 639.585 1505.44 636.347 1505.44 633.077V179.747C1505.47 176.461 1504.77 173.202 1503.37 170.159C1501.97 167.116 1499.91 164.348 1497.3 162.015C1494.69 159.682 1491.58 157.831 1488.16 156.568C1484.74 155.304 1481.07 154.654 1477.37 154.654Z" fill="#F9F9F9"/>
</g>
<path d="M1452.96 816.382C1496.03 816.382 1531 811.743 1531 806.059C1531 800.376 1496.12 795.736 1452.96 795.736C1409.8 795.736 1374.93 800.376 1374.93 806.059C1374.93 811.743 1409.89 816.382 1452.96 816.382Z" fill="url(#paint0_linear)"/>
<path d="M672.938 816.614C716.01 816.614 750.974 811.975 750.974 806.291C750.974 800.607 716.097 795.968 672.938 795.968C629.779 795.968 594.902 800.607 594.902 806.291C594.902 811.975 629.822 816.614 672.938 816.614Z" fill="url(#paint1_linear)"/>
<path d="M179.046 876C277.921 876 358.093 872.443 358.093 868.074C358.093 863.705 277.921 860.148 179.046 860.148C80.172 860.148 0 863.705 0 868.074C0 872.443 80.172 876 179.046 876Z" fill="#012666"/>
<path d="M1390.35 297.71H1388.09V241.802C1388.08 233.257 1384.28 225.058 1377.49 218.991C1374.15 216.002 1370.17 213.629 1365.78 212.01C1361.4 210.391 1356.69 209.557 1351.94 209.557H1219.63C1214.88 209.557 1210.18 210.391 1205.8 212.01C1201.41 213.629 1197.43 216.002 1194.09 218.991C1187.3 225.058 1183.49 233.257 1183.49 241.802V547.747C1183.49 556.293 1187.3 564.491 1194.09 570.559C1197.43 573.548 1201.41 575.92 1205.8 577.539C1210.18 579.158 1214.88 579.992 1219.63 579.993H1351.94C1356.69 579.992 1361.4 579.158 1365.78 577.539C1370.17 575.92 1374.15 573.548 1377.49 570.559C1384.28 564.491 1388.08 556.293 1388.09 547.747V337.263H1390.35V297.71Z" fill="#3F3D56"/>
<path d="M1351.95 217.947H1334.51C1335.68 220.57 1335.73 223.481 1334.66 226.135C1333.58 228.79 1331.45 231.006 1328.67 232.369C1326.82 233.252 1324.75 233.717 1322.65 233.722H1246.97C1244.86 233.718 1242.79 233.253 1240.94 232.37C1239.08 231.486 1237.5 230.211 1236.33 228.657C1235.17 227.092 1234.45 225.301 1234.24 223.435C1234.02 221.57 1234.32 219.687 1235.11 217.947H1218.98C1215.43 217.95 1211.91 218.577 1208.64 219.791C1205.36 221.006 1202.39 222.784 1199.89 225.023C1194.82 229.559 1191.98 235.688 1192 242.073V547.516C1191.96 553.852 1194.73 559.947 1199.71 564.489C1202.21 566.728 1205.18 568.506 1208.46 569.721C1211.74 570.935 1215.26 571.562 1218.81 571.564H1351.77C1355.33 571.562 1358.84 570.935 1362.12 569.721C1365.4 568.506 1368.37 566.728 1370.87 564.489C1375.94 559.953 1378.77 553.823 1378.76 547.438V241.996C1378.77 235.612 1375.93 229.484 1370.87 224.945C1365.85 220.489 1359.05 217.974 1351.95 217.947Z" fill="white"/>
<path d="M794.274 406.741H491.504V419.539H794.274V406.741Z" fill="#F4F4F4"/>
<path d="M794.274 448.033H491.504V460.831H794.274V448.033Z" fill="#71B4FF"/>
<path d="M794.274 489.288H491.504V502.085H794.274V489.288Z" fill="#F4F4F4"/>
<path d="M1363.28 409.834H1210.7V420.892H1363.28V409.834Z" fill="#F4F4F4"/>
<path d="M1363.28 444.243H1210.7V455.301H1363.28V444.243Z" fill="#F4F4F4"/>
<path d="M1363.28 478.54H1210.7V489.598H1363.28V478.54Z" fill="#F4F4F4"/>
<path d="M1397.33 624.068V596.811H1367.86V624.068H1397.33Z" fill="#3F3D56"/>
<path d="M1349.86 624.068V596.811H1320.39V624.068H1349.86Z" fill="#F9B564"/>
<path d="M1302.42 624.068V596.811H1272.95V624.068H1302.42Z" fill="#3F3D56"/>
<path d="M1254.95 624.068V596.811H1225.48V624.068H1254.95Z" fill="#3F3D56"/>
<path d="M1207.51 624.068V596.811H1177.91V624.068H1207.51Z" fill="#3F3D56"/>
<path d="M1314.42 282.244H1256.39C1252.82 282.244 1249.39 283.502 1246.87 285.743C1244.34 287.983 1242.92 291.022 1242.92 294.191V348.9C1242.92 352.068 1244.34 355.107 1246.87 357.347C1249.39 359.588 1252.82 360.847 1256.39 360.847H1314.33C1316.1 360.847 1317.85 360.538 1319.49 359.937C1321.12 359.337 1322.61 358.457 1323.86 357.347C1325.11 356.238 1326.1 354.921 1326.78 353.471C1327.45 352.022 1327.8 350.468 1327.8 348.9V294.152C1327.79 291.003 1326.38 287.986 1323.87 285.756C1321.37 283.526 1317.97 282.264 1314.42 282.244Z" fill="#F9B564"/>
<path d="M603.844 485.847L602.58 488.205L598.787 470.536C598.787 470.536 593.686 451.707 603.888 451.707C614.089 451.707 611.517 470.536 611.517 470.536V483.295L603.844 485.847Z" fill="#A0616A"/>
<path d="M770.591 483.296L771.855 485.654L775.648 467.985C775.648 467.985 780.748 449.156 770.547 449.156C760.346 449.156 762.918 467.985 762.918 467.985V480.937L770.591 483.296Z" fill="#A0616A"/>
<path d="M659.774 618.192L644.516 705.263L652.145 789.975L669.932 782.899L667.403 719.336L685.277 668.88L689.07 728.886L681.441 791.25L704.328 793.609L720.851 665.323L719.587 621.788L659.774 618.192Z" fill="#1F2D4F"/>
<path d="M659.778 779.382L651.059 792.335V821.255C651.057 822.087 651.381 822.893 651.974 823.536C652.541 824.166 653.347 824.592 654.241 824.735C658.601 825.392 666.186 825.856 668.845 821.758C672.638 815.881 670.11 802.929 670.11 802.929C670.11 802.929 675.21 793.533 672.638 786.458C670.066 779.382 667.538 778.223 667.538 778.223L659.778 779.382Z" fill="#1F2D4F"/>
<path d="M697.88 791.174L700.409 794.693C700.409 794.693 704.201 798.211 701.673 800.57C699.796 802.403 698.09 804.368 696.572 806.446C696.572 806.446 682.578 809.965 682.578 805.286V789.821L697.88 791.174Z" fill="#1F2D4F"/>
<path d="M693.297 522.383C696.769 522.49 700.199 521.676 703.145 520.044C706.092 518.411 708.422 516.035 709.836 513.22C711.25 510.406 711.683 507.28 711.081 504.246C710.479 501.211 708.868 498.405 706.455 496.187C704.043 493.97 700.938 492.442 697.54 491.8C694.142 491.159 690.605 491.432 687.383 492.585C684.16 493.737 681.4 495.718 679.456 498.272C677.511 500.825 676.471 503.836 676.469 506.917C676.466 510.927 678.219 514.781 681.359 517.666C684.498 520.551 688.778 522.242 693.297 522.383Z" fill="#A0616A"/>
<path d="M682.022 511.673L680.758 534.021L703.645 535.181L702.381 512.833L682.022 511.673Z" fill="#A0616A"/>
<path d="M706.768 535.801L703.15 527.643C703.15 527.643 686.409 521.689 681.352 527.643L678.824 534.718L658.508 530.001L647.086 553.548L657.244 620.629C657.244 620.629 683.924 652.41 719.498 621.789L729.656 558.226L722.026 533.558L706.768 535.801Z" fill="#575A89"/>
<path d="M719.512 538.158L722.04 533.441L747.457 519.329L762.976 476.799L774.965 481.555L761.407 532.243L724.525 564.024L719.512 538.158Z" fill="#575A89"/>
<path d="M661.039 532.282L658.51 529.923L631.83 514.458L612.735 479.428L597.477 484.145L613.999 527.681L654.674 558.264L661.039 532.282Z" fill="#575A89"/>
<path d="M705.821 482.909L708.568 481.634L704.426 480.358V479.082C704.426 479.082 683.762 471.349 681.015 484.185C677.452 488.665 675.539 494.014 675.539 499.496C675.539 504.979 677.452 510.327 681.015 514.807V518.673L703.031 521.225L705.778 513.492C705.778 513.492 719.597 490.565 705.821 482.909Z" fill="#1F2D4F"/>
<path d="M197.357 691.654L192.474 693.935C192.474 693.935 172.9 702.248 178.611 706.771C184.322 711.295 199.842 702.248 199.842 702.248L203.111 698.381L197.357 691.654Z" fill="#FFB8B8"/>
<path d="M340.627 690.532L325.5 784.6L302.656 850.329L290.405 845.032L301.653 755.1L269 729.389L271.441 691.615L340.627 690.532Z" fill="#1F2D4F"/>
<path d="M288.553 847.313C288.553 847.313 302.416 840.508 303.244 850.329L301.631 860.149C301.631 860.149 306.514 877.548 290.209 873.759C273.905 869.97 285.327 858.641 285.327 858.641L288.553 847.313Z" fill="#1F2D4F"/>
<path d="M279.848 721.114L269.254 729.427C269.254 729.427 269.254 780.811 276.578 788.35C283.902 795.89 330.418 834.437 332.075 835.945C333.731 837.453 341.055 820.828 341.055 820.828L296.893 773.271L300.163 743.81L279.848 721.114Z" fill="#1F2D4F"/>
<path d="M336.082 818.586C336.082 818.586 349.161 816.305 349.161 824.618C349.316 831.185 349.855 837.741 350.774 844.259C350.774 844.259 354.043 870.705 343.45 866.916C332.856 863.127 328.758 836.681 328.758 836.681C329.718 834.505 331.427 832.651 333.641 831.384C336.91 829.915 336.082 818.586 336.082 818.586Z" fill="#1F2D4F"/>
<path d="M295.282 578.291L297.723 606.244L291.184 616.838L273.222 600.986L271.609 579.837L295.282 578.291Z" fill="#FFB8B8"/>
<path d="M280.583 587.378C284.66 587.532 288.695 586.601 292.17 584.705C295.645 582.809 298.401 580.033 300.083 576.736C301.765 573.44 302.297 569.772 301.609 566.205C300.921 562.638 299.046 559.335 296.224 556.721C293.402 554.107 289.764 552.302 285.775 551.537C281.787 550.773 277.633 551.084 273.846 552.431C270.058 553.777 266.812 556.098 264.525 559.095C262.237 562.091 261.012 565.626 261.009 569.245C260.951 571.575 261.411 573.893 262.364 576.066C263.316 578.239 264.742 580.224 266.56 581.908C268.378 583.592 270.552 584.942 272.958 585.88C275.364 586.819 277.955 587.328 280.583 587.378Z" fill="#FFB8B8"/>
<path d="M288.566 605.51L296.719 583.588L311.41 598.706L338.352 694.669L317.95 705.997L308.969 693.895L307.356 709.748L267.379 702.015L264.109 600.755L272.262 590.122L288.566 605.51Z" fill="#D0CDE1"/>
<path d="M277.301 712.803L272.418 590.394L261.824 598.127L242.25 610.228L255.329 653.299L259.427 698.652L277.301 712.803Z" fill="#1F2D4F"/>
<path d="M247.934 610.884L242.223 610.111L225.919 654.69L193.266 692.464L205.516 704.566L243.052 670.542L256.915 642.588L247.934 610.884Z" fill="#1F2D4F"/>
<path d="M341.431 620.242L340.297 625.191C340.297 625.191 335.197 644.522 342.608 643.246C350.019 641.971 351.937 625.036 351.937 625.036L350.76 620.319L341.431 620.242Z" fill="#FFB8B8"/>
<path d="M295.623 582.352L336.079 597.16L331.197 642.512L341.006 692.388L331.197 702.209L294.969 588.77L295.623 582.352Z" fill="#1F2D4F"/>
<path d="M281.621 538.777L287.375 536.11V538.777L291.212 536.999V541.291C291.212 541.291 305.598 551.034 302.721 562.594C299.844 574.155 299.844 575.005 299.844 575.005C299.844 575.005 296.225 553.083 281.839 556.601C267.452 560.12 266.319 560.777 262.483 570.559L261.436 574.735C261.436 574.735 245.175 540.556 281.621 538.777Z" fill="#1F2D4F"/>
<path d="M330.383 597.199H336.922L347.516 650.091V696.178L334.437 693.896L323.844 624.302L330.383 597.199Z" fill="#1F2D4F"/>
<path d="M217.512 709.053H35.2396C27.5044 709.053 20.0861 711.778 14.6165 716.629C9.14693 721.479 6.07422 728.058 6.07422 734.919V863.9H246.677V734.919C246.677 728.058 243.605 721.479 238.135 716.629C232.665 711.778 225.247 709.053 217.512 709.053Z" fill="#71B4FF"/>
<path d="M126.398 739.248C116.255 739.262 106.362 742.043 98.0613 747.213C89.5916 752.489 83.0576 759.857 79.2717 768.401C75.4059 777.058 74.3931 786.511 76.3509 795.658C78.2764 804.738 83.1212 813.13 90.3015 819.823C97.3427 826.38 106.465 830.884 116.459 832.737C126.357 834.568 136.652 833.636 145.929 830.069C155.343 826.422 163.314 820.364 168.817 812.67C175.389 803.529 178.331 792.703 177.178 781.91C176.025 771.117 170.843 760.974 162.452 753.09C157.806 748.745 152.217 745.279 146.021 742.9C139.825 740.522 133.15 739.279 126.398 739.248ZM126.398 753.399C129.442 753.405 132.411 754.242 134.899 755.796C137.433 757.376 139.389 759.581 140.523 762.137C141.686 764.74 141.989 767.584 141.395 770.334C140.764 773.068 139.249 775.58 137.036 777.564C134.921 779.527 132.185 780.875 129.189 781.43C126.257 781.953 123.215 781.67 120.469 780.618C117.654 779.52 115.271 777.703 113.625 775.399C111.66 772.656 110.782 769.411 111.129 766.176C111.477 762.941 113.03 759.901 115.543 757.536C116.948 756.239 118.633 755.208 120.499 754.504C122.364 753.799 124.371 753.437 126.398 753.438V753.399ZM126.398 821.563C120.31 821.607 114.309 820.277 108.96 817.697C103.656 815.004 99.1676 811.209 95.8815 806.639C96.1431 797.205 116.284 791.985 126.398 791.985C136.512 791.985 156.915 797.166 156.915 806.639C153.626 811.207 149.139 815.001 143.837 817.697C138.49 820.287 132.49 821.631 126.398 821.602V821.563Z" fill="white"/>
<path d="M860.536 191.772H491.762V351.259H860.536V191.772Z" fill="#F4F4F4"/>
<path d="M1390.21 510.668L1391.61 502.317C1391.61 502.317 1399.76 485.15 1393.31 484.223C1386.85 483.295 1381.49 499.688 1381.49 499.688L1383.85 517.125L1390.21 510.668Z" fill="#FFB8B8"/>
<path opacity="0.2" d="M1456.18 558.032L1398.59 547.322L1391.92 508.659L1374.96 507.46L1375.79 557.723L1425.84 582.004L1456.18 558.032Z" fill="black"/>
<path d="M1299.53 500.385H1476.27V487.587H1299.53V500.385Z" fill="#71B4FF"/>
<path d="M1378.98 507.807V499.34C1378.98 499.34 1384.21 481.245 1377.71 481.245C1371.22 481.245 1368.56 498.141 1368.56 498.141L1373.75 515.037L1378.98 507.807Z" fill="#FFB8B8"/>
<path d="M1453.91 532.012L1461.8 530.233C1464.83 530.231 1467.81 529.609 1470.52 528.416C1473.26 527.202 1475.66 525.458 1477.54 523.312C1479.46 521.133 1480.83 518.615 1481.55 515.928C1482.22 513.201 1482.22 510.38 1481.55 507.654C1481.56 504.425 1480.88 501.224 1479.55 498.22C1478.23 495.248 1476.27 492.53 1473.79 490.216C1471.32 487.937 1468.35 486.123 1465.07 484.881C1461.86 483.643 1458.4 483.004 1454.89 483.004C1451.39 483.004 1447.93 483.643 1444.71 484.881C1441.43 486.122 1438.47 487.937 1435.99 490.216C1433.52 492.519 1431.56 495.223 1430.24 498.181C1428.89 501.183 1428.2 504.384 1428.19 507.615C1427.24 510.926 1427.24 514.395 1428.19 517.706C1429.07 521.009 1430.88 524.058 1433.47 526.56C1435.99 529.007 1439.22 530.81 1442.8 531.78C1446.4 532.777 1450.25 532.857 1453.91 532.012Z" fill="#1F2D4F"/>
<path d="M1407.44 653.918L1413.89 719.143L1425.53 783.131H1445.1L1442.58 720.342L1432.24 644.252L1407.44 653.918Z" fill="#1F2D4F"/>
<path d="M1428.16 779.536L1415.09 786.766C1415.09 786.766 1394.2 789.163 1398.13 795.195C1402.05 801.226 1447.65 797.669 1447.65 795.195C1447.65 792.72 1446.39 779.497 1443.77 779.497L1428.16 779.536Z" fill="#1F2D4F"/>
<path d="M1465.17 648.311C1463.99 656.768 1460.74 664.895 1455.66 672.128L1456.93 716.785L1503.79 772.383L1486.83 785.645L1429.55 725.213L1415.29 652.758L1433.56 635.862L1465.17 648.311Z" fill="#1F2D4F"/>
<path d="M1499.88 772.343C1499.88 772.343 1515.53 774.779 1512.96 780.81C1510.38 786.842 1503.8 814.602 1486.8 810.968C1486.8 810.968 1478.99 810.968 1481.57 806.135C1483.14 803.243 1484.88 800.429 1486.8 797.706V782.009L1499.88 772.343Z" fill="#1F2D4F"/>
<path d="M1445.45 533.249C1449.53 533.404 1453.57 532.472 1457.04 530.574C1460.52 528.676 1463.27 525.898 1464.95 522.599C1466.63 519.3 1467.16 515.63 1466.47 512.062C1465.78 508.494 1463.9 505.191 1461.08 502.579C1458.25 499.966 1454.61 498.164 1450.62 497.404C1446.62 496.644 1442.47 496.96 1438.68 498.313C1434.89 499.666 1431.65 501.993 1429.37 504.994C1427.09 507.996 1425.87 511.534 1425.88 515.155C1425.77 519.855 1427.77 524.4 1431.44 527.793C1435.11 531.185 1440.15 533.148 1445.45 533.249Z" fill="#FFB8B8"/>
<path d="M1454.59 527.217V547.748H1433.7L1436.36 527.217H1454.59Z" fill="#FFB8B8"/>
<path d="M1428.45 540.478L1434.77 539.048L1454.52 540.517C1454.52 540.517 1464.94 550.183 1463.63 552.618C1462.33 555.054 1455.74 614.171 1455.74 614.171L1467.43 656.43L1425.71 658.789L1404.87 656.353L1408.88 580.302C1408.88 580.302 1399.77 559.771 1411.54 553.74C1418.2 550.472 1423.98 545.945 1428.45 540.478Z" fill="#575A89"/>
<path d="M1451.92 545.157L1393.24 542.683L1380.16 505.257L1363.2 506.455L1372.27 555.983L1425.72 572.957L1451.92 545.157Z" fill="#575A89"/>
<path d="M1483.07 501.778C1485.67 501.863 1488.25 501.255 1490.46 500.033C1492.67 498.811 1494.42 497.031 1495.49 494.92C1496.55 492.809 1496.88 490.465 1496.43 488.188C1495.98 485.91 1494.78 483.804 1492.97 482.139C1491.16 480.474 1488.83 479.327 1486.28 478.844C1483.73 478.36 1481.08 478.564 1478.66 479.428C1476.24 480.292 1474.17 481.777 1472.71 483.693C1471.25 485.608 1470.47 487.867 1470.47 490.179C1470.47 493.183 1471.78 496.07 1474.13 498.234C1476.48 500.397 1479.68 501.668 1483.07 501.778Z" fill="#1F2D4F"/>
<path d="M1471.57 483.835C1471.57 482.114 1471.99 480.413 1472.79 478.847C1473.6 477.358 1474.76 476.04 1476.19 474.981C1477.62 473.9 1479.3 473.12 1481.12 472.7C1482.94 472.319 1484.83 472.319 1486.65 472.7C1485.03 472.018 1483.26 471.665 1481.47 471.665C1479.67 471.665 1477.9 472.018 1476.28 472.7C1474.61 473.351 1473.13 474.314 1471.92 475.522C1470.7 476.746 1469.78 478.181 1469.22 479.736C1468.66 481.31 1468.46 482.969 1468.65 484.611C1468.84 486.253 1469.4 487.844 1470.31 489.286C1471.2 490.706 1472.42 491.945 1473.88 492.921C1475.31 493.882 1476.96 494.555 1478.72 494.892C1476.53 493.925 1474.7 492.422 1473.44 490.562C1472.09 488.531 1471.44 486.192 1471.57 483.835Z" fill="#1F2D4F"/>
<path d="M1460.72 490.449L1443.72 487.549L1430.64 495.282C1427.39 497.181 1424.82 499.864 1423.23 503.014C1421.61 506.214 1421.01 509.742 1421.48 513.221L1434.56 510.128L1437.48 503.324L1440.97 508.62L1455.14 531.587L1469.48 524.357L1478.64 511.095L1460.72 490.449Z" fill="#1F2D4F"/>
<path d="M606.821 228.115H510.039V319.168H606.821V228.115Z" fill="#EA3968"/>
<g opacity="0.81">
<path opacity="0.81" d="M711.095 228.193H637.637C631.184 228.193 625.953 232.833 625.953 238.555V308.885C625.953 314.607 631.184 319.246 637.637 319.246H711.095C717.548 319.246 722.778 314.607 722.778 308.885V238.555C722.778 232.833 717.548 228.193 711.095 228.193Z" fill="#1D99DD"/>
<g opacity="0.81">
<path opacity="0.81" d="M722.822 228.115H625.953V319.168H722.778L722.822 228.115Z" fill="#1D99DD"/>
</g>
</g>
<path d="M837.302 228.115H740.477V319.168H837.302V228.115Z" fill="#FFF873"/>
<path d="M956.788 0.011976H362.669C352.527 -0.18563 342.708 3.18381 335.357 9.38467C328.005 15.5855 323.719 24.114 323.434 33.108V42.8125H996.198V33.108C995.913 24.0866 991.603 15.5343 984.214 9.32903C976.824 3.12377 966.96 -0.227181 956.788 0.011976Z" fill="#8AC7FF"/>
<path d="M434.918 29.6936C436.932 29.8098 438.94 29.3865 440.679 28.4784C442.419 27.5704 443.811 26.2195 444.675 24.6011C445.538 22.9828 445.833 21.1717 445.522 19.4028C445.21 17.6339 444.306 15.9889 442.928 14.6812C441.549 13.3734 439.759 12.4634 437.789 12.0691C435.82 11.6748 433.763 11.8146 431.884 12.4701C430.006 13.1256 428.393 14.2667 427.255 15.7454C426.116 17.224 425.505 18.9719 425.501 20.7623C425.419 23.0531 426.364 25.2794 428.129 26.9535C429.894 28.6276 432.335 29.6129 434.918 29.6936Z" fill="#E6E6E6"/>
<path d="M397.25 29.6936C399.264 29.8098 401.272 29.3865 403.011 28.4784C404.751 27.5704 406.143 26.2195 407.006 24.6011C407.87 22.9828 408.165 21.1717 407.853 19.4028C407.542 17.6339 406.638 15.9889 405.259 14.6812C403.881 13.3734 402.09 12.4634 400.121 12.0691C398.152 11.6748 396.095 11.8146 394.216 12.4701C392.338 13.1256 390.725 14.2667 389.586 15.7454C388.448 17.224 387.837 18.9719 387.833 20.7623C387.751 23.0531 388.696 25.2794 390.461 26.9535C392.226 28.6276 394.667 29.6129 397.25 29.6936Z" fill="#E6E6E6"/>
<path d="M360.535 29.6936C362.549 29.8098 364.557 29.3865 366.297 28.4784C368.036 27.5704 369.428 26.2195 370.292 24.6011C371.155 22.9828 371.45 21.1717 371.139 19.4028C370.827 17.6339 369.923 15.9889 368.545 14.6812C367.166 13.3734 365.376 12.4634 363.407 12.0691C361.437 11.6748 359.38 11.8146 357.502 12.4701C355.623 13.1256 354.01 14.2667 352.872 15.7454C351.734 17.224 351.123 18.9719 351.118 20.7623C351.036 23.0531 351.981 25.2794 353.746 26.9535C355.511 28.6276 357.952 29.6129 360.535 29.6936Z" fill="#E6E6E6"/>
<path d="M1479.94 142.166H1095.43C1081.34 142.166 1069.92 156.588 1069.92 174.373V183.807H1505.44V174.373C1505.44 156.588 1494.02 142.166 1479.94 142.166Z" fill="#8AC7FF"/>
<path d="M1186.19 171.936C1188.21 172.052 1190.21 171.629 1191.95 170.721C1193.69 169.813 1195.08 168.462 1195.95 166.844C1196.81 165.225 1197.11 163.414 1196.8 161.645C1196.48 159.876 1195.58 158.231 1194.2 156.924C1192.82 155.616 1191.03 154.706 1189.06 154.312C1187.09 153.917 1185.04 154.057 1183.16 154.712C1181.28 155.368 1179.67 156.509 1178.53 157.988C1177.39 159.466 1176.78 161.214 1176.77 163.005C1176.69 165.296 1177.64 167.522 1179.4 169.196C1181.17 170.87 1183.61 171.855 1186.19 171.936Z" fill="white"/>
<path d="M1148.56 171.936C1150.58 172.052 1152.58 171.629 1154.32 170.721C1156.06 169.813 1157.46 168.462 1158.32 166.844C1159.18 165.225 1159.48 163.414 1159.17 161.645C1158.85 159.876 1157.95 158.231 1156.57 156.924C1155.19 155.616 1153.4 154.706 1151.43 154.312C1149.46 153.917 1147.41 154.057 1145.53 154.712C1143.65 155.368 1142.04 156.509 1140.9 157.988C1139.76 159.466 1139.15 161.214 1139.15 163.005C1139.06 165.296 1140.01 167.522 1141.77 169.196C1143.54 170.87 1145.98 171.855 1148.56 171.936Z" fill="white"/>
<path d="M1111.82 171.936C1113.83 172.053 1115.84 171.629 1117.58 170.721C1119.32 169.813 1120.71 168.462 1121.58 166.844C1122.44 165.226 1122.74 163.415 1122.42 161.646C1122.11 159.877 1121.21 158.232 1119.83 156.924C1118.45 155.616 1116.66 154.706 1114.69 154.312C1112.72 153.918 1110.67 154.057 1108.79 154.713C1106.91 155.369 1105.3 156.51 1104.16 157.988C1103.02 159.467 1102.41 161.215 1102.4 163.005C1102.32 165.296 1103.27 167.522 1105.03 169.196C1106.8 170.87 1109.24 171.856 1111.82 171.936Z" fill="white"/>
<defs>
<filter id="filter0_d" x="319.434" y="11.5985" width="680.765" height="770.137" filterUnits="userSpaceOnUse" color-interpolation-filters="sRGB">
<feFlood flood-opacity="0" result="BackgroundImageFix"/>
<feColorMatrix in="SourceAlpha" type="matrix" values="0 0 0 0 0 0 0 0 0 0 0 0 0 0 0 0 0 0 127 0"/>
<feOffset dy="4"/>
<feGaussianBlur stdDeviation="2"/>
<feColorMatrix type="matrix" values="0 0 0 0 0 0 0 0 0 0 0 0 0 0 0 0 0 0 0.25 0"/>
<feBlend mode="normal" in2="BackgroundImageFix" result="effect1_dropShadow"/>
<feBlend mode="normal" in="SourceGraphic" in2="effect1_dropShadow" result="shape"/>
</filter>
<filter id="filter1_d" x="422.719" y="143.944" width="501.686" height="418.667" filterUnits="userSpaceOnUse" color-interpolation-filters="sRGB">
<feFlood flood-opacity="0" result="BackgroundImageFix"/>
<feColorMatrix in="SourceAlpha" type="matrix" values="0 0 0 0 0 0 0 0 0 0 0 0 0 0 0 0 0 0 127 0"/>
<feOffset dy="2"/>
<feGaussianBlur stdDeviation="1"/>
<feColorMatrix type="matrix" values="0 0 0 0 0 0 0 0 0 0 0 0 0 0 0 0 0 0 0.25 0"/>
<feBlend mode="normal" in2="BackgroundImageFix" result="effect1_dropShadow"/>
<feBlend mode="normal" in="SourceGraphic" in2="effect1_dropShadow" result="shape"/>
</filter>
<filter id="filter2_d" x="1066.01" y="154.654" width="443.432" height="511.323" filterUnits="userSpaceOnUse" color-interpolation-filters="sRGB">
<feFlood flood-opacity="0" result="BackgroundImageFix"/>
<feColorMatrix in="SourceAlpha" type="matrix" values="0 0 0 0 0 0 0 0 0 0 0 0 0 0 0 0 0 0 127 0"/>
<feOffset dy="4"/>
<feGaussianBlur stdDeviation="2"/>
<feColorMatrix type="matrix" values="0 0 0 0 0 0 0 0 0 0 0 0 0 0 0 0 0 0 0.25 0"/>
<feBlend mode="normal" in2="BackgroundImageFix" result="effect1_dropShadow"/>
<feBlend mode="normal" in="SourceGraphic" in2="effect1_dropShadow" result="shape"/>
</filter>
<linearGradient id="paint0_linear" x1="123321" y1="9745.51" x2="139729" y2="9745.51" gradientUnits="userSpaceOnUse">
<stop stop-color="#012666"/>
<stop offset="0.33" stop-color="#113B81"/>
<stop offset="0.76" stop-color="#23529F"/>
<stop offset="1" stop-color="#2A5BAA"/>
</linearGradient>
<linearGradient id="paint1_linear" x1="98806.1" y1="9746.98" x2="113463" y2="9746.98" gradientUnits="userSpaceOnUse">
<stop stop-color="#012666"/>
<stop offset="0.33" stop-color="#113B81"/>
<stop offset="0.76" stop-color="#23529F"/>
<stop offset="1" stop-color="#2A5BAA"/>
</linearGradient>
</defs>
</svg>
