<svg width="2317" height="1382" viewBox="0 0 2317 1382" fill="none" xmlns="http://www.w3.org/2000/svg">
<g filter="url(#filter0_d)">
<path d="M1448 36.7271H548.864C530.126 36.7271 489.484 66.2717 489.484 96.8995V1167.31C489.484 1197.99 504.725 1222.85 523.462 1222.85H1441.2C1485.87 1222.85 1507.64 1197.99 1507.64 1167.31V96.9596C1507.64 66.2717 1466.73 36.7271 1448 36.7271Z" fill="#F9F9F9"/>
</g>
<g filter="url(#filter1_d)">
<path d="M1395.96 242.697H642.766V888.046H1395.96V242.697Z" fill="white"/>
<path d="M643.266 887.546V243.197H1395.46V887.546H643.266Z" stroke="#FFFCFC"/>
</g>
<g filter="url(#filter2_d)">
<path d="M2235.83 259.365H1661.83C1656.25 259.365 1650.73 260.367 1645.57 262.315C1640.42 264.262 1635.73 267.117 1631.79 270.715C1627.84 274.314 1624.71 278.585 1622.58 283.287C1620.44 287.988 1619.34 293.027 1619.34 298.116V1003.94C1619.34 1009.03 1620.44 1014.07 1622.58 1018.77C1624.71 1023.47 1627.84 1027.74 1631.79 1031.34C1635.73 1034.94 1640.42 1037.79 1645.57 1039.74C1650.73 1041.69 1656.25 1042.69 1661.83 1042.69H2235.83C2241.41 1042.69 2246.94 1041.69 2252.09 1039.74C2257.25 1037.79 2261.93 1034.94 2265.88 1031.34C2269.82 1027.74 2272.95 1023.47 2275.09 1018.77C2277.22 1014.07 2278.32 1009.03 2278.32 1003.94V298.417C2278.36 293.303 2277.3 288.232 2275.18 283.495C2273.07 278.759 2269.94 274.452 2265.99 270.821C2262.04 267.191 2257.35 264.31 2252.17 262.344C2246.99 260.377 2241.44 259.365 2235.83 259.365Z" fill="#F9F9F9"/>
</g>
<path d="M2198.9 1289.22C2264.08 1289.22 2316.99 1282 2316.99 1273.15C2316.99 1264.31 2264.21 1257.08 2198.9 1257.08C2133.58 1257.08 2080.8 1264.31 2080.8 1273.15C2080.8 1282 2133.71 1289.22 2198.9 1289.22Z" fill="url(#paint0_linear)"/>
<path d="M1018.42 1289.58C1083.6 1289.58 1136.52 1282.36 1136.52 1273.51C1136.52 1264.67 1083.74 1257.45 1018.42 1257.45C953.102 1257.45 900.32 1264.67 900.32 1273.51C900.32 1282.36 953.168 1289.58 1018.42 1289.58Z" fill="url(#paint1_linear)"/>
<path d="M270.967 1382C420.603 1382 541.935 1376.46 541.935 1369.67C541.935 1362.87 420.603 1357.33 270.967 1357.33C121.332 1357.33 0 1362.87 0 1369.67C0 1376.46 121.332 1382 270.967 1382Z" fill="#012666"/>
<path d="M2104.15 482.003H2100.72V394.994C2100.71 381.695 2094.95 368.935 2084.68 359.492C2079.62 354.84 2073.6 351.148 2066.96 348.629C2060.32 346.109 2053.21 344.811 2046.02 344.81H1845.78C1838.59 344.811 1831.48 346.109 1824.84 348.629C1818.21 351.148 1812.18 354.84 1807.12 359.492C1796.85 368.935 1791.09 381.695 1791.09 394.994V871.138C1791.09 884.437 1796.85 897.197 1807.12 906.64C1812.18 911.291 1818.21 914.983 1824.84 917.503C1831.48 920.023 1838.59 921.321 1845.78 921.322H2046.02C2053.21 921.321 2060.32 920.023 2066.96 917.503C2073.6 914.983 2079.62 911.291 2084.68 906.64C2094.95 897.197 2100.71 884.437 2100.72 871.138V543.559H2104.15V482.003Z" fill="#3F3D56"/>
<path d="M2046.02 357.869H2019.63C2021.4 361.95 2021.48 366.481 2019.85 370.612C2018.23 374.743 2015.01 378.192 2010.79 380.313C2007.99 381.687 2004.87 382.41 2001.69 382.419H1887.15C1883.96 382.412 1880.83 381.69 1878.02 380.315C1875.21 378.94 1872.82 376.955 1871.05 374.537C1869.29 372.101 1868.2 369.313 1867.88 366.41C1867.56 363.507 1868.01 360.576 1869.2 357.869H1844.79C1839.42 357.873 1834.1 358.848 1829.14 360.738C1824.18 362.628 1819.68 365.396 1815.9 368.88C1808.23 375.939 1803.93 385.479 1803.95 395.416V870.778C1803.9 880.639 1808.09 890.125 1815.63 897.194C1819.41 900.678 1823.91 903.446 1828.87 905.336C1833.83 907.226 1839.15 908.201 1844.53 908.205H2045.76C2051.13 908.201 2056.46 907.226 2061.42 905.336C2066.38 903.446 2070.88 900.678 2074.66 897.194C2082.33 890.135 2086.62 880.595 2086.6 870.658V395.296C2086.61 385.36 2082.32 375.823 2074.66 368.76C2067.06 361.825 2056.77 357.91 2046.02 357.869Z" fill="white"/>
<path d="M1202.05 651.688H743.84V671.606H1202.05V651.688Z" fill="#F4F4F4"/>
<path d="M1202.05 715.952H743.84V735.869H1202.05V715.952Z" fill="#71B4FF"/>
<path d="M1202.05 780.158H743.84V800.075H1202.05V780.158Z" fill="#F4F4F4"/>
<path d="M2063.18 656.504H1832.27V673.713H2063.18V656.504Z" fill="#F4F4F4"/>
<path d="M2063.18 710.054H1832.27V727.264H2063.18V710.054Z" fill="#F4F4F4"/>
<path d="M2063.18 763.431H1832.27V780.64H2063.18V763.431Z" fill="#F4F4F4"/>
<path d="M2114.71 989.917V947.496H2070.11V989.917H2114.71Z" fill="#3F3D56"/>
<path d="M2042.86 989.917V947.496H1998.26V989.917H2042.86Z" fill="#71B4FF"/>
<path d="M1971.07 989.917V947.496H1926.47V989.917H1971.07Z" fill="#3F3D56"/>
<path d="M1899.23 989.917V947.496H1854.63V989.917H1899.23Z" fill="#3F3D56"/>
<path d="M1827.43 989.917V947.496H1782.63V989.917H1827.43Z" fill="#3F3D56"/>
<g filter="url(#filter3_d)">
<path d="M1989.23 457.934H1901.41C1896.01 457.934 1890.82 459.892 1887 463.379C1883.18 466.866 1881.03 471.596 1881.03 476.527V561.671C1881.03 566.602 1883.18 571.331 1887 574.818C1890.82 578.305 1896.01 580.264 1901.41 580.264H1989.1C1991.77 580.264 1994.43 579.783 1996.9 578.849C1999.37 577.914 2001.62 576.545 2003.51 574.818C2005.41 573.092 2006.91 571.042 2007.93 568.786C2008.96 566.53 2009.48 564.112 2009.48 561.671V476.467C2009.47 471.567 2007.33 466.871 2003.54 463.4C1999.74 459.93 1994.6 457.965 1989.23 457.934Z" fill="#71B4FF"/>
</g>
<path d="M913.849 774.802L911.936 778.473L906.195 750.974C906.195 750.974 898.476 721.67 913.915 721.67C929.353 721.67 925.461 750.974 925.461 750.974V770.831L913.849 774.802Z" fill="#A0616A"/>
<path d="M1166.21 770.832L1168.12 774.502L1173.86 747.004C1173.86 747.004 1181.58 717.7 1166.14 717.7C1150.7 717.7 1154.59 747.004 1154.59 747.004V767.161L1166.21 770.832Z" fill="#A0616A"/>
<path d="M998.498 980.772L975.406 1116.28L986.952 1248.12L1013.87 1237.11L1010.04 1138.18L1037.09 1059.66L1042.83 1153.05L1031.29 1250.1L1065.93 1253.77L1090.93 1054.12L1089.02 986.368L998.498 980.772Z" fill="#1F2D4F"/>
<path d="M998.5 1231.63L985.305 1251.79V1296.8C985.303 1298.09 985.792 1299.35 986.69 1300.35C987.548 1301.33 988.767 1301.99 990.121 1302.22C996.719 1303.24 1008.2 1303.96 1012.22 1297.58C1017.96 1288.44 1014.14 1268.28 1014.14 1268.28C1014.14 1268.28 1021.86 1253.66 1017.96 1242.64C1014.07 1231.63 1010.24 1229.83 1010.24 1229.83L998.5 1231.63Z" fill="#1F2D4F"/>
<path d="M1056.17 1249.99L1059.99 1255.46C1059.99 1255.46 1065.73 1260.94 1061.91 1264.61C1059.07 1267.46 1056.48 1270.52 1054.19 1273.75C1054.19 1273.75 1033.01 1279.23 1033.01 1271.95V1247.88L1056.17 1249.99Z" fill="#1F2D4F"/>
<path d="M1049.23 831.662C1054.48 831.83 1059.67 830.563 1064.13 828.022C1068.59 825.481 1072.12 821.783 1074.26 817.403C1076.4 813.022 1077.05 808.159 1076.14 803.435C1075.23 798.712 1072.79 794.345 1069.14 790.895C1065.49 787.444 1060.79 785.066 1055.65 784.067C1050.5 783.068 1045.15 783.493 1040.27 785.287C1035.4 787.082 1031.22 790.164 1028.28 794.138C1025.34 798.112 1023.76 802.798 1023.76 807.593C1023.75 813.833 1026.41 819.831 1031.16 824.322C1035.91 828.812 1042.39 831.444 1049.23 831.662Z" fill="#A0616A"/>
<path d="M1032.16 814.996L1030.25 849.776L1064.89 851.581L1062.97 816.801L1032.16 814.996Z" fill="#A0616A"/>
<path d="M1069.62 852.546L1064.14 839.849C1064.14 839.849 1038.8 830.583 1031.15 839.849L1027.32 850.861L996.579 843.52L979.293 880.165L994.666 984.564C994.666 984.564 1035.04 1034.03 1088.88 986.369L1104.25 887.446L1092.71 849.056L1069.62 852.546Z" fill="#857EAD"/>
<path d="M1088.9 856.215L1092.73 848.874L1131.19 826.911L1154.68 760.721L1172.83 768.122L1152.31 847.008L1096.49 896.47L1088.9 856.215Z" fill="#857EAD"/>
<path d="M1000.41 847.068L996.583 843.398L956.205 819.329L927.307 764.812L904.215 772.154L929.22 839.908L990.777 887.504L1000.41 847.068Z" fill="#857EAD"/>
<path d="M1068.18 770.23L1072.34 768.245L1066.07 766.259V764.273C1066.07 764.273 1034.8 752.239 1030.64 772.216C1025.25 779.188 1022.36 787.512 1022.36 796.044C1022.36 804.577 1025.25 812.9 1030.64 819.872V825.89L1063.96 829.861L1068.12 817.827C1068.12 817.827 1089.03 782.144 1068.18 770.23Z" fill="#1F2D4F"/>
<path d="M298.677 1095.1L291.288 1098.65C291.288 1098.65 261.664 1111.59 270.307 1118.63C278.95 1125.67 302.438 1111.59 302.438 1111.59L307.386 1105.57L298.677 1095.1Z" fill="#FFB8B8"/>
<path d="M515.502 1093.35L492.607 1239.75L458.036 1342.05L439.496 1333.8L456.518 1193.84L407.102 1153.83L410.796 1095.04L515.502 1093.35Z" fill="#1F2D4F"/>
<path d="M436.69 1337.35C436.69 1337.35 457.671 1326.76 458.924 1342.05L456.483 1357.33C456.483 1357.33 463.872 1384.41 439.197 1378.51C414.522 1372.61 431.808 1354.98 431.808 1354.98L436.69 1337.35Z" fill="#1F2D4F"/>
<path d="M423.517 1140.95L407.484 1153.89C407.484 1153.89 407.484 1233.86 418.568 1245.59C429.653 1257.32 500.05 1317.32 502.557 1319.66C505.064 1322.01 516.148 1296.13 516.148 1296.13L449.314 1222.12L454.262 1176.27L423.517 1140.95Z" fill="#1F2D4F"/>
<path d="M508.627 1292.65C508.627 1292.65 528.421 1289.1 528.421 1302.03C528.656 1312.25 529.471 1322.46 530.862 1332.6C530.862 1332.6 535.81 1373.76 519.778 1367.86C503.745 1361.97 497.543 1320.81 497.543 1320.81C498.997 1317.42 501.582 1314.54 504.933 1312.56C509.881 1310.28 508.627 1292.65 508.627 1292.65Z" fill="#1F2D4F"/>
<path d="M446.88 918.673L450.575 962.177L440.678 978.665L413.496 953.994L411.055 921.08L446.88 918.673Z" fill="#FFB8B8"/>
<path d="M424.635 932.816C430.804 933.056 436.911 931.607 442.17 928.656C447.43 925.705 451.6 921.386 454.146 916.255C456.692 911.124 457.496 905.416 456.455 899.864C455.414 894.313 452.576 889.173 448.306 885.105C444.036 881.037 438.529 878.227 432.493 877.037C426.457 875.847 420.17 876.331 414.438 878.427C408.707 880.523 403.794 884.135 400.332 888.799C396.87 893.462 395.017 898.963 395.011 904.595C394.924 908.222 395.621 911.83 397.062 915.211C398.504 918.593 400.662 921.682 403.413 924.303C406.164 926.924 409.453 929.024 413.095 930.485C416.736 931.946 420.658 932.738 424.635 932.816Z" fill="#FFB8B8"/>
<path d="M436.712 961.036L449.05 926.918L471.284 950.445L512.058 1099.79L481.181 1117.42L467.589 1098.59L465.148 1123.26L404.647 1111.23L399.699 953.635L412.037 937.087L436.712 961.036Z" fill="#D0CDE1"/>
<path d="M419.666 1128.01L412.277 937.509L396.245 949.543L366.621 968.377L386.414 1035.41L392.616 1105.99L419.666 1128.01Z" fill="#1F2D4F"/>
<path d="M375.223 969.398L366.58 968.195L341.905 1037.57L292.488 1096.36L311.028 1115.2L367.834 1062.24L388.814 1018.74L375.223 969.398Z" fill="#1F2D4F"/>
<path d="M447.392 924.993L508.619 948.039L501.23 1018.62L516.074 1096.24L501.23 1111.53L446.402 934.982L447.392 924.993Z" fill="#1F2D4F"/>
<path d="M426.199 857.179L434.908 853.027V857.179L440.714 854.411V861.09C440.714 861.09 462.487 876.253 458.132 894.245C453.778 912.237 453.778 913.56 453.778 913.56C453.778 913.56 448.302 879.442 426.529 884.918C404.757 890.394 403.041 891.417 397.235 906.64L395.652 913.139C395.652 913.139 371.042 859.947 426.199 857.179Z" fill="#1F2D4F"/>
<path d="M500.002 948.1H509.899L525.931 1030.42V1102.14L506.138 1098.59L490.105 990.281L500.002 948.1Z" fill="#1F2D4F"/>
<path d="M329.18 1122.18H53.33C41.6237 1122.18 30.3968 1126.42 22.1192 1133.97C13.8416 1141.52 9.19141 1151.76 9.19141 1162.43V1363.17H373.318V1162.43C373.318 1151.76 368.668 1141.52 360.39 1133.97C352.113 1126.42 340.886 1122.18 329.18 1122.18V1122.18Z" fill="#71B4FF"/>
<path d="M191.29 1169.17C175.94 1169.19 160.968 1173.52 148.405 1181.57C135.588 1189.78 125.699 1201.25 119.969 1214.54C114.119 1228.01 112.586 1242.73 115.549 1256.96C118.463 1271.09 125.795 1284.15 136.662 1294.57C147.318 1304.78 161.124 1311.78 176.248 1314.67C191.228 1317.52 206.808 1316.07 220.848 1310.52C235.096 1304.84 247.158 1295.41 255.486 1283.44C265.432 1269.21 269.885 1252.36 268.14 1235.57C266.395 1218.77 258.552 1202.98 245.854 1190.71C238.822 1183.95 230.363 1178.56 220.987 1174.86C211.61 1171.15 201.508 1169.22 191.29 1169.17V1169.17ZM191.29 1191.19C195.897 1191.2 200.389 1192.51 204.156 1194.93C207.991 1197.38 210.95 1200.82 212.667 1204.79C214.427 1208.85 214.885 1213.27 213.987 1217.55C213.031 1221.81 210.739 1225.72 207.389 1228.8C204.189 1231.86 200.048 1233.96 195.513 1234.82C191.076 1235.63 186.473 1235.19 182.318 1233.56C178.057 1231.85 174.45 1229.02 171.959 1225.43C168.986 1221.16 167.657 1216.11 168.182 1211.08C168.708 1206.04 171.059 1201.31 174.862 1197.63C176.988 1195.62 179.539 1194.01 182.362 1192.91C185.185 1191.82 188.222 1191.25 191.29 1191.26V1191.19ZM191.29 1297.28C182.076 1297.35 172.994 1295.28 164.9 1291.26C156.872 1287.07 150.08 1281.17 145.107 1274.05C145.502 1259.37 175.984 1251.25 191.29 1251.25C206.597 1251.25 237.474 1259.31 237.474 1274.05C232.497 1281.16 225.706 1287.07 217.681 1291.26C209.591 1295.29 200.51 1297.38 191.29 1297.34V1297.28Z" fill="white"/>
<path d="M1302.33 317.131H744.23V565.342H1302.33V317.131Z" fill="#F4F4F4"/>
<path d="M2103.94 813.432L2106.05 800.435C2106.05 800.435 2118.39 773.718 2108.62 772.274C2098.86 770.83 2090.74 796.343 2090.74 796.343L2094.3 823.481L2103.94 813.432Z" fill="#FFB8B8"/>
<path opacity="0.2" d="M2203.77 887.144L2116.61 870.476L2106.52 810.304L2080.86 808.438L2082.11 886.663L2157.85 924.451L2203.77 887.144Z" fill="black"/>
<path d="M1966.7 797.427H2234.17V777.51H1966.7V797.427Z" fill="#71B4FF"/>
<path d="M2086.93 808.979V795.801C2086.93 795.801 2094.85 767.64 2085.02 767.64C2075.19 767.64 2071.16 793.935 2071.16 793.935L2079.02 820.231L2086.93 808.979Z" fill="#FFB8B8"/>
<path d="M2200.34 846.648L2212.28 843.881C2216.86 843.876 2221.37 842.908 2225.47 841.052C2229.62 839.162 2233.25 836.448 2236.09 833.11C2239 829.718 2241.07 825.799 2242.17 821.617C2243.17 817.373 2243.17 812.983 2242.17 808.74C2242.18 803.715 2241.15 798.733 2239.13 794.058C2237.14 789.432 2234.18 785.202 2230.42 781.602C2226.68 778.055 2222.19 775.231 2217.23 773.298C2212.36 771.372 2207.12 770.378 2201.82 770.378C2196.52 770.378 2191.28 771.372 2186.41 773.298C2181.45 775.23 2176.96 778.054 2173.22 781.602C2169.47 785.186 2166.51 789.394 2164.51 793.998C2162.47 798.669 2161.42 803.651 2161.41 808.68C2159.97 813.832 2159.97 819.232 2161.41 824.385C2162.73 829.525 2165.48 834.269 2169.39 838.164C2173.22 841.972 2178.09 844.777 2183.51 846.287C2188.97 847.839 2194.8 847.964 2200.34 846.648Z" fill="#1F2D4F"/>
<path d="M2130 1036.37L2139.77 1137.88L2157.38 1237.47H2187.01L2183.18 1139.75L2167.54 1021.33L2130 1036.37Z" fill="#1F2D4F"/>
<path d="M2161.37 1231.87L2141.58 1243.12C2141.58 1243.12 2109.97 1246.85 2115.91 1256.24C2121.85 1265.63 2190.86 1260.09 2190.86 1256.24C2190.86 1252.39 2188.95 1231.81 2184.99 1231.81L2161.37 1231.87Z" fill="#1F2D4F"/>
<path d="M2217.37 1027.65C2215.59 1040.81 2210.68 1053.46 2202.99 1064.71L2204.9 1134.21L2275.83 1220.74L2250.16 1241.38L2163.47 1147.33L2141.89 1034.57L2169.54 1008.27L2217.37 1027.65Z" fill="#1F2D4F"/>
<path d="M2269.9 1220.68C2269.9 1220.68 2293.59 1224.47 2289.7 1233.86C2285.8 1243.24 2275.84 1286.45 2250.11 1280.79C2250.11 1280.79 2238.3 1280.79 2242.19 1273.27C2244.57 1268.77 2247.21 1264.39 2250.11 1260.15V1235.72L2269.9 1220.68Z" fill="#1F2D4F"/>
<path d="M2187.53 848.575C2193.7 848.816 2199.81 847.365 2205.07 844.411C2210.34 841.457 2214.51 837.135 2217.05 832C2219.59 826.866 2220.39 821.154 2219.35 815.601C2218.3 810.049 2215.46 804.908 2211.18 800.842C2206.9 796.777 2201.39 793.972 2195.35 792.789C2189.31 791.605 2183.02 792.098 2177.29 794.203C2171.56 796.309 2166.65 799.93 2163.2 804.601C2159.74 809.273 2157.9 814.78 2157.91 820.414C2157.75 827.73 2160.78 834.804 2166.33 840.083C2171.89 845.363 2179.51 848.417 2187.53 848.575Z" fill="#FFB8B8"/>
<path d="M2201.36 839.187V871.139H2169.75L2173.78 839.187H2201.36Z" fill="#FFB8B8"/>
<path d="M2161.81 859.826L2171.37 857.6L2201.26 859.886C2201.26 859.886 2217.03 874.929 2215.05 878.72C2213.07 882.511 2203.11 974.515 2203.11 974.515L2220.79 1040.28L2157.65 1043.95L2126.11 1040.16L2132.18 921.803C2132.18 921.803 2118.39 889.852 2136.21 880.465C2146.3 875.379 2155.04 868.334 2161.81 859.826V859.826Z" fill="#857EAD"/>
<path d="M2197.31 867.108L2108.51 863.257L2088.72 805.01L2063.05 806.876L2076.77 883.956L2157.66 910.372L2197.31 867.108Z" fill="#857EAD"/>
<path d="M2244.46 799.595C2248.4 799.727 2252.3 798.782 2255.65 796.88C2258.99 794.978 2261.64 792.207 2263.25 788.922C2264.86 785.638 2265.36 781.989 2264.68 778.445C2264 774.901 2262.18 771.623 2259.44 769.032C2256.7 766.44 2253.18 764.654 2249.32 763.903C2245.46 763.151 2241.45 763.467 2237.79 764.812C2234.13 766.157 2230.99 768.468 2228.78 771.449C2226.58 774.43 2225.39 777.945 2225.39 781.543C2225.39 786.219 2227.37 790.712 2230.93 794.079C2234.49 797.446 2239.34 799.424 2244.46 799.595V799.595Z" fill="#1F2D4F"/>
<path d="M2227.06 771.671C2227.06 768.993 2227.69 766.346 2228.91 763.908C2230.13 761.591 2231.89 759.54 2234.05 757.891C2236.21 756.21 2238.76 754.996 2241.51 754.341C2244.27 753.749 2247.13 753.749 2249.89 754.341C2247.44 753.281 2244.75 752.731 2242.04 752.731C2239.32 752.731 2236.64 753.281 2234.19 754.341C2231.67 755.355 2229.42 756.853 2227.59 758.734C2225.74 760.638 2224.35 762.871 2223.5 765.292C2222.65 767.742 2222.36 770.323 2222.64 772.879C2222.93 775.434 2223.78 777.91 2225.15 780.155C2226.5 782.365 2228.34 784.292 2230.56 785.811C2232.73 787.308 2235.22 788.355 2237.88 788.88C2234.57 787.374 2231.8 785.036 2229.9 782.141C2227.85 778.98 2226.86 775.339 2227.06 771.671V771.671Z" fill="#1F2D4F"/>
<path d="M2210.64 781.964L2184.91 777.451L2165.12 789.486C2160.2 792.442 2156.31 796.617 2153.9 801.52C2151.46 806.499 2150.55 811.99 2151.26 817.406L2171.06 812.592L2175.48 802.001L2180.76 810.245L2202.2 845.987L2223.9 834.735L2237.76 814.096L2210.64 781.964Z" fill="#1F2D4F"/>
<g filter="url(#filter4_d)">
<path d="M918.356 373.692H771.887V515.398H918.356V373.692Z" fill="#EA3968"/>
</g>
<g opacity="0.81">
<path opacity="0.81" d="M1076.17 373.814H964.994C955.229 373.814 947.312 381.035 947.312 389.941V499.394C947.312 508.301 955.229 515.521 964.994 515.521H1076.17C1085.93 515.521 1093.85 508.301 1093.85 499.394V389.941C1093.85 381.035 1085.93 373.814 1076.17 373.814Z" fill="#1D99DD"/>
<g opacity="0.81" filter="url(#filter5_d)">
<path opacity="0.81" d="M1093.91 373.692H947.312V515.398H1093.85L1093.91 373.692Z" fill="#1D99DD"/>
</g>
</g>
<g filter="url(#filter6_d)">
<path d="M1267.16 373.692H1120.62V515.398H1267.16V373.692Z" fill="#FFF873"/>
</g>
<path d="M1448 18.6944H548.864C533.514 18.3869 518.654 23.6308 507.529 33.2812C496.403 42.9316 489.916 56.2046 489.484 70.202V85.3052H1507.64V70.202C1507.21 56.1619 1500.69 42.8519 1489.5 33.1946C1478.32 23.5373 1463.39 18.3222 1448 18.6944Z" fill="#8AC7FF"/>
<path d="M658.204 64.8875C661.253 65.0684 664.291 64.4096 666.924 62.9963C669.557 61.5831 671.663 59.4807 672.97 56.9621C674.277 54.4435 674.723 51.6248 674.252 48.8718C673.78 46.1189 672.413 43.5588 670.326 41.5236C668.239 39.4883 665.53 38.072 662.55 37.4584C659.57 36.8448 656.456 37.0623 653.613 38.0825C650.77 39.1027 648.329 40.8786 646.607 43.1798C644.884 45.481 643.959 48.2013 643.953 50.9877C643.828 54.5528 645.258 58.0177 647.929 60.6231C650.601 63.2285 654.295 64.7619 658.204 64.8875V64.8875Z" fill="#E6E6E6"/>
<path d="M601.192 64.8875C604.241 65.0684 607.279 64.4096 609.912 62.9963C612.545 61.5831 614.651 59.4807 615.958 56.9621C617.265 54.4435 617.711 51.6248 617.24 48.8718C616.768 46.1189 615.4 43.5588 613.314 41.5236C611.227 39.4883 608.518 38.072 605.538 37.4584C602.558 36.8448 599.444 37.0623 596.601 38.0825C593.758 39.1027 591.317 40.8786 589.594 43.1798C587.872 45.481 586.948 48.2013 586.941 50.9877C586.816 54.5528 588.246 58.0177 590.918 60.6231C593.589 63.2285 597.283 64.7619 601.192 64.8875V64.8875Z" fill="#E6E6E6"/>
<path d="M545.63 64.8875C548.679 65.0684 551.716 64.4096 554.349 62.9963C556.982 61.5831 559.089 59.4807 560.396 56.9621C561.702 54.4435 562.149 51.6248 561.677 48.8718C561.206 46.1189 559.838 43.5588 557.752 41.5236C555.665 39.4883 552.956 38.072 549.976 37.4584C546.996 36.8448 543.882 37.0623 541.039 38.0825C538.196 39.1027 535.755 40.8786 534.032 43.1798C532.31 45.481 531.385 48.2013 531.379 50.9877C531.254 54.5528 532.684 58.0177 535.355 60.6231C538.026 63.2285 541.721 64.7619 545.63 64.8875V64.8875Z" fill="#E6E6E6"/>
<path d="M2239.72 239.929H1657.8C1636.49 239.929 1619.21 262.374 1619.21 290.053V304.735H2278.32V290.053C2278.32 262.374 2261.03 239.929 2239.72 239.929Z" fill="#8AC7FF"/>
<path d="M1795.17 286.261C1798.22 286.441 1801.26 285.783 1803.89 284.369C1806.53 282.956 1808.63 280.854 1809.94 278.335C1811.25 275.817 1811.69 272.998 1811.22 270.245C1810.75 267.492 1809.38 264.932 1807.29 262.897C1805.21 260.861 1802.5 259.445 1799.52 258.831C1796.54 258.218 1793.42 258.435 1790.58 259.455C1787.74 260.476 1785.3 262.252 1783.58 264.553C1781.85 266.854 1780.93 269.574 1780.92 272.361C1780.8 275.926 1782.23 279.391 1784.9 281.996C1787.57 284.601 1791.26 286.135 1795.17 286.261V286.261Z" fill="white"/>
<path d="M1738.23 286.261C1741.28 286.441 1744.31 285.783 1746.95 284.369C1749.58 282.956 1751.69 280.854 1752.99 278.335C1754.3 275.817 1754.75 272.998 1754.28 270.245C1753.8 267.492 1752.44 264.932 1750.35 262.897C1748.26 260.861 1745.55 259.445 1742.57 258.831C1739.59 258.218 1736.48 258.435 1733.64 259.455C1730.79 260.476 1728.35 262.252 1726.63 264.553C1724.91 266.854 1723.98 269.574 1723.98 272.361C1723.85 275.926 1725.28 279.391 1727.95 281.996C1730.62 284.601 1734.32 286.135 1738.23 286.261V286.261Z" fill="white"/>
<path d="M1682.62 286.262C1685.67 286.442 1688.71 285.784 1691.34 284.37C1693.97 282.957 1696.08 280.855 1697.39 278.336C1698.69 275.818 1699.14 272.999 1698.67 270.246C1698.2 267.493 1696.83 264.933 1694.74 262.898C1692.66 260.862 1689.95 259.446 1686.97 258.832C1683.99 258.219 1680.87 258.436 1678.03 259.456C1675.19 260.477 1672.75 262.253 1671.02 264.554C1669.3 266.855 1668.38 269.575 1668.37 272.362C1668.25 275.927 1669.68 279.392 1672.35 281.997C1675.02 284.602 1678.71 286.136 1682.62 286.262V286.262Z" fill="white"/>
<rect x="28.2422" y="86.5967" width="324.892" height="164.525" rx="9" stroke="white" stroke-width="2"/>
<rect x="1668.75" y="1" width="279.491" height="128.73" rx="9" stroke="white" stroke-width="2"/>
<rect x="73.6445" y="516.137" width="279.491" height="128.73" rx="9" stroke="white" stroke-width="2"/>
<defs>
<filter id="filter0_d" x="485.484" y="36.7271" width="1026.16" height="1194.12" filterUnits="userSpaceOnUse" color-interpolation-filters="sRGB">
<feFlood flood-opacity="0" result="BackgroundImageFix"/>
<feColorMatrix in="SourceAlpha" type="matrix" values="0 0 0 0 0 0 0 0 0 0 0 0 0 0 0 0 0 0 127 0"/>
<feOffset dy="4"/>
<feGaussianBlur stdDeviation="2"/>
<feColorMatrix type="matrix" values="0 0 0 0 0 0 0 0 0 0 0 0 0 0 0 0 0 0 0.25 0"/>
<feBlend mode="normal" in2="BackgroundImageFix" result="effect1_dropShadow"/>
<feBlend mode="normal" in="SourceGraphic" in2="effect1_dropShadow" result="shape"/>
</filter>
<filter id="filter1_d" x="640.766" y="242.697" width="757.193" height="649.349" filterUnits="userSpaceOnUse" color-interpolation-filters="sRGB">
<feFlood flood-opacity="0" result="BackgroundImageFix"/>
<feColorMatrix in="SourceAlpha" type="matrix" values="0 0 0 0 0 0 0 0 0 0 0 0 0 0 0 0 0 0 127 0"/>
<feOffset dy="2"/>
<feGaussianBlur stdDeviation="1"/>
<feColorMatrix type="matrix" values="0 0 0 0 0 0 0 0 0 0 0 0 0 0 0 0 0 0 0.25 0"/>
<feBlend mode="normal" in2="BackgroundImageFix" result="effect1_dropShadow"/>
<feBlend mode="normal" in="SourceGraphic" in2="effect1_dropShadow" result="shape"/>
</filter>
<filter id="filter2_d" x="1615.34" y="259.365" width="666.979" height="791.324" filterUnits="userSpaceOnUse" color-interpolation-filters="sRGB">
<feFlood flood-opacity="0" result="BackgroundImageFix"/>
<feColorMatrix in="SourceAlpha" type="matrix" values="0 0 0 0 0 0 0 0 0 0 0 0 0 0 0 0 0 0 127 0"/>
<feOffset dy="4"/>
<feGaussianBlur stdDeviation="2"/>
<feColorMatrix type="matrix" values="0 0 0 0 0 0 0 0 0 0 0 0 0 0 0 0 0 0 0.25 0"/>
<feBlend mode="normal" in2="BackgroundImageFix" result="effect1_dropShadow"/>
<feBlend mode="normal" in="SourceGraphic" in2="effect1_dropShadow" result="shape"/>
</filter>
<filter id="filter3_d" x="1877.03" y="457.934" width="136.457" height="130.33" filterUnits="userSpaceOnUse" color-interpolation-filters="sRGB">
<feFlood flood-opacity="0" result="BackgroundImageFix"/>
<feColorMatrix in="SourceAlpha" type="matrix" values="0 0 0 0 0 0 0 0 0 0 0 0 0 0 0 0 0 0 127 0"/>
<feOffset dy="4"/>
<feGaussianBlur stdDeviation="2"/>
<feColorMatrix type="matrix" values="0 0 0 0 0 0 0 0 0 0 0 0 0 0 0 0 0 0 0.25 0"/>
<feBlend mode="normal" in2="BackgroundImageFix" result="effect1_dropShadow"/>
<feBlend mode="normal" in="SourceGraphic" in2="effect1_dropShadow" result="shape"/>
</filter>
<filter id="filter4_d" x="767.887" y="373.692" width="154.469" height="149.706" filterUnits="userSpaceOnUse" color-interpolation-filters="sRGB">
<feFlood flood-opacity="0" result="BackgroundImageFix"/>
<feColorMatrix in="SourceAlpha" type="matrix" values="0 0 0 0 0 0 0 0 0 0 0 0 0 0 0 0 0 0 127 0"/>
<feOffset dy="4"/>
<feGaussianBlur stdDeviation="2"/>
<feColorMatrix type="matrix" values="0 0 0 0 0 0 0 0 0 0 0 0 0 0 0 0 0 0 0.25 0"/>
<feBlend mode="normal" in2="BackgroundImageFix" result="effect1_dropShadow"/>
<feBlend mode="normal" in="SourceGraphic" in2="effect1_dropShadow" result="shape"/>
</filter>
<filter id="filter5_d" x="943.312" y="373.692" width="154.601" height="149.706" filterUnits="userSpaceOnUse" color-interpolation-filters="sRGB">
<feFlood flood-opacity="0" result="BackgroundImageFix"/>
<feColorMatrix in="SourceAlpha" type="matrix" values="0 0 0 0 0 0 0 0 0 0 0 0 0 0 0 0 0 0 127 0"/>
<feOffset dy="4"/>
<feGaussianBlur stdDeviation="2"/>
<feColorMatrix type="matrix" values="0 0 0 0 0 0 0 0 0 0 0 0 0 0 0 0 0 0 0.25 0"/>
<feBlend mode="normal" in2="BackgroundImageFix" result="effect1_dropShadow"/>
<feBlend mode="normal" in="SourceGraphic" in2="effect1_dropShadow" result="shape"/>
</filter>
<filter id="filter6_d" x="1116.62" y="373.692" width="154.535" height="149.706" filterUnits="userSpaceOnUse" color-interpolation-filters="sRGB">
<feFlood flood-opacity="0" result="BackgroundImageFix"/>
<feColorMatrix in="SourceAlpha" type="matrix" values="0 0 0 0 0 0 0 0 0 0 0 0 0 0 0 0 0 0 127 0"/>
<feOffset dy="4"/>
<feGaussianBlur stdDeviation="2"/>
<feColorMatrix type="matrix" values="0 0 0 0 0 0 0 0 0 0 0 0 0 0 0 0 0 0 0.25 0"/>
<feBlend mode="normal" in2="BackgroundImageFix" result="effect1_dropShadow"/>
<feBlend mode="normal" in="SourceGraphic" in2="effect1_dropShadow" result="shape"/>
</filter>
<linearGradient id="paint0_linear" x1="186634" y1="15185.7" x2="211465" y2="15185.7" gradientUnits="userSpaceOnUse">
<stop stop-color="#012666"/>
<stop offset="0.33" stop-color="#113B81"/>
<stop offset="0.76" stop-color="#23529F"/>
<stop offset="1" stop-color="#2A5BAA"/>
</linearGradient>
<linearGradient id="paint1_linear" x1="149532" y1="15188" x2="171713" y2="15188" gradientUnits="userSpaceOnUse">
<stop stop-color="#012666"/>
<stop offset="0.33" stop-color="#113B81"/>
<stop offset="0.76" stop-color="#23529F"/>
<stop offset="1" stop-color="#2A5BAA"/>
</linearGradient>
</defs>
</svg>
