<svg width="1559" height="965" viewBox="0 0 1559 965" fill="none" xmlns="http://www.w3.org/2000/svg">
<g filter="url(#filter0_d)">
<path d="M974.287 25.6455H369.301C356.694 25.6455 329.348 46.2754 329.348 67.6616V815.086C329.348 836.515 339.602 853.867 352.21 853.867H969.714C999.768 853.867 1014.42 836.515 1014.42 815.086V67.7036C1014.42 46.2754 986.894 25.6455 974.287 25.6455Z" fill="#F9F9F9"/>
</g>
<g filter="url(#filter1_d)">
<path d="M939.277 181.467C939.277 174.839 933.905 169.467 927.277 169.467H444.488C437.861 169.467 432.488 174.839 432.488 181.467V608.09C432.488 614.717 437.861 620.09 444.488 620.09H927.277C933.905 620.09 939.277 614.717 939.277 608.09V181.467Z" fill="white"/>
<path d="M444.488 169.967H927.277C933.628 169.967 938.777 175.116 938.777 181.467V608.09C938.777 614.441 933.628 619.59 927.277 619.59H444.488C438.137 619.59 432.988 614.441 432.988 608.09V181.467C432.988 175.116 438.137 169.967 444.488 169.967Z" stroke="#FFFCFC"/>
</g>
<g filter="url(#filter2_d)">
<path d="M1511.92 181H1119.08C1115.26 181 1111.48 181.727 1107.95 183.139C1104.42 184.551 1101.22 186.621 1098.52 189.23C1095.82 191.839 1093.67 194.937 1092.21 198.346C1090.75 201.755 1090 205.409 1090 209.099V720.901C1090 724.591 1090.75 728.245 1092.21 731.654C1093.67 735.063 1095.82 738.161 1098.52 740.77C1101.22 743.379 1104.42 745.449 1107.95 746.861C1111.48 748.273 1115.26 749 1119.08 749H1511.92C1515.74 749 1519.52 748.273 1523.05 746.861C1526.58 745.449 1529.78 743.379 1532.48 740.77C1535.18 738.161 1537.32 735.063 1538.79 731.654C1540.25 728.245 1541 724.591 1541 720.901V209.317C1541.03 205.609 1540.3 201.931 1538.85 198.497C1537.4 195.063 1535.27 191.939 1532.56 189.307C1529.86 186.675 1526.64 184.585 1523.1 183.16C1519.56 181.734 1515.76 181 1511.92 181Z" fill="#F9F9F9"/>
</g>
<path d="M1479.54 900.212C1523.4 900.212 1559 895.17 1559 888.994C1559 882.817 1523.49 877.775 1479.54 877.775C1435.59 877.775 1400.07 882.817 1400.07 888.994C1400.07 895.17 1435.68 900.212 1479.54 900.212Z" fill="url(#paint0_linear)"/>
<path d="M685.244 900.464C729.104 900.464 764.708 895.422 764.708 889.246C764.708 883.069 729.193 878.027 685.244 878.027C641.295 878.027 605.781 883.069 605.781 889.246C605.781 895.422 641.34 900.464 685.244 900.464Z" fill="url(#paint1_linear)"/>
<path d="M182.321 965C283.004 965 364.643 961.135 364.643 956.387C364.643 951.639 283.004 947.773 182.321 947.773C81.6385 947.773 0 951.639 0 956.387C0 961.135 81.6385 965 182.321 965Z" fill="#012666"/>
<path d="M1415.78 336.565H1413.48V275.81C1413.48 266.524 1409.6 257.614 1402.69 251.02C1399.28 247.772 1395.23 245.194 1390.76 243.435C1386.3 241.675 1381.51 240.769 1376.67 240.769H1241.94C1237.11 240.769 1232.32 241.675 1227.85 243.435C1223.39 245.194 1219.34 247.772 1215.93 251.02C1209.02 257.614 1205.14 266.524 1205.14 275.81V608.284C1205.14 617.57 1209.02 626.48 1215.93 633.073C1219.34 636.321 1223.39 638.899 1227.85 640.659C1232.32 642.418 1237.11 643.324 1241.94 643.325H1376.67C1381.51 643.324 1386.3 642.418 1390.76 640.659C1395.23 638.899 1399.28 636.321 1402.69 633.073C1409.6 626.48 1413.48 617.57 1413.48 608.284V379.548H1415.78V336.565Z" fill="#3F3D56"/>
<path d="M1376.68 249.887H1358.92C1360.11 252.737 1360.17 255.9 1359.07 258.785C1357.98 261.669 1355.81 264.078 1352.97 265.559C1351.09 266.518 1348.99 267.023 1346.85 267.029H1269.78C1267.64 267.025 1265.53 266.52 1263.64 265.56C1261.75 264.6 1260.14 263.214 1258.95 261.525C1257.76 259.825 1257.03 257.878 1256.81 255.851C1256.6 253.824 1256.9 251.777 1257.71 249.887H1241.28C1237.66 249.89 1234.08 250.571 1230.75 251.891C1227.41 253.21 1224.38 255.143 1221.84 257.576C1216.68 262.505 1213.79 269.166 1213.8 276.105V608.032C1213.76 614.918 1216.59 621.542 1221.66 626.477C1224.2 628.91 1227.23 630.843 1230.57 632.162C1233.91 633.482 1237.49 634.163 1241.1 634.166H1376.5C1380.12 634.163 1383.7 633.482 1387.04 632.162C1390.37 630.843 1393.4 628.91 1395.95 626.477C1401.1 621.548 1403.99 614.887 1403.98 607.948V276.021C1403.99 269.083 1401.1 262.423 1395.95 257.492C1390.84 252.649 1383.91 249.915 1376.68 249.887Z" fill="white"/>
<path d="M808.804 455.05H500.496V468.957H808.804V455.05Z" fill="#F4F4F4"/>
<path d="M808.804 499.923H500.496V513.83H808.804V499.923Z" fill="#71B4FF"/>
<path d="M808.804 544.755H500.496V558.662H808.804V544.755Z" fill="#F4F4F4"/>
<path d="M1388.22 458.413H1232.85V470.43H1388.22V458.413Z" fill="#F4F4F4"/>
<path d="M1388.22 495.805H1232.85V507.821H1388.22V495.805Z" fill="#F4F4F4"/>
<path d="M1388.22 533.075H1232.85V545.092H1388.22V533.075Z" fill="#F4F4F4"/>
<path d="M1422.89 691.223V661.602H1392.88V691.223H1422.89Z" fill="#3F3D56"/>
<path d="M1374.55 691.223V661.602H1344.54V691.223H1374.55Z" fill="#F9B564"/>
<path d="M1326.24 691.223V661.602H1296.23V691.223H1326.24Z" fill="#3F3D56"/>
<path d="M1277.91 691.223V661.602H1247.9V691.223H1277.91Z" fill="#3F3D56"/>
<path d="M1229.59 691.223V661.602H1199.45V691.223H1229.59Z" fill="#3F3D56"/>
<g filter="url(#filter3_d)">
<path d="M1338.46 319.759H1279.37C1275.73 319.759 1272.24 321.127 1269.67 323.561C1267.1 325.996 1265.65 329.298 1265.65 332.742V392.195C1265.65 395.638 1267.1 398.94 1269.67 401.375C1272.24 403.81 1275.73 405.178 1279.37 405.178H1338.37C1340.17 405.178 1341.95 404.842 1343.62 404.189C1345.28 403.537 1346.79 402.581 1348.07 401.375C1349.34 400.169 1350.35 398.738 1351.04 397.163C1351.73 395.588 1352.09 393.899 1352.09 392.195V332.7C1352.07 329.278 1350.64 325.999 1348.08 323.576C1345.53 321.153 1342.07 319.781 1338.46 319.759Z" fill="#F9B564"/>
</g>
<path d="M614.886 541.016L613.598 543.579L609.736 524.378C609.736 524.378 604.542 503.916 614.93 503.916C625.318 503.916 622.699 524.378 622.699 524.378V538.243L614.886 541.016Z" fill="#A0616A"/>
<path d="M784.69 538.243L785.977 540.806L789.839 521.604C789.839 521.604 795.033 501.143 784.645 501.143C774.257 501.143 776.876 521.604 776.876 521.604V535.68L784.69 538.243Z" fill="#A0616A"/>
<path d="M671.842 684.838L656.305 779.458L664.073 871.515L682.186 863.826L679.611 794.752L697.812 739.921L701.674 805.13L693.905 872.902L717.212 875.465L734.036 736.055L732.749 688.745L671.842 684.838Z" fill="#1F2D4F"/>
<path d="M671.843 860.005L662.965 874.08V905.508C662.963 906.412 663.293 907.288 663.897 907.987C664.474 908.672 665.295 909.135 666.205 909.29C670.645 910.004 678.369 910.508 681.077 906.054C684.939 899.668 682.365 885.593 682.365 885.593C682.365 885.593 687.558 875.383 684.939 867.694C682.32 860.005 679.745 858.744 679.745 858.744L671.843 860.005Z" fill="#1F2D4F"/>
<path d="M710.644 872.818L713.219 876.642C713.219 876.642 717.081 880.465 714.507 883.028C712.595 885.02 710.858 887.156 709.313 889.415C709.313 889.415 695.062 893.238 695.062 888.154V871.348L710.644 872.818Z" fill="#1F2D4F"/>
<path d="M705.976 580.719C709.512 580.836 713.004 579.951 716.004 578.177C719.005 576.403 721.377 573.821 722.817 570.762C724.257 567.703 724.699 564.307 724.085 561.009C723.472 557.711 721.832 554.662 719.375 552.252C716.918 549.843 713.757 548.183 710.296 547.485C706.836 546.787 703.234 547.084 699.953 548.337C696.672 549.59 693.861 551.742 691.881 554.517C689.901 557.292 688.842 560.564 688.84 563.912C688.837 568.27 690.622 572.458 693.819 575.593C697.016 578.729 701.375 580.566 705.976 580.719Z" fill="#A0616A"/>
<path d="M694.49 569.081L693.203 593.366L716.509 594.627L715.222 570.342L694.49 569.081Z" fill="#A0616A"/>
<path d="M719.692 595.302L716.007 586.436C716.007 586.436 698.96 579.966 693.811 586.436L691.236 594.125L670.549 588.999L658.918 614.587L669.262 687.485C669.262 687.485 696.43 722.022 732.654 688.746L742.998 619.671L735.229 592.865L719.692 595.302Z" fill="#7DA0C1"/>
<path d="M732.676 597.863L735.251 592.737L761.132 577.401L776.936 531.184L789.144 536.351L775.338 591.435L737.781 625.972L732.676 597.863Z" fill="#7DA0C1"/>
<path d="M673.131 591.477L670.556 588.914L643.388 572.108L623.944 534.041L608.406 539.167L625.231 586.477L666.65 619.712L673.131 591.477Z" fill="#7DA0C1"/>
<path d="M718.731 537.823L721.527 536.437L717.31 535.05V533.664C717.31 533.664 696.268 525.26 693.471 539.21C689.842 544.078 687.895 549.89 687.895 555.848C687.895 561.806 689.842 567.618 693.471 572.486V576.688L715.889 579.461L718.686 571.058C718.686 571.058 732.759 546.142 718.731 537.823Z" fill="#1F2D4F"/>
<path d="M200.965 764.668L195.993 767.147C195.993 767.147 176.06 776.18 181.876 781.096C187.691 786.012 203.495 776.18 203.495 776.18L206.825 771.979L200.965 764.668Z" fill="#FFB8B8"/>
<path d="M346.855 763.449L331.451 865.674L308.189 937.102L295.715 931.346L307.168 833.616L273.918 805.675L276.404 764.626L346.855 763.449Z" fill="#1F2D4F"/>
<path d="M293.827 933.824C293.827 933.824 307.944 926.429 308.788 937.101L307.145 947.773C307.145 947.773 312.117 966.681 295.514 962.563C278.911 958.446 290.542 946.135 290.542 946.135L293.827 933.824Z" fill="#1F2D4F"/>
<path d="M284.963 796.683L274.176 805.716C274.176 805.716 274.176 861.555 281.634 869.749C289.092 877.942 336.459 919.832 338.146 921.47C339.833 923.109 347.291 905.042 347.291 905.042L302.321 853.362L305.65 821.346L284.963 796.683Z" fill="#1F2D4F"/>
<path d="M342.232 902.608C342.232 902.608 355.55 900.129 355.55 909.163C355.708 916.299 356.256 923.424 357.192 930.507C357.192 930.507 360.522 959.246 349.734 955.128C338.947 951.011 334.773 922.272 334.773 922.272C335.751 919.907 337.491 917.893 339.746 916.515C343.075 914.919 342.232 902.608 342.232 902.608Z" fill="#1F2D4F"/>
<path d="M300.687 641.475L303.173 671.852L296.514 683.365L278.225 666.138L276.582 643.155L300.687 641.475Z" fill="#FFB8B8"/>
<path d="M285.715 651.351C289.866 651.519 293.975 650.507 297.514 648.446C301.052 646.386 303.859 643.37 305.571 639.787C307.284 636.204 307.825 632.219 307.125 628.342C306.425 624.466 304.515 620.877 301.642 618.036C298.769 615.196 295.063 613.234 291.002 612.403C286.941 611.572 282.71 611.91 278.854 613.374C274.997 614.837 271.692 617.359 269.362 620.616C267.033 623.872 265.786 627.713 265.782 631.646C265.723 634.178 266.192 636.697 267.162 639.058C268.132 641.42 269.584 643.577 271.435 645.407C273.286 647.237 275.5 648.704 277.95 649.724C280.4 650.744 283.039 651.297 285.715 651.351Z" fill="#FFB8B8"/>
<path d="M293.842 671.055L302.143 647.232L317.104 663.661L344.538 767.945L323.763 780.255L314.618 767.104L312.975 784.331L272.267 775.928L268.938 665.888L277.239 654.333L293.842 671.055Z" fill="#D0CDE1"/>
<path d="M282.375 787.651L277.403 654.628L266.616 663.031L246.684 676.182L260.001 722.988L264.174 772.273L282.375 787.651Z" fill="#1F2D4F"/>
<path d="M252.473 676.895L246.658 676.055L230.055 724.499L196.805 765.549L209.279 778.7L247.501 741.726L261.618 711.348L252.473 676.895Z" fill="#1F2D4F"/>
<path d="M301.029 645.889L342.226 661.981L337.254 711.266L347.242 765.467L337.254 776.139L300.363 652.863L301.029 645.889Z" fill="#1F2D4F"/>
<path d="M286.771 598.537L292.631 595.638V598.537L296.537 596.604V601.268C296.537 601.268 311.187 611.856 308.257 624.419C305.327 636.982 305.327 637.906 305.327 637.906C305.327 637.906 301.643 614.083 286.993 617.906C272.343 621.73 271.189 622.444 267.283 633.074L266.217 637.612C266.217 637.612 249.659 600.47 286.771 598.537Z" fill="#1F2D4F"/>
<path d="M336.428 662.023H343.087L353.875 719.502V769.585L340.557 767.106L329.77 691.477L336.428 662.023Z" fill="#1F2D4F"/>
<path d="M221.493 783.576H35.8863C28.0097 783.576 20.4556 786.538 14.886 791.809C9.31641 797.08 6.1875 804.23 6.1875 811.685V951.851H251.192V811.685C251.192 804.23 248.063 797.08 242.493 791.809C236.923 786.538 229.369 783.576 221.493 783.576V783.576Z" fill="#71B4FF"/>
<path d="M128.71 816.39C118.382 816.405 108.308 819.426 99.8551 825.045C91.2305 830.779 84.577 838.786 80.7218 848.07C76.7853 857.477 75.7539 867.75 77.7476 877.691C79.7083 887.558 84.6417 896.678 91.9533 903.951C99.1233 911.077 108.413 915.971 118.589 917.985C128.669 919.975 139.152 918.962 148.599 915.085C158.185 911.123 166.301 904.539 171.905 896.178C178.597 886.244 181.593 874.48 180.419 862.751C179.245 851.022 173.968 839.999 165.423 831.431C160.692 826.71 155.001 822.943 148.692 820.358C142.382 817.773 135.585 816.423 128.71 816.39V816.39ZM128.71 831.767C131.81 831.774 134.833 832.684 137.367 834.373C139.947 836.089 141.938 838.485 143.094 841.263C144.278 844.092 144.586 847.182 143.982 850.171C143.339 853.142 141.796 855.872 139.542 858.028C137.389 860.161 134.603 861.626 131.552 862.229C128.566 862.797 125.469 862.489 122.673 861.347C119.806 860.154 117.379 858.179 115.703 855.675C113.703 852.694 112.808 849.167 113.162 845.652C113.516 842.136 115.097 838.833 117.657 836.263C119.087 834.854 120.803 833.733 122.703 832.968C124.602 832.202 126.646 831.808 128.71 831.809V831.767ZM128.71 905.842C122.511 905.89 116.4 904.444 110.953 901.64C105.552 898.714 100.982 894.591 97.6355 889.624C97.9018 879.372 118.411 873.7 128.71 873.7C139.01 873.7 159.785 879.33 159.785 889.624C156.437 894.588 151.867 898.711 146.468 901.64C141.024 904.455 134.914 905.916 128.71 905.884V905.842Z" fill="white"/>
<path d="M876.277 221.441H500.758V394.758H876.277V221.441Z" fill="#F4F4F4"/>
<path d="M1415.64 567.989L1417.06 558.914C1417.06 558.914 1425.37 540.259 1418.8 539.25C1412.23 538.242 1406.77 556.057 1406.77 556.057L1409.16 575.006L1415.64 567.989Z" fill="#FFB8B8"/>
<path opacity="0.2" d="M1482.82 619.46L1424.17 607.822L1417.38 565.805L1400.11 564.503L1400.96 619.124L1451.92 645.51L1482.82 619.46Z" fill="black"/>
<path d="M1323.3 556.814H1503.27V542.906H1323.3V556.814Z" fill="#71B4FF"/>
<path d="M1404.2 564.881V555.679C1404.2 555.679 1409.53 536.016 1402.91 536.016C1396.3 536.016 1393.59 554.377 1393.59 554.377L1398.87 572.738L1404.2 564.881Z" fill="#FFB8B8"/>
<path d="M1480.51 591.184L1488.54 589.251C1491.62 589.248 1494.66 588.572 1497.42 587.276C1500.21 585.956 1502.65 584.061 1504.57 581.73C1506.52 579.362 1507.91 576.625 1508.65 573.705C1509.33 570.742 1509.33 567.676 1508.65 564.713C1508.66 561.205 1507.97 557.726 1506.61 554.461C1505.27 551.232 1503.28 548.278 1500.75 545.764C1498.23 543.287 1495.21 541.316 1491.87 539.966C1488.6 538.621 1485.07 537.927 1481.5 537.927C1477.94 537.927 1474.41 538.621 1471.14 539.966C1467.8 541.315 1464.78 543.287 1462.26 545.764C1459.74 548.266 1457.75 551.205 1456.4 554.419C1455.03 557.681 1454.32 561.16 1454.31 564.671C1453.34 568.269 1453.34 572.04 1454.31 575.638C1455.2 579.227 1457.05 582.54 1459.68 585.259C1462.26 587.919 1465.54 589.877 1469.18 590.931C1472.86 592.015 1476.78 592.102 1480.51 591.184Z" fill="#1F2D4F"/>
<path d="M1433.18 723.661L1439.75 794.542L1451.61 864.079H1471.54L1468.96 795.845L1458.44 713.157L1433.18 723.661Z" fill="#1F2D4F"/>
<path d="M1454.29 860.171L1440.97 868.028C1440.97 868.028 1419.7 870.633 1423.7 877.188C1427.69 883.742 1474.13 879.877 1474.13 877.188C1474.13 874.499 1472.84 860.129 1470.18 860.129L1454.29 860.171Z" fill="#1F2D4F"/>
<path d="M1491.97 717.567C1490.77 726.757 1487.47 735.589 1482.3 743.449L1483.58 791.978L1531.3 852.397L1514.04 866.809L1455.7 801.137L1441.19 722.399L1459.79 704.038L1491.97 717.567Z" fill="#1F2D4F"/>
<path d="M1527.32 852.354C1527.32 852.354 1543.25 855.002 1540.63 861.556C1538.01 868.111 1531.31 898.278 1514 894.329C1514 894.329 1506.05 894.329 1508.67 889.077C1510.27 885.934 1512.05 882.876 1514 879.917V862.859L1527.32 852.354Z" fill="#1F2D4F"/>
<path d="M1471.89 592.529C1476.04 592.697 1480.15 591.684 1483.69 589.621C1487.23 587.559 1490.04 584.541 1491.75 580.955C1493.46 577.37 1494 573.382 1493.3 569.505C1492.59 565.627 1490.68 562.038 1487.8 559.199C1484.92 556.36 1481.21 554.401 1477.15 553.575C1473.09 552.749 1468.85 553.093 1465 554.563C1461.14 556.033 1457.84 558.562 1455.52 561.824C1453.19 565.086 1451.95 568.931 1451.96 572.865C1451.85 577.973 1453.89 582.913 1457.63 586.599C1461.36 590.286 1466.49 592.419 1471.89 592.529Z" fill="#FFB8B8"/>
<path d="M1481.19 585.974V608.284H1459.93L1462.64 585.974H1481.19Z" fill="#FFB8B8"/>
<path d="M1454.58 600.386L1461.02 598.831L1481.13 600.428C1481.13 600.428 1491.74 610.932 1490.4 613.579C1489.07 616.226 1482.37 680.468 1482.37 680.468L1494.27 726.392L1451.78 728.955L1430.56 726.308L1434.65 643.662C1434.65 643.662 1425.37 621.352 1437.35 614.797C1444.14 611.246 1450.02 606.326 1454.58 600.386V600.386Z" fill="#FF9793"/>
<path d="M1478.47 605.469L1418.72 602.78L1405.4 562.108L1388.13 563.411L1397.37 617.234L1451.79 635.679L1478.47 605.469Z" fill="#FF9793"/>
<path d="M1510.19 558.328C1512.85 558.42 1515.47 557.76 1517.72 556.432C1519.97 555.104 1521.76 553.169 1522.84 550.876C1523.92 548.582 1524.26 546.035 1523.8 543.56C1523.34 541.085 1522.11 538.796 1520.27 536.987C1518.43 535.177 1516.06 533.93 1513.46 533.405C1510.87 532.88 1508.17 533.101 1505.7 534.04C1503.24 534.979 1501.13 536.593 1499.65 538.675C1498.16 540.756 1497.37 543.211 1497.36 545.723C1497.36 548.988 1498.7 552.126 1501.09 554.477C1503.48 556.828 1506.75 558.208 1510.19 558.328V558.328Z" fill="#1F2D4F"/>
<path d="M1498.48 538.829C1498.49 536.959 1498.91 535.111 1499.73 533.409C1500.55 531.791 1501.73 530.359 1503.19 529.208C1504.64 528.033 1506.36 527.186 1508.21 526.729C1510.06 526.316 1511.99 526.316 1513.84 526.729C1512.19 525.989 1510.39 525.604 1508.56 525.604C1506.73 525.604 1504.93 525.989 1503.28 526.729C1501.58 527.437 1500.07 528.483 1498.84 529.796C1497.6 531.126 1496.66 532.685 1496.09 534.376C1495.52 536.086 1495.32 537.889 1495.51 539.673C1495.7 541.457 1496.28 543.186 1497.2 544.754C1498.1 546.297 1499.34 547.643 1500.84 548.703C1502.3 549.748 1503.98 550.48 1505.76 550.846C1503.54 549.794 1501.67 548.162 1500.39 546.14C1499.01 543.933 1498.35 541.391 1498.48 538.829V538.829Z" fill="#1F2D4F"/>
<path d="M1487.44 546.016L1470.13 542.865L1456.81 551.268C1453.5 553.333 1450.88 556.248 1449.26 559.672C1447.62 563.148 1447.01 566.982 1447.49 570.764L1460.81 567.403L1463.78 560.008L1467.33 565.764L1481.76 590.722L1496.36 582.865L1505.69 568.453L1487.44 546.016Z" fill="#1F2D4F"/>
<g filter="url(#filter4_d)">
<path d="M617.912 260.936H519.359V359.883H617.912V260.936Z" fill="#C84962"/>
</g>
<path opacity="0.81" d="M841.699 261.085H766.897C760.327 261.085 755 266.126 755 272.345V348.773C755 354.992 760.327 360.033 766.897 360.033H841.699C848.27 360.033 853.596 354.992 853.596 348.773V272.345C853.596 266.126 848.27 261.085 841.699 261.085Z" fill="#71B4FF"/>
<g opacity="0.81" filter="url(#filter5_d)">
<path opacity="0.81" d="M853.641 261H755V359.948H853.596L853.641 261Z" fill="#71B4FF"/>
</g>
<g filter="url(#filter6_d)">
<path d="M735.597 261H637V359.948H735.597V261Z" fill="#FF9793"/>
</g>
<path d="M974.287 13.054H369.301C358.973 12.8393 348.974 16.5009 341.489 23.2394C334.003 29.978 329.638 39.246 329.348 49.0198V59.5658H1014.42V49.0198C1014.13 39.2162 1009.74 29.9223 1002.21 23.179C994.69 16.4357 984.645 12.7941 974.287 13.054Z" fill="#8AC7FF"/>
<path d="M442.879 45.3099C444.931 45.4362 446.975 44.9762 448.746 43.9894C450.518 43.0026 451.935 41.5346 452.815 39.7759C453.694 38.0172 453.994 36.0491 453.677 34.1268C453.36 32.2045 452.439 30.4169 451.035 28.9957C449.631 27.5746 447.809 26.5857 445.803 26.1572C443.798 25.7288 441.703 25.8806 439.79 26.593C437.877 27.3054 436.235 28.5454 435.076 30.1523C433.917 31.7591 433.295 33.6586 433.29 35.6042C433.206 38.0936 434.169 40.513 435.966 42.3322C437.763 44.1515 440.249 45.2222 442.879 45.3099V45.3099Z" fill="#E6E6E6"/>
<path d="M404.512 45.3099C406.563 45.4362 408.607 44.9762 410.379 43.9894C412.151 43.0026 413.568 41.5346 414.447 39.7759C415.326 38.0172 415.627 36.0491 415.309 34.1268C414.992 32.2045 414.072 30.4169 412.668 28.9957C411.264 27.5746 409.441 26.5857 407.436 26.1572C405.431 25.7288 403.336 25.8806 401.423 26.593C399.51 27.3054 397.867 28.5454 396.708 30.1523C395.549 31.7591 394.927 33.6586 394.923 35.6042C394.839 38.0936 395.801 40.513 397.599 42.3322C399.396 44.1515 401.882 45.2222 404.512 45.3099V45.3099Z" fill="#E6E6E6"/>
<path d="M367.129 45.3099C369.181 45.4362 371.225 44.9762 372.996 43.9894C374.768 43.0026 376.185 41.5346 377.065 39.7759C377.944 38.0172 378.244 36.0491 377.927 34.1268C377.61 32.2045 376.689 30.4169 375.285 28.9957C373.881 27.5746 372.059 26.5857 370.053 26.1572C368.048 25.7288 365.953 25.8806 364.04 26.593C362.127 27.3054 360.485 28.5454 359.326 30.1523C358.167 31.7591 357.545 33.6586 357.54 35.6042C357.456 38.0936 358.419 40.513 360.216 42.3322C362.013 44.1515 364.499 45.2222 367.129 45.3099V45.3099Z" fill="#E6E6E6"/>
<path d="M1507.01 167.534H1115.46C1101.12 167.534 1089.49 183.206 1089.49 202.534V212.786H1532.98V202.534C1532.98 183.206 1521.35 167.534 1507.01 167.534Z" fill="#8AC7FF"/>
<path d="M1207.89 199.886C1209.94 200.012 1211.99 199.552 1213.76 198.566C1215.53 197.579 1216.95 196.111 1217.83 194.352C1218.71 192.593 1219.01 190.625 1218.69 188.703C1218.37 186.781 1217.45 184.993 1216.05 183.572C1214.64 182.151 1212.82 181.162 1210.82 180.733C1208.81 180.305 1206.71 180.457 1204.8 181.169C1202.89 181.881 1201.25 183.122 1200.09 184.728C1198.93 186.335 1198.31 188.235 1198.3 190.18C1198.22 192.67 1199.18 195.089 1200.98 196.908C1202.77 198.728 1205.26 199.798 1207.89 199.886V199.886Z" fill="white"/>
<path d="M1169.57 199.886C1171.63 200.012 1173.67 199.552 1175.44 198.566C1177.21 197.579 1178.63 196.111 1179.51 194.352C1180.39 192.593 1180.69 190.625 1180.37 188.703C1180.06 186.781 1179.13 184.993 1177.73 183.572C1176.33 182.151 1174.5 181.162 1172.5 180.733C1170.49 180.305 1168.4 180.457 1166.49 181.169C1164.57 181.881 1162.93 183.122 1161.77 184.728C1160.61 186.335 1159.99 188.235 1159.99 190.18C1159.9 192.67 1160.86 195.089 1162.66 196.908C1164.46 198.728 1166.94 199.798 1169.57 199.886V199.886Z" fill="white"/>
<path d="M1132.16 199.887C1134.21 200.013 1136.26 199.553 1138.03 198.566C1139.8 197.58 1141.22 196.112 1142.1 194.353C1142.97 192.594 1143.28 190.626 1142.96 188.704C1142.64 186.782 1141.72 184.994 1140.32 183.573C1138.91 182.152 1137.09 181.163 1135.08 180.734C1133.08 180.306 1130.98 180.458 1129.07 181.17C1127.16 181.882 1125.52 183.123 1124.36 184.729C1123.2 186.336 1122.58 188.236 1122.57 190.181C1122.49 192.671 1123.45 195.09 1125.25 196.909C1127.04 198.729 1129.53 199.799 1132.16 199.887V199.887Z" fill="white"/>
<rect x="19.3281" y="60.7695" width="217.951" height="114.278" rx="9" stroke="white" stroke-width="2"/>
<rect x="1123.16" y="1" width="187.402" height="89.2837" rx="9" stroke="white" stroke-width="2"/>
<rect x="49.8789" y="360.701" width="187.402" height="89.2837" rx="9" stroke="white" stroke-width="2"/>
<defs>
<filter id="filter0_d" x="325.348" y="25.6455" width="693.07" height="836.222" filterUnits="userSpaceOnUse" color-interpolation-filters="sRGB">
<feFlood flood-opacity="0" result="BackgroundImageFix"/>
<feColorMatrix in="SourceAlpha" type="matrix" values="0 0 0 0 0 0 0 0 0 0 0 0 0 0 0 0 0 0 127 0"/>
<feOffset dy="4"/>
<feGaussianBlur stdDeviation="2"/>
<feColorMatrix type="matrix" values="0 0 0 0 0 0 0 0 0 0 0 0 0 0 0 0 0 0 0.25 0"/>
<feBlend mode="normal" in2="BackgroundImageFix" result="effect1_dropShadow"/>
<feBlend mode="normal" in="SourceGraphic" in2="effect1_dropShadow" result="shape"/>
</filter>
<filter id="filter1_d" x="430.488" y="169.467" width="510.789" height="454.623" filterUnits="userSpaceOnUse" color-interpolation-filters="sRGB">
<feFlood flood-opacity="0" result="BackgroundImageFix"/>
<feColorMatrix in="SourceAlpha" type="matrix" values="0 0 0 0 0 0 0 0 0 0 0 0 0 0 0 0 0 0 127 0"/>
<feOffset dy="2"/>
<feGaussianBlur stdDeviation="1"/>
<feColorMatrix type="matrix" values="0 0 0 0 0 0 0 0 0 0 0 0 0 0 0 0 0 0 0.25 0"/>
<feBlend mode="normal" in2="BackgroundImageFix" result="effect1_dropShadow"/>
<feBlend mode="normal" in="SourceGraphic" in2="effect1_dropShadow" result="shape"/>
</filter>
<filter id="filter2_d" x="1086" y="181" width="459" height="576" filterUnits="userSpaceOnUse" color-interpolation-filters="sRGB">
<feFlood flood-opacity="0" result="BackgroundImageFix"/>
<feColorMatrix in="SourceAlpha" type="matrix" values="0 0 0 0 0 0 0 0 0 0 0 0 0 0 0 0 0 0 127 0"/>
<feOffset dy="4"/>
<feGaussianBlur stdDeviation="2"/>
<feColorMatrix type="matrix" values="0 0 0 0 0 0 0 0 0 0 0 0 0 0 0 0 0 0 0.25 0"/>
<feBlend mode="normal" in2="BackgroundImageFix" result="effect1_dropShadow"/>
<feBlend mode="normal" in="SourceGraphic" in2="effect1_dropShadow" result="shape"/>
</filter>
<filter id="filter3_d" x="1261.65" y="319.759" width="94.433" height="93.4187" filterUnits="userSpaceOnUse" color-interpolation-filters="sRGB">
<feFlood flood-opacity="0" result="BackgroundImageFix"/>
<feColorMatrix in="SourceAlpha" type="matrix" values="0 0 0 0 0 0 0 0 0 0 0 0 0 0 0 0 0 0 127 0"/>
<feOffset dy="4"/>
<feGaussianBlur stdDeviation="2"/>
<feColorMatrix type="matrix" values="0 0 0 0 0 0 0 0 0 0 0 0 0 0 0 0 0 0 0.25 0"/>
<feBlend mode="normal" in2="BackgroundImageFix" result="effect1_dropShadow"/>
<feBlend mode="normal" in="SourceGraphic" in2="effect1_dropShadow" result="shape"/>
</filter>
<filter id="filter4_d" x="515.359" y="260.936" width="106.552" height="106.948" filterUnits="userSpaceOnUse" color-interpolation-filters="sRGB">
<feFlood flood-opacity="0" result="BackgroundImageFix"/>
<feColorMatrix in="SourceAlpha" type="matrix" values="0 0 0 0 0 0 0 0 0 0 0 0 0 0 0 0 0 0 127 0"/>
<feOffset dy="4"/>
<feGaussianBlur stdDeviation="2"/>
<feColorMatrix type="matrix" values="0 0 0 0 0 0 0 0 0 0 0 0 0 0 0 0 0 0 0.25 0"/>
<feBlend mode="normal" in2="BackgroundImageFix" result="effect1_dropShadow"/>
<feBlend mode="normal" in="SourceGraphic" in2="effect1_dropShadow" result="shape"/>
</filter>
<filter id="filter5_d" x="751" y="261" width="106.641" height="106.948" filterUnits="userSpaceOnUse" color-interpolation-filters="sRGB">
<feFlood flood-opacity="0" result="BackgroundImageFix"/>
<feColorMatrix in="SourceAlpha" type="matrix" values="0 0 0 0 0 0 0 0 0 0 0 0 0 0 0 0 0 0 127 0"/>
<feOffset dy="4"/>
<feGaussianBlur stdDeviation="2"/>
<feColorMatrix type="matrix" values="0 0 0 0 0 0 0 0 0 0 0 0 0 0 0 0 0 0 0.25 0"/>
<feBlend mode="normal" in2="BackgroundImageFix" result="effect1_dropShadow"/>
<feBlend mode="normal" in="SourceGraphic" in2="effect1_dropShadow" result="shape"/>
</filter>
<filter id="filter6_d" x="633" y="261" width="106.597" height="106.948" filterUnits="userSpaceOnUse" color-interpolation-filters="sRGB">
<feFlood flood-opacity="0" result="BackgroundImageFix"/>
<feColorMatrix in="SourceAlpha" type="matrix" values="0 0 0 0 0 0 0 0 0 0 0 0 0 0 0 0 0 0 127 0"/>
<feOffset dy="4"/>
<feGaussianBlur stdDeviation="2"/>
<feColorMatrix type="matrix" values="0 0 0 0 0 0 0 0 0 0 0 0 0 0 0 0 0 0 0.25 0"/>
<feBlend mode="normal" in2="BackgroundImageFix" result="effect1_dropShadow"/>
<feBlend mode="normal" in="SourceGraphic" in2="effect1_dropShadow" result="shape"/>
</filter>
<linearGradient id="paint0_linear" x1="125577" y1="10603.6" x2="142285" y2="10603.6" gradientUnits="userSpaceOnUse">
<stop stop-color="#012666"/>
<stop offset="0.33" stop-color="#113B81"/>
<stop offset="0.76" stop-color="#23529F"/>
<stop offset="1" stop-color="#2A5BAA"/>
</linearGradient>
<linearGradient id="paint1_linear" x1="100613" y1="10605.2" x2="115538" y2="10605.2" gradientUnits="userSpaceOnUse">
<stop stop-color="#012666"/>
<stop offset="0.33" stop-color="#113B81"/>
<stop offset="0.76" stop-color="#23529F"/>
<stop offset="1" stop-color="#2A5BAA"/>
</linearGradient>
</defs>
</svg>
