<svg width="470" height="297" viewBox="0 0 470 297" fill="none" xmlns="http://www.w3.org/2000/svg">
<g filter="url(#filter0_d)">
<path d="M293.579 3.93213H111.281C107.482 3.93213 99.2422 10.3684 99.2422 17.0407V250.229C99.2422 256.914 102.332 262.328 106.131 262.328H292.202C301.258 262.328 305.672 256.914 305.672 250.229V17.0538C305.672 10.3684 297.378 3.93213 293.579 3.93213Z" fill="#F9F9F9"/>
</g>
<g filter="url(#filter1_d)">
<path d="M283.029 48.8027H130.32V189.392H283.029V48.8027Z" fill="white"/>
<path d="M130.82 188.892V49.3027H282.529V188.892H130.82Z" stroke="#FFFCFC"/>
</g>
<g filter="url(#filter2_d)">
<path d="M453.312 52.4341H336.935C335.804 52.4341 334.683 52.6524 333.638 53.0767C332.593 53.5009 331.643 54.1228 330.843 54.9067C330.044 55.6906 329.409 56.6212 328.976 57.6454C328.543 58.6696 328.32 59.7674 328.32 60.876V214.639C328.32 215.748 328.543 216.846 328.976 217.87C329.409 218.894 330.044 219.825 330.843 220.609C331.643 221.392 332.593 222.014 333.638 222.439C334.683 222.863 335.804 223.081 336.935 223.081H453.312C454.444 223.081 455.564 222.863 456.609 222.439C457.654 222.014 458.604 221.392 459.404 220.609C460.204 219.825 460.838 218.894 461.271 217.87C461.704 216.846 461.927 215.748 461.927 214.639V60.9415C461.936 59.8274 461.72 58.7226 461.291 57.6908C460.862 56.659 460.229 55.7206 459.428 54.9298C458.627 54.1389 457.674 53.5112 456.625 53.0829C455.575 52.6546 454.449 52.434 453.312 52.4341Z" fill="#F9F9F9"/>
</g>
<path d="M445.823 276.787C459.039 276.787 469.768 275.214 469.768 273.287C469.768 271.36 459.066 269.787 445.823 269.787C432.58 269.787 421.879 271.36 421.879 273.287C421.879 275.214 432.607 276.787 445.823 276.787Z" fill="url(#paint0_linear)"/>
<path d="M206.483 276.866C219.7 276.866 230.428 275.293 230.428 273.366C230.428 271.439 219.726 269.866 206.483 269.866C193.24 269.866 182.539 271.439 182.539 273.366C182.539 275.293 193.254 276.866 206.483 276.866Z" fill="url(#paint1_linear)"/>
<path d="M54.9382 297C85.2767 297 109.876 295.794 109.876 294.313C109.876 292.831 85.2767 291.625 54.9382 291.625C24.5998 291.625 0 292.831 0 294.313C0 295.794 24.5998 297 54.9382 297Z" fill="#012666"/>
<path d="M426.613 100.936H425.918V81.9809C425.917 79.0837 424.749 76.3039 422.667 74.2468C421.64 73.2335 420.419 72.4292 419.074 71.8802C417.728 71.3313 416.286 71.0486 414.828 71.0483H374.23C372.773 71.0486 371.33 71.3313 369.984 71.8802C368.639 72.4292 367.418 73.2335 366.391 74.2468C364.309 76.3039 363.141 79.0837 363.141 81.9809V185.709C363.141 188.606 364.309 191.386 366.391 193.443C367.418 194.456 368.639 195.261 369.984 195.809C371.33 196.358 372.773 196.641 374.23 196.641H414.828C416.286 196.641 417.728 196.358 419.074 195.809C420.419 195.261 421.64 194.456 422.667 193.443C424.749 191.386 425.917 188.606 425.918 185.709V114.346H426.613V100.936Z" fill="#3F3D56"/>
<path d="M414.829 73.8931H409.479C409.838 74.7823 409.854 75.7692 409.524 76.6692C409.194 77.5692 408.541 78.3205 407.686 78.7826C407.119 79.0819 406.485 79.2395 405.84 79.2414H382.618C381.972 79.2399 381.336 79.0824 380.767 78.7829C380.198 78.4834 379.713 78.0511 379.354 77.5242C378.997 76.9936 378.776 76.3862 378.711 75.7538C378.646 75.1214 378.738 74.4829 378.98 73.8931H374.03C372.94 73.894 371.862 74.1065 370.856 74.5183C369.85 74.93 368.938 75.5328 368.171 76.292C366.617 77.8298 365.746 79.908 365.75 82.0728V185.63C365.739 187.779 366.589 189.845 368.118 191.385C368.884 192.144 369.797 192.747 370.802 193.159C371.808 193.57 372.887 193.783 373.977 193.784H414.776C415.866 193.783 416.945 193.57 417.95 193.159C418.956 192.747 419.868 192.144 420.635 191.385C422.19 189.847 423.06 187.769 423.056 185.604V82.0466C423.059 79.8821 422.188 77.8043 420.635 76.2657C419.095 74.7549 417.008 73.902 414.829 73.8931Z" fill="white"/>
<path d="M243.714 137.902H150.812V142.241H243.714V137.902Z" fill="#F4F4F4"/>
<path d="M243.714 151.902H150.812V156.241H243.714V151.902Z" fill="#71B4FF"/>
<path d="M243.714 165.889H150.812V170.228H243.714V165.889Z" fill="#F4F4F4"/>
<path d="M418.307 138.951H371.488V142.7H418.307V138.951Z" fill="#F4F4F4"/>
<path d="M418.307 150.617H371.488V154.366H418.307V150.617Z" fill="#F4F4F4"/>
<path d="M418.307 162.245H371.488V165.994H418.307V162.245Z" fill="#F4F4F4"/>
<path d="M428.754 211.585V202.343H419.711V211.585H428.754Z" fill="#3F3D56"/>
<path d="M414.187 211.585V202.343H405.145V211.585H414.187Z" fill="#F9B564"/>
<path d="M399.633 211.585V202.343H390.59V211.585H399.633Z" fill="#3F3D56"/>
<path d="M385.066 211.585V202.343H376.023V211.585H385.066Z" fill="#3F3D56"/>
<path d="M370.509 211.585V202.343H361.426V211.585H370.509Z" fill="#3F3D56"/>
<path d="M403.313 95.6924H385.508C384.412 95.6924 383.361 96.1191 382.586 96.8787C381.811 97.6384 381.375 98.6686 381.375 99.7429V118.292C381.375 119.366 381.811 120.396 382.586 121.156C383.361 121.915 384.412 122.342 385.508 122.342H403.286C403.829 122.342 404.366 122.237 404.868 122.034C405.369 121.83 405.825 121.532 406.209 121.156C406.593 120.78 406.897 120.333 407.105 119.842C407.313 119.35 407.42 118.823 407.42 118.292V99.7298C407.416 98.6623 406.983 97.6394 406.214 96.8833C405.445 96.1273 404.402 95.6993 403.313 95.6924Z" fill="#F9B564"/>
<path d="M185.283 164.722L184.895 165.522L183.731 159.531C183.731 159.531 182.166 153.147 185.296 153.147C188.426 153.147 187.637 159.531 187.637 159.531V163.857L185.283 164.722Z" fill="#A0616A"/>
<path d="M236.447 163.857L236.835 164.657L237.999 158.666C237.999 158.666 239.564 152.282 236.434 152.282C233.303 152.282 234.093 158.666 234.093 158.666V163.057L236.447 163.857Z" fill="#A0616A"/>
<path d="M202.444 209.592L197.762 239.113L200.103 267.834L205.56 265.435L204.785 243.884L210.269 226.778L211.433 247.122L209.092 268.266L216.115 269.066L221.184 225.572L220.796 210.811L202.444 209.592Z" fill="#1F2D4F"/>
<path d="M202.445 264.243L199.77 268.634V278.439C199.769 278.721 199.868 278.995 200.05 279.213C200.224 279.426 200.472 279.571 200.746 279.619C202.084 279.842 204.411 279.999 205.227 278.61C206.391 276.617 205.615 272.226 205.615 272.226C205.615 272.226 207.18 269.041 206.391 266.642C205.602 264.243 204.826 263.85 204.826 263.85L202.445 264.243Z" fill="#1F2D4F"/>
<path d="M214.137 268.241L214.912 269.433C214.912 269.433 216.076 270.626 215.3 271.426C214.725 272.047 214.201 272.714 213.735 273.418C213.735 273.418 209.441 274.611 209.441 273.025V267.782L214.137 268.241Z" fill="#1F2D4F"/>
<path d="M212.73 177.109C213.795 177.146 214.848 176.87 215.752 176.316C216.656 175.763 217.371 174.957 217.805 174.003C218.239 173.048 218.372 171.989 218.187 170.96C218.002 169.931 217.508 168.98 216.767 168.228C216.027 167.476 215.075 166.958 214.032 166.741C212.989 166.523 211.904 166.615 210.915 167.006C209.926 167.397 209.08 168.069 208.483 168.934C207.886 169.8 207.567 170.821 207.566 171.866C207.566 173.225 208.104 174.532 209.067 175.51C210.03 176.488 211.344 177.062 212.73 177.109Z" fill="#A0616A"/>
<path d="M209.271 173.479L208.883 181.055L215.906 181.449L215.518 173.872L209.271 173.479Z" fill="#A0616A"/>
<path d="M216.864 181.658L215.753 178.892C215.753 178.892 210.617 176.874 209.065 178.892L208.289 181.291L202.055 179.692L198.551 187.675L201.668 210.418C201.668 210.418 209.854 221.194 220.77 210.812L223.886 189.261L221.545 180.898L216.864 181.658Z" fill="#575A89"/>
<path d="M220.773 182.458L221.549 180.859L229.348 176.074L234.11 161.655L237.789 163.267L233.629 180.452L222.312 191.228L220.773 182.458Z" fill="#575A89"/>
<path d="M202.831 180.465L202.056 179.666L193.869 174.422L188.01 162.546L183.328 164.145L188.398 178.905L200.878 189.274L202.831 180.465Z" fill="#575A89"/>
<path d="M216.573 163.726L217.416 163.294L216.145 162.861V162.428C216.145 162.428 209.804 159.807 208.962 164.159C207.868 165.678 207.281 167.491 207.281 169.35C207.281 171.208 207.868 173.022 208.962 174.541V175.851L215.717 176.717L216.56 174.095C216.56 174.095 220.8 166.322 216.573 163.726Z" fill="#1F2D4F"/>
<path d="M60.5568 234.499L59.0586 235.272C59.0586 235.272 53.0525 238.091 54.8048 239.624C56.5572 241.158 61.3193 238.091 61.3193 238.091L62.3225 236.78L60.5568 234.499Z" fill="#FFB8B8"/>
<path d="M104.517 234.119L99.8753 266.012L92.8659 288.296L89.107 286.5L92.5582 256.01L82.5391 247.293L83.2882 234.486L104.517 234.119Z" fill="#1F2D4F"/>
<path d="M88.5387 287.274C88.5387 287.274 92.7925 284.967 93.0466 288.296L92.5517 291.626C92.5517 291.626 94.0499 297.525 89.047 296.24C84.0441 294.956 87.5488 291.115 87.5488 291.115L88.5387 287.274Z" fill="#1F2D4F"/>
<path d="M85.8677 244.487L82.6172 247.306C82.6172 247.306 82.6172 264.727 84.8645 267.283C87.1118 269.839 101.385 282.908 101.893 283.42C102.401 283.931 104.649 278.294 104.649 278.294L91.098 262.171L92.1012 252.182L85.8677 244.487Z" fill="#1F2D4F"/>
<path d="M103.122 277.535C103.122 277.535 107.135 276.761 107.135 279.58C107.183 281.806 107.348 284.029 107.63 286.239C107.63 286.239 108.634 295.205 105.383 293.92C102.132 292.636 100.875 283.669 100.875 283.669C101.17 282.932 101.694 282.303 102.373 281.874C103.377 281.375 103.122 277.535 103.122 277.535Z" fill="#1F2D4F"/>
<path d="M90.6034 196.064L91.3525 205.541L89.346 209.133L83.8348 203.759L83.3398 196.588L90.6034 196.064Z" fill="#FFB8B8"/>
<path d="M86.0936 199.145C87.3444 199.198 88.5826 198.882 89.6489 198.239C90.7152 197.596 91.5608 196.655 92.0769 195.537C92.593 194.42 92.7561 193.176 92.5451 191.967C92.3341 190.757 91.7586 189.638 90.8928 188.751C90.027 187.865 88.9105 187.253 87.6868 186.994C86.4631 186.735 85.1883 186.84 84.0262 187.297C82.8642 187.753 81.8681 188.54 81.1662 189.556C80.4643 190.572 80.0886 191.77 80.0874 192.997C80.0697 193.787 80.211 194.573 80.5032 195.31C80.7955 196.047 81.233 196.72 81.7908 197.291C82.3485 197.862 83.0156 198.319 83.7539 198.637C84.4922 198.956 85.2872 199.128 86.0936 199.145Z" fill="#FFB8B8"/>
<path d="M88.5434 205.293L91.0448 197.86L95.5528 202.986L103.82 235.521L97.5593 239.362L94.8037 235.259L94.3088 240.634L82.0423 238.012L81.0391 203.681L83.5405 200.076L88.5434 205.293Z" fill="#D0CDE1"/>
<path d="M85.0869 241.67L83.5887 200.168L80.3382 202.79L74.332 206.893L78.3451 221.496L79.6025 236.872L85.0869 241.67Z" fill="#1F2D4F"/>
<path d="M76.0752 207.115L74.3228 206.853L69.3199 221.967L59.3008 234.774L63.0596 238.877L74.577 227.341L78.8308 217.864L76.0752 207.115Z" fill="#1F2D4F"/>
<path d="M104.763 210.287L104.416 211.965C104.416 211.965 102.851 218.519 105.125 218.087C107.399 217.654 107.987 211.913 107.987 211.913L107.626 210.313L104.763 210.287Z" fill="#FFB8B8"/>
<path d="M90.7085 197.441L103.122 202.462L101.624 217.838L104.634 234.748L101.624 238.077L90.5078 199.617L90.7085 197.441Z" fill="#1F2D4F"/>
<path d="M86.4123 182.668L88.178 181.763V182.668L89.3551 182.065V183.52C89.3551 183.52 93.7695 186.823 92.8866 190.743C92.0038 194.662 92.0038 194.95 92.0038 194.95C92.0038 194.95 90.8935 187.518 86.4792 188.711C82.0649 189.904 81.7171 190.126 80.5399 193.443L80.2189 194.859C80.2189 194.859 75.2293 183.271 86.4123 182.668Z" fill="#1F2D4F"/>
<path d="M101.374 202.475H103.38L106.631 220.407V236.032L102.618 235.259L99.3672 211.664L101.374 202.475Z" fill="#1F2D4F"/>
<path d="M66.7404 240.398H10.8123C8.43889 240.398 6.16264 241.322 4.48437 242.966C2.80611 244.611 1.86328 246.842 1.86328 249.168V292.898H75.6895V249.168C75.6895 246.842 74.7466 244.611 73.0683 242.966C71.3901 241.322 69.1139 240.398 66.7404 240.398Z" fill="#71B4FF"/>
<path d="M38.7836 250.636C35.6712 250.64 32.6357 251.583 30.0887 253.336C27.4899 255.125 25.485 257.623 24.3234 260.52C23.1372 263.455 22.8264 266.66 23.4271 269.761C24.018 272.839 25.5045 275.685 27.7077 277.954C29.8682 280.177 32.6673 281.704 35.7338 282.332C38.771 282.953 41.9299 282.637 44.7764 281.428C47.6651 280.191 50.1106 278.137 51.7992 275.529C53.8157 272.43 54.7186 268.759 54.3648 265.1C54.011 261.441 52.4208 258.002 49.8462 255.329C48.4206 253.856 46.7056 252.68 44.8044 251.874C42.9033 251.067 40.8552 250.646 38.7836 250.636ZM38.7836 255.433C39.7176 255.435 40.6284 255.719 41.3921 256.246C42.1696 256.782 42.7695 257.529 43.1177 258.396C43.4745 259.279 43.5674 260.243 43.3852 261.175C43.1914 262.102 42.7267 262.954 42.0475 263.626C41.3988 264.292 40.5592 264.749 39.6397 264.937C38.7401 265.114 37.8068 265.018 36.9644 264.662C36.1004 264.29 35.3693 263.673 34.8642 262.892C34.2613 261.962 33.9919 260.862 34.0985 259.765C34.2051 258.668 34.6816 257.638 35.4528 256.836C35.8838 256.396 36.401 256.047 36.9734 255.808C37.5458 255.569 38.1615 255.446 38.7836 255.447V255.433ZM38.7836 278.544C36.9154 278.559 35.0741 278.108 33.4329 277.233C31.8053 276.32 30.4282 275.034 29.4199 273.484C29.5002 270.285 35.6802 268.516 38.7836 268.516C41.887 268.516 48.1473 270.272 48.1473 273.484C47.1382 275.033 45.7613 276.319 44.1343 277.233C42.4939 278.111 40.6528 278.567 38.7836 278.557V278.544Z" fill="white"/>
<path d="M264.044 65.0186H150.891V119.091H264.044V65.0186Z" fill="#F4F4F4"/>
<path d="M426.57 173.137L426.998 170.306C426.998 170.306 429.499 164.486 427.52 164.171C425.54 163.856 423.895 169.414 423.895 169.414L424.617 175.326L426.57 173.137Z" fill="#FFB8B8"/>
<path opacity="0.2" d="M446.811 189.196L429.141 185.565L427.094 172.456L421.891 172.05L422.145 189.091L437.501 197.323L446.811 189.196Z" fill="black"/>
<path d="M398.746 169.651H452.975V165.312H398.746V169.651Z" fill="#71B4FF"/>
<path d="M423.123 172.168V169.297C423.123 169.297 424.728 163.162 422.735 163.162C420.742 163.162 419.926 168.891 419.926 168.891L421.518 174.619L423.123 172.168Z" fill="#FFB8B8"/>
<path d="M446.115 180.374L448.537 179.771C449.465 179.77 450.38 179.559 451.212 179.155C452.053 178.743 452.789 178.152 453.366 177.424C453.954 176.686 454.373 175.832 454.596 174.921C454.8 173.996 454.8 173.04 454.596 172.115C454.599 171.021 454.39 169.935 453.981 168.917C453.576 167.909 452.977 166.988 452.215 166.203C451.456 165.431 450.546 164.816 449.54 164.394C448.554 163.975 447.491 163.758 446.416 163.758C445.342 163.758 444.279 163.975 443.293 164.394C442.286 164.815 441.376 165.43 440.618 166.203C439.857 166.984 439.258 167.901 438.852 168.904C438.438 169.922 438.225 171.007 438.223 172.102C437.931 173.225 437.931 174.401 438.223 175.524C438.492 176.643 439.049 177.677 439.842 178.525C440.618 179.355 441.606 179.966 442.704 180.295C443.811 180.633 444.993 180.66 446.115 180.374Z" fill="#1F2D4F"/>
<path d="M431.855 221.705L433.835 243.819L437.407 265.514H443.413L442.637 244.225L439.467 218.428L431.855 221.705Z" fill="#1F2D4F"/>
<path d="M438.215 264.294L434.202 266.746C434.202 266.746 427.794 267.558 428.998 269.603C430.202 271.648 444.194 270.442 444.194 269.603C444.194 268.764 443.806 264.281 443.004 264.281L438.215 264.294Z" fill="#1F2D4F"/>
<path d="M449.569 219.804C449.206 222.672 448.211 225.427 446.652 227.879L447.04 243.02L461.42 261.87L456.217 266.366L438.64 245.877L434.266 221.312L439.87 215.583L449.569 219.804Z" fill="#1F2D4F"/>
<path d="M460.219 261.856C460.219 261.856 465.021 262.682 464.232 264.727C463.443 266.772 461.423 276.184 456.206 274.951C456.206 274.951 453.812 274.951 454.601 273.313C455.083 272.332 455.618 271.378 456.206 270.455V265.133L460.219 261.856Z" fill="#1F2D4F"/>
<path d="M443.519 180.793C444.77 180.846 446.009 180.53 447.076 179.886C448.142 179.243 448.988 178.301 449.504 177.182C450.019 176.064 450.182 174.82 449.97 173.61C449.758 172.4 449.181 171.28 448.314 170.395C447.447 169.509 446.329 168.898 445.104 168.64C443.88 168.382 442.604 168.49 441.442 168.948C440.281 169.407 439.285 170.196 438.585 171.213C437.885 172.231 437.511 173.431 437.513 174.658C437.481 176.252 438.095 177.793 439.221 178.943C440.347 180.093 441.893 180.759 443.519 180.793Z" fill="#FFB8B8"/>
<path d="M446.322 178.748V185.709H439.914L440.73 178.748H446.322Z" fill="#FFB8B8"/>
<path d="M438.303 183.244L440.243 182.759L446.303 183.257C446.303 183.257 449.5 186.535 449.098 187.36C448.697 188.186 446.677 208.229 446.677 208.229L450.262 222.557L437.461 223.356L431.066 222.531L432.297 196.746C432.297 196.746 429.501 189.785 433.113 187.741C435.158 186.633 436.93 185.098 438.303 183.244Z" fill="#575A89"/>
<path d="M445.503 184.831L427.498 183.992L423.485 171.303L418.281 171.709L421.064 188.501L437.464 194.256L445.503 184.831Z" fill="#575A89"/>
<path d="M455.061 170.123C455.861 170.152 456.65 169.946 457.329 169.532C458.008 169.117 458.546 168.514 458.872 167.798C459.198 167.083 459.299 166.288 459.161 165.516C459.024 164.744 458.653 164.029 458.098 163.465C457.544 162.9 456.829 162.511 456.047 162.348C455.265 162.184 454.45 162.253 453.709 162.546C452.967 162.839 452.331 163.342 451.883 163.992C451.435 164.641 451.196 165.407 451.195 166.191C451.195 167.209 451.597 168.188 452.318 168.922C453.039 169.655 454.023 170.086 455.061 170.123Z" fill="#1F2D4F"/>
<path d="M451.534 164.04C451.534 163.456 451.662 162.88 451.909 162.349C452.157 161.844 452.513 161.397 452.952 161.038C453.39 160.671 453.907 160.407 454.464 160.264C455.022 160.135 455.604 160.135 456.162 160.264C455.665 160.033 455.121 159.914 454.571 159.914C454.02 159.914 453.476 160.033 452.979 160.264C452.468 160.485 452.011 160.812 451.641 161.221C451.267 161.636 450.984 162.123 450.812 162.65C450.64 163.184 450.581 163.746 450.639 164.303C450.696 164.859 450.869 165.399 451.146 165.888C451.42 166.369 451.793 166.789 452.243 167.12C452.682 167.446 453.189 167.674 453.728 167.789C453.056 167.461 452.495 166.951 452.109 166.32C451.693 165.632 451.493 164.839 451.534 164.04Z" fill="#1F2D4F"/>
<path d="M448.204 166.282L442.987 165.299L438.974 167.921C437.977 168.565 437.188 169.475 436.7 170.543C436.205 171.627 436.02 172.824 436.165 174.003L440.178 172.955L441.074 170.648L442.145 172.443L446.492 180.23L450.893 177.779L453.702 173.282L448.204 166.282Z" fill="#1F2D4F"/>
<path d="M186.196 77.3403H156.5V108.211H186.196V77.3403Z" fill="#EA3968"/>
<g opacity="0.81">
<path opacity="0.81" d="M218.191 77.3667H195.651C193.671 77.3667 192.066 78.9396 192.066 80.8798V104.724C192.066 106.664 193.671 108.237 195.651 108.237H218.191C220.171 108.237 221.776 106.664 221.776 104.724V80.8798C221.776 78.9396 220.171 77.3667 218.191 77.3667Z" fill="#1D99DD"/>
<g opacity="0.81">
<path opacity="0.81" d="M221.789 77.3403H192.066V108.211H221.776L221.789 77.3403Z" fill="#1D99DD"/>
</g>
</g>
<path d="M256.917 77.3403H227.207V108.211H256.917V77.3403Z" fill="#FFF873"/>
<path d="M293.579 0.00406035H111.281C108.169 -0.0629363 105.156 1.07944 102.901 3.18179C100.645 5.28413 99.3298 8.17565 99.2422 11.225V14.5152H305.672V11.225C305.584 8.16634 304.262 5.26676 301.995 3.16293C299.727 1.05909 296.701 -0.0770236 293.579 0.00406035Z" fill="#8AC7FF"/>
<path d="M133.45 10.0673C134.068 10.1067 134.684 9.96322 135.217 9.65534C135.751 9.34747 136.178 8.88947 136.443 8.34079C136.708 7.79211 136.799 7.17806 136.703 6.57833C136.608 5.9786 136.33 5.42088 135.907 4.9775C135.484 4.53413 134.935 4.22559 134.331 4.09191C133.726 3.95824 133.095 4.00561 132.519 4.22787C131.942 4.45012 131.447 4.837 131.098 5.33832C130.749 5.83964 130.561 6.43225 130.56 7.03926C130.535 7.81592 130.825 8.57075 131.366 9.13833C131.908 9.70592 132.657 10.04 133.45 10.0673Z" fill="#E6E6E6"/>
<path d="M121.891 10.0673C122.509 10.1067 123.125 9.96322 123.659 9.65534C124.193 9.34747 124.62 8.88947 124.885 8.34079C125.15 7.79211 125.24 7.17806 125.144 6.57833C125.049 5.9786 124.772 5.42088 124.349 4.9775C123.925 4.53413 123.376 4.22559 122.772 4.09191C122.168 3.95824 121.537 4.00561 120.96 4.22787C120.384 4.45012 119.889 4.837 119.539 5.33832C119.19 5.83964 119.003 6.43225 119.002 7.03926C118.976 7.81592 119.266 8.57075 119.808 9.13833C120.349 9.70592 121.098 10.04 121.891 10.0673Z" fill="#E6E6E6"/>
<path d="M110.625 10.0673C111.243 10.1067 111.859 9.96322 112.393 9.65534C112.927 9.34747 113.354 8.88947 113.619 8.34079C113.884 7.79211 113.975 7.17806 113.879 6.57833C113.783 5.9786 113.506 5.42088 113.083 4.9775C112.66 4.53413 112.111 4.22559 111.506 4.09191C110.902 3.95824 110.271 4.00561 109.695 4.22787C109.118 4.45012 108.623 4.837 108.274 5.33832C107.925 5.83964 107.737 6.43225 107.736 7.03926C107.711 7.81592 108.001 8.57075 108.542 9.13833C109.084 9.70592 109.833 10.04 110.625 10.0673Z" fill="#E6E6E6"/>
<path d="M454.101 48.2002H336.118C331.798 48.2002 328.293 53.0897 328.293 59.1196V62.3181H461.927V59.1196C461.927 53.0897 458.422 48.2002 454.101 48.2002Z" fill="#8AC7FF"/>
<path d="M363.969 58.2934C364.587 58.3328 365.203 58.1893 365.737 57.8814C366.271 57.5735 366.698 57.1156 366.963 56.5669C367.228 56.0182 367.318 55.4041 367.223 54.8044C367.127 54.2047 366.85 53.6469 366.427 53.2036C366.004 52.7602 365.454 52.4517 364.85 52.318C364.246 52.1843 363.615 52.2317 363.038 52.4539C362.462 52.6762 361.967 53.0631 361.618 53.5644C361.268 54.0657 361.081 54.6583 361.08 55.2653C361.054 56.042 361.344 56.7968 361.886 57.3644C362.427 57.932 363.177 58.2661 363.969 58.2934Z" fill="white"/>
<path d="M352.422 58.2934C353.04 58.3328 353.656 58.1893 354.19 57.8814C354.724 57.5735 355.151 57.1156 355.416 56.5669C355.681 56.0182 355.771 55.4041 355.676 54.8044C355.58 54.2047 355.303 53.6469 354.88 53.2036C354.457 52.7602 353.908 52.4517 353.303 52.318C352.699 52.1843 352.068 52.2317 351.491 52.4539C350.915 52.6762 350.42 53.0631 350.071 53.5644C349.722 54.0657 349.534 54.6583 349.533 55.2653C349.508 56.042 349.797 56.7968 350.339 57.3644C350.881 57.932 351.63 58.2661 352.422 58.2934Z" fill="white"/>
<path d="M341.149 58.2934C341.767 58.3328 342.383 58.1893 342.917 57.8814C343.45 57.5735 343.878 57.1156 344.143 56.5669C344.407 56.0182 344.498 55.4041 344.402 54.8044C344.307 54.2047 344.029 53.6469 343.606 53.2036C343.183 52.7602 342.634 52.4517 342.03 52.318C341.426 52.1843 340.794 52.2317 340.218 52.4539C339.642 52.6762 339.147 53.0631 338.797 53.5644C338.448 54.0657 338.261 54.6583 338.259 55.2653C338.234 56.042 338.524 56.7968 339.066 57.3644C339.607 57.932 340.356 58.2661 341.149 58.2934Z" fill="white"/>
<defs>
<filter id="filter0_d" x="95.2422" y="3.93213" width="214.43" height="266.396" filterUnits="userSpaceOnUse" color-interpolation-filters="sRGB">
<feFlood flood-opacity="0" result="BackgroundImageFix"/>
<feColorMatrix in="SourceAlpha" type="matrix" values="0 0 0 0 0 0 0 0 0 0 0 0 0 0 0 0 0 0 127 0"/>
<feOffset dy="4"/>
<feGaussianBlur stdDeviation="2"/>
<feColorMatrix type="matrix" values="0 0 0 0 0 0 0 0 0 0 0 0 0 0 0 0 0 0 0.25 0"/>
<feBlend mode="normal" in2="BackgroundImageFix" result="effect1_dropShadow"/>
<feBlend mode="normal" in="SourceGraphic" in2="effect1_dropShadow" result="shape"/>
</filter>
<filter id="filter1_d" x="128.32" y="48.8027" width="156.709" height="144.589" filterUnits="userSpaceOnUse" color-interpolation-filters="sRGB">
<feFlood flood-opacity="0" result="BackgroundImageFix"/>
<feColorMatrix in="SourceAlpha" type="matrix" values="0 0 0 0 0 0 0 0 0 0 0 0 0 0 0 0 0 0 127 0"/>
<feOffset dy="2"/>
<feGaussianBlur stdDeviation="1"/>
<feColorMatrix type="matrix" values="0 0 0 0 0 0 0 0 0 0 0 0 0 0 0 0 0 0 0.25 0"/>
<feBlend mode="normal" in2="BackgroundImageFix" result="effect1_dropShadow"/>
<feBlend mode="normal" in="SourceGraphic" in2="effect1_dropShadow" result="shape"/>
</filter>
<filter id="filter2_d" x="324.32" y="52.4341" width="141.607" height="178.647" filterUnits="userSpaceOnUse" color-interpolation-filters="sRGB">
<feFlood flood-opacity="0" result="BackgroundImageFix"/>
<feColorMatrix in="SourceAlpha" type="matrix" values="0 0 0 0 0 0 0 0 0 0 0 0 0 0 0 0 0 0 127 0"/>
<feOffset dy="4"/>
<feGaussianBlur stdDeviation="2"/>
<feColorMatrix type="matrix" values="0 0 0 0 0 0 0 0 0 0 0 0 0 0 0 0 0 0 0.25 0"/>
<feBlend mode="normal" in2="BackgroundImageFix" result="effect1_dropShadow"/>
<feBlend mode="normal" in="SourceGraphic" in2="effect1_dropShadow" result="shape"/>
</filter>
<linearGradient id="paint0_linear" x1="37839.7" y1="3304.13" x2="42874.2" y2="3304.13" gradientUnits="userSpaceOnUse">
<stop stop-color="#012666"/>
<stop offset="0.33" stop-color="#113B81"/>
<stop offset="0.76" stop-color="#23529F"/>
<stop offset="1" stop-color="#2A5BAA"/>
</linearGradient>
<linearGradient id="paint1_linear" x1="30317.4" y1="3304.63" x2="34814.7" y2="3304.63" gradientUnits="userSpaceOnUse">
<stop stop-color="#012666"/>
<stop offset="0.33" stop-color="#113B81"/>
<stop offset="0.76" stop-color="#23529F"/>
<stop offset="1" stop-color="#2A5BAA"/>
</linearGradient>
</defs>
</svg>
