<svg width="530" height="307" viewBox="0 0 530 307" fill="none" xmlns="http://www.w3.org/2000/svg">
<path d="M310.729 289.732H366.5C371.874 289.732 376.23 286.006 376.23 281.408V250.324C376.23 245.727 371.874 242 366.5 242H310.729C305.356 242 301 245.727 301 250.324V281.408C301 286.006 305.356 289.732 310.729 289.732Z" fill="white"/>
<g opacity="0.52">
<path opacity="0.52" d="M329.481 254.351H309.352V255.612H329.481V254.351Z" fill="#71B4FF"/>
<path opacity="0.52" d="M321.641 256.79H309.352V257.976H321.641V256.79Z" fill="#71B4FF"/>
<path opacity="0.52" d="M365.255 256.79H326.594V257.984H365.255V256.79Z" fill="#71B4FF"/>
<path opacity="0.52" d="M332.64 259.244H315.742V260.498H332.64V259.244Z" fill="#71B4FF"/>
<path opacity="0.52" d="M341.294 261.686H321.164V262.947H341.294V261.686Z" fill="#71B4FF"/>
<path opacity="0.52" d="M359.473 261.686H342.602V263.091H359.473V261.686Z" fill="#71B4FF"/>
<path opacity="0.52" d="M336.672 264.133H321.125V265.319H336.672V264.133Z" fill="#71B4FF"/>
<path opacity="0.52" d="M370.239 264.133H338.164V265.447H370.239V264.133Z" fill="#71B4FF"/>
<path opacity="0.52" d="M329.481 267.44H309.352V268.702H329.481V267.44Z" fill="#71B4FF"/>
<path opacity="0.52" d="M321.641 269.881H309.352V271.067H321.641V269.881Z" fill="#71B4FF"/>
<path opacity="0.52" d="M365.255 269.881H326.594V271.074H365.255V269.881Z" fill="#71B4FF"/>
<path opacity="0.52" d="M332.64 272.327H315.742V273.581H332.64V272.327Z" fill="#71B4FF"/>
<path opacity="0.52" d="M341.294 274.775H321.164V276.037H341.294V274.775Z" fill="#71B4FF"/>
<path opacity="0.52" d="M359.473 274.775H342.602V276.18H359.473V274.775Z" fill="#71B4FF"/>
<path opacity="0.52" d="M336.672 277.224H321.125V278.41H336.672V277.224Z" fill="#71B4FF"/>
<path opacity="0.52" d="M370.239 277.224H338.164V278.538H370.239V277.224Z" fill="#71B4FF"/>
</g>
<path d="M76.7163 159.988C79.1959 159.988 81.206 157.711 81.206 154.902C81.206 152.093 79.1959 149.816 76.7163 149.816C74.2367 149.816 72.2266 152.093 72.2266 154.902C72.2266 157.711 74.2367 159.988 76.7163 159.988Z" fill="white"/>
<path d="M111.791 126.931C113.186 126.931 114.317 125.651 114.317 124.071C114.317 122.491 113.186 121.21 111.791 121.21C110.396 121.21 109.266 122.491 109.266 124.071C109.266 125.651 110.396 126.931 111.791 126.931Z" fill="white"/>
<path d="M120.493 204.488C122.042 204.488 123.299 203.065 123.299 201.309C123.299 199.554 122.042 198.131 120.493 198.131C118.943 198.131 117.688 199.554 117.688 201.309C117.688 203.065 118.943 204.488 120.493 204.488Z" fill="white"/>
<path d="M96.6414 248.987C98.3461 248.987 99.7281 247.421 99.7281 245.491C99.7281 243.56 98.3461 241.994 96.6414 241.994C94.9366 241.994 93.5547 243.56 93.5547 245.491C93.5547 247.421 94.9366 248.987 96.6414 248.987Z" fill="white"/>
<path d="M167.907 263.607C169.612 263.607 170.994 262.042 170.994 260.111C170.994 258.18 169.612 256.614 167.907 256.614C166.202 256.614 164.82 258.18 164.82 260.111C164.82 262.042 166.202 263.607 167.907 263.607Z" fill="white"/>
<path d="M301.203 262.336C303.063 262.336 304.571 260.629 304.571 258.522C304.571 256.416 303.063 254.708 301.203 254.708C299.344 254.708 297.836 256.416 297.836 258.522C297.836 260.629 299.344 262.336 301.203 262.336Z" fill="white"/>
<path d="M356.477 180.331C358.182 180.331 359.564 178.765 359.564 176.834C359.564 174.903 358.182 173.338 356.477 173.338C354.773 173.338 353.391 174.903 353.391 176.834C353.391 178.765 354.773 180.331 356.477 180.331Z" fill="white"/>
<path d="M398.854 132.017C400.094 132.017 401.099 130.879 401.099 129.474C401.099 128.07 400.094 126.932 398.854 126.932C397.614 126.932 396.609 128.07 396.609 129.474C396.609 130.879 397.614 132.017 398.854 132.017Z" fill="white"/>
<path d="M433.368 143.461C435.073 143.461 436.455 141.895 436.455 139.964C436.455 138.033 435.073 136.468 433.368 136.468C431.663 136.468 430.281 138.033 430.281 139.964C430.281 141.895 431.663 143.461 433.368 143.461Z" fill="white"/>
<path d="M458.9 98.9606C460.45 98.9606 461.706 97.5375 461.706 95.782C461.706 94.0266 460.45 92.6035 458.9 92.6035C457.35 92.6035 456.094 94.0266 456.094 95.782C456.094 97.5375 457.35 98.9606 458.9 98.9606Z" fill="white"/>
<path d="M453.853 228.008C455.403 228.008 456.659 226.585 456.659 224.83C456.659 223.074 455.403 221.651 453.853 221.651C452.303 221.651 451.047 223.074 451.047 224.83C451.047 226.585 452.303 228.008 453.853 228.008Z" fill="white"/>
<path d="M407.548 267.421C409.252 267.421 410.634 265.856 410.634 263.925C410.634 261.994 409.252 260.429 407.548 260.429C405.843 260.429 404.461 261.994 404.461 263.925C404.461 265.856 405.843 267.421 407.548 267.421Z" fill="white"/>
<path d="M239.473 222.286C242.262 222.286 244.524 219.725 244.524 216.565C244.524 213.405 242.262 210.844 239.473 210.844C236.683 210.844 234.422 213.405 234.422 216.565C234.422 219.725 236.683 222.286 239.473 222.286Z" fill="white"/>
<path d="M264.16 159.989C266.95 159.989 269.211 157.427 269.211 154.267C269.211 151.107 266.95 148.546 264.16 148.546C261.371 148.546 259.109 151.107 259.109 154.267C259.109 157.427 261.371 159.989 264.16 159.989Z" fill="white"/>
<path d="M328.699 132.653C331.489 132.653 333.75 130.091 333.75 126.931C333.75 123.771 331.489 121.21 328.699 121.21C325.91 121.21 323.648 123.771 323.648 126.931C323.648 130.091 325.91 132.653 328.699 132.653Z" fill="white"/>
<path d="M328.425 219.108C331.37 219.108 333.757 216.404 333.757 213.069C333.757 209.733 331.37 207.029 328.425 207.029C325.481 207.029 323.094 209.733 323.094 213.069C323.094 216.404 325.481 219.108 328.425 219.108Z" fill="white"/>
<path d="M383.417 210.844C386.362 210.844 388.749 208.14 388.749 204.805C388.749 201.469 386.362 198.766 383.417 198.766C380.473 198.766 378.086 201.469 378.086 204.805C378.086 208.14 380.473 210.844 383.417 210.844Z" fill="white"/>
<path d="M218.699 184.781C221.489 184.781 223.75 182.219 223.75 179.059C223.75 175.899 221.489 173.338 218.699 173.338C215.91 173.338 213.648 175.899 213.648 179.059C213.648 182.219 215.91 184.781 218.699 184.781Z" fill="white"/>
<path d="M251.246 235.637C254.036 235.637 256.297 233.075 256.297 229.916C256.297 226.756 254.036 224.194 251.246 224.194C248.457 224.194 246.195 226.756 246.195 229.916C246.195 233.075 248.457 235.637 251.246 235.637Z" fill="white"/>
<path d="M287.731 191.774C290.52 191.774 292.782 189.212 292.782 186.052C292.782 182.893 290.52 180.331 287.731 180.331C284.941 180.331 282.68 182.893 282.68 186.052C282.68 189.212 284.941 191.774 287.731 191.774Z" fill="white"/>
<path d="M157.247 207.03C159.881 207.03 162.017 204.61 162.017 201.626C162.017 198.642 159.881 196.223 157.247 196.223C154.612 196.223 152.477 198.642 152.477 201.626C152.477 204.61 154.612 207.03 157.247 207.03Z" fill="white"/>
<path d="M205.513 137.675C208.147 137.675 210.283 135.256 210.283 132.272C210.283 129.287 208.147 126.868 205.513 126.868C202.878 126.868 200.742 129.287 200.742 132.272C200.742 135.256 202.878 137.675 205.513 137.675Z" fill="white"/>
<path d="M58.4219 243.52L76.7175 154.902L155.288 201.945L218.144 179.059L239.47 216.566L251.256 231.823L287.735 185.416L328.143 214.023L382.581 204.487" stroke="white" stroke-width="0.767124" stroke-linecap="round" stroke-linejoin="round"/>
<path d="M220.328 179.059L263.486 153.568L328.699 126.932" stroke="white" stroke-width="0.767124" stroke-miterlimit="10"/>
<path d="M160.049 95.7819C161.444 95.7819 162.574 94.5011 162.574 92.9212C162.574 91.3413 161.444 90.0605 160.049 90.0605C158.654 90.0605 157.523 91.3413 157.523 92.9212C157.523 94.5011 158.654 95.7819 160.049 95.7819Z" fill="white"/>
<path d="M343.292 45.5612C344.532 45.5612 345.537 44.4228 345.537 43.0184C345.537 41.614 344.532 40.4756 343.292 40.4756C342.052 40.4756 341.047 41.614 341.047 43.0184C341.047 44.4228 342.052 45.5612 343.292 45.5612Z" fill="white"/>
<path d="M209.44 108.496C210.834 108.496 211.965 107.215 211.965 105.635C211.965 104.055 210.834 102.774 209.44 102.774C208.045 102.774 206.914 104.055 206.914 105.635C206.914 107.215 208.045 108.496 209.44 108.496Z" fill="white"/>
<path d="M288.854 90.0602C290.094 90.0602 291.099 88.9218 291.099 87.5174C291.099 86.1131 290.094 84.9746 288.854 84.9746C287.614 84.9746 286.609 86.1131 286.609 87.5174C286.609 88.9218 287.614 90.0602 288.854 90.0602Z" fill="white"/>
<path d="M156.128 154.902C157.213 154.902 158.093 153.906 158.093 152.677C158.093 151.448 157.213 150.452 156.128 150.452C155.043 150.452 154.164 151.448 154.164 152.677C154.164 153.906 155.043 154.902 156.128 154.902Z" fill="white"/>
<path d="M378.649 67.1753C380.508 67.1753 382.016 65.4677 382.016 63.3611C382.016 61.2546 380.508 59.5469 378.649 59.5469C376.789 59.5469 375.281 61.2546 375.281 63.3611C375.281 65.4677 376.789 67.1753 378.649 67.1753Z" fill="white"/>
<path d="M314.675 100.868C315.914 100.868 316.919 99.7294 316.919 98.325C316.919 96.9207 315.914 95.7822 314.675 95.7822C313.435 95.7822 312.43 96.9207 312.43 98.325C312.43 99.7294 313.435 100.868 314.675 100.868Z" fill="white"/>
<path d="M87.9389 90.0602C89.4886 90.0602 90.745 88.6371 90.745 86.8817C90.745 85.1262 89.4886 83.7031 87.9389 83.7031C86.3891 83.7031 85.1328 85.1262 85.1328 86.8817C85.1328 88.6371 86.3891 90.0602 87.9389 90.0602Z" fill="white"/>
<path d="M422.423 182.238C423.973 182.238 425.229 180.815 425.229 179.059C425.229 177.304 423.973 175.881 422.423 175.881C420.874 175.881 419.617 177.304 419.617 179.059C419.617 180.815 420.874 182.238 422.423 182.238Z" fill="white"/>
<path d="M453.851 224.829L422.423 179.059L433.086 139.645L398.852 129.474" stroke="white" stroke-width="0.767124" stroke-miterlimit="10"/>
<path d="M87.4386 173.783L171.621 169.841L184.136 103.347L98.6068 104.173L85.8672 173.719" fill="url(#paint0_linear)"/>
<path d="M87.4386 173.783L171.621 169.841L184.136 103.347L98.6068 104.173L85.8672 173.719" stroke="url(#paint1_linear)" stroke-width="0.255708" stroke-miterlimit="10"/>
<path d="M136.037 146.701C138.857 146.701 141.144 143.968 141.144 140.598C141.144 137.227 138.857 134.495 136.037 134.495C133.216 134.495 130.93 137.227 130.93 140.598C130.93 143.968 133.216 146.701 136.037 146.701Z" fill="white"/>
<path d="M86.6465 168.824L40.6828 168.761C40.4022 168.761 40.1777 168.951 40.0655 169.269L39.4481 172.384C39.392 172.766 39.5604 173.084 39.8971 173.147C39.9532 173.147 39.9532 173.147 40.0094 173.147L85.8608 173.656C86.1414 173.656 86.3659 173.465 86.4781 173.147L87.2638 169.587C87.3199 169.206 87.1516 168.824 86.8148 168.824C86.7587 168.824 86.7026 168.824 86.6465 168.824Z" fill="url(#paint2_linear)" stroke="url(#paint3_linear)" stroke-width="0.255708" stroke-miterlimit="10"/>
<path d="M97.2023 102.329L182.732 101.63C182.844 101.63 182.956 101.693 183.069 101.821L184.191 103.346L98.9421 104.173C98.7737 104.173 98.6054 104.3 98.5492 104.554L87.4372 173.401C87.4372 173.592 87.2127 173.782 87.0443 173.782H86.3147C86.0902 173.782 85.9219 173.592 85.9219 173.337C85.9219 173.337 85.9219 173.337 85.9219 173.274L96.5289 103.092C96.5289 102.647 96.8656 102.329 97.2023 102.329Z" fill="url(#paint4_linear)"/>
<path d="M285.528 266.096C285.528 266.096 280.141 243.91 258.085 242.511C236.029 241.113 235.243 241.685 231.259 242.32C228.958 242.638 227.611 245.372 231.259 247.343C234.963 249.377 234.009 250.903 239.172 249.822C244.335 248.741 247.758 254.717 250.733 255.035C253.707 255.352 255.896 254.653 264.314 254.272C272.003 253.89 281.151 259.675 282.498 262.79C283.845 265.905 290.467 263.489 290.467 263.489L285.528 266.096Z" fill="url(#paint5_linear)"/>
<path d="M283.68 263.616C283.68 263.616 280.145 242.447 260.558 240.667C240.972 238.887 235.696 241.939 232.161 242.32C230.14 242.575 235.921 242.384 239.176 244.291C242.431 246.198 241.645 245.817 246.191 246.071C251.467 246.389 254.273 247.978 256.91 247.152C260.783 246.007 261.512 250.712 268.976 250.521C275.711 250.33 279.696 257.577 280.93 260.438C282.165 263.299 288.002 261.328 288.002 261.328L283.68 263.616Z" fill="url(#paint6_linear)"/>
<path d="M297.879 252.491L298.833 249.694C299.282 248.359 300.011 247.215 300.965 246.261C305.68 241.684 320.047 226.427 320.888 208.055C320.888 207.928 320.776 207.737 320.608 207.737H320.552C320.496 207.737 320.496 207.737 320.44 207.737C318.026 208.818 305.848 215.175 296.363 239.586C296.195 239.968 296.027 240.476 295.971 240.921C295.858 241.747 295.634 243.21 295.578 243.972C295.522 245.053 296.981 246.007 296.363 247.85C295.746 249.694 294.68 254.144 294.68 254.144L297.374 254.716L297.879 252.491Z" fill="url(#paint7_linear)"/>
<path d="M288.169 256.241C288.169 256.241 272.791 206.783 253.878 198.964C236.481 191.781 241.588 204.304 242.542 206.402C242.598 206.593 242.766 206.72 242.878 206.847C248.098 211.17 251.914 217.273 253.654 224.329C255.337 231.767 263.531 226.172 267.123 232.466C270.715 238.759 278.067 247.405 279.806 252.3C281.49 257.195 283.454 261.835 283.454 261.835L288.169 259.42V256.241Z" fill="url(#paint8_linear)"/>
<path d="M288.163 256.432C288.163 256.305 288.107 256.178 288.107 256.051C287.097 252.809 272.168 206.53 253.873 198.965C236.587 191.781 241.582 204.114 242.592 206.275C242.705 206.53 242.929 206.72 243.154 206.847C244.613 207.801 251.011 211.87 254.097 209.263C262.628 202.27 259.822 219.498 267.791 223.567C274.133 226.745 280.699 246.007 282.439 250.965C283.393 253.762 284.122 256.623 284.628 259.547C284.796 260.31 285.469 260.692 286.087 260.501C286.143 260.501 286.143 260.501 286.199 260.437C286.311 260.374 286.367 260.374 286.423 260.374L287.265 259.929C287.77 259.675 288.107 259.166 288.107 258.53L288.163 256.432Z" fill="url(#paint9_linear)"/>
<path d="M293.889 256.687C293.889 256.687 289.175 243.273 292.486 231.64C293.44 228.461 295.18 225.664 297.481 223.566C299.277 221.977 301.746 218.354 302.027 210.725C302.027 210.725 303.767 199.155 308.032 193.561C312.297 187.967 306.797 190.637 306.797 190.637C306.797 190.637 292.767 202.397 287.267 218.036C286.93 218.989 286.538 220.006 286.032 220.896C284.293 224.266 280.42 235.645 290.017 257.322L293.889 256.687Z" fill="url(#paint10_linear)"/>
<path d="M306.854 248.296C306.854 248.296 306.405 246.579 304.61 247.66C303.038 248.613 275.707 263.298 275.707 263.298C275.707 263.298 274.416 263.998 274.977 265.015C275.539 266.032 290.579 289.489 291.253 289.807C291.533 290.061 291.926 290.125 292.319 290.061C292.88 289.934 311.962 279.382 311.962 279.382C312.411 279.064 312.523 278.492 312.354 277.919C312.298 277.983 307.023 248.613 306.854 248.296Z" fill="url(#paint11_linear)"/>
<path d="M369.56 105.63L461.989 142.564C461.989 142.564 465.525 143.754 467.216 139.522L470.573 131.123L371.043 91.3516L366.969 101.546C366.814 103.343 367.835 105.015 369.56 105.63Z" fill="#BAC5F4"/>
<path d="M396.401 27.8731L369.695 94.5318L469.669 133.365L496.7 65.7206C496.7 65.7206 498.844 62.116 494.96 60.564L402.47 23.606C402.47 23.606 398.282 21.9327 396.401 27.8731Z" fill="#BAC5F4"/>
<path d="M400.633 138.796L408.037 120.266L422.346 126.727L415.838 143.013L400.633 138.796Z" fill="#BAC5F4"/>
<path d="M378.265 127.696L438.771 151.874L437.551 155.104L376.984 130.902L378.265 127.696Z" fill="#BAC5F4"/>
<path d="M418.074 115.426C419.713 116.081 420.449 117.936 419.757 119.667C419.066 121.399 417.253 122.236 415.615 121.581C413.976 120.926 413.24 119.071 413.931 117.339C414.623 115.608 416.496 114.795 418.074 115.426Z" fill="white"/>
<path d="M493.924 63.8665L400.463 26.5205L374.586 91.2799L468.046 128.626L493.924 63.8665Z" fill="#F8F8FF"/>
<path d="M403.8 31.7216C404.589 32.0368 404.975 33.0089 404.642 33.8424C404.309 34.6759 403.359 35.1145 402.57 34.7992C401.782 34.484 401.396 33.5119 401.729 32.6784C402.062 31.8449 403.011 31.4063 403.8 31.7216Z" fill="#FA5F5D"/>
<path d="M408.778 33.7118C409.567 34.0271 409.953 34.9991 409.619 35.8326C409.286 36.6662 408.337 37.1047 407.548 36.7895C406.759 36.4742 406.373 35.5022 406.706 34.6686C407.039 33.8351 407.989 33.3965 408.778 33.7118Z" fill="#FDBC4E"/>
<path d="M413.997 35.7987C414.786 36.114 415.171 37.086 414.838 37.9196C414.505 38.7531 413.556 39.1916 412.767 38.8764C411.978 38.5611 411.592 37.5891 411.925 36.7555C412.258 35.922 413.208 35.4835 413.997 35.7987Z" fill="#37CD58"/>
<path d="M429.826 55.2043C429.432 56.0136 428.509 56.388 427.745 56.0087L409.842 48.8547C408.932 48.491 408.278 47.486 408.585 46.7166L409.738 43.8313C410.046 43.0619 411.177 42.6961 412.148 43.0841L429.99 50.2137C430.805 50.4649 431.277 51.3971 431.005 52.2549L430.979 52.319L429.826 55.2043Z" fill="url(#paint12_linear)"/>
<path d="M465.28 91.5297C464.86 92.4031 463.85 92.8174 463.026 92.4137L402.155 68.0904C401.245 67.7266 400.617 66.6576 400.95 65.824L406.637 51.5898C406.971 50.7562 408.163 50.4147 409.073 50.7784L469.944 75.1018C470.819 75.3772 471.266 76.3735 470.968 77.2954L465.28 91.5297Z" fill="url(#paint13_linear)"/>
<path d="M416.099 86.0105C415.766 86.8441 414.817 87.2826 414.028 86.9674L397.278 80.2742C396.307 79.8862 395.739 78.8414 396.072 78.0079L399.198 70.1854C399.531 69.3519 400.723 69.0104 401.633 69.3741L418.262 76.0188C419.077 76.2699 419.549 77.2021 419.251 78.124L419.225 78.1881L416.099 86.0105Z" fill="url(#paint14_linear)"/>
<path d="M437.96 94.7401C437.627 95.5736 436.677 96.0121 435.888 95.6969L419.138 89.0037C418.167 88.6157 417.599 87.5709 417.932 86.7374L421.058 78.9149C421.391 78.0814 422.583 77.7398 423.494 78.1036L440.123 84.7483C440.937 84.9994 441.409 85.9316 441.111 86.8535L441.086 86.9176L437.96 94.7401Z" fill="url(#paint15_linear)"/>
<path d="M460.403 103.713C459.984 104.587 458.974 105.001 458.15 104.597L441.521 97.9529C440.585 97.6532 440.138 96.6569 440.376 95.7108L443.502 87.8884C443.947 86.9508 444.992 86.6248 445.876 87.0527L462.505 93.6974C463.38 93.9728 463.888 94.9934 463.59 95.9153L460.403 103.713Z" fill="url(#paint16_linear)"/>
<path d="M436.19 99.1645C435.94 99.4366 435.621 99.5319 435.292 99.4748C435.231 99.4505 435.231 99.4505 435.273 99.1698L416.945 91.8461C416.478 91.9571 416.034 91.4824 416.163 91.1618L416.265 90.9053C416.393 90.5847 417.067 90.4824 417.457 90.5638L435.785 97.8874C436.063 98.0728 436.143 98.402 436.101 98.6828C436.075 98.7469 436.075 98.7469 436.232 98.8838L436.19 99.1645Z" fill="#E9EDFB"/>
<path d="M435.183 101.666C434.934 101.938 434.589 102.098 434.259 102.04C434.259 102.04 434.199 102.016 434.301 101.76L415.913 94.4119C415.446 94.5228 415.002 94.0481 415.156 93.6634L415.258 93.4069C415.387 93.0863 416.035 93.0481 416.425 93.1295L434.753 100.453C435.031 100.638 435.232 101.016 435.225 101.385L435.183 101.666Z" fill="#E9EDFB"/>
<path d="M434.163 104.229C433.888 104.566 433.482 104.701 433.153 104.644C433.204 104.516 433.23 104.451 433.281 104.323L414.892 96.9749C414.512 97.0461 414.173 96.8364 414.119 96.4431C414.084 96.3547 414.11 96.2906 414.135 96.2265L414.238 95.97C414.366 95.6494 414.989 95.6753 415.405 95.6926L433.733 103.017C434.01 103.202 434.211 103.58 434.205 103.949L434.163 104.229Z" fill="#E9EDFB"/>
<path d="M433.171 106.731C432.836 107.043 432.439 107.33 432.008 107.53L413.619 100.182C413.383 99.7155 412.99 99.1125 413.144 98.7278L413.247 98.4713C413.375 98.1507 414.075 97.9843 414.388 98.258L432.716 105.582C432.984 105.615 433.15 105.904 433.108 106.185C433.082 106.249 433.057 106.313 433.031 106.377C433.031 106.377 433.031 106.377 433.188 106.514L433.171 106.731Z" fill="#E9EDFB"/>
<path d="M421.941 105.222C421.813 105.543 421.579 105.598 421.215 105.453L412.78 102.082C412.415 101.936 411.981 101.614 412.109 101.294L412.212 101.037C412.34 100.716 412.928 100.654 413.292 100.799L421.728 104.17C422.031 104.292 422.171 104.645 422.043 104.966L421.941 105.222Z" fill="#E9EDFB"/>
<path d="M458.64 108.137C458.148 108.312 458.106 108.592 457.844 108.19L439.516 100.867C439.11 101.002 438.884 100.688 439.012 100.368C439.012 100.368 439.012 100.368 439.22 100.376L439.322 100.12C439.268 99.7262 439.639 99.5026 440.029 99.584L458.357 106.908C458.67 107.182 458.506 107.414 458.742 107.88L458.64 108.137Z" fill="#E9EDFB"/>
<path d="M457.636 110.636C457.144 110.811 457.077 111.156 456.815 110.754L438.487 103.43C438.02 103.541 437.88 103.187 438.216 102.876L438.318 102.619C438.264 102.226 438.61 102.066 438.999 102.148L457.327 109.471C457.64 109.745 457.503 109.913 457.739 110.379L457.636 110.636Z" fill="#E9EDFB"/>
<path d="M456.613 113.201C456.121 113.376 456.028 113.785 455.791 113.319L437.464 105.995C436.997 106.106 436.857 105.753 437.192 105.441L437.295 105.184C437.241 104.791 437.561 104.696 437.976 104.713L456.304 112.037C456.617 112.31 456.479 112.479 456.715 112.945L456.613 113.201Z" fill="#E9EDFB"/>
<path d="M455.609 115.703C455.117 115.878 454.998 116.351 454.506 116.526L436.178 109.202C435.968 108.672 435.853 108.254 436.189 107.942L436.291 107.686C436.221 107.509 436.324 107.253 436.496 107.173C436.643 107.157 436.79 107.142 436.886 107.254L455.275 114.602C455.69 114.62 455.476 114.98 455.712 115.446L455.609 115.703Z" fill="#E9EDFB"/>
<path d="M444.511 114.242C444.383 114.563 444.332 114.691 444.028 114.57L435.532 111.174C435.168 111.029 435.037 110.828 435.165 110.507L435.267 110.251C435.396 109.93 435.741 109.771 436.044 109.892L444.48 113.263C444.844 113.408 444.681 113.641 444.553 113.961L444.511 114.242Z" fill="#E9EDFB"/>
<path d="M413.726 90.1915C413.84 90.6091 413.616 90.8171 413.355 90.4151L394.966 83.0671C394.646 83.1625 394.369 82.9771 394.324 82.7363C394.289 82.6479 394.315 82.5838 394.305 82.4313L394.408 82.1748C394.683 81.8386 395.089 81.7034 395.478 81.7848L413.806 89.1085C414.119 89.3822 414.138 89.6872 413.767 89.9108L413.726 90.1915Z" fill="#E9EDFB"/>
<path d="M412.729 92.6927C412.843 93.1103 412.594 93.3824 412.332 92.9804L393.944 85.6325C393.451 85.8076 393.276 85.3657 393.308 84.9325L393.411 84.676C393.6 84.3797 394.066 84.2687 394.456 84.3501L412.784 91.6738C413.097 91.9475 413.141 92.1884 412.771 92.412L412.729 92.6927Z" fill="#E9EDFB"/>
<path d="M411.705 95.2569C411.82 95.6745 411.545 96.0107 411.309 95.5446L392.92 88.1967C392.428 88.3717 392.253 87.9299 392.285 87.4967L392.387 87.2402C392.576 86.9439 393.017 86.897 393.433 86.9143L411.761 94.238C412.073 94.5117 412.118 94.7526 411.747 94.9762L411.705 95.2569Z" fill="#E9EDFB"/>
<path d="M405.572 94.7418L410.792 96.8274C411.207 96.8446 411.175 97.2779 410.804 97.5014L410.701 97.7579C410.816 98.1755 410.515 98.5759 410.023 98.751L391.634 91.403C391.373 91.001 391.284 90.5193 391.281 89.9977L391.383 89.7413C391.598 89.3808 392.064 89.2698 392.403 89.4794L405.572 94.7418Z" fill="#E9EDFB"/>
<path d="M400.57 96.6858C400.442 97.0064 400.209 97.0619 399.844 96.9164L390.741 93.2788C390.377 93.1333 390.124 92.8838 390.252 92.5632L390.355 92.3068C390.544 92.0104 390.95 91.8752 391.254 91.9965L400.357 95.634C400.66 95.7553 400.801 96.1088 400.698 96.3652C400.698 96.3652 400.698 96.3653 400.672 96.4294L400.57 96.6858Z" fill="#E9EDFB"/>
<defs>
<linearGradient id="paint0_linear" x1="85.8543" y1="138.553" x2="184.153" y2="138.553" gradientUnits="userSpaceOnUse">
<stop stop-color="#F9B564"/>
<stop offset="1" stop-color="#EA3968"/>
</linearGradient>
<linearGradient id="paint1_linear" x1="85.5796" y1="138.551" x2="184.5" y2="138.551" gradientUnits="userSpaceOnUse">
<stop stop-color="#EA3968"/>
<stop offset="1" stop-color="#F9B564"/>
</linearGradient>
<linearGradient id="paint2_linear" x1="39.4382" y1="171.271" x2="87.265" y2="171.271" gradientUnits="userSpaceOnUse">
<stop stop-color="#F9B564"/>
<stop offset="1" stop-color="#EA3968"/>
</linearGradient>
<linearGradient id="paint3_linear" x1="39.1575" y1="171.271" x2="87.5456" y2="171.271" gradientUnits="userSpaceOnUse">
<stop stop-color="#F9B564"/>
<stop offset="1" stop-color="#EA3968"/>
</linearGradient>
<linearGradient id="paint4_linear" x1="85.8797" y1="137.686" x2="184.179" y2="137.686" gradientUnits="userSpaceOnUse">
<stop stop-color="#F7A665"/>
<stop offset="1" stop-color="#EB4368"/>
</linearGradient>
<linearGradient id="paint5_linear" x1="237.739" y1="265.562" x2="283.068" y2="246.247" gradientUnits="userSpaceOnUse">
<stop stop-color="#93FD93"/>
<stop offset="0.51" stop-color="#21C2C1"/>
<stop offset="1" stop-color="#84F599"/>
</linearGradient>
<linearGradient id="paint6_linear" x1="247.398" y1="241.123" x2="288.302" y2="257.987" gradientUnits="userSpaceOnUse">
<stop stop-color="#93FD93"/>
<stop offset="0.51" stop-color="#21C2C1"/>
<stop offset="1" stop-color="#84F599"/>
</linearGradient>
<linearGradient id="paint7_linear" x1="292.335" y1="264.344" x2="318.158" y2="218.628" gradientUnits="userSpaceOnUse">
<stop stop-color="#93FD93"/>
<stop offset="0.51" stop-color="#21C2C1"/>
<stop offset="1" stop-color="#84F599"/>
</linearGradient>
<linearGradient id="paint8_linear" x1="294.428" y1="244.576" x2="245.407" y2="223.535" gradientUnits="userSpaceOnUse">
<stop stop-color="#93FD93"/>
<stop offset="0.51" stop-color="#21C2C1"/>
<stop offset="1" stop-color="#84F599"/>
</linearGradient>
<linearGradient id="paint9_linear" x1="254.611" y1="234.41" x2="276.009" y2="225.292" gradientUnits="userSpaceOnUse">
<stop stop-color="#93FD93"/>
<stop offset="0.51" stop-color="#21C2C1"/>
<stop offset="1" stop-color="#84F599"/>
</linearGradient>
<linearGradient id="paint10_linear" x1="289.533" y1="262.109" x2="298.081" y2="213.902" gradientUnits="userSpaceOnUse">
<stop stop-color="#93FD93"/>
<stop offset="0.51" stop-color="#21C2C1"/>
<stop offset="1" stop-color="#84F599"/>
</linearGradient>
<linearGradient id="paint11_linear" x1="280.735" y1="278.515" x2="313.761" y2="264.442" gradientUnits="userSpaceOnUse">
<stop stop-color="#F9B564"/>
<stop offset="1" stop-color="#EA3968"/>
</linearGradient>
<linearGradient id="paint12_linear" x1="409.164" y1="45.2247" x2="430.405" y2="53.7124" gradientUnits="userSpaceOnUse">
<stop stop-color="#FFF873"/>
<stop offset="1" stop-color="#F9B564"/>
</linearGradient>
<linearGradient id="paint13_linear" x1="403.783" y1="58.6897" x2="468.113" y2="84.3952" gradientUnits="userSpaceOnUse">
<stop stop-color="#F9B564"/>
<stop offset="1" stop-color="#EA3968"/>
</linearGradient>
<linearGradient id="paint14_linear" x1="397.625" y1="74.0772" x2="417.653" y2="82.0799" gradientUnits="userSpaceOnUse">
<stop stop-color="#F9B564"/>
<stop offset="1" stop-color="#EA3968"/>
</linearGradient>
<linearGradient id="paint15_linear" x1="419.486" y1="82.8067" x2="439.513" y2="90.8094" gradientUnits="userSpaceOnUse">
<stop stop-color="#F9B564"/>
<stop offset="1" stop-color="#EA3968"/>
</linearGradient>
<linearGradient id="paint16_linear" x1="441.928" y1="91.7822" x2="461.956" y2="99.7848" gradientUnits="userSpaceOnUse">
<stop stop-color="#F9B564"/>
<stop offset="1" stop-color="#EA3968"/>
</linearGradient>
</defs>
</svg>
