<svg width="134" height="136" viewBox="0 0 134 136" fill="none" xmlns="http://www.w3.org/2000/svg">
<g filter="url(#filter0_d)">
<path d="M66.6334 127.179C101.111 127.179 129.06 98.8212 129.06 63.8397C129.06 28.8581 101.111 0.5 66.6334 0.5C32.1563 0.5 4.20703 28.8581 4.20703 63.8397C4.20703 98.8212 32.1563 127.179 66.6334 127.179Z" fill="#F8AE65"/>
<path d="M69.6229 62.1799L66.3915 58.8999C65.6513 58.1487 64.6481 57.7255 63.6012 57.7227C62.5543 57.7198 61.5489 58.1377 60.8048 58.8849L38.3382 79.9221C37.5135 80.6629 37.009 81.7029 36.9335 82.8178C36.9096 83.3715 36.9986 83.9242 37.1947 84.4414C37.3909 84.9587 37.69 85.4293 38.0734 85.8241L42.9001 90.7754L42.9088 90.7842C43.6546 91.5385 44.6639 91.9636 45.717 91.9671H45.8631C46.4084 91.936 46.9424 91.7961 47.4345 91.5554C47.9265 91.3147 48.367 90.978 48.7307 90.5644L69.6093 67.8734C70.3552 67.1231 70.7768 66.1028 70.7813 65.0371C70.7859 63.9714 70.373 62.9475 69.6335 62.1907L69.6229 62.1799Z" fill="white"/>
<path d="M95.5923 55.5521L95.5539 55.5131L91.3126 51.2537C91.0642 51.0025 90.7691 50.8036 90.4445 50.6687C90.1199 50.5338 89.7723 50.4654 89.4215 50.4676C88.8532 50.4681 88.2994 50.65 87.8386 50.9875C87.8386 50.9335 87.846 50.8808 87.8497 50.8343C88.0209 49.7344 87.7922 48.6088 87.2062 47.6673C86.2718 46.3895 85.2459 45.1832 84.1369 44.0583L84.127 44.0482C81.0265 41.0301 77.3827 38.6452 73.3943 37.0237C71.3098 36.1557 69.0781 35.7099 66.8249 35.7115C63.9083 35.6847 61.0739 36.692 58.8112 38.5594C58.1672 39.1836 57.5798 39.8653 57.0563 40.5962C56.8061 40.9466 56.6741 41.3694 56.6799 41.802C56.6856 42.2345 56.8287 42.6537 57.088 42.997C57.3474 43.3404 57.7089 43.5897 58.1191 43.7078C58.5292 43.826 58.966 43.8066 59.3644 43.6527C59.7115 43.5211 60.0662 43.4108 60.4264 43.3225C61.1765 43.1615 61.9458 43.1128 62.7098 43.178C64.2937 43.3457 65.8117 43.9106 67.1269 44.8218C67.8643 45.4519 68.4509 46.2438 68.8424 47.1377C69.2339 48.0315 69.42 49.004 69.3867 49.9816C68.8371 51.5698 67.9974 53.0387 66.9115 54.3113C66.622 54.6986 66.4807 55.1791 66.5137 55.664C66.5467 56.1489 66.7518 56.6052 67.091 56.9484L71.3496 61.2693C71.7075 61.6333 72.1892 61.8442 72.6957 61.8587C73.2022 61.8732 73.6949 61.6901 74.0724 61.3472C75.2766 60.256 77.1107 58.611 77.7518 58.2079C78.2999 57.8358 78.9204 57.5875 79.5712 57.4796C80.0561 57.4313 80.544 57.5356 80.9685 57.7784C80.9706 57.7999 80.9683 57.8216 80.9617 57.8422C80.955 57.8627 80.9443 57.8816 80.9301 57.8977L80.7048 58.115L80.6677 58.1501C80.1673 58.6559 79.8854 59.3428 79.8841 60.0595C79.8828 60.7762 80.1621 61.4641 80.6606 61.9718L80.6739 61.9851L84.914 66.2433C85.1625 66.4943 85.4575 66.693 85.7821 66.8277C86.1067 66.9624 86.4544 67.0305 86.805 67.0281C87.5093 67.0292 88.1857 66.7496 88.6888 66.2496L95.5575 59.3656C95.581 59.3418 95.6045 59.3167 95.6268 59.2915C96.0876 58.779 96.3402 58.1086 96.3338 57.4149C96.3274 56.7212 96.0625 56.0557 95.5923 55.5521Z" fill="white"/>
</g>
<defs>
<filter id="filter0_d" x="0.207031" y="0.5" width="132.853" height="134.679" filterUnits="userSpaceOnUse" color-interpolation-filters="sRGB">
<feFlood flood-opacity="0" result="BackgroundImageFix"/>
<feColorMatrix in="SourceAlpha" type="matrix" values="0 0 0 0 0 0 0 0 0 0 0 0 0 0 0 0 0 0 127 0"/>
<feOffset dy="4"/>
<feGaussianBlur stdDeviation="2"/>
<feColorMatrix type="matrix" values="0 0 0 0 0 0 0 0 0 0 0 0 0 0 0 0 0 0 0.25 0"/>
<feBlend mode="normal" in2="BackgroundImageFix" result="effect1_dropShadow"/>
<feBlend mode="normal" in="SourceGraphic" in2="effect1_dropShadow" result="shape"/>
</filter>
</defs>
</svg>
