<svg width="133" height="135" viewBox="0 0 133 135" fill="none" xmlns="http://www.w3.org/2000/svg">
<g filter="url(#filter0_d)">
<path d="M66.4264 126.679C100.904 126.679 128.853 98.3212 128.853 63.3397C128.853 28.3581 100.904 0 66.4264 0C31.9493 0 4 28.3581 4 63.3397C4 98.3212 31.9493 126.679 66.4264 126.679Z" fill="#2EC9BC"/>
<path d="M76.3372 59.5684C75.8472 59.5683 75.3681 59.4209 74.9606 59.1446C74.5531 58.8684 74.2355 58.4757 74.048 58.0163C73.8604 57.5569 73.8114 57.0514 73.907 56.5637C74.0026 56.076 74.2386 55.6281 74.5851 55.2765L80.2666 49.5117L74.5851 43.7469C74.1204 43.2754 73.8594 42.636 73.8594 41.9692C73.8594 41.3024 74.1204 40.6629 74.5851 40.1915C75.0498 39.72 75.6801 39.4551 76.3372 39.4551C76.9944 39.4551 77.6247 39.72 78.0893 40.1915L85.5231 47.7339C85.7532 47.9674 85.9358 48.2445 86.0603 48.5495C86.1848 48.8546 86.2489 49.1815 86.2489 49.5117C86.2489 49.8418 86.1848 50.1688 86.0603 50.4738C85.9358 50.7788 85.7532 51.056 85.5231 51.2894L78.0893 58.8319C77.8595 59.0657 77.5864 59.2512 77.2857 59.3776C76.985 59.5039 76.6627 59.5688 76.3372 59.5684Z" fill="white"/>
<path d="M36.6928 67.1094C36.3674 67.1094 36.0451 67.0444 35.7445 66.918C35.4439 66.7917 35.1707 66.6065 34.9406 66.3731C34.7105 66.1396 34.528 65.8624 34.4034 65.5574C34.2789 65.2524 34.2148 64.9254 34.2148 64.5952V62.0811C34.2343 58.0877 35.8059 54.2633 38.5883 51.4388C41.3707 48.6143 45.1392 47.0178 49.075 46.9961H81.2953C81.9525 46.9961 82.5828 47.261 83.0475 47.7325C83.5122 48.204 83.7732 48.8434 83.7732 49.5102C83.7732 50.177 83.5122 50.8165 83.0475 51.288C82.5828 51.7595 81.9525 52.0244 81.2953 52.0244H49.0824C46.4572 52.0402 43.944 53.1058 42.0883 54.99C40.2327 56.8742 39.1843 59.425 39.1707 62.0886V64.5952C39.1707 64.9254 39.1066 65.2523 38.9821 65.5574C38.8576 65.8624 38.675 66.1396 38.4449 66.373C38.2148 66.6065 37.9417 66.7917 37.6411 66.918C37.3404 67.0444 37.0182 67.1094 36.6928 67.1094V67.1094Z" fill="white"/>
<path d="M56.5133 87.2229C56.1878 87.2234 55.8655 87.1585 55.5648 87.0322C55.2641 86.9058 54.991 86.7203 54.7612 86.4865L47.3274 78.944C47.0973 78.7106 46.9147 78.4335 46.7902 78.1284C46.6657 77.8234 46.6016 77.4965 46.6016 77.1663C46.6016 76.8361 46.6657 76.5092 46.7902 76.2042C46.9147 75.8992 47.0973 75.622 47.3274 75.3886L54.7612 67.8461C55.226 67.3753 55.856 67.111 56.5128 67.1113C57.1696 67.1116 57.7994 67.3765 58.2638 67.8477C58.7282 68.3189 58.9892 68.9579 58.9895 69.6243C58.9898 70.2907 58.7294 70.9299 58.2654 71.4015L52.5839 77.1663L58.2654 82.931C58.6119 83.2827 58.8479 83.7306 58.9435 84.2183C59.0391 84.706 58.99 85.2115 58.8025 85.6709C58.615 86.1303 58.2974 86.523 57.8899 86.7992C57.4824 87.0755 57.0034 87.2229 56.5133 87.2229Z" fill="white"/>
<path d="M51.5599 79.6817C50.9027 79.6817 50.2725 79.4168 49.8078 78.9453C49.3431 78.4738 49.082 77.8343 49.082 77.1675C49.082 76.5007 49.3431 75.8612 49.8078 75.3897C50.2725 74.9182 50.9027 74.6533 51.5599 74.6533H83.7728C86.398 74.6375 88.9112 73.5719 90.7668 71.6877C92.6225 69.8035 93.6708 67.2528 93.6845 64.5891V62.0825C93.6845 61.4157 93.9455 60.7762 94.4102 60.3047C94.8749 59.8332 95.5052 59.5684 96.1624 59.5684C96.8196 59.5684 97.4499 59.8332 97.9146 60.3047C98.3793 60.7762 98.6403 61.4157 98.6403 62.0825V64.5967C98.6209 68.5901 97.0493 72.4145 94.2668 75.239C91.4844 78.0635 87.716 79.66 83.7802 79.6817L51.5599 79.6817Z" fill="white"/>
</g>
<defs>
<filter id="filter0_d" x="0" y="0" width="132.853" height="134.679" filterUnits="userSpaceOnUse" color-interpolation-filters="sRGB">
<feFlood flood-opacity="0" result="BackgroundImageFix"/>
<feColorMatrix in="SourceAlpha" type="matrix" values="0 0 0 0 0 0 0 0 0 0 0 0 0 0 0 0 0 0 127 0"/>
<feOffset dy="4"/>
<feGaussianBlur stdDeviation="2"/>
<feColorMatrix type="matrix" values="0 0 0 0 0 0 0 0 0 0 0 0 0 0 0 0 0 0 0.25 0"/>
<feBlend mode="normal" in2="BackgroundImageFix" result="effect1_dropShadow"/>
<feBlend mode="normal" in="SourceGraphic" in2="effect1_dropShadow" result="shape"/>
</filter>
</defs>
</svg>
