<svg width="3674" height="1593" viewBox="0 0 3674 1593" fill="none" xmlns="http://www.w3.org/2000/svg">
<path d="M3673 750V1583.4C3366.92 1599.28 3060.83 1595.46 2754.75 1571.93C2448.67 1548.4 2142.58 1483.17 1836.5 1376.23C1530.42 1269.28 1224.33 1266.01 918.25 1366.41C612.167 1466.81 306.083 1431.95 0.000141144 1261.83V750H3673Z" fill="#181154"/>
<rect width="3674" height="756" fill="#181154"/>
<rect x="1542" y="205" width="459" height="219" fill="url(#paint0_linear)"/>
<rect x="2108" y="243" width="231" height="109" fill="url(#paint1_linear)"/>
<rect x="3054" y="401" width="372" height="180" fill="url(#paint2_linear)"/>
<rect x="3240" y="1039" width="158" height="78" fill="url(#paint3_linear)"/>
<defs>
<linearGradient id="paint0_linear" x1="1771.5" y1="205" x2="2113" y2="205" gradientUnits="userSpaceOnUse">
<stop stop-color="#1A125E"/>
<stop offset="1" stop-color="#20077C" stop-opacity="0"/>
</linearGradient>
<linearGradient id="paint1_linear" x1="2223.5" y1="243" x2="2427.5" y2="243" gradientUnits="userSpaceOnUse">
<stop stop-color="#1D1466"/>
<stop offset="1" stop-color="#20077C" stop-opacity="0"/>
</linearGradient>
<linearGradient id="paint2_linear" x1="3240" y1="401" x2="3470.5" y2="401" gradientUnits="userSpaceOnUse">
<stop stop-color="#1C1465"/>
<stop offset="1" stop-color="#20077C" stop-opacity="0"/>
</linearGradient>
<linearGradient id="paint3_linear" x1="3319" y1="1039" x2="3459.5" y2="1039" gradientUnits="userSpaceOnUse">
<stop stop-color="#221875"/>
<stop offset="1" stop-color="#20077C" stop-opacity="0"/>
</linearGradient>
</defs>
</svg>
