<svg width="3761" height="2436" viewBox="0 0 3761 2436" fill="none" xmlns="http://www.w3.org/2000/svg">
<path d="M3667.55 2230.82H2556.95C2561.05 2222.3 2563.36 2212.77 2563.36 2202.68V1683.36H2173.36C2154.18 1683.36 2138.64 1698.96 2138.64 1718.23V1764.97L2085.34 1765.2L2069.83 1765.26L2056.65 1765.32L2049.76 1765.34L2036.65 1765.4V1075.72C2036.65 1001.14 1975.86 940.108 1901.55 940.108H1877.13C1837.58 825.364 2029.64 730.315 2221.6 730.315C2427.66 730.315 2633.66 839.804 2553.19 1151.96C2477.61 1445.33 2503.39 1523.55 2571.83 1523.55C2644.49 1523.55 2765.22 1435.41 2863.66 1422.99C2879.68 1420.96 2896.33 1419.97 2913.36 1419.97C3099.52 1419.97 3332.15 1540.06 3313.88 1764.81C3298.72 1951.58 3329.78 2014.82 3442.19 2014.82C3477.42 2014.82 3520.61 2008.61 3572.93 1998.06C3592.99 1994 3611.41 1992.14 3628.15 1992.14C3794.37 1992.14 3798.79 2175.6 3667.55 2230.82V2230.82ZM1076.62 2230.82H1076.34C1076.46 2230.8 1076.58 2230.76 1076.72 2230.74L1076.62 2230.82V2230.82ZM737.164 2098.35C755.555 2068.19 780.632 2038.27 814.624 2015.26C856.717 2023.48 882.542 2036.34 859.807 2059.28C859.102 2059.99 858.414 2060.72 857.728 2061.45C828.851 2062.39 796.88 2070.09 762.607 2086.99C753.555 2091.46 745.107 2095.23 737.164 2098.35V2098.35ZM1359.05 1536.47C1318.01 1494.56 1275.11 1459.49 1234.73 1430.72C1265.69 1391.49 1308.65 1357.98 1359.05 1335.18V1536.47Z" fill="url(#paint0_radial)"/>
<path d="M1150.72 1975.46H1057.43L1019.56 1820.23C1018.47 1815.73 1014.37 1812.67 1009.93 1812.67C1009.16 1812.67 1008.39 1812.77 1007.6 1812.95C1002.35 1814.25 999.073 1819.67 1000.37 1824.94L1034.82 1966.13L899.063 1883.47L890.212 1847.15L859.94 1723.04C858.808 1718.52 854.746 1715.48 850.28 1715.48C849.512 1715.48 848.744 1715.56 847.956 1715.76C845.309 1716.37 843.167 1718.07 841.854 1720.25C840.54 1722.42 840.035 1725.11 840.722 1727.75L866.305 1832.65L870.994 1851.92L875.157 1868.92L677.318 1748.46C675.722 1747.49 673.964 1747.04 672.226 1747.04C668.851 1747.04 665.577 1748.75 663.738 1751.79L663.718 1751.81L423.645 1605.65C423.645 1605.65 465.572 1536.25 523.699 1536.25C529.257 1536.25 534.963 1536.88 540.796 1538.28C597.425 1551.77 694.677 1709.13 733.82 1709.13C740.853 1709.13 746.026 1704.04 748.734 1692.11C758.313 1649.71 789.211 1624.66 823.848 1624.66C853.231 1624.66 885.301 1642.67 909.329 1683.43C928.062 1715.19 941.723 1724.57 955.727 1724.57C965.791 1724.57 976.016 1719.74 988.444 1714.93C1000.85 1710.12 1015.46 1705.32 1034.28 1705.32C1037.43 1705.32 1040.7 1705.44 1044.1 1705.74C1050.14 1736.49 1058.06 1767.88 1068.35 1799.38C1068.67 1800.44 1069.01 1801.47 1069.38 1802.52C1075.52 1821.13 1082.47 1839.73 1090.35 1858.27C1108.18 1900.32 1128.53 1939.43 1150.72 1975.46" fill="url(#paint1_radial)"/>
<path d="M1005.84 2239.06C987.899 2239.06 969.712 2237.43 951.565 2233.96C946.614 2233.01 941.845 2231.98 937.257 2230.82H989.051C1024.27 2203.13 1017.69 2150.61 982.1 2111.34L1034.52 2098.43V2144.22H1161.04L1076.71 2230.74C1076.57 2230.76 1076.45 2230.8 1076.33 2230.82C1053.7 2236.12 1029.97 2239.06 1005.84 2239.06V2239.06ZM964.781 2095.17C939.42 2075.11 904.924 2061.35 863.801 2061.35C861.8 2061.35 859.759 2061.37 857.718 2061.45C858.405 2060.72 859.092 2059.99 859.799 2059.28C882.534 2036.34 856.707 2023.48 814.614 2015.26C763.204 2005.24 687.504 2002.16 646.38 1996.17C571.588 1985.3 553.129 1897.28 584.846 1857.22C616.577 1817.13 480.162 1839.73 415.041 1769.91C349.902 1700.08 423.645 1605.65 423.645 1605.65L663.719 1751.81C662.325 1754.14 662.001 1756.84 662.608 1759.32C663.194 1761.77 664.75 1764.02 667.053 1765.44L802.974 1848.19L661.678 1882.94C656.404 1884.24 653.15 1889.63 654.423 1894.93C655.515 1899.45 659.576 1902.49 664.022 1902.49C664.81 1902.49 665.598 1902.41 666.366 1902.21L826.86 1862.73L1034.52 1989.15V2078.03L964.781 2095.17" fill="url(#paint2_radial)"/>
<path d="M982.101 2111.34C976.927 2105.62 971.148 2100.2 964.782 2095.17L1034.52 2078.03V2098.44L982.101 2111.34ZM1034.52 1989.16L826.861 1862.73L666.367 1902.21C665.599 1902.41 664.811 1902.49 664.023 1902.49C659.577 1902.49 655.516 1899.45 654.424 1894.93C653.151 1889.63 656.405 1884.24 661.679 1882.94L802.975 1848.19L667.055 1765.44C664.751 1764.02 663.195 1761.77 662.609 1759.32C662.002 1756.84 662.326 1754.14 663.72 1751.81L663.74 1751.79C665.579 1748.75 668.853 1747.04 672.228 1747.04C673.966 1747.04 675.724 1747.49 677.32 1748.46L875.159 1868.92L870.996 1851.92L866.308 1832.65L840.724 1727.75C840.037 1725.12 840.542 1722.42 841.856 1720.25C843.169 1718.08 845.311 1716.37 847.958 1715.76C848.746 1715.56 849.514 1715.48 850.282 1715.48C854.748 1715.48 858.81 1718.52 859.942 1723.05L890.214 1847.16L899.065 1883.47L1034.82 1966.13L1000.37 1824.94C999.075 1819.67 1002.35 1814.25 1007.6 1812.95C1008.39 1812.77 1009.16 1812.67 1009.93 1812.67C1014.37 1812.67 1018.48 1815.73 1019.57 1820.24L1057.44 1975.46H1034.52V1989.16" fill="url(#paint3_radial)"/>
<path d="M970.729 1182.85L1464.38 2125.69C1359.9 2122.81 1211.95 2033.17 1099.54 1871.41C1098.71 1870.27 1097.9 1869.1 1097.13 1867.94C1065.83 1822.46 1037.36 1771.34 1013.45 1714.92C1005.57 1696.38 998.616 1677.78 992.473 1659.18C992.109 1658.12 991.766 1657.09 991.443 1656.03C968.83 1586.68 957.553 1517.93 952.946 1455.26C952.865 1454.27 952.784 1453.28 952.724 1452.28C941.912 1299.16 970.729 1182.85 970.729 1182.85Z" fill="url(#paint4_radial)"/>
<path d="M1211.26 1638.72L1029.85 1598.61C1029.77 1597.62 1029.69 1596.62 1029.63 1595.63L1209.5 1635.39L1210.98 1638.17L1211.26 1638.72" fill="#E0E0E0"/>
<path d="M1326.81 1859.43L1069.38 1802.53C1069.01 1801.47 1068.67 1800.44 1068.35 1799.38L1325.07 1856.1L1326.81 1859.43Z" fill="#E0E0E0"/>
<path d="M1441.87 1628.1C1442.44 1629.28 1442.99 1630.47 1443.51 1631.65V1631.69C1489.22 1729.51 1512 1826.4 1516.66 1911.76C1516.79 1914.03 1516.91 1916.28 1516.99 1918.55C1521.07 2010.81 1503.75 2089.06 1471.22 2139.39L977.57 1196.55C977.57 1196.55 1056.85 1226.44 1153.28 1293.1C1154.09 1293.65 1154.88 1294.2 1155.69 1294.74C1206.29 1329.96 1261.46 1375.26 1312.26 1431.59C1312.97 1432.4 1313.69 1433.17 1314.38 1433.99C1341.26 1464.03 1366.88 1497.2 1389.9 1533.61C1409.7 1564.95 1426.96 1596.58 1441.87 1628.1" fill="#72B5FF"/>
<path d="M1170.48 1560.84L1169.55 1559.09L1168.74 1557.51L1223.34 1422.75C1224.15 1423.3 1224.94 1423.85 1225.75 1424.4L1170.48 1560.84Z" fill="url(#paint5_radial)"/>
<path d="M1291.73 1792.42L1289.99 1789.12L1359.04 1618.73V1626.34L1291.73 1792.42Z" fill="url(#paint6_radial)"/>
<path d="M2406.28 2110.93H1463.08C1291.04 2110.93 1150.35 2056.44 1150.35 1989.86V1048.31C1150.35 981.724 1291.04 927.247 1463.08 927.247H2406.28C2578.27 927.247 2719.01 981.724 2719.01 1048.31V1989.86C2719.01 2056.44 2578.27 2110.93 2406.28 2110.93Z" fill="#110052"/>
<path d="M2369.81 2028.24H1499.52C1340.17 2028.24 1209.76 1982.26 1209.76 1926.05V1092.71C1209.76 1036.5 1340.17 990.51 1499.52 990.51H2369.81C2529.16 990.51 2659.53 1036.5 2659.53 1092.71V1926.05C2659.53 1982.26 2529.16 2028.24 2369.81 2028.24Z" fill="url(#paint7_linear)"/>
<path d="M2260.86 421.248L2246.22 379.744L2248.26 378.867L2262.9 420.393L2260.86 421.248Z" fill="white"/>
<path d="M2278.92 421.238L2293.56 379.726L2291.51 378.864L2276.86 420.376L2278.92 421.238Z" fill="white"/>
<path d="M2269.03 420.814H2271.23V383.635H2269.03V420.814Z" fill="white"/>
<path d="M2276.33 0.4223V383.642H2247.05C2247.05 383.642 2093.31 218.663 2129.93 103.108C2151.12 36.2312 2196.84 12.3887 2231.59 4.1477H2231.62C2242.61 1.52863 2252.56 0.489991 2260.23 0.151318C2270.14 -0.300245 2276.33 0.4223 2276.33 0.4223Z" fill="white"/>
<path d="M2253.96 383.647H2247.03C2247.03 383.647 2093.3 218.665 2129.9 103.12C2151.11 36.2472 2196.83 12.393 2231.57 4.17976C2105.6 143.871 2253.96 383.647 2253.96 383.647Z" fill="url(#paint8_radial)"/>
<path d="M2263.89 0.409351V383.621H2293.17C2293.17 383.621 2446.92 218.645 2410.32 103.1C2389.14 36.2307 2343.4 12.3657 2308.66 4.14288H2308.64C2297.6 1.52009 2287.71 0.48033 2280.01 0.149527C2270.1 -0.29942 2263.89 0.409351 2263.89 0.409351Z" fill="white"/>
<path d="M2279.98 0.154809C2276.08 -0.0274103 2272.72 -0.00472184 2270.11 0.0636103C2267.5 -0.00472184 2264.16 -0.0274103 2260.22 0.154809C2195.8 136.25 2260.22 383.635 2260.22 383.635H2263.89H2276.33H2279.98C2279.98 383.635 2344.42 136.25 2279.98 0.154809Z" fill="url(#paint9_radial)"/>
<path d="M2286.25 383.628H2293.16C2293.16 383.628 2446.91 218.646 2410.32 103.118C2389.12 36.249 2343.38 12.3887 2308.64 4.1619C2434.63 143.854 2286.25 383.628 2286.25 383.628Z" fill="url(#paint10_radial)"/>
<path d="M2285.2 431.999H2255.03V411.064H2285.2V431.999Z" fill="url(#paint11_radial)"/>
<path d="M2286.25 438.463H2253.98V420.827H2286.25V438.463Z" fill="url(#paint12_radial)"/>
<path d="M2790.71 2210.82C2790.71 2210.82 2788.16 2245.89 2719.42 2249.75V2260.72H2812.58L2828.25 2244.6V2260.72H2844.8L2840.3 2214.61L2790.71 2210.82" fill="url(#paint13_radial)"/>
<path d="M2730.58 1283.73L2553.32 1216.36C2553.32 1216.36 2663.45 1215.14 2752.08 1115.05L2747.13 1098.87C2747.13 1098.87 2470.51 1137.26 2483.54 1224.59C2496.53 1311.92 2696.69 1387.15 2696.69 1387.15C2696.69 1387.15 2731.58 1336.19 2730.58 1283.73Z" fill="#FCFCFF"/>
<path d="M2668.74 1655.68C2668.74 1655.68 2645.73 1975.85 2786.18 2215.2L2837.49 2214.29C2837.49 2214.29 2854.28 2025.71 2757.96 1956.09L2771.86 1807.15C2771.86 1807.15 2763.95 1536.1 2668.74 1655.68Z" fill="#031A44"/>
<path d="M2685.13 1458.08C2677.42 1512.91 2673.35 1559.04 2673.35 1559.04C2673.35 1559.04 2700.82 1608.56 2702.85 1609.59C2704.89 1610.63 2727.05 1588.76 2727.05 1588.76L2746.28 1623.87L2820.48 1617.53C2820.48 1617.53 2819.63 1597.52 2820.03 1563.73C2820.85 1489.4 2915.78 1347.8 2915.78 1347.8C2890.4 1325.05 2835.85 1298.71 2835.85 1298.71L2788.15 1291.35L2730.59 1283.71L2730.56 1283.73C2722.95 1291.88 2716.03 1308.74 2709.83 1330.29V1330.3C2703.7 1351.5 2698.31 1377.22 2693.66 1403.67C2690.44 1421.89 2687.59 1440.43 2685.13 1458.08" fill="#FCFCFF"/>
<path d="M2845.66 1229.45L2844.18 1307.15L2796.52 1304.69L2788.16 1291.35C2788.16 1291.35 2804.35 1245.9 2803.77 1214.92C2803.23 1183.93 2848 1185.64 2845.66 1229.45Z" fill="#FFB8B8"/>
<path d="M2842.26 1208.03L2815.72 1248.37L2782.84 1231.27L2820.61 1158.19C2820.61 1158.19 2868.82 1167.69 2842.26 1208.03" fill="#FFB8B8"/>
<path d="M2836.67 1214C2836.67 1214 2838.31 1198.33 2849.4 1179.81C2849.4 1179.81 2808.94 1162.53 2809.69 1150.43C2810.42 1138.33 2823.57 1126.71 2831.53 1137.01C2839.49 1147.31 2828.45 1153.25 2846.58 1162.07C2864.71 1170.89 2857.22 1179.92 2857.22 1179.92C2857.22 1179.92 2866.17 1188.27 2860.15 1199.91C2854.15 1211.55 2845.51 1236.4 2845.51 1236.4L2836.67 1214Z" fill="#4821DB"/>
<path d="M2834.48 1219.84L2845.17 1202.78C2845.17 1202.78 2850.06 1203.26 2848.16 1211.3C2846.26 1219.33 2837.44 1223.91 2834.48 1219.84Z" fill="url(#paint14_linear)"/>
<path d="M2796.54 1304.69L2808.2 1338.08L2844.18 1307.15L2796.54 1304.69Z" fill="#C4C5D1"/>
<path d="M2796.54 1304.68L2771.86 1309.58L2788.17 1291.35L2796.54 1304.68" fill="#C4C5D1"/>
<path d="M2796.54 1304.68L2782.6 1312.99L2783.58 1326.23L2787.9 1330.44L2801.55 1319.01L2796.54 1304.68" fill="url(#paint15_linear)"/>
<path d="M2783.6 1326.23C2783.6 1326.23 2660.25 1474.97 2755.63 1717.22L2782.6 1730.26L2796.55 1709.96C2796.55 1709.96 2680.48 1522.47 2787.89 1330.44L2783.6 1326.23" fill="#ED4567"/>
<path d="M2915.8 1347.8C2915.8 1347.8 2964.7 1567.09 2915.8 1785.04L2885.67 1768.35C2885.67 1768.35 2877.14 1570.32 2850.25 1447.71C2850.25 1447.71 2866.44 1372.94 2915.8 1347.8Z" fill="#FCFCFF"/>
<path d="M2885.65 1768.35C2885.65 1768.35 2874.11 1785.57 2857.39 1792.65C2840.69 1799.75 2846.48 1808.13 2866.39 1800.4C2886.28 1792.65 2885.65 1789.42 2885.65 1789.42C2885.65 1789.42 2874.11 1825.53 2882.45 1824.88C2890.8 1824.23 2890.8 1820.4 2901.05 1824.91C2911.35 1829.41 2915.79 1824.91 2915.79 1824.91V1785.04L2885.65 1768.35" fill="#FFB8B8"/>
<path d="M2885.66 1768.34L2915.8 1785.04L2920.17 1764.25L2884.81 1751.32L2885.66 1768.34Z" fill="url(#paint16_radial)"/>
<path d="M2747.12 1098.87C2747.12 1098.87 2780.97 1091.72 2806.02 1098.87C2831.05 1106.03 2840.82 1115.7 2835.95 1116.98C2831.05 1118.27 2801.53 1108.6 2801.53 1108.6C2801.53 1108.6 2822.07 1116.98 2816.96 1120.21C2811.8 1123.43 2802.21 1116.34 2784.18 1114.41C2766.19 1112.47 2752.05 1115.05 2752.05 1115.05L2747.12 1098.87" fill="url(#paint17_linear)"/>
<path d="M2747.12 1098.87L2757.35 1121.03L2739.61 1128.34L2733.46 1100.98L2747.12 1098.87" fill="url(#paint18_radial)"/>
<path d="M2821.44 2221.14C2821.44 2221.14 2818.88 2256.2 2750.16 2260.07V2271.03H2843.32L2858.99 2254.92V2271.03H2875.53L2871.06 2224.94L2821.44 2221.14Z" fill="url(#paint19_radial)"/>
<path d="M1922.3 626.135C1922.3 694.835 1866.83 750.52 1798.39 750.52C1729.95 750.52 1674.48 694.835 1674.48 626.135C1674.48 557.436 1729.95 501.749 1798.39 501.749C1866.83 501.749 1922.3 557.436 1922.3 626.135Z" fill="#EA3968"/>
<path d="M1243.58 2061.87C1243.58 2130.57 1188.1 2186.26 1119.67 2186.26C1051.23 2186.26 995.758 2130.57 995.758 2061.87C995.758 1993.17 1051.23 1937.49 1119.67 1937.49C1188.1 1937.49 1243.58 1993.17 1243.58 2061.87Z" fill="#EA3968"/>
<path d="M3225.68 1130.59C3225.68 1209.97 3161.58 1274.32 3082.52 1274.32C3003.43 1274.32 2939.32 1209.97 2939.32 1130.59C2939.32 1051.2 3003.43 986.848 3082.52 986.848C3161.58 986.848 3225.68 1051.2 3225.68 1130.59Z" fill="#EA3968"/>
<path d="M1226.84 1118.27C1226.84 1221.5 1143.48 1305.18 1040.64 1305.18C937.8 1305.18 854.441 1221.5 854.441 1118.27C854.441 1015.04 937.8 931.353 1040.64 931.353C1143.48 931.353 1226.84 1015.04 1226.84 1118.27" fill="#EA3968"/>
<path d="M2190.2 1764.78L2206.22 1764.72L2190.2 1764.78Z" fill="url(#paint20_linear)"/>
<path d="M2160.97 1764.89L2176.99 1764.81L2160.97 1764.89Z" fill="url(#paint21_linear)"/>
<path d="M1179.13 883.285C1179.13 883.285 1179.21 883.161 1179.36 882.912C1180.37 881.163 1185.01 873.439 1193.14 863.492L1191.58 862.204C1182.18 873.694 1177.4 882.255 1177.38 882.293L1179.13 883.285ZM1221.91 835.236C1227.98 830.493 1234.71 825.937 1242.04 821.866L1241.05 820.091C1233.61 824.219 1226.82 828.834 1220.66 833.634L1221.91 835.236ZM1279.53 807.759C1287.09 806.177 1295.05 805.223 1303.43 805.063L1303.39 803.036C1294.89 803.197 1286.78 804.164 1279.12 805.773L1279.53 807.759ZM1343.22 810.082C1347.14 811.124 1351.15 812.341 1355.21 813.743C1358.86 815.003 1362.52 816.315 1366.22 817.666L1366.91 815.762C1363.21 814.405 1359.53 813.09 1355.87 811.824C1351.75 810.406 1347.71 809.175 1343.75 808.12L1343.22 810.082ZM1403.97 832.358C1411.47 835.374 1418.98 838.425 1426.54 841.438L1427.29 839.553C1419.73 836.543 1412.21 833.492 1404.72 830.475L1403.97 832.358ZM1464.45 855.873C1472.19 858.607 1479.91 861.174 1487.61 863.492L1488.18 861.549C1480.52 859.242 1472.84 856.686 1465.14 853.96L1464.45 855.873ZM1527.12 872.877C1535.28 874.203 1543.39 875.084 1551.41 875.416L1551.49 873.388C1543.57 873.061 1535.55 872.189 1527.44 870.874L1527.12 872.877ZM1591.89 871.753C1599.73 869.856 1607.43 867.201 1614.98 863.685L1614.11 861.845C1606.7 865.304 1599.12 867.913 1591.4 869.779L1591.89 871.753ZM1648.65 840.859C1654.37 835.605 1659.93 829.666 1665.36 822.988L1663.79 821.705C1658.43 828.313 1652.91 834.179 1647.28 839.364L1648.65 840.859ZM1687.98 789.12C1689.05 787.203 1690.1 785.248 1691.15 783.256L1689.37 782.306C1688.32 784.286 1687.27 786.227 1686.22 788.132L1687.98 789.12" fill="#F2BBFF"/>
<path d="M3185.76 1303.73C3185.76 1303.73 3185.96 1304.24 3186.41 1305.25C3187.69 1308.26 3190.71 1315.66 3194.42 1326.47L3196.34 1325.81C3191.36 1311.33 3187.6 1302.92 3187.6 1302.9L3185.76 1303.73ZM3205.87 1365.41C3207.71 1372.85 3209.49 1380.81 3211.11 1389.18L3213.09 1388.8C3211.47 1380.38 3209.69 1372.39 3207.85 1364.92L3205.87 1365.41ZM3216.88 1429.35C3217.61 1437.26 3218.15 1445.38 3218.4 1453.63L3220.41 1453.57C3220.16 1445.27 3219.65 1437.1 3218.88 1429.15L3216.88 1429.35ZM3217.13 1494.14C3216.37 1502.14 3215.29 1510.17 3213.85 1518.22L3215.86 1518.59C3217.3 1510.47 3218.4 1502.38 3219.14 1494.33L3217.13 1494.14ZM3203.61 1557.35C3200.98 1564.9 3197.93 1572.41 3194.45 1579.81L3196.26 1580.68C3199.79 1573.2 3202.88 1565.63 3205.53 1558.02L3203.61 1557.35ZM3174.03 1614.62C3169.42 1621.07 3164.38 1627.38 3158.87 1633.53L3160.39 1634.89C3165.94 1628.68 3171.03 1622.31 3175.67 1615.8L3174.03 1614.62ZM3129.56 1661.2C3123.4 1666.1 3116.89 1670.85 3109.96 1675.42L3111.04 1677.12C3118.02 1672.52 3124.61 1667.73 3130.81 1662.78L3129.56 1661.2ZM3074.84 1695.28C3067.76 1698.7 3060.38 1701.97 3052.66 1705.08L3053.4 1706.96C3061.17 1703.84 3068.61 1700.55 3075.71 1697.12L3074.84 1695.28ZM3014.51 1718.3C3010.66 1719.44 3006.76 1720.53 3002.8 1721.59L3003.31 1723.55C3007.29 1722.48 3011.23 1721.38 3015.07 1720.25L3014.51 1718.3Z" fill="#F2BBFF"/>
<path d="M3003.9 945.926C3003.87 945.886 2998.45 937.129 2988.51 926.717L2987.05 928.119C2991.96 933.252 2995.76 937.982 2998.29 941.424C2999.59 943.145 3000.56 944.544 3001.2 945.51C3001.53 945.991 3001.77 946.367 3001.93 946.622C3002.09 946.871 3002.17 946.998 3002.17 946.998L3003.9 945.926ZM2956.13 901.999C2949.07 898.411 2941.33 895.559 2932.98 893.992L2932.6 895.984C2940.74 897.512 2948.32 900.294 2955.22 903.809L2956.13 901.999ZM2892.52 897.104C2885.4 899.512 2878.04 902.978 2870.44 907.695L2871.52 909.418C2878.96 904.778 2886.21 901.382 2893.17 899.025L2892.52 897.104ZM2839.07 933.612C2837.29 935.433 2835.51 937.327 2833.73 939.294C2829.9 943.518 2826.07 947.479 2822.27 951.195L2823.67 952.65C2827.5 948.905 2831.36 944.912 2835.21 940.661C2836.99 938.71 2838.77 936.832 2840.49 935.024L2839.07 933.612ZM2791 976.654C2783.89 981.368 2776.88 985.319 2770.01 988.606L2770.87 990.435C2777.85 987.11 2784.94 983.111 2792.11 978.346L2791 976.654ZM2731.84 1000.95C2723.59 1002.39 2715.72 1003 2708.31 1003H2707.82V1005.03H2708.31C2715.83 1005.03 2723.83 1004.41 2732.19 1002.95L2731.84 1000.95ZM2668.2 997.019C2657.68 993.823 2649.97 990.105 2645.88 987.905L2644.93 989.694C2649.11 991.945 2656.96 995.717 2667.6 998.959L2668.2 997.019" fill="#F2BBFF"/>
<path d="M2170.04 682.28C2170.01 682.216 2167.28 672.714 2159.57 659.935L2157.85 660.985C2161.65 667.275 2164.23 672.754 2165.82 676.654C2166.63 678.603 2167.2 680.16 2167.57 681.223C2167.74 681.753 2167.87 682.161 2167.98 682.435C2168.05 682.709 2168.09 682.839 2168.09 682.841L2170.04 682.28ZM2133.37 628.709C2127.6 623.687 2121.01 618.828 2113.49 614.404L2112.47 616.154C2119.87 620.512 2126.36 625.296 2132.01 630.24L2133.37 628.709ZM2075.86 599.038C2068.44 597.124 2060.42 595.635 2051.86 594.673L2051.64 596.69C2060.12 597.642 2068.02 599.113 2075.36 601.002L2075.86 599.038ZM2011.24 594.075C2003.53 594.634 1995.45 595.57 1987.02 596.916L1987.35 598.92C1995.71 597.58 2003.75 596.653 2011.39 596.096L2011.24 594.075Z" fill="#F2BBFF"/>
<path d="M1444.67 551.841C1460.29 533.786 1469.76 510.234 1469.76 484.431C1469.76 427.711 1423.97 381.703 1367.47 381.703C1423.97 381.703 1469.76 427.711 1469.76 484.431C1469.76 510.234 1460.29 533.786 1444.67 551.841ZM1350.43 383.143C1336.81 283.012 1251.27 205.885 1147.75 205.885C1251.27 205.885 1336.81 283.012 1350.43 383.143ZM954.556 343.363H954.535C950.777 343.018 946.937 342.876 943.098 342.876C946.937 342.876 950.777 343.018 954.535 343.363H954.556Z" fill="url(#paint22_linear)"/>
<path d="M1985.15 352.312C1992.99 343.279 1997.72 331.513 1997.72 318.599C1997.72 290.247 1974.8 267.235 1946.56 267.235C1974.82 267.235 1997.72 290.247 1997.72 318.599C1997.72 331.513 1992.99 343.279 1985.15 352.312ZM1938.06 267.966C1931.24 217.896 1888.45 179.342 1836.7 179.342C1888.45 179.342 1931.24 217.896 1938.06 267.966ZM1740.1 248.063H1740.08C1738.21 247.896 1736.3 247.833 1734.37 247.833C1736.3 247.833 1738.21 247.896 1740.1 248.063Z" fill="url(#paint23_linear)"/>
<path d="M3082.5 811.072C3082.5 788.305 3097.11 768.938 3117.4 761.926C3126.76 709.552 3172.37 669.795 3227.25 669.795C3230.31 669.795 3233.33 669.913 3236.33 670.177C3258.47 606.803 3318.54 561.386 3389.23 561.386C3471.16 561.386 3538.86 622.416 3549.63 701.671C3554.02 700.905 3558.5 700.524 3563.1 700.524C3607.82 700.524 3644.07 736.935 3644.07 781.829C3644.07 781.987 3644.07 782.148 3644.07 782.306V781.367C3643.8 736.684 3607.69 700.524 3563.1 700.524C3558.5 700.524 3554.02 700.905 3549.63 701.671C3538.86 622.416 3471.16 561.386 3389.23 561.386C3318.54 561.386 3258.47 606.803 3236.33 670.177C3233.33 669.913 3230.31 669.795 3227.25 669.795C3172.37 669.795 3126.76 709.552 3117.4 761.926C3097.11 768.938 3082.5 788.305 3082.5 811.072Z" fill="url(#paint24_linear)"/>
<path d="M1372.14 2251.9H0C0 2251.9 75.3625 2133.85 241.951 2133.85C269.693 2133.85 299.93 2137.12 332.809 2144.75C349.845 2148.7 365.589 2150.53 380.236 2150.53C462.36 2150.53 510.163 2093.46 559.418 2036.4C608.672 1979.34 659.386 1922.27 747.296 1922.27C767.795 1922.27 790.303 1925.38 815.301 1932.31C1026.56 1990.84 1024.86 2131.7 1117.6 2131.72C1132.77 2131.72 1150.45 2127.95 1172.04 2119.43C1132.04 2185.04 1123.62 2251.9 1123.62 2251.9H1372.14" fill="url(#paint25_radial)"/>
<path d="M2820.51 1617.52C2820.51 1617.52 2874.33 1712.07 2825.08 1917.97C2825.08 1917.97 2891.29 2001.31 2872.03 2224.94L2820.37 2219.91C2820.37 2219.91 2718.01 1847.11 2715.96 1682.98L2668.76 1655.67L2673.36 1559.03L2820.51 1617.52" fill="#000749"/>
<path d="M941.538 2144.53C941.538 2104.59 977.414 2072.21 1021.68 2072.21C1065.94 2072.21 1101.82 2104.59 1101.82 2144.53C1101.82 2184.49 1065.94 2216.86 1021.68 2216.86C977.414 2216.86 941.538 2184.49 941.538 2144.53V2144.53ZM1207.21 2174.26V2115.8H1159.7C1156.22 2102.11 1150.3 2089.27 1142.37 2077.65V2077.64L1176.16 2047.15L1130.36 2005.82L1096.76 2036.14C1083.93 2028.9 1069.75 2023.45 1054.61 2020.2V1977.09H989.84V2019.96C974.299 2023.19 959.732 2028.72 946.601 2036.14L913.001 2005.82L867.201 2047.15L900.987 2077.64L900.984 2077.65C893.06 2089.27 887.142 2102.11 883.653 2115.8H836.148V2174.26H883.914C887.516 2187.92 893.553 2200.72 901.577 2212.3L867.976 2242.62L913.776 2283.96L947.563 2253.46H947.565C960.444 2260.62 974.67 2265.96 989.84 2269.11V2311.98H1054.61V2268.87C1069.37 2265.7 1083.23 2260.45 1095.79 2253.46H1095.79L1129.58 2283.96L1175.38 2242.62L1141.78 2212.3C1149.8 2200.72 1155.84 2187.92 1159.44 2174.26H1207.21" fill="url(#paint26_linear)"/>
<path d="M928.374 2144.53C928.374 2104.59 964.248 2072.21 1008.51 2072.21C1052.78 2072.21 1088.65 2104.59 1088.65 2144.53C1088.65 2184.49 1052.78 2216.86 1008.51 2216.86C964.248 2216.86 928.374 2184.49 928.374 2144.53ZM1194.04 2174.26V2115.8H1146.54C1143.05 2102.11 1137.13 2089.27 1129.2 2077.65V2077.64L1162.99 2047.15L1117.19 2005.82L1083.59 2036.14C1070.77 2028.9 1056.59 2023.45 1041.45 2020.2V1977.09H976.676V2019.96C961.13 2023.19 946.563 2028.72 933.435 2036.14L899.834 2005.82L854.037 2047.15L887.82 2077.64V2077.65C879.893 2089.27 873.975 2102.11 870.483 2115.8H822.984V2174.26H870.748C874.349 2187.92 880.386 2200.72 888.41 2212.3L854.812 2242.62L900.612 2283.96L934.396 2253.46H934.399C947.277 2260.62 961.504 2265.96 976.676 2269.11V2311.98H1041.45V2268.87C1056.2 2265.7 1070.06 2260.45 1082.63 2253.46H1082.63L1116.41 2283.96L1162.21 2242.62L1128.61 2212.3C1136.64 2200.72 1142.67 2187.92 1146.28 2174.26H1194.04" fill="url(#paint27_linear)"/>
<path d="M1279.52 2213C1279.52 2173.05 1315.39 2140.67 1359.66 2140.67C1403.92 2140.67 1439.8 2173.05 1439.8 2213C1439.8 2252.95 1403.92 2285.33 1359.66 2285.33C1315.39 2285.33 1279.52 2252.95 1279.52 2213V2213ZM1545.19 2242.72V2184.27H1497.69C1494.2 2170.57 1488.28 2157.73 1480.35 2146.11V2146.11L1514.14 2115.62L1468.34 2074.28L1434.74 2104.6C1421.91 2097.36 1407.73 2091.91 1392.59 2088.67V2045.55H1327.82V2088.43C1312.28 2091.65 1297.71 2097.18 1284.58 2104.6L1250.98 2074.28L1205.18 2115.62L1238.97 2146.11L1238.96 2146.11C1231.04 2157.73 1225.12 2170.57 1221.63 2184.27H1174.13V2242.72H1221.89C1225.5 2256.39 1231.53 2269.19 1239.56 2280.76L1205.96 2311.08L1251.76 2352.42L1285.54 2321.93H1285.55C1298.42 2329.08 1312.65 2334.42 1327.82 2337.57V2380.45H1392.59V2337.33C1407.35 2334.17 1421.21 2328.91 1433.77 2321.93H1433.77L1467.56 2352.42L1513.36 2311.08L1479.76 2280.76C1487.78 2269.19 1493.82 2256.39 1497.42 2242.72H1545.19" fill="url(#paint28_linear)"/>
<path d="M1266.35 2213C1266.35 2173.05 1302.22 2140.67 1346.49 2140.67C1390.75 2140.67 1426.63 2173.05 1426.63 2213C1426.63 2252.95 1390.75 2285.33 1346.49 2285.33C1302.22 2285.33 1266.35 2252.95 1266.35 2213ZM1532.02 2242.72V2184.27H1484.51C1481.03 2170.57 1475.11 2157.73 1467.18 2146.11V2146.11L1500.96 2115.62L1455.17 2074.28L1421.57 2104.6C1408.74 2097.36 1394.56 2091.91 1379.42 2088.67V2045.55H1314.65V2088.43C1299.11 2091.65 1284.54 2097.18 1271.41 2104.6L1237.81 2074.28L1192.01 2115.62L1225.8 2146.11V2146.11C1217.87 2157.73 1211.95 2170.57 1208.46 2184.27H1160.96V2242.72H1208.72C1212.33 2256.39 1218.36 2269.19 1226.39 2280.76L1192.79 2311.08L1238.59 2352.42L1272.37 2321.93H1272.38C1285.25 2329.08 1299.48 2334.42 1314.65 2337.57V2380.45H1379.42V2337.33C1394.18 2334.17 1408.04 2328.91 1420.6 2321.93H1420.6L1454.39 2352.42L1500.19 2311.08L1466.59 2280.76C1474.61 2269.19 1480.65 2256.39 1484.25 2242.72H1532.02" fill="url(#paint29_linear)"/>
<path d="M2465.56 2346.76H2105.51V1797.44C2105.51 1778.17 2121.05 1762.57 2140.24 1762.57H2530.22V2281.89C2530.22 2317.71 2501.28 2346.76 2465.56 2346.76Z" fill="white"/>
<path d="M2441.81 1968.07H2182.44C2182.34 1968.05 2182.25 1968.01 2182.15 1967.99C2181.65 1967.87 2181.16 1967.73 2180.59 1967.61C2180.11 1967.48 2179.56 1967.38 2178.99 1967.26C2178.47 1967.16 2177.93 1967.06 2177.36 1966.96C2176.81 1966.87 2176.26 1966.77 2175.69 1966.69C2175.15 1966.59 2174.55 1966.51 2173.96 1966.43C2173.53 1966.37 2173.06 1966.31 2172.58 1966.25C2176 1965.43 2177.85 1964.6 2177.85 1963.75L2177.81 1953.57H2441.81C2445.21 1953.57 2447.99 1956.35 2447.99 1959.75V1961.88C2447.99 1965.29 2445.21 1968.07 2441.81 1968.07Z" fill="#5E9FC9"/>
<path d="M2441.83 2010.81H2179.34L2179.32 2008.91C2179.32 2008.87 2179.32 2008.83 2179.32 2008.8C2179.29 2008.74 2179.27 2008.68 2179.25 2008.62C2179.39 2008.6 2179.51 2008.56 2179.65 2008.54C2183.71 2007.67 2185.87 2006.76 2185.87 2005.82L2185.85 1996.29H2441.83C2445.22 1996.29 2448 1999.09 2448 2002.5V2004.61C2448 2008.01 2445.22 2010.81 2441.83 2010.81Z" fill="#5E9FC9"/>
<path d="M2440.52 2047.91H2178.03L2178.01 2046C2178.01 2045.96 2178.01 2045.92 2178.01 2045.9C2177.98 2045.84 2177.96 2045.78 2177.94 2045.72C2178.08 2045.7 2178.2 2045.66 2178.34 2045.64C2182.4 2044.77 2184.56 2043.85 2184.56 2042.92L2184.54 2033.38H2440.52C2443.92 2033.38 2446.69 2036.18 2446.69 2039.59V2041.7C2446.69 2045.11 2443.92 2047.91 2440.52 2047.91Z" fill="#5E9FC9"/>
<path d="M2441.82 2127.11H2177.86L2177.79 2112.6H2441.82C2445.22 2112.6 2447.99 2115.38 2447.99 2118.79V2120.92C2447.99 2124.33 2445.22 2127.11 2441.82 2127.11" fill="#5E9FC9"/>
<path d="M2441.82 2169.85H2185.87L2185.82 2155.33H2441.82C2445.22 2155.33 2448 2158.1 2448 2161.54V2163.64C2448 2167.05 2445.22 2169.85 2441.82 2169.85Z" fill="#5E9FC9"/>
<path d="M2338.31 2212.58H2178.34C2179.08 2212.19 2179.45 2211.8 2179.45 2211.42L2179.4 2198.05H2338.31C2341.7 2198.05 2344.5 2200.85 2344.5 2204.26V2206.37C2344.5 2209.78 2341.7 2212.58 2338.31 2212.58" fill="#5E9FC9"/>
<rect x="1371.63" y="1922.32" width="741.136" height="511.204" rx="20" fill="#110052"/>
<rect x="1403.46" y="1960.36" width="660.809" height="438.175" fill="url(#paint30_linear)"/>
<path d="M1740.89 1945.36C1739.2 1948.98 1734.94 1950.53 1731.37 1948.83C1727.8 1947.13 1726.28 1942.81 1727.96 1939.19C1729.65 1935.57 1733.92 1934.01 1737.48 1935.71C1741.05 1937.42 1742.57 1941.73 1740.89 1945.36Z" fill="#71B4FB"/>
<path d="M2357.63 1880.53C2345.07 1905.13 2313.1 1915.6 2286.3 1903.93C2259.42 1892.27 2247.9 1862.8 2260.45 1838.2C2273.08 1813.6 2305.06 1803.05 2331.86 1814.72C2358.65 1826.46 2370.18 1855.85 2357.63 1880.53Z" fill="#5E9FC9"/>
<path d="M1968.87 967.862C1964.63 977.062 1953.87 981.01 1944.88 976.689C1935.86 972.367 1932.03 961.379 1936.27 952.18C1940.55 942.981 1951.31 939.006 1960.3 943.327C1969.29 947.676 1973.12 958.635 1968.87 967.862Z" fill="#1645B1"/>
<path d="M841.168 2285.94C841.912 2289.85 842.285 2294.32 842.285 2298.79C842.285 2303.26 841.912 2307.18 841.168 2311.65H862.387V2285.94H841.168V2285.94Z" fill="#F6795A"/>
<path d="M841.168 2311.81V2335.69H862.363V2311.81H841.168Z" fill="#E54897"/>
<path d="M862.41 2312.52V2336.4H1083.29V2312.52H862.41Z" fill="#E54897"/>
<path d="M862.41 2283.1V2288.22V2307.41V2312.52H1083.29L1083.66 2283.1H862.41Z" fill="#F6795A"/>
<path d="M733.186 2369.94C763.353 2369.94 790.541 2361.79 810.28 2348.5C826.667 2337.34 838.213 2323.19 841.565 2306.89C842.31 2303.88 842.682 2300.45 842.682 2297.02V2296.59V2320.61V2321.04C842.682 2324.47 842.31 2327.48 841.565 2330.91C838.213 2347.21 827.04 2361.36 810.28 2372.52C790.541 2385.81 762.981 2393.96 733.186 2393.96C672.851 2393.96 624.434 2361.36 624.434 2321.04V2297.02C624.434 2337.34 672.851 2369.94 733.186 2369.94Z" fill="#EA3968"/>
<path d="M624.436 2297.35C624.063 2337.31 672.852 2369.62 733.187 2369.62C763.354 2369.62 790.541 2361.55 810.28 2348.37C826.668 2337.31 838.213 2323.29 841.565 2307.13C842.31 2304.16 842.682 2300.76 842.682 2297.35C842.682 2293.95 842.31 2290.98 841.565 2287.58C834.489 2252.29 789.052 2225.09 733.931 2225.09C703.764 2225.09 676.577 2233.16 656.838 2246.34C636.726 2259.52 624.436 2277.8 624.436 2297.35ZM643.802 2297.35C643.802 2280.78 653.858 2266.32 670.245 2255.27C686.632 2244.64 708.978 2237.84 733.559 2237.84C758.14 2237.84 780.858 2244.64 796.873 2255.27C812.888 2265.9 822.943 2280.78 822.943 2297.35C822.943 2313.93 812.888 2328.39 796.501 2339.44C780.113 2350.07 757.767 2356.87 733.187 2356.87C708.606 2356.87 685.887 2350.07 669.873 2339.44C653.858 2328.81 643.802 2313.93 643.802 2297.35Z" fill="#FA9153"/>
<path d="M2764.27 1789.15L2506.9 2305.79C2504.58 2304.93 2502.28 2304.02 2500.05 2303.06C2385.75 2254.42 2393.34 2082.44 2498.79 1959.65C2606.3 1834.45 2764.27 1789.15 2764.27 1789.15" fill="url(#paint31_linear)"/>
<path d="M2506.9 2305.79L2764.28 1789.15C2764.28 1789.15 2837.87 1913.25 2807.55 2064.71C2777.23 2216.19 2631.11 2344.75 2506.9 2305.79Z" fill="url(#paint32_linear)"/>
<path d="M2563.52 2192.16L2728.88 2123.79L2556.48 2206.28L2506.91 2305.79C2504.58 2304.94 2502.29 2304.02 2500.06 2303.06L2516.77 2269.53L2484.58 2152.92L2522.39 2258.23L2581.46 2139.66L2512.14 1957.58L2588.5 2125.54L2660.22 1981.57L2629.45 1862.13L2668.66 1964.63L2764.28 1789.15L2704.51 1909.14C2704.51 1909.14 2773.3 1883.49 2784.02 1879.34C2772.72 1884.41 2697.48 1923.26 2697.48 1923.26L2639.11 2040.42L2800.61 1979.81L2633.49 2051.71L2563.52 2192.16" fill="white"/>
<path d="M3051.7 2042.98L2511.79 2332.54C2510.5 2330.88 2509.28 2329.2 2508.13 2327.51C2449.07 2241.04 2566.85 2111.28 2730.3 2061.38C2896.95 2010.5 3051.7 2042.98 3051.7 2042.98" fill="url(#paint33_linear)"/>
<path d="M2511.8 2332.54L3051.71 2042.98C3051.71 2042.98 3029.44 2170.4 2906.96 2274.58C2784.47 2378.76 2585.01 2415.75 2511.8 2332.54Z" fill="url(#paint34_linear)"/>
<path d="M2630.55 2268.84L2806.16 2286.64L2615.8 2276.76L2511.8 2332.53C2510.52 2330.88 2509.29 2329.19 2508.14 2327.5L2543.19 2308.7L2593.44 2204.77L2554.99 2302.37L2678.91 2235.91L2742.24 2065.47L2693.66 2228L2844.12 2147.31L2897.32 2041.79L2861.83 2137.81L3051.71 2042.97L2926.32 2110.22C2926.32 2110.22 2997.56 2119.78 3008.76 2121.16C2996.5 2120.24 2911.57 2118.13 2911.57 2118.13L2789.13 2183.8L2956.63 2205.95L2777.33 2190.13L2630.55 2268.84" fill="white"/>
<path d="M2439.85 2331C2430.15 2321.23 2424.15 2307.76 2424.15 2292.89H2362.15H2247.81H2185.81H2114.15H2052.15C2052.15 2322.65 2076.18 2346.77 2105.83 2346.77H2167.8H2239.32H2239.46H2301.46H2412.45H2474.45V2346.67C2460.97 2345.84 2448.82 2340.01 2439.85 2331" fill="#CDCECE"/>
<path d="M1067.3 1108.35C1065.74 1108.35 1064.22 1107.89 1062.92 1107.03C1061.62 1106.18 1060.61 1104.96 1060.02 1103.54C1059.42 1102.11 1059.27 1100.54 1059.57 1099.03C1059.87 1097.52 1060.62 1096.13 1061.73 1095.04L1079.8 1077.16L1061.73 1059.28C1060.25 1057.82 1059.42 1055.83 1059.42 1053.77C1059.42 1051.7 1060.25 1049.72 1061.73 1048.25C1063.2 1046.79 1065.21 1045.97 1067.3 1045.97C1069.39 1045.97 1071.39 1046.79 1072.87 1048.25L1096.52 1071.65C1097.25 1072.37 1097.83 1073.23 1098.22 1074.18C1098.62 1075.12 1098.82 1076.14 1098.82 1077.16C1098.82 1078.18 1098.62 1079.2 1098.22 1080.14C1097.83 1081.09 1097.25 1081.95 1096.52 1082.67L1072.87 1106.06C1072.14 1106.79 1071.27 1107.37 1070.32 1107.76C1069.36 1108.15 1068.33 1108.35 1067.3 1108.35Z" fill="white"/>
<path d="M940.062 1132.69C939.018 1132.69 937.983 1132.48 937.017 1132.08C936.052 1131.68 935.175 1131.09 934.436 1130.35C933.697 1129.61 933.111 1128.73 932.711 1127.76C932.311 1126.79 932.105 1125.75 932.105 1124.7V1116.72C932.168 1104.03 937.215 1091.88 946.149 1082.91C955.084 1073.93 967.185 1068.86 979.824 1068.79H1083.29C1085.4 1068.79 1087.42 1069.63 1088.91 1071.13C1090.41 1072.63 1091.25 1074.66 1091.25 1076.78C1091.25 1078.9 1090.41 1080.93 1088.91 1082.43C1087.42 1083.92 1085.4 1084.77 1083.29 1084.77H979.847C971.417 1084.82 963.347 1088.2 957.388 1094.19C951.43 1100.17 948.063 1108.28 948.019 1116.74V1124.7C948.019 1125.75 947.814 1126.79 947.414 1127.76C947.014 1128.73 946.428 1129.61 945.689 1130.35C944.95 1131.09 944.073 1131.68 943.108 1132.08C942.142 1132.48 941.107 1132.69 940.062 1132.69V1132.69Z" fill="white"/>
<path d="M1003.03 1195.07C1002 1195.07 1000.97 1194.87 1000.02 1194.48C999.06 1194.09 998.191 1193.51 997.46 1192.79L973.816 1169.39C973.085 1168.67 972.504 1167.81 972.108 1166.86C971.712 1165.92 971.508 1164.9 971.508 1163.88C971.508 1162.86 971.712 1161.84 972.108 1160.9C972.504 1159.95 973.085 1159.09 973.816 1158.37L997.46 1134.97C998.939 1133.51 1000.94 1132.69 1003.03 1132.69C1005.12 1132.69 1007.12 1133.51 1008.6 1134.98C1010.08 1136.44 1010.91 1138.42 1010.91 1140.49C1010.91 1142.55 1010.08 1144.54 1008.61 1146L990.535 1163.88L1008.61 1181.76C1009.71 1182.85 1010.46 1184.24 1010.76 1185.75C1011.07 1187.26 1010.91 1188.83 1010.31 1190.26C1009.72 1191.68 1008.71 1192.9 1007.41 1193.76C1006.12 1194.61 1004.59 1195.07 1003.03 1195.07Z" fill="white"/>
<path d="M987.043 1170.73C984.933 1170.73 982.909 1169.91 981.416 1168.44C979.924 1166.98 979.086 1165 979.086 1162.93C979.086 1160.86 979.924 1158.88 981.416 1157.42C982.909 1155.96 984.933 1155.13 987.043 1155.13H1090.48C1098.91 1155.08 1106.98 1151.78 1112.94 1145.94C1118.9 1140.09 1122.27 1132.18 1122.31 1123.92V1116.15C1122.31 1114.08 1123.15 1112.1 1124.64 1110.63C1126.13 1109.17 1128.16 1108.35 1130.27 1108.35C1132.38 1108.35 1134.4 1109.17 1135.9 1110.63C1137.39 1112.1 1138.23 1114.08 1138.23 1116.15V1123.94C1138.16 1136.33 1133.12 1148.19 1124.18 1156.95C1115.25 1165.71 1103.15 1170.66 1090.51 1170.73L987.043 1170.73Z" fill="white"/>
<path d="M1806.85 622.459L1799.03 615.027C1797.25 613.325 1794.82 612.366 1792.29 612.359C1789.76 612.353 1787.33 613.3 1785.53 614.993L1731.21 662.66C1729.22 664.339 1728 666.696 1727.81 669.222C1727.76 670.476 1727.97 671.729 1728.45 672.901C1728.92 674.073 1729.64 675.139 1730.57 676.034L1742.24 687.253L1742.26 687.273C1744.06 688.982 1746.5 689.945 1749.05 689.953H1749.4C1750.72 689.882 1752.01 689.565 1753.2 689.02C1754.39 688.475 1755.46 687.712 1756.34 686.775L1806.81 635.36C1808.62 633.66 1809.64 631.348 1809.65 628.933C1809.66 626.518 1808.66 624.198 1806.87 622.483L1806.85 622.459Z" fill="white"/>
<path d="M1868.48 607.456L1868.39 607.367L1858.18 597.642C1857.58 597.068 1856.87 596.614 1856.09 596.306C1855.31 595.998 1854.47 595.842 1853.62 595.847C1852.26 595.848 1850.92 596.263 1849.81 597.034C1849.81 596.911 1849.83 596.79 1849.84 596.684C1850.25 594.173 1849.7 591.603 1848.29 589.453C1846.04 586.535 1843.57 583.781 1840.9 581.212L1840.88 581.189C1833.41 574.298 1824.64 568.852 1815.03 565.15C1810.01 563.168 1804.64 562.15 1799.21 562.154C1792.19 562.092 1785.37 564.392 1779.92 568.656C1778.37 570.081 1776.95 571.638 1775.69 573.307C1775.09 574.107 1774.77 575.073 1774.79 576.06C1774.8 577.048 1775.14 578.005 1775.77 578.789C1776.39 579.573 1777.26 580.142 1778.25 580.412C1779.24 580.682 1780.29 580.638 1781.25 580.286C1782.09 579.985 1782.94 579.734 1783.81 579.532C1785.61 579.164 1787.47 579.053 1789.31 579.202C1793.12 579.585 1796.77 580.875 1799.94 582.955C1801.72 584.394 1803.13 586.202 1804.07 588.243C1805.01 590.284 1805.46 592.505 1805.38 594.737C1804.06 598.363 1802.04 601.717 1799.42 604.623C1798.73 605.507 1798.39 606.605 1798.46 607.712C1798.54 608.819 1799.04 609.861 1799.85 610.644L1810.11 620.511C1810.97 621.342 1812.13 621.823 1813.35 621.856C1814.57 621.89 1815.76 621.471 1816.67 620.688C1819.56 618.197 1823.98 614.441 1825.52 613.52C1826.84 612.671 1828.34 612.104 1829.91 611.857C1831.07 611.747 1832.25 611.985 1833.27 612.54C1833.28 612.589 1833.27 612.638 1833.25 612.685C1833.24 612.732 1833.21 612.775 1833.18 612.812L1832.64 613.308L1832.55 613.388C1831.34 614.543 1830.66 616.112 1830.66 617.748C1830.66 619.385 1831.33 620.955 1832.53 622.115L1832.56 622.145L1842.77 631.868C1843.37 632.441 1844.08 632.895 1844.86 633.202C1845.64 633.51 1846.48 633.665 1847.32 633.66C1849.02 633.662 1850.65 633.024 1851.86 631.882L1868.4 616.164C1868.46 616.109 1868.51 616.052 1868.57 615.995C1869.68 614.825 1870.28 613.294 1870.27 611.71C1870.25 610.126 1869.62 608.606 1868.48 607.456Z" fill="white"/>
<path d="M3144.19 1075.4V1075.38C3143.96 1074.33 3143.44 1073.38 3142.7 1072.61C3141.96 1071.85 3141.02 1071.32 3139.99 1071.07C3131.73 1069.02 3118.72 1071.2 3104.31 1077.06C3090.45 1082.54 3077.77 1090.7 3066.97 1101.09C3064.03 1104.07 3061.29 1107.25 3058.78 1110.62C3053.23 1110.23 3047.67 1111.14 3042.53 1113.27C3026.51 1120.44 3021.93 1138.77 3020.72 1146.29C3020.54 1147.36 3020.61 1148.46 3020.92 1149.5C3021.23 1150.53 3021.77 1151.48 3022.5 1152.28C3023.23 1153.07 3024.13 1153.68 3025.13 1154.06C3026.13 1154.44 3027.2 1154.58 3028.26 1154.47H3028.3L3046.14 1152.49C3046.16 1152.72 3046.19 1152.93 3046.21 1153.12C3046.43 1155.33 3047.4 1157.4 3048.95 1158.97L3057.66 1167.82C3059.2 1169.39 3061.23 1170.38 3063.41 1170.61L3064 1170.68L3062.06 1188.78V1188.82C3061.97 1189.74 3062.05 1190.67 3062.31 1191.56C3062.57 1192.45 3063 1193.27 3063.58 1193.99C3064.15 1194.71 3064.86 1195.3 3065.66 1195.75C3066.46 1196.19 3067.34 1196.46 3068.25 1196.56C3068.46 1196.58 3068.67 1196.59 3068.89 1196.59C3069.27 1196.59 3069.66 1196.56 3070.04 1196.5C3077.49 1195.28 3095.52 1190.69 3102.55 1174.32C3104.63 1169.11 3105.53 1163.49 3105.17 1157.88C3108.5 1155.34 3111.65 1152.55 3114.59 1149.55C3124.81 1138.69 3132.85 1125.9 3138.26 1111.91C3144 1097.44 3146.16 1084.12 3144.19 1075.4ZM3114.49 1124.7C3112.21 1127.02 3109.31 1128.6 3106.14 1129.24C3102.98 1129.88 3099.7 1129.55 3096.72 1128.3C3093.74 1127.05 3091.2 1124.92 3089.4 1122.2C3087.61 1119.48 3086.65 1116.28 3086.65 1113C3086.65 1109.72 3087.6 1106.52 3089.39 1103.79C3091.18 1101.07 3093.73 1098.94 3096.71 1097.69C3099.69 1096.43 3102.97 1096.1 3106.13 1096.74C3109.29 1097.38 3112.2 1098.95 3114.48 1101.27L3114.49 1101.28C3117.55 1104.34 3119.28 1108.51 3119.31 1112.87C3119.35 1117.22 3117.67 1121.42 3114.66 1124.52L3114.49 1124.7Z" fill="white"/>
<path d="M3056.2 1170.83C3055.15 1170.7 3054.09 1170.96 3053.21 1171.56C3051.47 1172.75 3049.72 1173.93 3047.95 1175.08C3047.19 1175.58 3046.28 1175.8 3045.37 1175.71C3044.46 1175.63 3043.61 1175.24 3042.95 1174.61C3042.29 1173.98 3041.86 1173.14 3041.73 1172.24C3041.6 1171.33 3041.78 1170.41 3042.23 1169.62L3045.54 1163.88C3046.02 1163.18 3046.28 1162.37 3046.3 1161.52C3046.32 1160.68 3046.1 1159.85 3045.67 1159.13C3045.23 1158.42 3044.6 1157.84 3043.85 1157.47C3043.09 1157.11 3042.25 1156.97 3041.41 1157.07C3037.74 1157.53 3034.33 1159.21 3031.71 1161.84C3030.71 1162.84 3027.68 1165.89 3026.05 1177.49C3025.59 1180.82 3025.29 1184.18 3025.17 1187.54C3025.16 1188.12 3025.26 1188.69 3025.46 1189.22C3025.67 1189.76 3025.98 1190.25 3026.37 1190.67C3026.76 1191.08 3027.24 1191.42 3027.76 1191.65C3028.28 1191.88 3028.85 1192.01 3029.42 1192.03C3029.46 1192.03 3029.49 1192.03 3029.53 1192.03H3029.64C3032.99 1191.91 3036.34 1191.62 3039.66 1191.15C3051.23 1189.51 3054.27 1186.47 3055.26 1185.47C3057.89 1182.84 3059.56 1179.4 3060 1175.7C3060.14 1174.55 3059.82 1173.39 3059.11 1172.48C3058.39 1171.56 3057.35 1170.97 3056.2 1170.83V1170.83Z" fill="white"/>
<defs>
<radialGradient id="paint0_radial" cx="0" cy="0" r="1" gradientUnits="userSpaceOnUse" gradientTransform="translate(1361.91 -974.48) scale(8871.12 8905.21)">
<stop stop-color="#4A2BBD"/>
<stop offset="0.549804" stop-color="#451BEC"/>
<stop offset="1" stop-color="#1A0863"/>
</radialGradient>
<radialGradient id="paint1_radial" cx="0" cy="0" r="1" gradientUnits="userSpaceOnUse" gradientTransform="translate(1929.34 1914.77) rotate(-58.8584) scale(3053.91 3048.48)">
<stop stop-color="#E20081"/>
<stop offset="0.5464" stop-color="#FFB048"/>
<stop offset="1" stop-color="#FFFC9F"/>
</radialGradient>
<radialGradient id="paint2_radial" cx="0" cy="0" r="1" gradientUnits="userSpaceOnUse" gradientTransform="translate(1007.2 1977.88) rotate(-58.8585) scale(2363.31 2359.11)">
<stop stop-color="#EA3968"/>
<stop offset="0.5464" stop-color="#FF9793"/>
<stop offset="1" stop-color="#F9B564"/>
</radialGradient>
<radialGradient id="paint3_radial" cx="0" cy="0" r="1" gradientUnits="userSpaceOnUse" gradientTransform="translate(2310.89 1888.7) rotate(-58.8584) scale(2981.31 2976.01)">
<stop stop-color="#E20081"/>
<stop offset="0.5464" stop-color="#FFB048"/>
<stop offset="1" stop-color="#FFFC9F"/>
</radialGradient>
<radialGradient id="paint4_radial" cx="0" cy="0" r="1" gradientUnits="userSpaceOnUse" gradientTransform="translate(1117.6 835.334) rotate(-46.1794) scale(1552.61 1552.38)">
<stop stop-color="#4B89CB"/>
<stop offset="0.145733" stop-color="#72B5FF"/>
<stop offset="0.145833" stop-color="#4E9BD5"/>
<stop offset="0.328125" stop-color="#4B88CB"/>
<stop offset="0.838542" stop-color="#72B5FF"/>
<stop offset="1" stop-color="#4FA4D9"/>
</radialGradient>
<radialGradient id="paint5_radial" cx="0" cy="0" r="1" gradientUnits="userSpaceOnUse" gradientTransform="translate(1455.25 996.529) rotate(-64.7012) scale(2857.21 2850.28)">
<stop stop-color="#EB4DA7"/>
<stop offset="0.5464" stop-color="#FFC87F"/>
<stop offset="1" stop-color="#FFFDBC"/>
</radialGradient>
<radialGradient id="paint6_radial" cx="0" cy="0" r="1" gradientUnits="userSpaceOnUse" gradientTransform="translate(1455.26 996.528) rotate(-64.7011) scale(2857.21 2850.28)">
<stop stop-color="#EB4DA7"/>
<stop offset="0.5464" stop-color="#FFC87F"/>
<stop offset="1" stop-color="#FFFDBC"/>
</radialGradient>
<linearGradient id="paint7_linear" x1="1934.64" y1="2028.24" x2="1934.64" y2="990.51" gradientUnits="userSpaceOnUse">
<stop offset="0.140625" stop-color="#3762C5"/>
<stop offset="1" stop-color="#5689FF" stop-opacity="0.29"/>
</linearGradient>
<radialGradient id="paint8_radial" cx="0" cy="0" r="1" gradientUnits="userSpaceOnUse" gradientTransform="translate(2696.99 193.801) scale(809.706 887.306)">
<stop stop-color="#E20081"/>
<stop offset="0.5464" stop-color="#FFB048"/>
<stop offset="1" stop-color="#FFFC9F"/>
</radialGradient>
<radialGradient id="paint9_radial" cx="0" cy="0" r="1" gradientUnits="userSpaceOnUse" gradientTransform="translate(2437.36 -368.748) scale(1416.25 1551.98)">
<stop stop-color="#E20081"/>
<stop offset="0.5464" stop-color="#FFB048"/>
<stop offset="1" stop-color="#FFFC9F"/>
</radialGradient>
<radialGradient id="paint10_radial" cx="0" cy="0" r="1" gradientUnits="userSpaceOnUse" gradientTransform="translate(2799.03 79.8207) rotate(180) scale(845.711 926.762)">
<stop stop-color="#E20081"/>
<stop offset="0.5464" stop-color="#FFB048"/>
<stop offset="1" stop-color="#FFFC9F"/>
</radialGradient>
<radialGradient id="paint11_radial" cx="0" cy="0" r="1" gradientUnits="userSpaceOnUse" gradientTransform="translate(2702.93 189.037) scale(328.156 359.607)">
<stop stop-color="#7929B7"/>
<stop offset="0.00055627" stop-color="#7929B7"/>
<stop offset="0.0501306" stop-color="#7628B5"/>
<stop offset="1" stop-color="#310B7A"/>
</radialGradient>
<radialGradient id="paint12_radial" cx="0" cy="0" r="1" gradientUnits="userSpaceOnUse" gradientTransform="translate(2720.11 152.011) scale(106.772 117.005)">
<stop stop-color="#E20081"/>
<stop offset="0.5464" stop-color="#FFB048"/>
<stop offset="1" stop-color="#FFFC9F"/>
</radialGradient>
<radialGradient id="paint13_radial" cx="0" cy="0" r="1" gradientUnits="userSpaceOnUse" gradientTransform="translate(3778.02 2012.06) scale(179.785 180.476)">
<stop stop-color="#7929B7"/>
<stop offset="0.00055627" stop-color="#7929B7"/>
<stop offset="0.0501306" stop-color="#7628B5"/>
<stop offset="1" stop-color="#310B7A"/>
</radialGradient>
<linearGradient id="paint14_linear" x1="4150.11" y1="737.818" x2="4020.63" y2="780.182" gradientUnits="userSpaceOnUse">
<stop stop-color="#FFFAC0"/>
<stop offset="0.54393" stop-color="#FFC880"/>
<stop offset="1" stop-color="#EF6262"/>
</linearGradient>
<linearGradient id="paint15_linear" x1="3911.11" y1="777.392" x2="3945.71" y2="1030.55" gradientUnits="userSpaceOnUse">
<stop stop-color="#FFE75C"/>
<stop offset="1" stop-color="#FF2A00"/>
</linearGradient>
<radialGradient id="paint16_radial" cx="0" cy="0" r="1" gradientUnits="userSpaceOnUse" gradientTransform="translate(4119.61 1405.75) scale(490.514 492.399)">
<stop stop-color="#7929B7"/>
<stop offset="0.00055627" stop-color="#7929B7"/>
<stop offset="0.0501306" stop-color="#7628B5"/>
<stop offset="1" stop-color="#310B7A"/>
</radialGradient>
<linearGradient id="paint17_linear" x1="4073.2" y1="595.165" x2="3893.28" y2="679.028" gradientUnits="userSpaceOnUse">
<stop stop-color="#FFFAC0"/>
<stop offset="0.54393" stop-color="#FFC880"/>
<stop offset="1" stop-color="#EF6262"/>
</linearGradient>
<radialGradient id="paint18_radial" cx="0" cy="0" r="1" gradientUnits="userSpaceOnUse" gradientTransform="translate(3745.7 606.925) scale(561.857 564.013)">
<stop stop-color="#7929B7"/>
<stop offset="0.00055627" stop-color="#7929B7"/>
<stop offset="0.0501306" stop-color="#7628B5"/>
<stop offset="1" stop-color="#310B7A"/>
</radialGradient>
<radialGradient id="paint19_radial" cx="0" cy="0" r="1" gradientUnits="userSpaceOnUse" gradientTransform="translate(3909.52 2009.99) scale(332.888 334.168)">
<stop stop-color="#7929B7"/>
<stop offset="0.00055627" stop-color="#7929B7"/>
<stop offset="0.0501306" stop-color="#7628B5"/>
<stop offset="1" stop-color="#310B7A"/>
</radialGradient>
<linearGradient id="paint20_linear" x1="2109.21" y1="1815.9" x2="2406.18" y2="1730.65" gradientUnits="userSpaceOnUse">
<stop stop-color="#D68C5A"/>
<stop offset="1" stop-color="#FFC87F"/>
</linearGradient>
<linearGradient id="paint21_linear" x1="2078.85" y1="1817.33" x2="2373.78" y2="1733.38" gradientUnits="userSpaceOnUse">
<stop stop-color="#D68C5A"/>
<stop offset="1" stop-color="#FFC87F"/>
</linearGradient>
<linearGradient id="paint22_linear" x1="1025.02" y1="724.413" x2="1293.07" y2="80.4207" gradientUnits="userSpaceOnUse">
<stop stop-color="#352B59"/>
<stop offset="0.00124448" stop-color="#352B59"/>
<stop offset="0.994488" stop-color="#352C59"/>
<stop offset="1" stop-color="#352C59"/>
</linearGradient>
<linearGradient id="paint23_linear" x1="1865.3" y1="372.695" x2="2003.13" y2="41.5467" gradientUnits="userSpaceOnUse">
<stop stop-color="#352B59"/>
<stop offset="0.00124448" stop-color="#352B59"/>
<stop offset="0.994488" stop-color="#352C59"/>
<stop offset="1" stop-color="#352C59"/>
</linearGradient>
<linearGradient id="paint24_linear" x1="5765.23" y1="28.6969" x2="6089.42" y2="-750.188" gradientUnits="userSpaceOnUse">
<stop stop-color="#352B59"/>
<stop offset="0.00124448" stop-color="#352B59"/>
<stop offset="0.994488" stop-color="#352C59"/>
<stop offset="1" stop-color="#352C59"/>
</linearGradient>
<radialGradient id="paint25_radial" cx="0" cy="0" r="1" gradientUnits="userSpaceOnUse" gradientTransform="translate(-184.16 1609.97) scale(2885.33 2896.42)">
<stop stop-color="#1C4DB4"/>
<stop offset="0.549804" stop-color="#471FE0"/>
<stop offset="1" stop-color="#1A095B"/>
</radialGradient>
<linearGradient id="paint26_linear" x1="1080.92" y1="2620.19" x2="1041.49" y2="2231.88" gradientUnits="userSpaceOnUse">
<stop stop-color="#2E1698"/>
<stop offset="0.00030048" stop-color="#4460B5"/>
<stop offset="0.692708" stop-color="#67BAE1"/>
<stop offset="0.990905" stop-color="#68BCE2"/>
</linearGradient>
<linearGradient id="paint27_linear" x1="951.123" y1="2044.56" x2="1161.78" y2="2493.65" gradientUnits="userSpaceOnUse">
<stop stop-color="#4259B1"/>
<stop offset="0.00034055" stop-color="#4259B1"/>
<stop offset="0.999239" stop-color="#4566BA"/>
<stop offset="1" stop-color="#4566BA"/>
</linearGradient>
<linearGradient id="paint28_linear" x1="1418.9" y1="2688.65" x2="1379.47" y2="2300.35" gradientUnits="userSpaceOnUse">
<stop stop-color="#2D1597"/>
<stop offset="0.00030048" stop-color="#4460B5"/>
<stop offset="0.838542" stop-color="#66B6E0"/>
<stop offset="0.990905" stop-color="#66B8E1"/>
</linearGradient>
<linearGradient id="paint29_linear" x1="1289.1" y1="2113.02" x2="1499.76" y2="2562.12" gradientUnits="userSpaceOnUse">
<stop stop-color="#4259B1"/>
<stop offset="0.00034055" stop-color="#4259B1"/>
<stop offset="0.999239" stop-color="#4566BA"/>
<stop offset="1" stop-color="#4566BA"/>
</linearGradient>
<linearGradient id="paint30_linear" x1="1733.87" y1="1960.36" x2="1733.87" y2="2398.53" gradientUnits="userSpaceOnUse">
<stop stop-color="#1645B1"/>
<stop offset="1" stop-color="#5294CA"/>
</linearGradient>
<linearGradient id="paint31_linear" x1="2642.15" y1="1551.33" x2="2581.13" y2="2184.57" gradientUnits="userSpaceOnUse">
<stop stop-color="#50A9DC"/>
<stop offset="0.00034055" stop-color="#4259B1"/>
<stop offset="0.734375" stop-color="#71B4FF"/>
<stop offset="0.997817" stop-color="#71B4FF"/>
</linearGradient>
<linearGradient id="paint32_linear" x1="2859.76" y1="1687.02" x2="2723.21" y2="2179.68" gradientUnits="userSpaceOnUse">
<stop stop-color="#71B4FF"/>
<stop offset="0.00034055" stop-color="#4259B1"/>
<stop offset="0.651042" stop-color="#50A9DC"/>
<stop offset="0.999239" stop-color="#71B4FF"/>
</linearGradient>
<linearGradient id="paint33_linear" x1="2911.01" y1="1997.99" x2="2547.19" y2="2527.65" gradientUnits="userSpaceOnUse">
<stop stop-color="#4A85C9"/>
<stop offset="0.692708" stop-color="#72B5FF"/>
<stop offset="0.99365" stop-color="white"/>
</linearGradient>
<linearGradient id="paint34_linear" x1="3193.82" y1="2004.79" x2="2808.67" y2="2372.8" gradientUnits="userSpaceOnUse">
<stop stop-color="#4B8ACC"/>
<stop offset="0.869792" stop-color="#6DADF9"/>
<stop offset="0.99365" stop-color="#72B5FF"/>
</linearGradient>
</defs>
</svg>
