<svg width="2481" height="1602" viewBox="0 0 2481 1602" fill="none" xmlns="http://www.w3.org/2000/svg">
<path d="M2419.84 1466.8H1687.06C1689.77 1461.2 1691.3 1454.93 1691.3 1448.31V1106.97H1433.97C1421.32 1106.97 1411.06 1117.23 1411.06 1129.89V1160.61L1375.9 1160.76L1365.66 1160.8L1356.97 1160.84L1352.42 1160.85L1343.77 1160.89V707.589C1343.77 658.564 1303.67 618.452 1254.64 618.452H1238.52C1212.42 543.034 1339.15 480.561 1465.81 480.561C1601.76 480.561 1737.68 552.525 1684.58 757.694C1634.72 950.519 1651.73 1001.93 1696.88 1001.93C1744.83 1001.93 1824.48 944 1889.44 935.839C1900 934.505 1910.99 933.852 1922.23 933.852C2045.05 933.852 2198.54 1012.79 2186.49 1160.51C2176.48 1283.27 2196.97 1324.83 2271.14 1324.83C2294.39 1324.83 2322.88 1320.75 2357.4 1313.81C2370.64 1311.15 2382.79 1309.92 2393.84 1309.92C2503.51 1309.92 2506.43 1430.51 2419.84 1466.8V1466.8ZM710.349 1466.8H710.162C710.243 1466.79 710.322 1466.76 710.416 1466.75L710.349 1466.8V1466.8ZM486.375 1379.73C498.509 1359.91 515.055 1340.24 537.483 1325.12C565.256 1330.52 582.295 1338.97 567.294 1354.05C566.83 1354.52 566.375 1355 565.923 1355.48C546.87 1356.09 525.776 1361.16 503.162 1372.27C497.19 1375.2 491.616 1377.68 486.375 1379.73V1379.73ZM896.697 1010.43C869.616 982.88 841.309 959.826 814.67 940.919C835.095 915.133 863.443 893.105 896.697 878.125V1010.43Z" fill="url(#paint0_radial)"/>
<path d="M759.239 1298.96H697.693L672.706 1196.93C671.986 1193.97 669.279 1191.96 666.346 1191.96C665.839 1191.96 665.333 1192.03 664.813 1192.15C661.346 1193 659.186 1196.56 660.039 1200.03L682.773 1292.83L593.199 1238.49L587.359 1214.63L567.386 1133.05C566.64 1130.08 563.959 1128.08 561.013 1128.08C560.506 1128.08 559.999 1128.13 559.479 1128.27C557.733 1128.67 556.32 1129.79 555.453 1131.21C554.586 1132.64 554.253 1134.41 554.706 1136.15L571.586 1205.09L574.679 1217.76L577.426 1228.93L446.893 1149.76C445.839 1149.12 444.679 1148.83 443.533 1148.83C441.306 1148.83 439.146 1149.95 437.933 1151.95L437.92 1151.96L279.52 1055.89C279.52 1055.89 307.183 1010.28 345.535 1010.28C349.202 1010.28 352.967 1010.69 356.815 1011.61C394.179 1020.48 458.346 1123.91 484.173 1123.91C488.813 1123.91 492.226 1120.56 494.013 1112.72C500.333 1084.85 520.719 1068.39 543.573 1068.39C562.959 1068.39 584.119 1080.23 599.973 1107.01C612.333 1127.89 621.346 1134.05 630.586 1134.05C637.226 1134.05 643.973 1130.88 652.173 1127.72C660.359 1124.56 669.999 1121.4 682.413 1121.4C684.493 1121.4 686.653 1121.48 688.893 1121.68C692.879 1141.89 698.106 1162.52 704.893 1183.23C705.106 1183.92 705.333 1184.6 705.573 1185.29C709.626 1197.52 714.213 1209.75 719.413 1221.93C731.173 1249.57 744.599 1275.28 759.239 1298.96" fill="url(#paint1_radial)"/>
<path d="M663.653 1472.21C651.813 1472.21 639.813 1471.15 627.84 1468.87C624.573 1468.24 621.427 1467.56 618.4 1466.8H652.573C675.813 1448.6 671.467 1414.08 647.987 1388.27L682.573 1379.79V1409.88H766.053L710.413 1466.75C710.32 1466.76 710.24 1466.79 710.16 1466.8C695.227 1470.28 679.573 1472.21 663.653 1472.21V1472.21ZM636.56 1377.64C619.827 1364.45 597.067 1355.41 569.933 1355.41C568.613 1355.41 567.267 1355.43 565.92 1355.48C566.373 1355 566.827 1354.52 567.293 1354.05C582.293 1338.97 565.253 1330.52 537.48 1325.12C503.56 1318.53 453.613 1316.51 426.48 1312.57C377.132 1305.43 364.953 1247.57 385.88 1221.24C406.816 1194.89 316.809 1209.75 273.843 1163.85C230.864 1117.96 279.52 1055.89 279.52 1055.89L437.92 1151.96C437 1153.49 436.787 1155.27 437.187 1156.89C437.573 1158.51 438.6 1159.99 440.12 1160.92L529.8 1215.31L436.573 1238.15C433.093 1239 430.947 1242.55 431.787 1246.03C432.507 1249 435.187 1251 438.12 1251C438.64 1251 439.16 1250.95 439.667 1250.81L545.56 1224.87L682.573 1307.96V1366.37L636.56 1377.64" fill="url(#paint2_radial)"/>
<path d="M647.988 1388.27C644.574 1384.51 640.761 1380.95 636.561 1377.64L682.574 1366.37V1379.79L647.988 1388.27ZM682.574 1307.96L545.561 1224.87L439.667 1250.81C439.161 1250.95 438.641 1251 438.121 1251C435.188 1251 432.508 1249 431.788 1246.03C430.948 1242.55 433.094 1239 436.574 1238.15L529.801 1215.31L440.121 1160.92C438.601 1159.99 437.574 1158.51 437.188 1156.89C436.788 1155.27 437.001 1153.49 437.921 1151.96L437.934 1151.95C439.147 1149.95 441.307 1148.83 443.534 1148.83C444.681 1148.83 445.841 1149.12 446.894 1149.76L577.428 1228.93L574.681 1217.76L571.588 1205.09L554.707 1136.15C554.254 1134.41 554.588 1132.64 555.454 1131.21C556.321 1129.79 557.734 1128.67 559.481 1128.27C560.001 1128.13 560.507 1128.08 561.014 1128.08C563.961 1128.08 566.641 1130.08 567.388 1133.05L587.361 1214.63L593.201 1238.49L682.774 1292.83L660.041 1200.03C659.187 1196.56 661.347 1193 664.814 1192.15C665.334 1192.03 665.841 1191.96 666.347 1191.96C669.281 1191.96 671.987 1193.97 672.707 1196.93L697.694 1298.96H682.574V1307.96" fill="url(#paint3_radial)"/>
<path d="M640.481 778L966.188 1397.7C897.255 1395.81 799.641 1336.89 725.468 1230.57C724.921 1229.82 724.388 1229.05 723.881 1228.29C703.228 1198.4 684.441 1164.8 668.668 1127.72C663.468 1115.53 658.881 1103.3 654.828 1091.08C654.588 1090.38 654.361 1089.7 654.148 1089.01C639.228 1043.42 631.788 998.236 628.748 957.05C628.695 956.396 628.641 955.743 628.601 955.09C621.468 854.45 640.481 778 640.481 778Z" fill="url(#paint4_radial)"/>
<path d="M799.188 1077.63L679.494 1051.27C679.441 1050.61 679.388 1049.96 679.348 1049.31L798.028 1075.44L799.001 1077.27L799.188 1077.63" fill="#E0E0E0"/>
<path d="M875.428 1222.69L705.574 1185.29C705.334 1184.6 705.108 1183.92 704.895 1183.23L874.281 1220.51L875.428 1222.69Z" fill="#E0E0E0"/>
<path d="M951.347 1070.65C951.72 1071.42 952.08 1072.21 952.427 1072.98V1073.01C982.587 1137.3 997.613 1200.98 1000.69 1257.09C1000.77 1258.58 1000.85 1260.06 1000.91 1261.56C1003.6 1322.2 992.173 1373.62 970.707 1406.7L645 787.001C645 787.001 697.307 806.651 760.933 850.464C761.467 850.824 761.987 851.184 762.52 851.544C795.907 874.691 832.307 904.464 865.827 941.491C866.293 942.024 866.773 942.531 867.227 943.064C884.96 962.811 901.867 984.611 917.053 1008.54C930.12 1029.14 941.507 1049.93 951.347 1070.65" fill="#72B5FF"/>
<path d="M772.279 1026.44L771.666 1025.29L771.133 1024.25L807.16 935.681C807.693 936.041 808.213 936.401 808.746 936.761L772.279 1026.44Z" fill="url(#paint5_radial)"/>
<path d="M852.279 1178.65L851.133 1176.48L896.693 1064.49V1069.49L852.279 1178.65Z" fill="url(#paint6_radial)"/>
<path d="M1587.66 1388H965.338C851.83 1388 759 1352.19 759 1308.42V689.567C759 645.804 851.83 609.998 965.338 609.998H1587.66C1701.14 609.998 1794 645.804 1794 689.567V1308.42C1794 1352.19 1701.14 1388 1587.66 1388Z" fill="#110052"/>
<path d="M1563.6 1333.65H989.383C884.246 1333.65 798.199 1303.43 798.199 1266.49V718.749C798.199 681.806 884.246 651.579 989.383 651.579H1563.6C1668.74 651.579 1754.75 681.806 1754.75 718.749V1266.49C1754.75 1303.43 1668.74 1333.65 1563.6 1333.65Z" fill="url(#paint7_linear)"/>
<path d="M1491.71 277.42L1482.05 250.14L1483.4 249.564L1493.05 276.858L1491.71 277.42Z" fill="white"/>
<path d="M1503.63 277.413L1513.29 250.128L1511.93 249.562L1502.27 276.847L1503.63 277.413Z" fill="white"/>
<path d="M1497.1 277.134H1498.55V252.697H1497.1V277.134Z" fill="white"/>
<path d="M1501.92 0.823845V252.703H1482.6C1482.6 252.703 1381.17 144.267 1405.33 68.3161C1419.3 24.3601 1449.47 8.68904 1472.4 3.27244H1472.42C1479.67 1.551 1486.23 0.868336 1491.29 0.645736C1497.84 0.348936 1501.92 0.823845 1501.92 0.823845Z" fill="white"/>
<path d="M1487.16 252.705H1482.59C1482.59 252.705 1381.16 144.267 1405.3 68.3221C1419.3 24.3687 1449.46 8.68991 1472.38 3.29161C1389.27 95.107 1487.16 252.705 1487.16 252.705Z" fill="url(#paint8_radial)"/>
<path d="M1493.71 0.813177V252.688H1513.03C1513.03 252.688 1614.48 144.253 1590.33 68.309C1576.35 24.3576 1546.17 8.67175 1523.25 3.26712H1523.23C1515.95 1.54323 1509.43 0.859829 1504.35 0.642402C1497.81 0.347321 1493.71 0.813177 1493.71 0.813177Z" fill="white"/>
<path d="M1504.32 0.646673C1501.75 0.526905 1499.53 0.541818 1497.81 0.58673C1496.09 0.541818 1493.89 0.526905 1491.28 0.646673C1448.78 90.098 1491.28 252.697 1491.28 252.697H1493.71H1501.91H1504.32C1504.32 252.697 1546.84 90.098 1504.32 0.646673Z" fill="url(#paint9_radial)"/>
<path d="M1508.46 252.693H1513.02C1513.02 252.693 1614.47 144.255 1590.32 68.3224C1576.34 24.371 1546.16 8.68829 1523.23 3.28102C1606.36 95.0968 1508.46 252.693 1508.46 252.693Z" fill="url(#paint10_radial)"/>
<path d="M1507.77 284.485H1487.86V270.725H1507.77V284.485Z" fill="url(#paint11_radial)"/>
<path d="M1508.46 288.734H1487.17V277.143H1508.46V288.734Z" fill="url(#paint12_radial)"/>
<path d="M1841.3 1453.66C1841.3 1453.66 1839.62 1476.71 1794.27 1479.24V1486.46H1855.74L1866.07 1475.86V1486.46H1876.99L1874.03 1456.15L1841.3 1453.66" fill="url(#paint13_radial)"/>
<path d="M1801.63 844.301L1684.67 800.025C1684.67 800.025 1757.34 799.223 1815.81 733.433L1812.55 722.798C1812.55 722.798 1630.03 748.032 1638.63 805.432C1647.2 862.832 1779.27 912.281 1779.27 912.281C1779.27 912.281 1802.28 878.785 1801.63 844.301Z" fill="#FCFCFF"/>
<path d="M1760.83 1088.78C1760.83 1088.78 1745.65 1299.22 1838.32 1456.54L1872.17 1455.94C1872.17 1455.94 1883.25 1331.99 1819.69 1286.23L1828.87 1188.34C1828.87 1188.34 1823.65 1010.18 1760.83 1088.78Z" fill="#031A44"/>
<path d="M1771.64 958.898C1766.55 994.939 1763.87 1025.26 1763.87 1025.26C1763.87 1025.26 1782 1057.8 1783.34 1058.48C1784.68 1059.16 1799.3 1044.79 1799.3 1044.79L1811.99 1067.87L1860.95 1063.7C1860.95 1063.7 1860.39 1050.55 1860.65 1028.34C1861.19 979.485 1923.83 886.419 1923.83 886.419C1907.08 871.465 1871.09 854.148 1871.09 854.148L1839.61 849.315L1801.64 844.294L1801.62 844.305C1796.6 849.664 1792.04 860.743 1787.94 874.909V874.916C1783.9 888.845 1780.34 905.752 1777.27 923.139C1775.15 935.112 1773.26 947.298 1771.64 958.898" fill="#FCFCFF"/>
<path d="M1877.56 808.63L1876.59 859.698L1845.14 858.078L1839.62 849.313C1839.62 849.313 1850.3 819.441 1849.93 799.076C1849.57 778.709 1879.11 779.831 1877.56 808.63Z" fill="#FFB8B8"/>
<path d="M1875.31 794.552L1857.81 821.064L1836.11 809.824L1861.03 761.788C1861.03 761.788 1892.84 768.037 1875.31 794.552" fill="#FFB8B8"/>
<path d="M1871.63 798.471C1871.63 798.471 1872.71 788.17 1880.03 776.001C1880.03 776.001 1853.33 764.642 1853.83 756.688C1854.31 748.733 1862.99 741.096 1868.24 747.865C1873.49 754.637 1866.21 758.544 1878.17 764.343C1890.13 770.14 1885.19 776.071 1885.19 776.071C1885.19 776.071 1891.1 781.558 1887.12 789.211C1883.16 796.864 1877.46 813.196 1877.46 813.196L1871.63 798.471Z" fill="#4821DB"/>
<path d="M1870.19 802.314L1877.24 791.098C1877.24 791.098 1880.46 791.414 1879.21 796.695C1877.96 801.977 1872.14 804.987 1870.19 802.314Z" fill="url(#paint14_linear)"/>
<path d="M1845.15 858.081L1852.84 880.03L1876.58 859.701L1845.15 858.081Z" fill="#C4C5D1"/>
<path d="M1845.16 858.076L1828.87 861.294L1839.63 849.31L1845.16 858.076" fill="#C4C5D1"/>
<path d="M1845.15 858.077L1835.95 863.537L1836.6 872.241L1839.45 875.008L1848.46 867.494L1845.15 858.077" fill="url(#paint15_linear)"/>
<path d="M1836.62 872.239C1836.62 872.239 1755.22 969.999 1818.16 1129.23L1835.95 1137.8L1845.16 1124.45C1845.16 1124.45 1768.58 1001.22 1839.45 875.006L1836.62 872.239" fill="#ED4567"/>
<path d="M1923.83 886.417C1923.83 886.417 1956.1 1030.55 1923.83 1173.8L1903.95 1162.83C1903.95 1162.83 1898.33 1032.67 1880.58 952.083C1880.58 952.083 1891.27 902.937 1923.83 886.417Z" fill="#FCFCFF"/>
<path d="M1903.94 1162.83C1903.94 1162.83 1896.33 1174.15 1885.29 1178.8C1874.28 1183.47 1878.1 1188.98 1891.24 1183.9C1904.36 1178.8 1903.94 1176.68 1903.94 1176.68C1903.94 1176.68 1896.33 1200.42 1901.83 1199.99C1907.34 1199.56 1907.34 1197.04 1914.1 1200C1920.9 1202.96 1923.83 1200 1923.83 1200V1173.8L1903.94 1162.83" fill="#FFB8B8"/>
<path d="M1903.95 1162.83L1923.84 1173.8L1926.72 1160.14L1903.39 1151.64L1903.95 1162.83Z" fill="url(#paint16_radial)"/>
<path d="M1812.55 722.801C1812.55 722.801 1834.88 718.099 1851.41 722.801C1867.92 727.505 1874.37 733.862 1871.15 734.707C1867.92 735.555 1848.45 729.199 1848.45 729.199C1848.45 729.199 1862 734.707 1858.63 736.827C1855.22 738.945 1848.89 734.284 1837 733.013C1825.12 731.742 1815.8 733.436 1815.8 733.436L1812.55 722.801" fill="url(#paint17_linear)"/>
<path d="M1812.54 722.8L1819.29 737.369L1807.59 742.172L1803.53 724.188L1812.54 722.8" fill="url(#paint18_radial)"/>
<path d="M1861.58 1460.44C1861.58 1460.44 1859.89 1483.48 1814.55 1486.03V1493.23H1876.02L1886.36 1482.64V1493.23H1897.27L1894.32 1462.93L1861.58 1460.44Z" fill="url(#paint19_radial)"/>
<path d="M1268.33 412.087C1268.33 457.241 1231.73 493.841 1186.58 493.841C1141.42 493.841 1104.82 457.241 1104.82 412.087C1104.82 366.932 1141.42 330.331 1186.58 330.331C1231.73 330.331 1268.33 366.932 1268.33 412.087Z" fill="#EA3968"/>
<path d="M820.511 1355.76C820.511 1400.91 783.91 1437.51 738.755 1437.51C693.601 1437.51 657 1400.91 657 1355.76C657 1310.6 693.601 1274 738.755 1274C783.91 1274 820.511 1310.6 820.511 1355.76Z" fill="#EA3968"/>
<path d="M2128.3 743.648C2128.3 795.825 2086 838.123 2033.84 838.123C1981.66 838.123 1939.36 795.825 1939.36 743.648C1939.36 691.472 1981.66 649.173 2033.84 649.173C2086 649.173 2128.3 691.472 2128.3 743.648Z" fill="#EA3968"/>
<path d="M809.464 735.551C809.464 803.401 754.464 858.405 686.611 858.405C618.758 858.405 563.758 803.401 563.758 735.551C563.758 667.701 618.758 612.697 686.611 612.697C754.464 612.697 809.464 667.701 809.464 735.551" fill="#EA3968"/>
<path d="M1445.08 1160.48L1455.65 1160.44L1445.08 1160.48Z" fill="url(#paint20_linear)"/>
<path d="M1425.8 1160.56L1436.37 1160.51L1425.8 1160.56Z" fill="url(#paint21_linear)"/>
<path d="M777.988 581.104C777.988 581.104 778.041 581.022 778.135 580.858C778.801 579.709 781.868 574.632 787.228 568.094L786.201 567.248C780.001 574.8 776.841 580.426 776.828 580.452L777.988 581.104ZM806.215 549.522C810.215 546.405 814.655 543.41 819.495 540.734L818.841 539.568C813.935 542.281 809.455 545.314 805.388 548.469L806.215 549.522ZM844.228 531.462C849.215 530.422 854.468 529.796 860.001 529.69L859.975 528.358C854.361 528.464 849.015 529.1 843.961 530.157L844.228 531.462ZM886.255 532.989C888.841 533.674 891.481 534.474 894.161 535.396C896.575 536.224 898.988 537.086 901.428 537.974L901.881 536.722C899.441 535.83 897.015 534.966 894.601 534.134C891.881 533.202 889.215 532.393 886.601 531.7L886.255 532.989ZM926.335 547.63C931.281 549.613 936.241 551.618 941.228 553.598L941.721 552.36C936.735 550.381 931.775 548.376 926.828 546.393L926.335 547.63ZM966.241 563.086C971.348 564.884 976.441 566.57 981.521 568.094L981.895 566.817C976.841 565.301 971.775 563.621 966.695 561.829L966.241 563.086ZM1007.59 574.262C1012.97 575.134 1018.32 575.713 1023.61 575.932L1023.67 574.598C1018.44 574.384 1013.15 573.81 1007.8 572.946L1007.59 574.262ZM1050.32 573.524C1055.49 572.277 1060.57 570.532 1065.56 568.221L1064.99 567.012C1060.09 569.285 1055.09 571 1050 572.226L1050.32 573.524ZM1087.77 553.218C1091.55 549.765 1095.21 545.861 1098.8 541.472L1097.76 540.629C1094.23 544.972 1090.59 548.828 1086.87 552.236L1087.77 553.218ZM1113.72 519.212C1114.43 517.952 1115.12 516.666 1115.81 515.357L1114.64 514.733C1113.95 516.034 1113.25 517.31 1112.56 518.562L1113.72 519.212" fill="#F2BBFF"/>
<path d="M2101.96 857.451C2101.96 857.451 2102.09 857.787 2102.39 858.447C2103.23 860.429 2105.23 865.292 2107.67 872.399L2108.94 871.964C2105.65 862.445 2103.17 856.919 2103.17 856.904L2101.96 857.451ZM2115.23 897.991C2116.44 902.884 2117.62 908.111 2118.68 913.616L2119.99 913.364C2118.92 907.829 2117.75 902.578 2116.53 897.67L2115.23 897.991ZM2122.49 940.017C2122.97 945.218 2123.33 950.551 2123.49 955.978L2124.82 955.937C2124.65 950.484 2124.32 945.111 2123.81 939.884L2122.49 940.017ZM2122.66 982.604C2122.15 987.857 2121.44 993.137 2120.49 998.431L2121.82 998.67C2122.77 993.336 2123.49 988.016 2123.98 982.723L2122.66 982.604ZM2113.73 1024.15C2112 1029.11 2109.98 1034.04 2107.69 1038.91L2108.88 1039.48C2111.22 1034.56 2113.25 1029.59 2115 1024.59L2113.73 1024.15ZM2094.21 1061.79C2091.17 1066.03 2087.85 1070.18 2084.21 1074.22L2085.22 1075.11C2088.88 1071.03 2092.24 1066.84 2095.3 1062.56L2094.21 1061.79ZM2064.88 1092.4C2060.81 1095.63 2056.52 1098.75 2051.95 1101.75L2052.66 1102.87C2057.27 1099.84 2061.61 1096.7 2065.7 1093.44L2064.88 1092.4ZM2028.77 1114.8C2024.1 1117.06 2019.23 1119.2 2014.14 1121.24L2014.62 1122.48C2019.76 1120.43 2024.66 1118.27 2029.35 1116.02L2028.77 1114.8ZM1988.96 1129.94C1986.43 1130.68 1983.85 1131.4 1981.24 1132.1L1981.57 1133.39C1984.21 1132.68 1986.8 1131.96 1989.34 1131.22L1988.96 1129.94Z" fill="#F2BBFF"/>
<path d="M1981.96 622.276C1981.95 622.249 1978.37 616.494 1971.81 609.65L1970.85 610.572C1974.09 613.945 1976.59 617.054 1978.27 619.316C1979.12 620.448 1979.76 621.367 1980.19 622.002C1980.4 622.319 1980.56 622.566 1980.67 622.733C1980.77 622.897 1980.83 622.98 1980.83 622.98L1981.96 622.276ZM1950.45 593.404C1945.79 591.045 1940.69 589.171 1935.17 588.141L1934.92 589.45C1940.29 590.455 1945.29 592.283 1949.85 594.594L1950.45 593.404ZM1908.48 590.186C1903.78 591.769 1898.93 594.047 1893.91 597.147L1894.62 598.28C1899.53 595.23 1904.32 592.998 1908.9 591.449L1908.48 590.186ZM1873.21 614.182C1872.04 615.379 1870.86 616.624 1869.69 617.917C1867.16 620.693 1864.64 623.297 1862.13 625.739L1863.05 626.696C1865.58 624.234 1868.12 621.609 1870.67 618.815C1871.84 617.533 1873.01 616.298 1874.15 615.11L1873.21 614.182ZM1841.5 642.473C1836.8 645.571 1832.18 648.167 1827.64 650.328L1828.21 651.531C1832.82 649.345 1837.5 646.716 1842.23 643.584L1841.5 642.473ZM1802.46 658.444C1797.02 659.39 1791.82 659.788 1786.93 659.788H1786.61V661.122H1786.93C1791.9 661.122 1797.18 660.717 1802.69 659.758L1802.46 658.444ZM1760.47 655.858C1753.53 653.757 1748.45 651.314 1745.74 649.868L1745.12 651.043C1747.88 652.523 1753.05 655.002 1760.08 657.133L1760.47 655.858" fill="#F2BBFF"/>
<path d="M1431.78 448.989C1431.77 448.947 1429.97 442.702 1424.88 434.302L1423.74 434.992C1426.25 439.126 1427.95 442.728 1429 445.291C1429.54 446.572 1429.91 447.595 1430.16 448.294C1430.27 448.643 1430.36 448.911 1430.43 449.091C1430.47 449.271 1430.5 449.356 1430.5 449.357L1431.78 448.989ZM1407.59 413.778C1403.79 410.477 1399.43 407.284 1394.48 404.376L1393.8 405.526C1398.69 408.391 1402.97 411.535 1406.7 414.784L1407.59 413.778ZM1369.65 394.276C1364.75 393.018 1359.46 392.04 1353.81 391.407L1353.67 392.733C1359.26 393.358 1364.48 394.325 1369.32 395.567L1369.65 394.276ZM1327.01 391.014C1321.93 391.381 1316.59 391.997 1311.03 392.881L1311.25 394.198C1316.77 393.318 1322.07 392.708 1327.11 392.342L1327.01 391.014Z" fill="#F2BBFF"/>
<path d="M953.187 363.255C963.494 351.388 969.747 335.908 969.747 318.948C969.747 281.668 939.534 251.428 902.254 251.428C939.534 251.428 969.747 281.668 969.747 318.948C969.747 335.908 963.494 351.388 953.187 363.255ZM891.014 252.375C882.027 186.561 825.587 135.868 757.28 135.868C825.587 135.868 882.027 186.561 891.014 252.375ZM629.814 226.228H629.801C627.321 226.002 624.787 225.908 622.254 225.908C624.787 225.908 627.321 226.002 629.801 226.228H629.814Z" fill="url(#paint22_linear)"/>
<path d="M1309.8 232.109C1314.97 226.172 1318.1 218.438 1318.1 209.95C1318.1 191.315 1302.97 176.191 1284.34 176.191C1302.99 176.191 1318.1 191.315 1318.1 209.95C1318.1 218.438 1314.97 226.172 1309.8 232.109ZM1278.73 176.671C1274.23 143.761 1246 118.421 1211.86 118.421C1246 118.421 1274.23 143.761 1278.73 176.671ZM1148.12 163.589H1148.11C1146.87 163.479 1145.61 163.438 1144.34 163.438C1145.61 163.438 1146.87 163.479 1148.12 163.589Z" fill="url(#paint23_linear)"/>
<path d="M2033.83 533.64C2033.83 518.675 2043.47 505.946 2056.85 501.337C2063.03 466.913 2093.12 440.782 2129.33 440.782C2131.35 440.782 2133.35 440.86 2135.32 441.033C2149.93 399.379 2189.56 369.528 2236.21 369.528C2290.27 369.528 2334.93 409.641 2342.04 461.733C2344.94 461.23 2347.89 460.979 2350.93 460.979C2380.43 460.979 2404.35 484.912 2404.35 514.419C2404.35 514.522 2404.35 514.628 2404.35 514.732V514.115C2404.17 484.746 2380.35 460.979 2350.93 460.979C2347.89 460.979 2344.94 461.23 2342.04 461.733C2334.93 409.641 2290.27 369.528 2236.21 369.528C2189.56 369.528 2149.93 399.379 2135.32 441.033C2133.35 440.86 2131.35 440.782 2129.33 440.782C2093.12 440.782 2063.03 466.913 2056.85 501.337C2043.47 505.946 2033.83 518.675 2033.83 533.64Z" fill="url(#paint24_linear)"/>
<path d="M905.333 1480.65H0C0 1480.65 49.724 1403.07 159.639 1403.07C177.943 1403.07 197.893 1405.21 219.587 1410.23C230.827 1412.83 241.215 1414.03 250.879 1414.03C305.064 1414.03 336.604 1376.52 369.103 1339.01C401.6 1301.51 435.061 1264 493.064 1264C506.589 1264 521.44 1266.04 537.933 1270.6C677.323 1309.07 676.197 1401.65 737.387 1401.67C747.4 1401.67 759.067 1399.19 773.307 1393.59C746.92 1436.71 741.36 1480.65 741.36 1480.65H905.333" fill="url(#paint25_radial)"/>
<path d="M1860.96 1063.69C1860.96 1063.69 1896.48 1125.84 1863.98 1261.17C1863.98 1261.17 1907.67 1315.95 1894.96 1462.93L1860.88 1459.63C1860.88 1459.63 1793.33 1214.6 1791.99 1106.72L1760.84 1088.77L1763.88 1025.25L1860.96 1063.69" fill="#000749"/>
<path d="M2419.84 1466.8H1687.06C1689.77 1461.2 1691.3 1454.93 1691.3 1448.31V1106.97H1433.97C1421.32 1106.97 1411.06 1117.23 1411.06 1129.89V1160.61L1375.9 1160.76L1365.66 1160.8L1356.97 1160.84L1352.42 1160.85L1343.77 1160.89V707.589C1343.77 658.564 1303.67 618.452 1254.64 618.452H1238.52C1212.42 543.034 1339.15 480.561 1465.81 480.561C1601.76 480.561 1737.68 552.525 1684.58 757.694C1634.72 950.519 1651.73 1001.93 1696.88 1001.93C1744.83 1001.93 1824.48 944 1889.44 935.839C1900 934.505 1910.99 933.852 1922.23 933.852C2045.05 933.852 2198.54 1012.79 2186.49 1160.51C2176.48 1283.27 2196.97 1324.83 2271.14 1324.83C2294.39 1324.83 2322.88 1320.75 2357.4 1313.81C2370.64 1311.15 2382.79 1309.92 2393.84 1309.92C2503.51 1309.92 2506.43 1430.51 2419.84 1466.8V1466.8ZM710.349 1466.8H710.162C710.243 1466.79 710.322 1466.76 710.416 1466.75L710.349 1466.8V1466.8ZM486.375 1379.73C498.509 1359.91 515.055 1340.24 537.483 1325.12C565.256 1330.52 582.295 1338.97 567.294 1354.05C566.83 1354.52 566.375 1355 565.923 1355.48C546.87 1356.09 525.776 1361.16 503.162 1372.27C497.19 1375.2 491.616 1377.68 486.375 1379.73V1379.73ZM896.697 1010.43C869.616 982.88 841.309 959.826 814.67 940.919C835.095 915.133 863.443 893.105 896.697 878.125V1010.43Z" fill="url(#paint26_radial)"/>
<path d="M759.239 1298.96H697.693L672.706 1196.93C671.986 1193.97 669.279 1191.96 666.346 1191.96C665.839 1191.96 665.333 1192.03 664.813 1192.15C661.346 1193 659.186 1196.56 660.039 1200.03L682.773 1292.83L593.199 1238.49L587.359 1214.63L567.386 1133.05C566.64 1130.08 563.959 1128.08 561.013 1128.08C560.506 1128.08 559.999 1128.13 559.479 1128.27C557.733 1128.67 556.32 1129.79 555.453 1131.21C554.586 1132.64 554.253 1134.41 554.706 1136.15L571.586 1205.09L574.679 1217.76L577.426 1228.93L446.893 1149.76C445.839 1149.12 444.679 1148.83 443.533 1148.83C441.306 1148.83 439.146 1149.95 437.933 1151.95L437.92 1151.96L279.52 1055.89C279.52 1055.89 307.183 1010.28 345.535 1010.28C349.202 1010.28 352.967 1010.69 356.815 1011.61C394.179 1020.48 458.346 1123.91 484.173 1123.91C488.813 1123.91 492.226 1120.56 494.013 1112.72C500.333 1084.85 520.719 1068.39 543.573 1068.39C562.959 1068.39 584.119 1080.23 599.973 1107.01C612.333 1127.89 621.346 1134.05 630.586 1134.05C637.226 1134.05 643.973 1130.88 652.173 1127.72C660.359 1124.56 669.999 1121.4 682.413 1121.4C684.493 1121.4 686.653 1121.48 688.893 1121.68C692.879 1141.89 698.106 1162.52 704.893 1183.23C705.106 1183.92 705.333 1184.6 705.573 1185.29C709.626 1197.52 714.213 1209.75 719.413 1221.93C731.173 1249.57 744.599 1275.28 759.239 1298.96" fill="url(#paint27_radial)"/>
<path d="M663.653 1472.21C651.813 1472.21 639.813 1471.15 627.84 1468.87C624.573 1468.24 621.427 1467.56 618.4 1466.8H652.573C675.813 1448.6 671.467 1414.08 647.987 1388.27L682.573 1379.79V1409.88H766.053L710.413 1466.75C710.32 1466.76 710.24 1466.79 710.16 1466.8C695.227 1470.28 679.573 1472.21 663.653 1472.21V1472.21ZM636.56 1377.64C619.827 1364.45 597.067 1355.41 569.933 1355.41C568.613 1355.41 567.267 1355.43 565.92 1355.48C566.373 1355 566.827 1354.52 567.293 1354.05C582.293 1338.97 565.253 1330.52 537.48 1325.12C503.56 1318.53 453.613 1316.51 426.48 1312.57C377.132 1305.43 364.953 1247.57 385.88 1221.24C406.816 1194.89 316.809 1209.75 273.843 1163.85C230.864 1117.96 279.52 1055.89 279.52 1055.89L437.92 1151.96C437 1153.49 436.787 1155.27 437.187 1156.89C437.573 1158.51 438.6 1159.99 440.12 1160.92L529.8 1215.31L436.573 1238.15C433.093 1239 430.947 1242.55 431.787 1246.03C432.507 1249 435.187 1251 438.12 1251C438.64 1251 439.16 1250.95 439.667 1250.81L545.56 1224.87L682.573 1307.96V1366.37L636.56 1377.64" fill="url(#paint28_radial)"/>
<path d="M647.988 1388.27C644.574 1384.51 640.761 1380.95 636.561 1377.64L682.574 1366.37V1379.79L647.988 1388.27ZM682.574 1307.96L545.561 1224.87L439.667 1250.81C439.161 1250.95 438.641 1251 438.121 1251C435.188 1251 432.508 1249 431.788 1246.03C430.948 1242.55 433.094 1239 436.574 1238.15L529.801 1215.31L440.121 1160.92C438.601 1159.99 437.574 1158.51 437.188 1156.89C436.788 1155.27 437.001 1153.49 437.921 1151.96L437.934 1151.95C439.147 1149.95 441.307 1148.83 443.534 1148.83C444.681 1148.83 445.841 1149.12 446.894 1149.76L577.428 1228.93L574.681 1217.76L571.588 1205.09L554.707 1136.15C554.254 1134.41 554.588 1132.64 555.454 1131.21C556.321 1129.79 557.734 1128.67 559.481 1128.27C560.001 1128.13 560.507 1128.08 561.014 1128.08C563.961 1128.08 566.641 1130.08 567.388 1133.05L587.361 1214.63L593.201 1238.49L682.774 1292.83L660.041 1200.03C659.187 1196.56 661.347 1193 664.814 1192.15C665.334 1192.03 665.841 1191.96 666.347 1191.96C669.281 1191.96 671.987 1193.97 672.707 1196.93L697.694 1298.96H682.574V1307.96" fill="url(#paint29_radial)"/>
<path d="M640.481 778L966.188 1397.7C897.255 1395.81 799.641 1336.89 725.468 1230.57C724.921 1229.82 724.388 1229.05 723.881 1228.29C703.228 1198.4 684.441 1164.8 668.668 1127.72C663.468 1115.53 658.881 1103.3 654.828 1091.08C654.588 1090.38 654.361 1089.7 654.148 1089.01C639.228 1043.42 631.788 998.236 628.748 957.05C628.695 956.396 628.641 955.743 628.601 955.09C621.468 854.45 640.481 778 640.481 778Z" fill="url(#paint30_radial)"/>
<path d="M799.188 1077.63L679.494 1051.27C679.441 1050.61 679.388 1049.96 679.348 1049.31L798.028 1075.44L799.001 1077.27L799.188 1077.63" fill="#E0E0E0"/>
<path d="M875.428 1222.69L705.574 1185.29C705.334 1184.6 705.108 1183.92 704.895 1183.23L874.281 1220.51L875.428 1222.69Z" fill="#E0E0E0"/>
<path d="M951.347 1070.65C951.72 1071.42 952.08 1072.21 952.427 1072.98V1073.01C982.587 1137.3 997.613 1200.98 1000.69 1257.09C1000.77 1258.58 1000.85 1260.06 1000.91 1261.56C1003.6 1322.2 992.173 1373.62 970.707 1406.7L645 787.001C645 787.001 697.307 806.651 760.933 850.464C761.467 850.824 761.987 851.184 762.52 851.544C795.907 874.691 832.307 904.464 865.827 941.491C866.293 942.024 866.773 942.531 867.227 943.064C884.96 962.811 901.867 984.611 917.053 1008.54C930.12 1029.14 941.507 1049.93 951.347 1070.65" fill="#72B5FF"/>
<path d="M772.279 1026.44L771.666 1025.29L771.133 1024.25L807.16 935.681C807.693 936.041 808.213 936.401 808.746 936.761L772.279 1026.44Z" fill="url(#paint31_radial)"/>
<path d="M852.279 1178.65L851.133 1176.48L896.693 1064.49V1069.49L852.279 1178.65Z" fill="url(#paint32_radial)"/>
<path d="M1587.66 1388H965.338C851.83 1388 759 1352.19 759 1308.42V689.567C759 645.804 851.83 609.998 965.338 609.998H1587.66C1701.14 609.998 1794 645.804 1794 689.567V1308.42C1794 1352.19 1701.14 1388 1587.66 1388Z" fill="#110052"/>
<path d="M1563.6 1333.65H989.383C884.246 1333.65 798.199 1303.43 798.199 1266.49V718.749C798.199 681.806 884.246 651.579 989.383 651.579H1563.6C1668.74 651.579 1754.75 681.806 1754.75 718.749V1266.49C1754.75 1303.43 1668.74 1333.65 1563.6 1333.65Z" fill="url(#paint33_linear)"/>
<path d="M1491.71 277.42L1482.05 250.14L1483.4 249.564L1493.05 276.858L1491.71 277.42Z" fill="white"/>
<path d="M1503.63 277.413L1513.29 250.128L1511.93 249.562L1502.27 276.847L1503.63 277.413Z" fill="white"/>
<path d="M1497.1 277.134H1498.55V252.697H1497.1V277.134Z" fill="white"/>
<path d="M1501.92 0.823845V252.703H1482.6C1482.6 252.703 1381.17 144.267 1405.33 68.3161C1419.3 24.3601 1449.47 8.68904 1472.4 3.27244H1472.42C1479.67 1.551 1486.23 0.868336 1491.29 0.645736C1497.84 0.348936 1501.92 0.823845 1501.92 0.823845Z" fill="white"/>
<path d="M1487.16 252.705H1482.59C1482.59 252.705 1381.16 144.267 1405.3 68.3221C1419.3 24.3687 1449.46 8.68991 1472.38 3.29161C1389.27 95.107 1487.16 252.705 1487.16 252.705Z" fill="url(#paint34_radial)"/>
<path d="M1493.71 0.813177V252.688H1513.03C1513.03 252.688 1614.48 144.253 1590.33 68.309C1576.35 24.3576 1546.17 8.67175 1523.25 3.26712H1523.23C1515.95 1.54323 1509.43 0.859829 1504.35 0.642402C1497.81 0.347321 1493.71 0.813177 1493.71 0.813177Z" fill="white"/>
<path d="M1504.32 0.646673C1501.75 0.526905 1499.53 0.541818 1497.81 0.58673C1496.09 0.541818 1493.89 0.526905 1491.28 0.646673C1448.78 90.098 1491.28 252.697 1491.28 252.697H1493.71H1501.91H1504.32C1504.32 252.697 1546.84 90.098 1504.32 0.646673Z" fill="url(#paint35_radial)"/>
<path d="M1508.46 252.693H1513.02C1513.02 252.693 1614.47 144.255 1590.32 68.3224C1576.34 24.371 1546.16 8.68829 1523.23 3.28102C1606.36 95.0968 1508.46 252.693 1508.46 252.693Z" fill="url(#paint36_radial)"/>
<path d="M1507.77 284.485H1487.86V270.725H1507.77V284.485Z" fill="url(#paint37_radial)"/>
<path d="M1508.46 288.734H1487.17V277.143H1508.46V288.734Z" fill="url(#paint38_radial)"/>
<path d="M1841.3 1453.66C1841.3 1453.66 1839.62 1476.71 1794.27 1479.24V1486.46H1855.74L1866.07 1475.86V1486.46H1876.99L1874.03 1456.15L1841.3 1453.66" fill="url(#paint39_radial)"/>
<path d="M1801.63 844.301L1684.67 800.025C1684.67 800.025 1757.34 799.223 1815.81 733.433L1812.55 722.798C1812.55 722.798 1630.03 748.032 1638.63 805.432C1647.2 862.832 1779.27 912.281 1779.27 912.281C1779.27 912.281 1802.28 878.785 1801.63 844.301Z" fill="#FCFCFF"/>
<path d="M1760.83 1088.78C1760.83 1088.78 1745.65 1299.22 1838.32 1456.54L1872.17 1455.94C1872.17 1455.94 1883.25 1331.99 1819.69 1286.23L1828.87 1188.34C1828.87 1188.34 1823.65 1010.18 1760.83 1088.78Z" fill="#031A44"/>
<path d="M1771.64 958.898C1766.55 994.939 1763.87 1025.26 1763.87 1025.26C1763.87 1025.26 1782 1057.8 1783.34 1058.48C1784.68 1059.16 1799.3 1044.79 1799.3 1044.79L1811.99 1067.87L1860.95 1063.7C1860.95 1063.7 1860.39 1050.55 1860.65 1028.34C1861.19 979.485 1923.83 886.419 1923.83 886.419C1907.08 871.465 1871.09 854.148 1871.09 854.148L1839.61 849.315L1801.64 844.294L1801.62 844.305C1796.6 849.664 1792.04 860.743 1787.94 874.909V874.916C1783.9 888.845 1780.34 905.752 1777.27 923.139C1775.15 935.112 1773.26 947.298 1771.64 958.898" fill="#FCFCFF"/>
<path d="M1877.56 808.63L1876.59 859.698L1845.14 858.078L1839.62 849.313C1839.62 849.313 1850.3 819.441 1849.93 799.076C1849.57 778.709 1879.11 779.831 1877.56 808.63Z" fill="#FFB8B8"/>
<path d="M1875.31 794.552L1857.81 821.064L1836.11 809.824L1861.03 761.788C1861.03 761.788 1892.84 768.037 1875.31 794.552" fill="#FFB8B8"/>
<path d="M1871.63 798.471C1871.63 798.471 1872.71 788.17 1880.03 776.001C1880.03 776.001 1853.33 764.642 1853.83 756.688C1854.31 748.733 1862.99 741.096 1868.24 747.865C1873.49 754.637 1866.21 758.544 1878.17 764.343C1890.13 770.14 1885.19 776.071 1885.19 776.071C1885.19 776.071 1891.1 781.558 1887.12 789.211C1883.16 796.864 1877.46 813.196 1877.46 813.196L1871.63 798.471Z" fill="#4821DB"/>
<path d="M1870.19 802.314L1877.24 791.098C1877.24 791.098 1880.46 791.414 1879.21 796.695C1877.96 801.977 1872.14 804.987 1870.19 802.314Z" fill="url(#paint40_linear)"/>
<path d="M1845.15 858.081L1852.84 880.03L1876.58 859.701L1845.15 858.081Z" fill="#C4C5D1"/>
<path d="M1845.16 858.076L1828.87 861.294L1839.63 849.31L1845.16 858.076" fill="#C4C5D1"/>
<path d="M1845.15 858.077L1835.95 863.537L1836.6 872.241L1839.45 875.008L1848.46 867.494L1845.15 858.077" fill="url(#paint41_linear)"/>
<path d="M1836.62 872.239C1836.62 872.239 1755.22 969.999 1818.16 1129.23L1835.95 1137.8L1845.16 1124.45C1845.16 1124.45 1768.58 1001.22 1839.45 875.006L1836.62 872.239" fill="#ED4567"/>
<path d="M1923.83 886.417C1923.83 886.417 1956.1 1030.55 1923.83 1173.8L1903.95 1162.83C1903.95 1162.83 1898.33 1032.67 1880.58 952.083C1880.58 952.083 1891.27 902.937 1923.83 886.417Z" fill="#FCFCFF"/>
<path d="M1903.94 1162.83C1903.94 1162.83 1896.33 1174.15 1885.29 1178.8C1874.28 1183.47 1878.1 1188.98 1891.24 1183.9C1904.36 1178.8 1903.94 1176.68 1903.94 1176.68C1903.94 1176.68 1896.33 1200.42 1901.83 1199.99C1907.34 1199.56 1907.34 1197.04 1914.1 1200C1920.9 1202.96 1923.83 1200 1923.83 1200V1173.8L1903.94 1162.83" fill="#FFB8B8"/>
<path d="M1903.95 1162.83L1923.84 1173.8L1926.72 1160.14L1903.39 1151.64L1903.95 1162.83Z" fill="url(#paint42_radial)"/>
<path d="M1812.55 722.801C1812.55 722.801 1834.88 718.099 1851.41 722.801C1867.92 727.505 1874.37 733.862 1871.15 734.707C1867.92 735.555 1848.45 729.199 1848.45 729.199C1848.45 729.199 1862 734.707 1858.63 736.827C1855.22 738.945 1848.89 734.284 1837 733.013C1825.12 731.742 1815.8 733.436 1815.8 733.436L1812.55 722.801" fill="url(#paint43_linear)"/>
<path d="M1812.54 722.8L1819.29 737.369L1807.59 742.172L1803.53 724.188L1812.54 722.8" fill="url(#paint44_radial)"/>
<path d="M1861.58 1460.44C1861.58 1460.44 1859.89 1483.48 1814.55 1486.03V1493.23H1876.02L1886.36 1482.64V1493.23H1897.27L1894.32 1462.93L1861.58 1460.44Z" fill="url(#paint45_radial)"/>
<path d="M1268.33 412.087C1268.33 457.241 1231.73 493.841 1186.58 493.841C1141.42 493.841 1104.82 457.241 1104.82 412.087C1104.82 366.932 1141.42 330.331 1186.58 330.331C1231.73 330.331 1268.33 366.932 1268.33 412.087Z" fill="#EA3968"/>
<path d="M820.511 1355.76C820.511 1400.91 783.91 1437.51 738.755 1437.51C693.601 1437.51 657 1400.91 657 1355.76C657 1310.6 693.601 1274 738.755 1274C783.91 1274 820.511 1310.6 820.511 1355.76Z" fill="#EA3968"/>
<path d="M2128.3 743.648C2128.3 795.825 2086 838.123 2033.84 838.123C1981.66 838.123 1939.36 795.825 1939.36 743.648C1939.36 691.472 1981.66 649.173 2033.84 649.173C2086 649.173 2128.3 691.472 2128.3 743.648Z" fill="#EA3968"/>
<path d="M809.464 735.551C809.464 803.401 754.464 858.405 686.611 858.405C618.758 858.405 563.758 803.401 563.758 735.551C563.758 667.701 618.758 612.697 686.611 612.697C754.464 612.697 809.464 667.701 809.464 735.551" fill="#EA3968"/>
<path d="M1445.08 1160.48L1455.65 1160.44L1445.08 1160.48Z" fill="url(#paint46_linear)"/>
<path d="M1425.8 1160.56L1436.37 1160.51L1425.8 1160.56Z" fill="url(#paint47_linear)"/>
<path d="M777.988 581.104C777.988 581.104 778.041 581.022 778.135 580.858C778.801 579.709 781.868 574.632 787.228 568.094L786.201 567.248C780.001 574.8 776.841 580.426 776.828 580.452L777.988 581.104ZM806.215 549.522C810.215 546.405 814.655 543.41 819.495 540.734L818.841 539.568C813.935 542.281 809.455 545.314 805.388 548.469L806.215 549.522ZM844.228 531.462C849.215 530.422 854.468 529.796 860.001 529.69L859.975 528.358C854.361 528.464 849.015 529.1 843.961 530.157L844.228 531.462ZM886.255 532.989C888.841 533.674 891.481 534.474 894.161 535.396C896.575 536.224 898.988 537.086 901.428 537.974L901.881 536.722C899.441 535.83 897.015 534.966 894.601 534.134C891.881 533.202 889.215 532.393 886.601 531.7L886.255 532.989ZM926.335 547.63C931.281 549.613 936.241 551.618 941.228 553.598L941.721 552.36C936.735 550.381 931.775 548.376 926.828 546.393L926.335 547.63ZM966.241 563.086C971.348 564.884 976.441 566.57 981.521 568.094L981.895 566.817C976.841 565.301 971.775 563.621 966.695 561.829L966.241 563.086ZM1007.59 574.262C1012.97 575.134 1018.32 575.713 1023.61 575.932L1023.67 574.598C1018.44 574.384 1013.15 573.81 1007.8 572.946L1007.59 574.262ZM1050.32 573.524C1055.49 572.277 1060.57 570.532 1065.56 568.221L1064.99 567.012C1060.09 569.285 1055.09 571 1050 572.226L1050.32 573.524ZM1087.77 553.218C1091.55 549.765 1095.21 545.861 1098.8 541.472L1097.76 540.629C1094.23 544.972 1090.59 548.828 1086.87 552.236L1087.77 553.218ZM1113.72 519.212C1114.43 517.952 1115.12 516.666 1115.81 515.357L1114.64 514.733C1113.95 516.034 1113.25 517.31 1112.56 518.562L1113.72 519.212" fill="#F2BBFF"/>
<path d="M2101.96 857.451C2101.96 857.451 2102.09 857.787 2102.39 858.447C2103.23 860.429 2105.23 865.292 2107.67 872.399L2108.94 871.964C2105.65 862.445 2103.17 856.919 2103.17 856.904L2101.96 857.451ZM2115.23 897.991C2116.44 902.884 2117.62 908.111 2118.68 913.616L2119.99 913.364C2118.92 907.829 2117.75 902.578 2116.53 897.67L2115.23 897.991ZM2122.49 940.017C2122.97 945.218 2123.33 950.551 2123.49 955.978L2124.82 955.937C2124.65 950.484 2124.32 945.111 2123.81 939.884L2122.49 940.017ZM2122.66 982.604C2122.15 987.857 2121.44 993.137 2120.49 998.431L2121.82 998.67C2122.77 993.336 2123.49 988.016 2123.98 982.723L2122.66 982.604ZM2113.73 1024.15C2112 1029.11 2109.98 1034.04 2107.69 1038.91L2108.88 1039.48C2111.22 1034.56 2113.25 1029.59 2115 1024.59L2113.73 1024.15ZM2094.21 1061.79C2091.17 1066.03 2087.85 1070.18 2084.21 1074.22L2085.22 1075.11C2088.88 1071.03 2092.24 1066.84 2095.3 1062.56L2094.21 1061.79ZM2064.88 1092.4C2060.81 1095.63 2056.52 1098.75 2051.95 1101.75L2052.66 1102.87C2057.27 1099.84 2061.61 1096.7 2065.7 1093.44L2064.88 1092.4ZM2028.77 1114.8C2024.1 1117.06 2019.23 1119.2 2014.14 1121.24L2014.62 1122.48C2019.76 1120.43 2024.66 1118.27 2029.35 1116.02L2028.77 1114.8ZM1988.96 1129.94C1986.43 1130.68 1983.85 1131.4 1981.24 1132.1L1981.57 1133.39C1984.21 1132.68 1986.8 1131.96 1989.34 1131.22L1988.96 1129.94Z" fill="#F2BBFF"/>
<path d="M1981.96 622.276C1981.95 622.249 1978.37 616.494 1971.81 609.65L1970.85 610.572C1974.09 613.945 1976.59 617.054 1978.27 619.316C1979.12 620.448 1979.76 621.367 1980.19 622.002C1980.4 622.319 1980.56 622.566 1980.67 622.733C1980.77 622.897 1980.83 622.98 1980.83 622.98L1981.96 622.276ZM1950.45 593.404C1945.79 591.045 1940.69 589.171 1935.17 588.141L1934.92 589.45C1940.29 590.455 1945.29 592.283 1949.85 594.594L1950.45 593.404ZM1908.48 590.186C1903.78 591.769 1898.93 594.047 1893.91 597.147L1894.62 598.28C1899.53 595.23 1904.32 592.998 1908.9 591.449L1908.48 590.186ZM1873.21 614.182C1872.04 615.379 1870.86 616.624 1869.69 617.917C1867.16 620.693 1864.64 623.297 1862.13 625.739L1863.05 626.696C1865.58 624.234 1868.12 621.609 1870.67 618.815C1871.84 617.533 1873.01 616.298 1874.15 615.11L1873.21 614.182ZM1841.5 642.473C1836.8 645.571 1832.18 648.167 1827.64 650.328L1828.21 651.531C1832.82 649.345 1837.5 646.716 1842.23 643.584L1841.5 642.473ZM1802.46 658.444C1797.02 659.39 1791.82 659.788 1786.93 659.788H1786.61V661.122H1786.93C1791.9 661.122 1797.18 660.717 1802.69 659.758L1802.46 658.444ZM1760.47 655.858C1753.53 653.757 1748.45 651.314 1745.74 649.868L1745.12 651.043C1747.88 652.523 1753.05 655.002 1760.08 657.133L1760.47 655.858" fill="#F2BBFF"/>
<path d="M1431.78 448.989C1431.77 448.947 1429.97 442.702 1424.88 434.302L1423.74 434.992C1426.25 439.126 1427.95 442.728 1429 445.291C1429.54 446.572 1429.91 447.595 1430.16 448.294C1430.27 448.643 1430.36 448.911 1430.43 449.091C1430.47 449.271 1430.5 449.356 1430.5 449.357L1431.78 448.989ZM1407.59 413.778C1403.79 410.477 1399.43 407.284 1394.48 404.376L1393.8 405.526C1398.69 408.391 1402.97 411.535 1406.7 414.784L1407.59 413.778ZM1369.65 394.276C1364.75 393.018 1359.46 392.04 1353.81 391.407L1353.67 392.733C1359.26 393.358 1364.48 394.325 1369.32 395.567L1369.65 394.276ZM1327.01 391.014C1321.93 391.381 1316.59 391.997 1311.03 392.881L1311.25 394.198C1316.77 393.318 1322.07 392.708 1327.11 392.342L1327.01 391.014Z" fill="#F2BBFF"/>
<path d="M953.187 363.255C963.494 351.388 969.747 335.908 969.747 318.948C969.747 281.668 939.534 251.428 902.254 251.428C939.534 251.428 969.747 281.668 969.747 318.948C969.747 335.908 963.494 351.388 953.187 363.255ZM891.014 252.375C882.027 186.561 825.587 135.868 757.28 135.868C825.587 135.868 882.027 186.561 891.014 252.375ZM629.814 226.228H629.801C627.321 226.002 624.787 225.908 622.254 225.908C624.787 225.908 627.321 226.002 629.801 226.228H629.814Z" fill="url(#paint48_linear)"/>
<path d="M1309.8 232.109C1314.97 226.172 1318.1 218.438 1318.1 209.95C1318.1 191.315 1302.97 176.191 1284.34 176.191C1302.99 176.191 1318.1 191.315 1318.1 209.95C1318.1 218.438 1314.97 226.172 1309.8 232.109ZM1278.73 176.671C1274.23 143.761 1246 118.421 1211.86 118.421C1246 118.421 1274.23 143.761 1278.73 176.671ZM1148.12 163.589H1148.11C1146.87 163.479 1145.61 163.438 1144.34 163.438C1145.61 163.438 1146.87 163.479 1148.12 163.589Z" fill="url(#paint49_linear)"/>
<path d="M2033.83 533.64C2033.83 518.675 2043.47 505.946 2056.85 501.337C2063.03 466.913 2093.12 440.782 2129.33 440.782C2131.35 440.782 2133.35 440.86 2135.32 441.033C2149.93 399.379 2189.56 369.528 2236.21 369.528C2290.27 369.528 2334.93 409.641 2342.04 461.733C2344.94 461.23 2347.89 460.979 2350.93 460.979C2380.43 460.979 2404.35 484.912 2404.35 514.419C2404.35 514.522 2404.35 514.628 2404.35 514.732V514.115C2404.17 484.746 2380.35 460.979 2350.93 460.979C2347.89 460.979 2344.94 461.23 2342.04 461.733C2334.93 409.641 2290.27 369.528 2236.21 369.528C2189.56 369.528 2149.93 399.379 2135.32 441.033C2133.35 440.86 2131.35 440.782 2129.33 440.782C2093.12 440.782 2063.03 466.913 2056.85 501.337C2043.47 505.946 2033.83 518.675 2033.83 533.64Z" fill="url(#paint50_linear)"/>
<path d="M905.333 1480.65H0C0 1480.65 49.724 1403.07 159.639 1403.07C177.943 1403.07 197.893 1405.21 219.587 1410.23C230.827 1412.83 241.215 1414.03 250.879 1414.03C305.064 1414.03 336.604 1376.52 369.103 1339.01C401.6 1301.51 435.061 1264 493.064 1264C506.589 1264 521.44 1266.04 537.933 1270.6C677.323 1309.07 676.197 1401.65 737.387 1401.67C747.4 1401.67 759.067 1399.19 773.307 1393.59C746.92 1436.71 741.36 1480.65 741.36 1480.65H905.333" fill="url(#paint51_radial)"/>
<path d="M1860.96 1063.69C1860.96 1063.69 1896.48 1125.84 1863.98 1261.17C1863.98 1261.17 1907.67 1315.95 1894.96 1462.93L1860.88 1459.63C1860.88 1459.63 1793.33 1214.6 1791.99 1106.72L1760.84 1088.77L1763.88 1025.25L1860.96 1063.69" fill="#000749"/>
<path d="M621.223 1410.12C621.223 1383.86 644.894 1362.58 674.1 1362.58C703.305 1362.58 726.976 1383.86 726.976 1410.12C726.976 1436.37 703.305 1457.66 674.1 1457.66C644.894 1457.66 621.223 1436.37 621.223 1410.12V1410.12ZM796.512 1429.65V1391.23H765.169C762.867 1382.23 758.962 1373.79 753.732 1366.15V1366.15L776.024 1346.11L745.805 1318.94L723.636 1338.87C715.175 1334.11 705.817 1330.53 695.83 1328.4V1300.06H653.093V1328.24C642.839 1330.36 633.227 1333.99 624.564 1338.87L602.395 1318.94L572.176 1346.11L594.468 1366.15L594.466 1366.15C589.237 1373.79 585.333 1382.23 583.031 1391.23H551.688V1429.65H583.203C585.579 1438.63 589.563 1447.05 594.857 1454.65L572.687 1474.59L602.906 1501.75L625.198 1481.71H625.2C633.697 1486.41 643.084 1489.93 653.093 1492V1520.17H695.83V1491.84C705.564 1489.76 714.714 1486.3 723 1481.71H723.001L745.293 1501.75L775.51 1474.59L753.343 1454.65C758.637 1447.05 762.62 1438.63 764.996 1429.65H796.512" fill="url(#paint52_linear)"/>
<path d="M612.536 1410.12C612.536 1383.86 636.205 1362.58 665.411 1362.58C694.616 1362.58 718.287 1383.86 718.287 1410.12C718.287 1436.37 694.616 1457.66 665.411 1457.66C636.205 1457.66 612.536 1436.37 612.536 1410.12ZM787.821 1429.65V1391.23H756.48C754.178 1382.23 750.273 1373.79 745.043 1366.15V1366.15L767.333 1346.11L737.116 1318.94L714.946 1338.87C706.486 1334.11 697.13 1330.53 687.141 1328.4V1300.06H644.406V1328.24C634.148 1330.36 624.537 1333.99 615.875 1338.87L593.705 1318.94L563.488 1346.11L585.779 1366.15V1366.15C580.548 1373.79 576.644 1382.23 574.34 1391.23H543V1429.65H574.514C576.89 1438.63 580.874 1447.05 586.168 1454.65L564 1474.59L594.219 1501.75L616.509 1481.71H616.511C625.008 1486.41 634.395 1489.93 644.406 1492V1520.17H687.141V1491.84C696.876 1489.76 706.023 1486.3 714.31 1481.71H714.312L736.604 1501.75L766.821 1474.59L744.652 1454.65C749.947 1447.05 753.931 1438.63 756.307 1429.65H787.821" fill="url(#paint53_linear)"/>
<path d="M844.223 1455.12C844.223 1428.86 867.894 1407.58 897.1 1407.58C926.305 1407.58 949.976 1428.86 949.976 1455.12C949.976 1481.37 926.305 1502.66 897.1 1502.66C867.894 1502.66 844.223 1481.37 844.223 1455.12V1455.12ZM1019.51 1474.65V1436.23H988.169C985.867 1427.23 981.962 1418.79 976.732 1411.15V1411.15L999.024 1391.11L968.805 1363.94L946.636 1383.87C938.175 1379.11 928.817 1375.53 918.83 1373.4V1345.06H876.093V1373.24C865.839 1375.36 856.227 1378.99 847.564 1383.87L825.395 1363.94L795.176 1391.11L817.468 1411.15L817.466 1411.15C812.237 1418.79 808.333 1427.23 806.031 1436.23H774.688V1474.65H806.203C808.579 1483.63 812.563 1492.05 817.857 1499.65L795.687 1519.59L825.906 1546.75L848.198 1526.71H848.2C856.697 1531.41 866.084 1534.93 876.093 1537V1565.17H918.83V1536.84C928.564 1534.76 937.714 1531.3 946 1526.71H946.001L968.293 1546.75L998.51 1519.59L976.343 1499.65C981.637 1492.05 985.62 1483.63 987.996 1474.65H1019.51" fill="url(#paint54_linear)"/>
<path d="M835.536 1455.12C835.536 1428.86 859.205 1407.58 888.411 1407.58C917.616 1407.58 941.287 1428.86 941.287 1455.12C941.287 1481.37 917.616 1502.66 888.411 1502.66C859.205 1502.66 835.536 1481.37 835.536 1455.12ZM1010.82 1474.65V1436.23H979.48C977.178 1427.23 973.273 1418.79 968.043 1411.15V1411.15L990.333 1391.11L960.116 1363.94L937.946 1383.87C929.486 1379.11 920.13 1375.53 910.141 1373.4V1345.06H867.406V1373.24C857.148 1375.36 847.537 1378.99 838.875 1383.87L816.705 1363.94L786.488 1391.11L808.779 1411.15V1411.15C803.548 1418.79 799.644 1427.23 797.34 1436.23H766V1474.65H797.514C799.89 1483.63 803.874 1492.05 809.168 1499.65L787 1519.59L817.219 1546.75L839.509 1526.71H839.511C848.008 1531.41 857.395 1534.93 867.406 1537V1565.17H910.141V1536.84C919.876 1534.76 929.023 1531.3 937.31 1526.71H937.312L959.604 1546.75L989.821 1519.59L967.652 1499.65C972.947 1492.05 976.931 1483.63 979.307 1474.65H1010.82" fill="url(#paint55_linear)"/>
<path d="M1626.77 1543.03H1389.21V1181.98C1389.21 1169.31 1399.46 1159.06 1412.12 1159.06H1669.43V1500.39C1669.43 1523.94 1650.34 1543.03 1626.77 1543.03Z" fill="white"/>
<path d="M1611.11 1294.13H1439.97C1439.91 1294.12 1439.85 1294.09 1439.78 1294.08C1439.45 1294 1439.13 1293.9 1438.75 1293.82C1438.44 1293.74 1438.08 1293.68 1437.7 1293.6C1437.35 1293.53 1436.99 1293.46 1436.62 1293.4C1436.26 1293.34 1435.9 1293.28 1435.52 1293.22C1435.16 1293.16 1434.77 1293.1 1434.38 1293.05C1434.1 1293.01 1433.78 1292.97 1433.47 1292.93C1435.73 1292.4 1436.95 1291.85 1436.95 1291.29L1436.92 1284.6H1611.11C1613.35 1284.6 1615.18 1286.42 1615.18 1288.66V1290.06C1615.18 1292.3 1613.35 1294.13 1611.11 1294.13Z" fill="#5E9FC9"/>
<path d="M1611.11 1322.22H1437.92L1437.91 1320.97C1437.91 1320.94 1437.91 1320.92 1437.91 1320.9C1437.89 1320.86 1437.88 1320.82 1437.86 1320.78C1437.95 1320.77 1438.03 1320.74 1438.13 1320.73C1440.81 1320.16 1442.23 1319.56 1442.23 1318.94L1442.22 1312.68H1611.11C1613.35 1312.68 1615.18 1314.52 1615.18 1316.76V1318.14C1615.18 1320.38 1613.35 1322.22 1611.11 1322.22Z" fill="#5E9FC9"/>
<path d="M1610.25 1346.61H1437.06L1437.05 1345.35C1437.05 1345.33 1437.05 1345.3 1437.05 1345.29C1437.03 1345.25 1437.02 1345.21 1437 1345.17C1437.09 1345.15 1437.17 1345.13 1437.27 1345.11C1439.95 1344.54 1441.37 1343.94 1441.37 1343.33L1441.36 1337.06H1610.25C1612.49 1337.06 1614.33 1338.9 1614.33 1341.14V1342.53C1614.33 1344.77 1612.49 1346.61 1610.25 1346.61Z" fill="#5E9FC9"/>
<path d="M1611.11 1398.66H1436.95L1436.9 1389.13H1611.11C1613.35 1389.13 1615.18 1390.96 1615.18 1393.2V1394.6C1615.18 1396.84 1613.35 1398.66 1611.11 1398.66" fill="#5E9FC9"/>
<path d="M1611.11 1426.76H1442.23L1442.2 1417.21H1611.11C1613.35 1417.21 1615.18 1419.04 1615.18 1421.29V1422.68C1615.18 1424.92 1613.35 1426.76 1611.11 1426.76Z" fill="#5E9FC9"/>
<path d="M1542.81 1454.84H1437.27C1437.75 1454.58 1438 1454.33 1438 1454.08L1437.97 1445.29H1542.81C1545.05 1445.29 1546.9 1447.13 1546.9 1449.37V1450.76C1546.9 1453 1545.05 1454.84 1542.81 1454.84" fill="#5E9FC9"/>
<rect x="905" y="1264.06" width="489" height="336" rx="20" fill="#110052"/>
<rect x="926" y="1289.06" width="436" height="288" fill="url(#paint56_linear)"/>
<path d="M1148.63 1279.2C1147.52 1281.58 1144.71 1282.6 1142.36 1281.48C1140 1280.37 1138.99 1277.53 1140.1 1275.15C1141.22 1272.77 1144.04 1271.74 1146.39 1272.86C1148.74 1273.99 1149.74 1276.82 1148.63 1279.2Z" fill="#71B4FB"/>
<path d="M1555.56 1236.59C1547.28 1252.76 1526.18 1259.64 1508.5 1251.98C1490.76 1244.31 1483.16 1224.94 1491.44 1208.77C1499.78 1192.6 1520.87 1185.67 1538.55 1193.34C1556.23 1201.05 1563.84 1220.37 1555.56 1236.59Z" fill="#5E9FC9"/>
<path d="M1299.06 636.722C1296.26 642.769 1289.16 645.364 1283.23 642.524C1277.28 639.683 1274.75 632.461 1277.55 626.415C1280.37 620.369 1287.47 617.756 1293.4 620.596C1299.33 623.454 1301.86 630.657 1299.06 636.722Z" fill="#71B4FB"/>
<path d="M555 1503.06C555.491 1505.63 555.737 1508.57 555.737 1511.51C555.737 1514.44 555.491 1517.02 555 1519.95H569V1503.06H555V1503.06Z" fill="#F6795A"/>
<path d="M555 1520.06V1535.76H568.985V1520.06H555Z" fill="#E54897"/>
<path d="M569.02 1520.53V1536.22H714.754V1520.53H569.02Z" fill="#E54897"/>
<path d="M569.02 1501.19V1504.55V1517.17V1520.53H714.754L714.999 1501.19H569.02Z" fill="#F6795A"/>
<path d="M483.754 1558.27C503.659 1558.27 521.597 1552.92 534.621 1544.18C545.433 1536.84 553.051 1527.54 555.263 1516.83C555.754 1514.85 556 1512.6 556 1510.34V1510.06V1525.85V1526.13C556 1528.39 555.754 1530.36 555.263 1532.62C553.051 1543.33 545.679 1552.63 534.621 1559.96C521.597 1568.7 503.413 1574.06 483.754 1574.06C443.945 1574.06 412 1552.63 412 1526.13V1510.34C412 1536.84 443.945 1558.27 483.754 1558.27Z" fill="#EA3968"/>
<path d="M412.001 1510.56C411.756 1536.83 443.947 1558.06 483.755 1558.06C503.659 1558.06 521.598 1552.75 534.621 1544.09C545.434 1536.83 553.051 1527.6 555.263 1516.99C555.754 1515.03 556 1512.8 556 1510.56C556 1508.33 555.754 1506.37 555.263 1504.13C550.594 1480.94 520.615 1463.06 484.246 1463.06C464.342 1463.06 446.404 1468.37 433.38 1477.03C420.111 1485.69 412.001 1497.71 412.001 1510.56ZM424.779 1510.56C424.779 1499.66 431.414 1490.16 442.226 1482.9C453.039 1475.91 467.782 1471.44 484.001 1471.44C500.219 1471.44 515.209 1475.91 525.775 1482.9C536.342 1489.88 542.976 1499.66 542.976 1510.56C542.976 1521.46 536.342 1530.96 525.529 1538.22C514.717 1545.21 499.973 1549.68 483.755 1549.68C467.537 1549.68 452.547 1545.21 441.981 1538.22C431.414 1531.24 424.779 1521.46 424.779 1510.56Z" fill="#FA9153"/>
<path d="M1823.86 1176.53L1654.05 1516.1C1652.52 1515.54 1651 1514.94 1649.53 1514.31C1574.12 1482.34 1579.12 1369.31 1648.7 1288.59C1719.63 1206.3 1823.86 1176.53 1823.86 1176.53" fill="url(#paint57_linear)"/>
<path d="M1654.05 1516.1L1823.86 1176.53C1823.86 1176.53 1872.42 1258.1 1852.41 1357.65C1832.41 1457.21 1736 1541.72 1654.05 1516.1Z" fill="url(#paint58_linear)"/>
<path d="M1691.4 1441.42L1800.51 1396.48L1686.76 1450.7L1654.05 1516.11C1652.52 1515.54 1651 1514.94 1649.53 1514.31L1660.56 1492.27L1639.32 1415.63L1664.27 1484.85L1703.24 1406.91L1657.5 1287.24L1707.88 1397.63L1755.21 1303L1734.9 1224.5L1760.78 1291.87L1823.87 1176.53L1784.43 1255.4C1784.43 1255.4 1829.82 1238.54 1836.89 1235.81C1829.43 1239.14 1779.79 1264.68 1779.79 1264.68L1741.28 1341.68L1847.84 1301.85L1737.57 1349.1L1691.4 1441.42" fill="white"/>
<path d="M2013.51 1343.37L1657.28 1533.69C1656.43 1532.6 1655.62 1531.49 1654.86 1530.38C1615.89 1473.55 1693.61 1388.26 1801.45 1355.46C1911.4 1322.02 2013.51 1343.37 2013.51 1343.37" fill="url(#paint59_linear)"/>
<path d="M1657.28 1533.68L2013.51 1343.36C2013.51 1343.36 1998.82 1427.12 1918 1495.59C1837.19 1564.07 1705.58 1588.38 1657.28 1533.68Z" fill="url(#paint60_linear)"/>
<path d="M1735.63 1491.82L1851.5 1503.52L1725.9 1497.02L1657.28 1533.68C1656.43 1532.59 1655.62 1531.48 1654.86 1530.37L1677.99 1518.02L1711.15 1449.7L1685.78 1513.86L1767.54 1470.18L1809.32 1358.15L1777.27 1464.98L1876.55 1411.94L1911.65 1342.58L1888.23 1405.7L2013.51 1343.36L1930.78 1387.56C1930.78 1387.56 1977.79 1393.84 1985.17 1394.75C1977.08 1394.15 1921.05 1392.76 1921.05 1392.76L1840.26 1435.92L1950.78 1450.48L1832.47 1440.08L1735.63 1491.82" fill="white"/>
<path d="M1609.81 1532.68C1603.4 1526.25 1599.44 1517.4 1599.44 1507.62H1558.54H1483.09H1442.19H1394.91H1354C1354 1527.18 1369.85 1543.04 1389.42 1543.04H1430.31H1477.49H1477.59H1518.5H1591.73H1632.64V1542.97C1623.74 1542.43 1615.72 1538.6 1609.81 1532.68" fill="#CDCECE"/>
<path d="M704.2 729.061C703.171 729.061 702.166 728.76 701.311 728.197C700.456 727.634 699.789 726.833 699.396 725.897C699.002 724.96 698.899 723.93 699.1 722.936C699.301 721.942 699.796 721.028 700.523 720.312L712.446 708.56L700.523 696.809C699.548 695.848 699 694.545 699 693.185C699 691.826 699.548 690.523 700.523 689.562C701.498 688.601 702.821 688.061 704.2 688.061C705.579 688.061 706.902 688.601 707.877 689.562L723.477 704.937C723.96 705.412 724.343 705.977 724.604 706.599C724.866 707.221 725 707.887 725 708.56C725 709.233 724.866 709.9 724.604 710.522C724.343 711.143 723.96 711.708 723.477 712.184L707.877 727.559C707.394 728.036 706.821 728.414 706.19 728.672C705.559 728.929 704.883 729.061 704.2 729.061Z" fill="white"/>
<path d="M620.25 745.061C619.561 745.061 618.878 744.925 618.241 744.661C617.604 744.397 617.025 744.01 616.538 743.523C616.05 743.035 615.663 742.457 615.4 741.82C615.136 741.183 615 740.5 615 739.811V734.561C615.041 726.222 618.371 718.236 624.266 712.338C630.161 706.44 638.145 703.106 646.484 703.061H714.75C716.142 703.061 717.478 703.614 718.462 704.598C719.447 705.583 720 706.918 720 708.31C720 709.703 719.447 711.038 718.462 712.023C717.478 713.007 716.142 713.561 714.75 713.561H646.5C640.938 713.594 635.613 715.819 631.682 719.753C627.75 723.688 625.529 729.014 625.5 734.576V739.811C625.5 740.5 625.364 741.183 625.1 741.82C624.837 742.457 624.45 743.035 623.962 743.523C623.475 744.01 622.896 744.397 622.259 744.661C621.622 744.925 620.939 745.061 620.25 745.061V745.061Z" fill="white"/>
<path d="M661.8 786.061C661.117 786.061 660.441 785.929 659.81 785.672C659.179 785.414 658.606 785.036 658.123 784.559L642.523 769.183C642.04 768.707 641.657 768.142 641.396 767.52C641.135 766.898 641 766.232 641 765.559C641 764.886 641.135 764.219 641.396 763.597C641.657 762.976 642.04 762.411 642.523 761.935L658.123 746.558C659.099 745.599 660.421 745.06 661.799 745.061C663.177 745.061 664.499 745.601 665.474 746.562C666.448 747.522 666.996 748.825 666.997 750.183C666.997 751.542 666.451 752.845 665.477 753.807L653.554 765.559L665.477 777.311C666.204 778.028 666.699 778.941 666.9 779.935C667.101 780.929 666.998 781.96 666.604 782.896C666.211 783.833 665.544 784.634 664.689 785.197C663.834 785.76 662.829 786.061 661.8 786.061Z" fill="white"/>
<path d="M651.25 770.06C649.858 770.06 648.522 769.521 647.538 768.559C646.553 767.598 646 766.295 646 764.936C646 763.576 646.553 762.273 647.538 761.312C648.522 760.35 649.858 759.811 651.25 759.811H719.5C725.062 759.778 730.387 757.606 734.318 753.765C738.25 749.924 740.471 744.725 740.5 739.295V734.186C740.5 732.826 741.053 731.523 742.038 730.562C743.022 729.6 744.358 729.061 745.75 729.061C747.142 729.061 748.478 729.6 749.462 730.562C750.447 731.523 751 732.826 751 734.186V739.311C750.959 747.451 747.629 755.247 741.734 761.004C735.839 766.762 727.854 770.016 719.516 770.061L651.25 770.06Z" fill="white"/>
<path d="M1192.15 409.699L1187 404.814C1185.82 403.695 1184.22 403.065 1182.55 403.061C1180.88 403.056 1179.27 403.679 1178.09 404.791L1142.25 436.122C1140.93 437.225 1140.13 438.774 1140.01 440.435C1139.97 441.259 1140.11 442.082 1140.42 442.853C1140.74 443.623 1141.21 444.324 1141.82 444.912L1149.52 452.286L1149.54 452.299C1150.73 453.422 1152.34 454.055 1154.02 454.061H1154.25C1155.12 454.014 1155.97 453.806 1156.76 453.447C1157.54 453.089 1158.24 452.587 1158.82 451.972L1192.13 418.178C1193.32 417.061 1193.99 415.541 1194 413.954C1194.01 412.367 1193.35 410.842 1192.17 409.715L1192.15 409.699Z" fill="white"/>
<path d="M1232.82 399.838L1232.76 399.779L1226.02 393.387C1225.63 393.01 1225.16 392.711 1224.64 392.509C1224.13 392.306 1223.58 392.204 1223.02 392.207C1222.12 392.208 1221.24 392.481 1220.5 392.987C1220.5 392.906 1220.51 392.827 1220.52 392.757C1220.79 391.107 1220.43 389.417 1219.5 388.004C1218.01 386.087 1216.38 384.276 1214.62 382.588L1214.61 382.573C1209.68 378.043 1203.89 374.464 1197.56 372.031C1194.24 370.728 1190.7 370.059 1187.12 370.061C1182.48 370.021 1177.98 371.533 1174.39 374.335C1173.36 375.272 1172.43 376.295 1171.6 377.392C1171.2 377.918 1170.99 378.553 1171 379.202C1171.01 379.851 1171.24 380.48 1171.65 380.995C1172.06 381.511 1172.64 381.885 1173.29 382.062C1173.94 382.239 1174.63 382.21 1175.27 381.979C1175.82 381.782 1176.38 381.616 1176.95 381.484C1178.14 381.242 1179.37 381.169 1180.58 381.267C1183.1 381.519 1185.51 382.366 1187.6 383.734C1188.77 384.679 1189.7 385.868 1190.32 387.209C1190.95 388.551 1191.24 390.01 1191.19 391.477C1190.31 393.861 1188.98 396.066 1187.26 397.975C1186.8 398.557 1186.57 399.278 1186.62 400.006C1186.68 400.733 1187 401.418 1187.54 401.933L1194.31 408.418C1194.88 408.964 1195.64 409.281 1196.45 409.302C1197.25 409.324 1198.03 409.049 1198.63 408.535C1200.55 406.897 1203.46 404.428 1204.48 403.823C1205.35 403.265 1206.33 402.892 1207.37 402.73C1208.14 402.658 1208.91 402.814 1209.59 403.179C1209.59 403.211 1209.59 403.244 1209.58 403.274C1209.57 403.305 1209.55 403.334 1209.53 403.358L1209.17 403.684L1209.11 403.737C1208.32 404.496 1207.87 405.527 1207.87 406.602C1207.86 407.678 1208.31 408.71 1209.1 409.472L1209.12 409.492L1215.86 415.883C1216.25 416.259 1216.72 416.558 1217.24 416.76C1217.75 416.962 1218.3 417.064 1218.86 417.06C1219.98 417.062 1221.05 416.643 1221.85 415.892L1232.77 405.561C1232.8 405.525 1232.84 405.487 1232.88 405.45C1233.61 404.68 1234.01 403.674 1234 402.633C1233.99 401.592 1233.57 400.593 1232.82 399.838Z" fill="white"/>
<path d="M2074.53 707.406V707.389C2074.38 706.703 2074.04 706.073 2073.55 705.572C2073.06 705.072 2072.44 704.719 2071.76 704.555C2066.31 703.208 2057.73 704.644 2048.22 708.497C2039.07 712.095 2030.71 717.457 2023.58 724.286C2021.64 726.245 2019.83 728.339 2018.17 730.554C2014.52 730.298 2010.85 730.894 2007.45 732.297C1996.88 737.005 1993.87 749.053 1993.06 753.999C1992.95 754.702 1992.99 755.423 1993.2 756.105C1993.4 756.787 1993.76 757.412 1994.24 757.932C1994.72 758.452 1995.31 758.852 1995.97 759.102C1996.63 759.352 1997.34 759.444 1998.04 759.372H1998.06L2009.84 758.071C2009.85 758.223 2009.87 758.362 2009.88 758.49C2010.03 759.942 2010.67 761.298 2011.69 762.329L2017.44 768.148C2018.46 769.183 2019.79 769.832 2021.23 769.984L2021.62 770.027L2020.34 781.929V781.953C2020.28 782.558 2020.34 783.169 2020.51 783.752C2020.68 784.335 2020.96 784.878 2021.34 785.35C2021.72 785.822 2022.19 786.214 2022.72 786.503C2023.25 786.793 2023.82 786.974 2024.42 787.036C2024.56 787.051 2024.7 787.059 2024.85 787.061C2025.1 787.061 2025.35 787.04 2025.61 786.998C2030.52 786.197 2042.42 783.179 2047.06 772.424C2048.43 769 2049.02 765.304 2048.79 761.616C2050.98 759.943 2053.06 758.114 2055 756.141C2061.74 748.999 2067.05 740.597 2070.62 731.404C2074.4 721.889 2075.83 713.138 2074.53 707.406ZM2054.93 739.806C2053.43 741.329 2051.51 742.367 2049.43 742.789C2047.34 743.21 2045.18 742.995 2043.21 742.172C2041.25 741.349 2039.57 739.955 2038.38 738.165C2037.2 736.375 2036.57 734.27 2036.57 732.116C2036.57 729.963 2037.2 727.857 2038.38 726.066C2039.56 724.275 2041.24 722.879 2043.2 722.053C2045.17 721.228 2047.33 721.012 2049.42 721.431C2051.5 721.85 2053.42 722.886 2054.93 724.408L2054.93 724.416C2056.95 726.426 2058.1 729.164 2058.12 732.029C2058.14 734.893 2057.03 737.649 2055.05 739.69L2054.93 739.806Z" fill="white"/>
<path d="M2016.48 770.126C2015.78 770.04 2015.08 770.21 2014.5 770.606C2013.35 771.391 2012.2 772.167 2011.03 772.923C2010.53 773.249 2009.93 773.394 2009.33 773.338C2008.73 773.281 2008.17 773.025 2007.73 772.61C2007.3 772.196 2007.01 771.647 2006.93 771.052C2006.84 770.457 2006.96 769.851 2007.26 769.33L2009.44 765.557C2009.75 765.101 2009.93 764.564 2009.94 764.011C2009.96 763.458 2009.81 762.913 2009.52 762.441C2009.24 761.968 2008.82 761.589 2008.32 761.348C2007.82 761.107 2007.27 761.015 2006.72 761.082C2004.29 761.388 2002.04 762.492 2000.31 764.219C1999.66 764.878 1997.66 766.88 1996.58 774.506C1996.27 776.697 1996.08 778.902 1996 781.112C1995.99 781.49 1996.06 781.865 1996.19 782.218C1996.33 782.57 1996.53 782.892 1996.79 783.166C1997.05 783.44 1997.36 783.659 1997.71 783.813C1998.05 783.966 1998.42 784.05 1998.8 784.06C1998.83 784.06 1998.85 784.061 1998.88 784.061H1998.95C2001.16 783.982 2003.37 783.79 2005.56 783.486C2013.19 782.408 2015.2 780.406 2015.85 779.749C2017.59 778.021 2018.69 775.759 2018.98 773.328C2019.07 772.571 2018.86 771.809 2018.39 771.209C2017.92 770.609 2017.23 770.219 2016.48 770.126V770.126Z" fill="white"/>
<defs>
<radialGradient id="paint0_radial" cx="0" cy="0" r="1" gradientUnits="userSpaceOnUse" gradientTransform="translate(898.581 -639.953) scale(5853.14)">
<stop stop-color="#4A2BBD"/>
<stop offset="0.549804" stop-color="#451BEC"/>
<stop offset="1" stop-color="#1A0863"/>
</radialGradient>
<radialGradient id="paint1_radial" cx="0" cy="0" r="1" gradientUnits="userSpaceOnUse" gradientTransform="translate(1272.97 1259.07) rotate(-58.761) scale(2009.31)">
<stop stop-color="#E20081"/>
<stop offset="0.5464" stop-color="#FFB048"/>
<stop offset="1" stop-color="#FFFC9F"/>
</radialGradient>
<radialGradient id="paint2_radial" cx="0" cy="0" r="1" gradientUnits="userSpaceOnUse" gradientTransform="translate(664.547 1300.55) rotate(-58.7611) scale(1554.93)">
<stop stop-color="#EA3968"/>
<stop offset="0.5464" stop-color="#FF9793"/>
<stop offset="1" stop-color="#F9B564"/>
</radialGradient>
<radialGradient id="paint3_radial" cx="0" cy="0" r="1" gradientUnits="userSpaceOnUse" gradientTransform="translate(1524.72 1241.93) rotate(-58.761) scale(1961.55)">
<stop stop-color="#E20081"/>
<stop offset="0.5464" stop-color="#FFB048"/>
<stop offset="1" stop-color="#FFFC9F"/>
</radialGradient>
<radialGradient id="paint4_radial" cx="0" cy="0" r="1" gradientUnits="userSpaceOnUse" gradientTransform="translate(737.388 549.587) rotate(-46.0696) scale(1022.37)">
<stop stop-color="#4B89CB"/>
<stop offset="0.145733" stop-color="#72B5FF"/>
<stop offset="0.145833" stop-color="#4E9BD5"/>
<stop offset="0.328125" stop-color="#4B88CB"/>
<stop offset="0.838542" stop-color="#72B5FF"/>
<stop offset="1" stop-color="#4FA4D9"/>
</radialGradient>
<radialGradient id="paint5_radial" cx="0" cy="0" r="1" gradientUnits="userSpaceOnUse" gradientTransform="translate(960.173 655.536) rotate(-64.6162) scale(1879.29 1879.28)">
<stop stop-color="#EB4DA7"/>
<stop offset="0.5464" stop-color="#FFC87F"/>
<stop offset="1" stop-color="#FFFDBC"/>
</radialGradient>
<radialGradient id="paint6_radial" cx="0" cy="0" r="1" gradientUnits="userSpaceOnUse" gradientTransform="translate(960.173 655.536) rotate(-64.6161) scale(1879.29 1879.29)">
<stop stop-color="#EB4DA7"/>
<stop offset="0.5464" stop-color="#FFC87F"/>
<stop offset="1" stop-color="#FFFDBC"/>
</radialGradient>
<linearGradient id="paint7_linear" x1="1276.48" y1="1333.65" x2="1276.48" y2="651.579" gradientUnits="userSpaceOnUse">
<stop offset="0.140625" stop-color="#3762C5"/>
<stop offset="1" stop-color="#5689FF" stop-opacity="0.29"/>
</linearGradient>
<radialGradient id="paint8_radial" cx="0" cy="0" r="1" gradientUnits="userSpaceOnUse" gradientTransform="translate(1779.47 127.925) scale(534.242 583.201)">
<stop stop-color="#E20081"/>
<stop offset="0.5464" stop-color="#FFB048"/>
<stop offset="1" stop-color="#FFFC9F"/>
</radialGradient>
<radialGradient id="paint9_radial" cx="0" cy="0" r="1" gradientUnits="userSpaceOnUse" gradientTransform="translate(1608.16 -241.823) scale(934.438 1020.07)">
<stop stop-color="#E20081"/>
<stop offset="0.5464" stop-color="#FFB048"/>
<stop offset="1" stop-color="#FFFC9F"/>
</radialGradient>
<radialGradient id="paint10_radial" cx="0" cy="0" r="1" gradientUnits="userSpaceOnUse" gradientTransform="translate(1846.79 53.0094) rotate(180) scale(557.998 609.135)">
<stop stop-color="#E20081"/>
<stop offset="0.5464" stop-color="#FFB048"/>
<stop offset="1" stop-color="#FFFC9F"/>
</radialGradient>
<radialGradient id="paint11_radial" cx="0" cy="0" r="1" gradientUnits="userSpaceOnUse" gradientTransform="translate(1783.39 124.793) scale(216.516 236.36)">
<stop stop-color="#7929B7"/>
<stop offset="0.00055627" stop-color="#7929B7"/>
<stop offset="0.0501306" stop-color="#7628B5"/>
<stop offset="1" stop-color="#310B7A"/>
</radialGradient>
<radialGradient id="paint12_radial" cx="0" cy="0" r="1" gradientUnits="userSpaceOnUse" gradientTransform="translate(1794.72 100.457) scale(70.448 76.9038)">
<stop stop-color="#E20081"/>
<stop offset="0.5464" stop-color="#FFB048"/>
<stop offset="1" stop-color="#FFFC9F"/>
</radialGradient>
<radialGradient id="paint13_radial" cx="0" cy="0" r="1" gradientUnits="userSpaceOnUse" gradientTransform="translate(2492.73 1323.02) scale(118.622)">
<stop stop-color="#7929B7"/>
<stop offset="0.00055627" stop-color="#7929B7"/>
<stop offset="0.0501306" stop-color="#7628B5"/>
<stop offset="1" stop-color="#310B7A"/>
</radialGradient>
<linearGradient id="paint14_linear" x1="2738.24" y1="485.492" x2="2652.87" y2="513.53" gradientUnits="userSpaceOnUse">
<stop stop-color="#FFFAC0"/>
<stop offset="0.54393" stop-color="#FFC880"/>
<stop offset="1" stop-color="#EF6262"/>
</linearGradient>
<linearGradient id="paint15_linear" x1="2580.54" y1="511.503" x2="2603.2" y2="677.918" gradientUnits="userSpaceOnUse">
<stop stop-color="#FFE75C"/>
<stop offset="1" stop-color="#FF2A00"/>
</linearGradient>
<radialGradient id="paint16_radial" cx="0" cy="0" r="1" gradientUnits="userSpaceOnUse" gradientTransform="translate(2718.11 924.502) scale(323.64 323.64)">
<stop stop-color="#7929B7"/>
<stop offset="0.00055627" stop-color="#7929B7"/>
<stop offset="0.0501306" stop-color="#7628B5"/>
<stop offset="1" stop-color="#310B7A"/>
</radialGradient>
<linearGradient id="paint17_linear" x1="2687.49" y1="391.73" x2="2568.94" y2="447.199" gradientUnits="userSpaceOnUse">
<stop stop-color="#FFFAC0"/>
<stop offset="0.54393" stop-color="#FFC880"/>
<stop offset="1" stop-color="#EF6262"/>
</linearGradient>
<radialGradient id="paint18_radial" cx="0" cy="0" r="1" gradientUnits="userSpaceOnUse" gradientTransform="translate(2471.4 399.461) scale(370.712 370.71)">
<stop stop-color="#7929B7"/>
<stop offset="0.00055627" stop-color="#7929B7"/>
<stop offset="0.0501306" stop-color="#7628B5"/>
<stop offset="1" stop-color="#310B7A"/>
</radialGradient>
<radialGradient id="paint19_radial" cx="0" cy="0" r="1" gradientUnits="userSpaceOnUse" gradientTransform="translate(2579.5 1321.66) scale(219.639)">
<stop stop-color="#7929B7"/>
<stop offset="0.00055627" stop-color="#7929B7"/>
<stop offset="0.0501306" stop-color="#7628B5"/>
<stop offset="1" stop-color="#310B7A"/>
</radialGradient>
<linearGradient id="paint20_linear" x1="1391.65" y1="1193.99" x2="1587.38" y2="1137.42" gradientUnits="userSpaceOnUse">
<stop stop-color="#D68C5A"/>
<stop offset="1" stop-color="#FFC87F"/>
</linearGradient>
<linearGradient id="paint21_linear" x1="1371.62" y1="1194.66" x2="1565.79" y2="1138.59" gradientUnits="userSpaceOnUse">
<stop stop-color="#D68C5A"/>
<stop offset="1" stop-color="#FFC87F"/>
</linearGradient>
<linearGradient id="paint22_linear" x1="676.307" y1="476.682" x2="852.011" y2="52.9255" gradientUnits="userSpaceOnUse">
<stop stop-color="#352B59"/>
<stop offset="0.00124448" stop-color="#352B59"/>
<stop offset="0.994488" stop-color="#352C59"/>
<stop offset="1" stop-color="#352C59"/>
</linearGradient>
<linearGradient id="paint23_linear" x1="1230.72" y1="245.506" x2="1321.07" y2="27.6059" gradientUnits="userSpaceOnUse">
<stop stop-color="#352B59"/>
<stop offset="0.00124448" stop-color="#352B59"/>
<stop offset="0.994488" stop-color="#352C59"/>
<stop offset="1" stop-color="#352C59"/>
</linearGradient>
<linearGradient id="paint24_linear" x1="3803.89" y1="19.4063" x2="4016.39" y2="-493.111" gradientUnits="userSpaceOnUse">
<stop stop-color="#352B59"/>
<stop offset="0.00124448" stop-color="#352B59"/>
<stop offset="0.994488" stop-color="#352C59"/>
<stop offset="1" stop-color="#352C59"/>
</linearGradient>
<radialGradient id="paint25_radial" cx="0" cy="0" r="1" gradientUnits="userSpaceOnUse" gradientTransform="translate(-121.508 1058.73) scale(1903.73)">
<stop stop-color="#1C4DB4"/>
<stop offset="0.549804" stop-color="#471FE0"/>
<stop offset="1" stop-color="#1A095B"/>
</radialGradient>
<radialGradient id="paint26_radial" cx="0" cy="0" r="1" gradientUnits="userSpaceOnUse" gradientTransform="translate(898.581 -639.953) scale(5853.14)">
<stop stop-color="#1B4BC7"/>
<stop offset="0.549804" stop-color="#360FCC"/>
<stop offset="1" stop-color="#18085A"/>
</radialGradient>
<radialGradient id="paint27_radial" cx="0" cy="0" r="1" gradientUnits="userSpaceOnUse" gradientTransform="translate(1272.97 1259.07) rotate(-58.761) scale(2009.31)">
<stop stop-color="#E20081"/>
<stop offset="0.5464" stop-color="#FFB048"/>
<stop offset="1" stop-color="#FFFC9F"/>
</radialGradient>
<radialGradient id="paint28_radial" cx="0" cy="0" r="1" gradientUnits="userSpaceOnUse" gradientTransform="translate(664.547 1300.55) rotate(-58.7611) scale(1554.93)">
<stop stop-color="#EA3968"/>
<stop offset="0.5464" stop-color="#FF9793"/>
<stop offset="1" stop-color="#F9B564"/>
</radialGradient>
<radialGradient id="paint29_radial" cx="0" cy="0" r="1" gradientUnits="userSpaceOnUse" gradientTransform="translate(1524.72 1241.93) rotate(-58.761) scale(1961.55)">
<stop stop-color="#E20081"/>
<stop offset="0.5464" stop-color="#FFB048"/>
<stop offset="1" stop-color="#FFFC9F"/>
</radialGradient>
<radialGradient id="paint30_radial" cx="0" cy="0" r="1" gradientUnits="userSpaceOnUse" gradientTransform="translate(737.388 549.587) rotate(-46.0696) scale(1022.37)">
<stop stop-color="#4B89CB"/>
<stop offset="0.145733" stop-color="#72B5FF"/>
<stop offset="0.145833" stop-color="#4E9BD5"/>
<stop offset="0.328125" stop-color="#4B88CB"/>
<stop offset="0.838542" stop-color="#72B5FF"/>
<stop offset="1" stop-color="#4FA4D9"/>
</radialGradient>
<radialGradient id="paint31_radial" cx="0" cy="0" r="1" gradientUnits="userSpaceOnUse" gradientTransform="translate(960.173 655.536) rotate(-64.6162) scale(1879.29 1879.28)">
<stop stop-color="#EB4DA7"/>
<stop offset="0.5464" stop-color="#FFC87F"/>
<stop offset="1" stop-color="#FFFDBC"/>
</radialGradient>
<radialGradient id="paint32_radial" cx="0" cy="0" r="1" gradientUnits="userSpaceOnUse" gradientTransform="translate(960.173 655.536) rotate(-64.6161) scale(1879.29 1879.29)">
<stop stop-color="#EB4DA7"/>
<stop offset="0.5464" stop-color="#FFC87F"/>
<stop offset="1" stop-color="#FFFDBC"/>
</radialGradient>
<linearGradient id="paint33_linear" x1="1276.48" y1="1333.65" x2="1276.48" y2="651.579" gradientUnits="userSpaceOnUse">
<stop offset="0.140625" stop-color="#3762C5"/>
<stop offset="1" stop-color="#5689FF" stop-opacity="0.29"/>
</linearGradient>
<radialGradient id="paint34_radial" cx="0" cy="0" r="1" gradientUnits="userSpaceOnUse" gradientTransform="translate(1779.47 127.925) scale(534.242 583.201)">
<stop stop-color="#E20081"/>
<stop offset="0.5464" stop-color="#FFB048"/>
<stop offset="1" stop-color="#FFFC9F"/>
</radialGradient>
<radialGradient id="paint35_radial" cx="0" cy="0" r="1" gradientUnits="userSpaceOnUse" gradientTransform="translate(1608.16 -241.823) scale(934.438 1020.07)">
<stop stop-color="#E20081"/>
<stop offset="0.5464" stop-color="#FFB048"/>
<stop offset="1" stop-color="#FFFC9F"/>
</radialGradient>
<radialGradient id="paint36_radial" cx="0" cy="0" r="1" gradientUnits="userSpaceOnUse" gradientTransform="translate(1846.79 53.0094) rotate(180) scale(557.998 609.135)">
<stop stop-color="#E20081"/>
<stop offset="0.5464" stop-color="#FFB048"/>
<stop offset="1" stop-color="#FFFC9F"/>
</radialGradient>
<radialGradient id="paint37_radial" cx="0" cy="0" r="1" gradientUnits="userSpaceOnUse" gradientTransform="translate(1783.39 124.793) scale(216.516 236.36)">
<stop stop-color="#7929B7"/>
<stop offset="0.00055627" stop-color="#7929B7"/>
<stop offset="0.0501306" stop-color="#7628B5"/>
<stop offset="1" stop-color="#310B7A"/>
</radialGradient>
<radialGradient id="paint38_radial" cx="0" cy="0" r="1" gradientUnits="userSpaceOnUse" gradientTransform="translate(1794.72 100.457) scale(70.448 76.9038)">
<stop stop-color="#E20081"/>
<stop offset="0.5464" stop-color="#FFB048"/>
<stop offset="1" stop-color="#FFFC9F"/>
</radialGradient>
<radialGradient id="paint39_radial" cx="0" cy="0" r="1" gradientUnits="userSpaceOnUse" gradientTransform="translate(2492.73 1323.02) scale(118.622)">
<stop stop-color="#7929B7"/>
<stop offset="0.00055627" stop-color="#7929B7"/>
<stop offset="0.0501306" stop-color="#7628B5"/>
<stop offset="1" stop-color="#310B7A"/>
</radialGradient>
<linearGradient id="paint40_linear" x1="2738.24" y1="485.492" x2="2652.87" y2="513.53" gradientUnits="userSpaceOnUse">
<stop stop-color="#FFFAC0"/>
<stop offset="0.54393" stop-color="#FFC880"/>
<stop offset="1" stop-color="#EF6262"/>
</linearGradient>
<linearGradient id="paint41_linear" x1="2580.54" y1="511.503" x2="2603.2" y2="677.918" gradientUnits="userSpaceOnUse">
<stop stop-color="#FFE75C"/>
<stop offset="1" stop-color="#FF2A00"/>
</linearGradient>
<radialGradient id="paint42_radial" cx="0" cy="0" r="1" gradientUnits="userSpaceOnUse" gradientTransform="translate(2718.11 924.502) scale(323.64 323.64)">
<stop stop-color="#7929B7"/>
<stop offset="0.00055627" stop-color="#7929B7"/>
<stop offset="0.0501306" stop-color="#7628B5"/>
<stop offset="1" stop-color="#310B7A"/>
</radialGradient>
<linearGradient id="paint43_linear" x1="2687.49" y1="391.73" x2="2568.94" y2="447.199" gradientUnits="userSpaceOnUse">
<stop stop-color="#FFFAC0"/>
<stop offset="0.54393" stop-color="#FFC880"/>
<stop offset="1" stop-color="#EF6262"/>
</linearGradient>
<radialGradient id="paint44_radial" cx="0" cy="0" r="1" gradientUnits="userSpaceOnUse" gradientTransform="translate(2471.4 399.461) scale(370.712 370.71)">
<stop stop-color="#7929B7"/>
<stop offset="0.00055627" stop-color="#7929B7"/>
<stop offset="0.0501306" stop-color="#7628B5"/>
<stop offset="1" stop-color="#310B7A"/>
</radialGradient>
<radialGradient id="paint45_radial" cx="0" cy="0" r="1" gradientUnits="userSpaceOnUse" gradientTransform="translate(2579.5 1321.66) scale(219.639)">
<stop stop-color="#7929B7"/>
<stop offset="0.00055627" stop-color="#7929B7"/>
<stop offset="0.0501306" stop-color="#7628B5"/>
<stop offset="1" stop-color="#310B7A"/>
</radialGradient>
<linearGradient id="paint46_linear" x1="1391.65" y1="1193.99" x2="1587.38" y2="1137.42" gradientUnits="userSpaceOnUse">
<stop stop-color="#D68C5A"/>
<stop offset="1" stop-color="#FFC87F"/>
</linearGradient>
<linearGradient id="paint47_linear" x1="1371.62" y1="1194.66" x2="1565.79" y2="1138.59" gradientUnits="userSpaceOnUse">
<stop stop-color="#D68C5A"/>
<stop offset="1" stop-color="#FFC87F"/>
</linearGradient>
<linearGradient id="paint48_linear" x1="676.307" y1="476.682" x2="852.011" y2="52.9255" gradientUnits="userSpaceOnUse">
<stop stop-color="#352B59"/>
<stop offset="0.00124448" stop-color="#352B59"/>
<stop offset="0.994488" stop-color="#352C59"/>
<stop offset="1" stop-color="#352C59"/>
</linearGradient>
<linearGradient id="paint49_linear" x1="1230.72" y1="245.506" x2="1321.07" y2="27.6059" gradientUnits="userSpaceOnUse">
<stop stop-color="#352B59"/>
<stop offset="0.00124448" stop-color="#352B59"/>
<stop offset="0.994488" stop-color="#352C59"/>
<stop offset="1" stop-color="#352C59"/>
</linearGradient>
<linearGradient id="paint50_linear" x1="3803.89" y1="19.4063" x2="4016.39" y2="-493.111" gradientUnits="userSpaceOnUse">
<stop stop-color="#352B59"/>
<stop offset="0.00124448" stop-color="#352B59"/>
<stop offset="0.994488" stop-color="#352C59"/>
<stop offset="1" stop-color="#352C59"/>
</linearGradient>
<radialGradient id="paint51_radial" cx="0" cy="0" r="1" gradientUnits="userSpaceOnUse" gradientTransform="translate(-121.508 1058.73) scale(1903.73)">
<stop stop-color="#282DDD"/>
<stop offset="0.549804" stop-color="#2B14DA"/>
<stop offset="1" stop-color="#1A095B"/>
</radialGradient>
<linearGradient id="paint52_linear" x1="713.19" y1="1722.75" x2="687.366" y2="1467.51" gradientUnits="userSpaceOnUse">
<stop stop-color="#2E1698"/>
<stop offset="0.00030048" stop-color="#4460B5"/>
<stop offset="0.692708" stop-color="#67BAE1"/>
<stop offset="0.990905" stop-color="#68BCE2"/>
</linearGradient>
<linearGradient id="paint53_linear" x1="627.545" y1="1344.4" x2="765.667" y2="1639.99" gradientUnits="userSpaceOnUse">
<stop stop-color="#4259B1"/>
<stop offset="0.00034055" stop-color="#4259B1"/>
<stop offset="0.999239" stop-color="#4566BA"/>
<stop offset="1" stop-color="#4566BA"/>
</linearGradient>
<linearGradient id="paint54_linear" x1="936.19" y1="1767.75" x2="910.366" y2="1512.51" gradientUnits="userSpaceOnUse">
<stop stop-color="#2D1597"/>
<stop offset="0.00030048" stop-color="#4460B5"/>
<stop offset="0.838542" stop-color="#66B6E0"/>
<stop offset="0.990905" stop-color="#66B8E1"/>
</linearGradient>
<linearGradient id="paint55_linear" x1="850.545" y1="1389.4" x2="988.667" y2="1684.99" gradientUnits="userSpaceOnUse">
<stop stop-color="#4259B1"/>
<stop offset="0.00034055" stop-color="#4259B1"/>
<stop offset="0.999239" stop-color="#4566BA"/>
<stop offset="1" stop-color="#4566BA"/>
</linearGradient>
<linearGradient id="paint56_linear" x1="1144" y1="1289.06" x2="1144" y2="1577.06" gradientUnits="userSpaceOnUse">
<stop stop-color="#1645B1"/>
<stop offset="1" stop-color="#5294CA"/>
</linearGradient>
<linearGradient id="paint57_linear" x1="1743.28" y1="1020.22" x2="1703.33" y2="1436.46" gradientUnits="userSpaceOnUse">
<stop stop-color="#50A9DC"/>
<stop offset="0.00034055" stop-color="#4259B1"/>
<stop offset="0.734375" stop-color="#71B4FF"/>
<stop offset="0.997817" stop-color="#71B4FF"/>
</linearGradient>
<linearGradient id="paint58_linear" x1="1886.86" y1="1109.41" x2="1797.41" y2="1433.4" gradientUnits="userSpaceOnUse">
<stop stop-color="#71B4FF"/>
<stop offset="0.00034055" stop-color="#4259B1"/>
<stop offset="0.651042" stop-color="#50A9DC"/>
<stop offset="0.999239" stop-color="#71B4FF"/>
</linearGradient>
<linearGradient id="paint59_linear" x1="1920.68" y1="1313.8" x2="1681.88" y2="1662.78" gradientUnits="userSpaceOnUse">
<stop stop-color="#4A85C9"/>
<stop offset="0.692708" stop-color="#72B5FF"/>
<stop offset="0.99365" stop-color="white"/>
</linearGradient>
<linearGradient id="paint60_linear" x1="2107.27" y1="1318.27" x2="1854.08" y2="1561.12" gradientUnits="userSpaceOnUse">
<stop stop-color="#4B8ACC"/>
<stop offset="0.869792" stop-color="#6DADF9"/>
<stop offset="0.99365" stop-color="#72B5FF"/>
</linearGradient>
</defs>
</svg>
