<svg width="3600" height="2267" viewBox="0 0 3600 2267" fill="none" xmlns="http://www.w3.org/2000/svg">
<g clip-path="url(#clip0)">
<path d="M3655 2266.67H55V-0.000488281H3655V2266.67Z" fill="#17006E"/>
<path d="M3325.84 1851.8H2593.06C2595.77 1846.2 2597.3 1839.93 2597.3 1833.31V1491.97H2339.97C2327.32 1491.97 2317.06 1502.23 2317.06 1514.89V1545.61L2281.9 1545.76L2271.66 1545.8L2262.97 1545.84L2258.42 1545.85L2249.77 1545.89V1092.59C2249.77 1043.56 2209.67 1003.45 2160.64 1003.45H2144.52C2118.42 928.033 2245.15 865.56 2371.81 865.56C2507.76 865.56 2643.68 937.524 2590.58 1142.69C2540.72 1335.52 2557.73 1386.93 2602.88 1386.93C2650.83 1386.93 2730.48 1329 2795.44 1320.84C2806 1319.5 2816.99 1318.85 2828.23 1318.85C2951.05 1318.85 3104.54 1397.78 3092.49 1545.51C3082.48 1668.27 3102.97 1709.83 3177.14 1709.83C3200.39 1709.83 3228.88 1705.75 3263.4 1698.81C3276.64 1696.14 3288.79 1694.92 3299.84 1694.92C3409.51 1694.92 3412.43 1815.51 3325.84 1851.8V1851.8ZM1616.35 1851.8H1616.16C1616.24 1851.79 1616.32 1851.76 1616.42 1851.75L1616.35 1851.8V1851.8ZM1392.38 1764.73C1404.51 1744.91 1421.05 1725.24 1443.48 1710.12C1471.26 1715.52 1488.3 1723.97 1473.29 1739.05C1472.83 1739.52 1472.38 1740 1471.92 1740.48C1452.87 1741.09 1431.78 1746.16 1409.16 1757.26C1403.19 1760.2 1397.62 1762.68 1392.38 1764.73V1764.73ZM1802.7 1395.42C1775.62 1367.88 1747.31 1344.83 1720.67 1325.92C1741.1 1300.13 1769.44 1278.1 1802.7 1263.12V1395.42Z" fill="url(#paint0_radial)"/>
<path d="M1665.24 1683.96H1603.69L1578.71 1581.93C1577.99 1578.97 1575.28 1576.96 1572.35 1576.96C1571.84 1576.96 1571.33 1577.03 1570.81 1577.15C1567.35 1578 1565.19 1581.56 1566.04 1585.03L1588.77 1677.83L1499.2 1623.49L1493.36 1599.63L1473.39 1518.05C1472.64 1515.08 1469.96 1513.08 1467.01 1513.08C1466.51 1513.08 1466 1513.13 1465.48 1513.27C1463.73 1513.67 1462.32 1514.79 1461.45 1516.21C1460.59 1517.64 1460.25 1519.41 1460.71 1521.15L1477.59 1590.09L1480.68 1602.76L1483.43 1613.93L1352.89 1534.76C1351.84 1534.12 1350.68 1533.83 1349.53 1533.83C1347.31 1533.83 1345.15 1534.95 1343.93 1536.95L1343.92 1536.96L1185.52 1440.89C1185.52 1440.89 1213.18 1395.28 1251.54 1395.28C1255.2 1395.28 1258.97 1395.69 1262.82 1396.61C1300.18 1405.48 1364.35 1508.91 1390.17 1508.91C1394.81 1508.91 1398.23 1505.56 1400.01 1497.72C1406.33 1469.85 1426.72 1453.39 1449.57 1453.39C1468.96 1453.39 1490.12 1465.23 1505.97 1492.01C1518.33 1512.89 1527.35 1519.05 1536.59 1519.05C1543.23 1519.05 1549.97 1515.88 1558.17 1512.72C1566.36 1509.56 1576 1506.4 1588.41 1506.4C1590.49 1506.4 1592.65 1506.48 1594.89 1506.68C1598.88 1526.89 1604.11 1547.52 1610.89 1568.23C1611.11 1568.92 1611.33 1569.6 1611.57 1570.29C1615.63 1582.52 1620.21 1594.75 1625.41 1606.93C1637.17 1634.57 1650.6 1660.28 1665.24 1683.96" fill="url(#paint1_radial)"/>
<path d="M1569.65 1857.21C1557.81 1857.21 1545.81 1856.15 1533.84 1853.87C1530.57 1853.24 1527.43 1852.56 1524.4 1851.8H1558.57C1581.81 1833.6 1577.47 1799.08 1553.99 1773.27L1588.57 1764.79V1794.88H1672.05L1616.41 1851.75C1616.32 1851.76 1616.24 1851.79 1616.16 1851.8C1601.23 1855.28 1585.57 1857.21 1569.65 1857.21V1857.21ZM1542.56 1762.64C1525.83 1749.45 1503.07 1740.41 1475.93 1740.41C1474.61 1740.41 1473.27 1740.43 1471.92 1740.48C1472.37 1740 1472.83 1739.52 1473.29 1739.05C1488.29 1723.97 1471.25 1715.52 1443.48 1710.12C1409.56 1703.53 1359.61 1701.51 1332.48 1697.57C1283.13 1690.43 1270.95 1632.57 1291.88 1606.24C1312.82 1579.89 1222.81 1594.75 1179.84 1548.85C1136.86 1502.96 1185.52 1440.89 1185.52 1440.89L1343.92 1536.96C1343 1538.49 1342.79 1540.27 1343.19 1541.89C1343.57 1543.51 1344.6 1544.99 1346.12 1545.92L1435.8 1600.31L1342.57 1623.15C1339.09 1624 1336.95 1627.55 1337.79 1631.03C1338.51 1634 1341.19 1636 1344.12 1636C1344.64 1636 1345.16 1635.95 1345.67 1635.81L1451.56 1609.87L1588.57 1692.96V1751.37L1542.56 1762.64" fill="url(#paint2_radial)"/>
<path d="M1553.99 1773.27C1550.57 1769.51 1546.76 1765.95 1542.56 1762.64L1588.57 1751.37V1764.79L1553.99 1773.27ZM1588.57 1692.96L1451.56 1609.87L1345.67 1635.81C1345.16 1635.95 1344.64 1636 1344.12 1636C1341.19 1636 1338.51 1634 1337.79 1631.03C1336.95 1627.55 1339.09 1624 1342.57 1623.15L1435.8 1600.31L1346.12 1545.92C1344.6 1544.99 1343.57 1543.51 1343.19 1541.89C1342.79 1540.27 1343 1538.49 1343.92 1536.96L1343.93 1536.95C1345.15 1534.95 1347.31 1533.83 1349.53 1533.83C1350.68 1533.83 1351.84 1534.12 1352.89 1534.76L1483.43 1613.93L1480.68 1602.76L1477.59 1590.09L1460.71 1521.15C1460.25 1519.41 1460.59 1517.64 1461.45 1516.21C1462.32 1514.79 1463.73 1513.67 1465.48 1513.27C1466 1513.13 1466.51 1513.08 1467.01 1513.08C1469.96 1513.08 1472.64 1515.08 1473.39 1518.05L1493.36 1599.63L1499.2 1623.49L1588.77 1677.83L1566.04 1585.03C1565.19 1581.56 1567.35 1578 1570.81 1577.15C1571.33 1577.03 1571.84 1576.96 1572.35 1576.96C1575.28 1576.96 1577.99 1578.97 1578.71 1581.93L1603.69 1683.96H1588.57V1692.96" fill="url(#paint3_radial)"/>
<path d="M1546.48 1163L1872.19 1782.7C1803.25 1780.81 1705.64 1721.89 1631.47 1615.57C1630.92 1614.82 1630.39 1614.05 1629.88 1613.29C1609.23 1583.4 1590.44 1549.8 1574.67 1512.72C1569.47 1500.53 1564.88 1488.3 1560.83 1476.08C1560.59 1475.38 1560.36 1474.7 1560.15 1474.01C1545.23 1428.42 1537.79 1383.24 1534.75 1342.05C1534.69 1341.4 1534.64 1340.74 1534.6 1340.09C1527.47 1239.45 1546.48 1163 1546.48 1163Z" fill="url(#paint4_radial)"/>
<path d="M1705.19 1462.63L1585.49 1436.27C1585.44 1435.61 1585.39 1434.96 1585.35 1434.31L1704.03 1460.44L1705 1462.27L1705.19 1462.63" fill="#E0E0E0"/>
<path d="M1781.43 1607.69L1611.57 1570.29C1611.33 1569.6 1611.11 1568.92 1610.89 1568.23L1780.28 1605.51L1781.43 1607.69Z" fill="#E0E0E0"/>
<path d="M1857.35 1455.65C1857.72 1456.42 1858.08 1457.21 1858.43 1457.98V1458.01C1888.59 1522.3 1903.61 1585.98 1906.69 1642.09C1906.77 1643.58 1906.85 1645.06 1906.91 1646.56C1909.6 1707.2 1898.17 1758.62 1876.71 1791.7L1551 1172C1551 1172 1603.31 1191.65 1666.93 1235.46C1667.47 1235.82 1667.99 1236.18 1668.52 1236.54C1701.91 1259.69 1738.31 1289.46 1771.83 1326.49C1772.29 1327.02 1772.77 1327.53 1773.23 1328.06C1790.96 1347.81 1807.87 1369.61 1823.05 1393.54C1836.12 1414.14 1847.51 1434.93 1857.35 1455.65" fill="#72B5FF"/>
<path d="M1678.28 1411.44L1677.67 1410.29L1677.13 1409.25L1713.16 1320.68C1713.69 1321.04 1714.21 1321.4 1714.75 1321.76L1678.28 1411.44Z" fill="url(#paint5_radial)"/>
<path d="M1758.28 1563.65L1757.13 1561.48L1802.69 1449.49V1454.49L1758.28 1563.65Z" fill="url(#paint6_radial)"/>
<path d="M2493.66 1773H1871.34C1757.83 1773 1665 1737.18 1665 1693.42V1074.57C1665 1030.8 1757.83 994.997 1871.34 994.997H2493.66C2607.14 994.997 2700 1030.8 2700 1074.57V1693.42C2700 1737.18 2607.14 1773 2493.66 1773Z" fill="#110052"/>
<path d="M2469.6 1718.65H1895.38C1790.25 1718.65 1704.2 1688.43 1704.2 1651.48V1103.75C1704.2 1066.8 1790.25 1036.58 1895.38 1036.58H2469.6C2574.74 1036.58 2660.75 1066.8 2660.75 1103.75V1651.48C2660.75 1688.43 2574.74 1718.65 2469.6 1718.65Z" fill="url(#paint7_linear)"/>
<path d="M2397.71 662.419L2388.05 635.14L2389.4 634.563L2399.05 661.857L2397.71 662.419Z" fill="white"/>
<path d="M2409.63 662.412L2419.29 635.127L2417.93 634.561L2408.27 661.846L2409.63 662.412Z" fill="white"/>
<path d="M2403.1 662.133H2404.55V637.696H2403.1V662.133Z" fill="white"/>
<path d="M2407.92 385.822V637.701H2388.6C2388.6 637.701 2287.17 529.265 2311.33 453.314C2325.3 409.358 2355.47 393.687 2378.4 388.27H2378.42C2385.67 386.549 2392.23 385.866 2397.29 385.644C2403.84 385.347 2407.92 385.822 2407.92 385.822Z" fill="white"/>
<path d="M2393.16 637.705H2388.59C2388.59 637.705 2287.16 529.267 2311.3 453.322C2325.3 409.369 2355.46 393.69 2378.38 388.292C2295.27 480.107 2393.16 637.705 2393.16 637.705Z" fill="url(#paint8_radial)"/>
<path d="M2399.71 385.813V637.688H2419.03C2419.03 637.688 2520.48 529.253 2496.33 453.309C2482.35 409.358 2452.17 393.672 2429.25 388.267H2429.23C2421.95 386.543 2415.43 385.86 2410.35 385.642C2403.81 385.347 2399.71 385.813 2399.71 385.813Z" fill="white"/>
<path d="M2410.32 385.645C2407.75 385.525 2405.53 385.54 2403.81 385.585C2402.09 385.54 2399.89 385.525 2397.28 385.645C2354.78 475.096 2397.28 637.695 2397.28 637.695H2399.71H2407.91H2410.32C2410.32 637.695 2452.84 475.096 2410.32 385.645Z" fill="url(#paint9_radial)"/>
<path d="M2414.46 637.691H2419.02C2419.02 637.691 2520.47 529.253 2496.32 453.32C2482.34 409.369 2452.16 393.686 2429.23 388.279C2512.36 480.095 2414.46 637.691 2414.46 637.691Z" fill="url(#paint10_radial)"/>
<path d="M2413.77 669.484H2393.86V655.724H2413.77V669.484Z" fill="url(#paint11_radial)"/>
<path d="M2414.46 673.732H2393.17V662.141H2414.46V673.732Z" fill="url(#paint12_radial)"/>
<path d="M2747.3 1838.65C2747.3 1838.65 2745.62 1861.71 2700.27 1864.24V1871.45H2761.74L2772.07 1860.85V1871.45H2782.99L2780.03 1841.15L2747.3 1838.65" fill="url(#paint13_radial)"/>
<path d="M2707.63 1229.3L2590.67 1185.02C2590.67 1185.02 2663.34 1184.22 2721.81 1118.43L2718.55 1107.8C2718.55 1107.8 2536.03 1133.03 2544.63 1190.43C2553.2 1247.83 2685.27 1297.28 2685.27 1297.28C2685.27 1297.28 2708.28 1263.78 2707.63 1229.3Z" fill="#FCFCFF"/>
<path d="M2666.83 1473.77C2666.83 1473.77 2651.65 1684.22 2744.32 1841.53L2778.17 1840.93C2778.17 1840.93 2789.25 1716.99 2725.69 1671.23L2734.87 1573.33C2734.87 1573.33 2729.65 1395.18 2666.83 1473.77Z" fill="#031A44"/>
<path d="M2677.64 1343.9C2672.55 1379.94 2669.87 1410.26 2669.87 1410.26C2669.87 1410.26 2688 1442.8 2689.34 1443.48C2690.68 1444.16 2705.3 1429.79 2705.3 1429.79L2717.99 1452.87L2766.95 1448.7C2766.95 1448.7 2766.39 1435.55 2766.65 1413.34C2767.19 1364.48 2829.83 1271.42 2829.83 1271.42C2813.08 1256.46 2777.09 1239.15 2777.09 1239.15L2745.61 1234.31L2707.64 1229.29L2707.62 1229.3C2702.6 1234.66 2698.04 1245.74 2693.94 1259.91V1259.91C2689.9 1273.84 2686.34 1290.75 2683.27 1308.14C2681.15 1320.11 2679.26 1332.3 2677.64 1343.9" fill="#FCFCFF"/>
<path d="M2783.56 1193.63L2782.59 1244.7L2751.14 1243.08L2745.62 1234.31C2745.62 1234.31 2756.3 1204.44 2755.93 1184.08C2755.57 1163.71 2785.11 1164.83 2783.56 1193.63Z" fill="#FFB8B8"/>
<path d="M2781.31 1179.55L2763.81 1206.06L2742.11 1194.82L2767.03 1146.79C2767.03 1146.79 2798.84 1153.04 2781.31 1179.55" fill="#FFB8B8"/>
<path d="M2777.63 1183.47C2777.63 1183.47 2778.71 1173.17 2786.03 1161C2786.03 1161 2759.33 1149.64 2759.83 1141.69C2760.31 1133.73 2768.99 1126.09 2774.24 1132.86C2779.49 1139.64 2772.21 1143.54 2784.17 1149.34C2796.13 1155.14 2791.19 1161.07 2791.19 1161.07C2791.19 1161.07 2797.1 1166.56 2793.12 1174.21C2789.16 1181.86 2783.46 1198.2 2783.46 1198.2L2777.63 1183.47Z" fill="#4821DB"/>
<path d="M2776.19 1187.31L2783.24 1176.1C2783.24 1176.1 2786.46 1176.41 2785.21 1181.69C2783.96 1186.98 2778.14 1189.99 2776.19 1187.31Z" fill="url(#paint14_linear)"/>
<path d="M2751.15 1243.08L2758.84 1265.03L2782.58 1244.7L2751.15 1243.08Z" fill="#C4C5D1"/>
<path d="M2751.16 1243.08L2734.87 1246.29L2745.63 1234.31L2751.16 1243.08" fill="#C4C5D1"/>
<path d="M2751.15 1243.08L2741.95 1248.54L2742.6 1257.24L2745.45 1260.01L2754.46 1252.49L2751.15 1243.08" fill="url(#paint15_linear)"/>
<path d="M2742.62 1257.24C2742.62 1257.24 2661.22 1355 2724.16 1514.22L2741.95 1522.8L2751.16 1509.45C2751.16 1509.45 2674.58 1386.22 2745.45 1260.01L2742.62 1257.24" fill="#ED4567"/>
<path d="M2829.83 1271.42C2829.83 1271.42 2862.1 1415.55 2829.83 1558.8L2809.95 1547.83C2809.95 1547.83 2804.33 1417.67 2786.58 1337.08C2786.58 1337.08 2797.27 1287.94 2829.83 1271.42Z" fill="#FCFCFF"/>
<path d="M2809.94 1547.83C2809.94 1547.83 2802.33 1559.15 2791.29 1563.8C2780.28 1568.47 2784.1 1573.98 2797.24 1568.9C2810.36 1563.8 2809.94 1561.68 2809.94 1561.68C2809.94 1561.68 2802.33 1585.42 2807.83 1584.99C2813.34 1584.56 2813.34 1582.04 2820.1 1585C2826.9 1587.96 2829.83 1585 2829.83 1585V1558.8L2809.94 1547.83" fill="#FFB8B8"/>
<path d="M2809.95 1547.83L2829.84 1558.8L2832.72 1545.13L2809.39 1536.64L2809.95 1547.83Z" fill="url(#paint16_radial)"/>
<path d="M2718.55 1107.8C2718.55 1107.8 2740.88 1103.1 2757.41 1107.8C2773.92 1112.5 2780.37 1118.86 2777.15 1119.7C2773.92 1120.55 2754.45 1114.2 2754.45 1114.2C2754.45 1114.2 2768 1119.7 2764.63 1121.82C2761.22 1123.94 2754.89 1119.28 2743 1118.01C2731.12 1116.74 2721.8 1118.43 2721.8 1118.43L2718.55 1107.8" fill="url(#paint17_linear)"/>
<path d="M2718.54 1107.8L2725.29 1122.37L2713.59 1127.17L2709.53 1109.19L2718.54 1107.8" fill="url(#paint18_radial)"/>
<path d="M2767.58 1845.44C2767.58 1845.44 2765.89 1868.48 2720.55 1871.03V1878.23H2782.02L2792.36 1867.64V1878.23H2803.27L2800.32 1847.93L2767.58 1845.44Z" fill="url(#paint19_radial)"/>
<path d="M2174.33 797.086C2174.33 842.24 2137.73 878.84 2092.58 878.84C2047.42 878.84 2010.82 842.24 2010.82 797.086C2010.82 751.931 2047.42 715.33 2092.58 715.33C2137.73 715.33 2174.33 751.931 2174.33 797.086Z" fill="#EA3968"/>
<path d="M1726.51 1740.76C1726.51 1785.91 1689.91 1822.51 1644.76 1822.51C1599.6 1822.51 1563 1785.91 1563 1740.76C1563 1695.6 1599.6 1659 1644.76 1659C1689.91 1659 1726.51 1695.6 1726.51 1740.76Z" fill="#EA3968"/>
<path d="M3034.3 1128.65C3034.3 1180.82 2992 1223.12 2939.84 1223.12C2887.66 1223.12 2845.36 1180.82 2845.36 1128.65C2845.36 1076.47 2887.66 1034.17 2939.84 1034.17C2992 1034.17 3034.3 1076.47 3034.3 1128.65Z" fill="#EA3968"/>
<path d="M1715.46 1120.55C1715.46 1188.4 1660.46 1243.4 1592.61 1243.4C1524.76 1243.4 1469.76 1188.4 1469.76 1120.55C1469.76 1052.7 1524.76 997.696 1592.61 997.696C1660.46 997.696 1715.46 1052.7 1715.46 1120.55" fill="#EA3968"/>
<path d="M2351.08 1545.48L2361.65 1545.44L2351.08 1545.48Z" fill="url(#paint20_linear)"/>
<path d="M2331.8 1545.56L2342.37 1545.51L2331.8 1545.56Z" fill="url(#paint21_linear)"/>
<path d="M1683.99 966.103C1683.99 966.103 1684.04 966.021 1684.13 965.857C1684.8 964.708 1687.87 959.631 1693.23 953.093L1692.2 952.247C1686 959.799 1682.84 965.425 1682.83 965.451L1683.99 966.103ZM1712.21 934.521C1716.21 931.404 1720.65 928.409 1725.49 925.733L1724.84 924.567C1719.93 927.28 1715.45 930.313 1711.39 933.468L1712.21 934.521ZM1750.23 916.461C1755.21 915.421 1760.47 914.795 1766 914.689L1765.97 913.357C1760.36 913.463 1755.01 914.099 1749.96 915.156L1750.23 916.461ZM1792.25 917.988C1794.84 918.673 1797.48 919.473 1800.16 920.395C1802.57 921.223 1804.99 922.085 1807.43 922.973L1807.88 921.721C1805.44 920.829 1803.01 919.965 1800.6 919.133C1797.88 918.201 1795.21 917.392 1792.6 916.699L1792.25 917.988ZM1832.33 932.629C1837.28 934.612 1842.24 936.617 1847.23 938.597L1847.72 937.359C1842.73 935.38 1837.77 933.375 1832.83 931.392L1832.33 932.629ZM1872.24 948.085C1877.35 949.883 1882.44 951.569 1887.52 953.093L1887.89 951.816C1882.84 950.3 1877.77 948.62 1872.69 946.828L1872.24 948.085ZM1913.59 959.261C1918.97 960.133 1924.32 960.712 1929.61 960.931L1929.67 959.597C1924.44 959.383 1919.15 958.809 1913.8 957.945L1913.59 959.261ZM1956.32 958.523C1961.49 957.276 1966.57 955.531 1971.56 953.22L1970.99 952.011C1966.09 954.284 1961.09 955.999 1956 957.225L1956.32 958.523ZM1993.77 938.217C1997.55 934.764 2001.21 930.86 2004.8 926.471L2003.76 925.628C2000.23 929.971 1996.59 933.827 1992.87 937.235L1993.77 938.217ZM2019.72 904.211C2020.43 902.951 2021.12 901.665 2021.81 900.356L2020.64 899.732C2019.95 901.033 2019.25 902.309 2018.56 903.561L2019.72 904.211" fill="#F2BBFF"/>
<path d="M3007.96 1242.45C3007.96 1242.45 3008.09 1242.79 3008.39 1243.45C3009.23 1245.43 3011.23 1250.29 3013.67 1257.4L3014.94 1256.96C3011.65 1247.44 3009.17 1241.92 3009.17 1241.9L3007.96 1242.45ZM3021.23 1282.99C3022.44 1287.88 3023.62 1293.11 3024.68 1298.62L3025.99 1298.36C3024.92 1292.83 3023.75 1287.58 3022.53 1282.67L3021.23 1282.99ZM3028.49 1325.02C3028.97 1330.22 3029.33 1335.55 3029.49 1340.98L3030.82 1340.94C3030.65 1335.48 3030.32 1330.11 3029.81 1324.88L3028.49 1325.02ZM3028.66 1367.6C3028.15 1372.86 3027.44 1378.14 3026.49 1383.43L3027.82 1383.67C3028.77 1378.34 3029.49 1373.01 3029.98 1367.72L3028.66 1367.6ZM3019.73 1409.15C3018 1414.11 3015.98 1419.04 3013.69 1423.91L3014.88 1424.48C3017.22 1419.56 3019.25 1414.59 3021 1409.59L3019.73 1409.15ZM3000.21 1446.79C2997.17 1451.03 2993.85 1455.18 2990.21 1459.22L2991.22 1460.11C2994.88 1456.03 2998.24 1451.84 3001.3 1447.56L3000.21 1446.79ZM2970.88 1477.4C2966.81 1480.63 2962.52 1483.75 2957.95 1486.75L2958.66 1487.87C2963.27 1484.84 2967.61 1481.7 2971.7 1478.44L2970.88 1477.4ZM2934.77 1499.8C2930.1 1502.06 2925.23 1504.2 2920.14 1506.24L2920.62 1507.48C2925.76 1505.43 2930.66 1503.27 2935.35 1501.02L2934.77 1499.8ZM2894.96 1514.94C2892.43 1515.68 2889.85 1516.4 2887.24 1517.09L2887.57 1518.39C2890.21 1517.68 2892.8 1516.96 2895.34 1516.22L2894.96 1514.94Z" fill="#F2BBFF"/>
<path d="M2887.96 1007.27C2887.95 1007.25 2884.37 1001.49 2877.81 994.649L2876.85 995.571C2880.09 998.944 2882.59 1002.05 2884.27 1004.32C2885.12 1005.45 2885.76 1006.37 2886.19 1007C2886.4 1007.32 2886.56 1007.56 2886.67 1007.73C2886.77 1007.9 2886.83 1007.98 2886.83 1007.98L2887.96 1007.27ZM2856.45 978.403C2851.79 976.044 2846.69 974.17 2841.17 973.14L2840.92 974.449C2846.29 975.454 2851.29 977.282 2855.85 979.593L2856.45 978.403ZM2814.48 975.185C2809.78 976.768 2804.93 979.047 2799.91 982.146L2800.62 983.279C2805.53 980.229 2810.32 977.997 2814.9 976.448L2814.48 975.185ZM2779.21 999.181C2778.04 1000.38 2776.86 1001.62 2775.69 1002.92C2773.16 1005.69 2770.64 1008.3 2768.13 1010.74L2769.05 1011.69C2771.58 1009.23 2774.12 1006.61 2776.67 1003.81C2777.84 1002.53 2779.01 1001.3 2780.15 1000.11L2779.21 999.181ZM2747.5 1027.47C2742.8 1030.57 2738.18 1033.17 2733.64 1035.33L2734.21 1036.53C2738.82 1034.34 2743.5 1031.72 2748.23 1028.58L2747.5 1027.47ZM2708.46 1043.44C2703.02 1044.39 2697.82 1044.79 2692.93 1044.79H2692.61V1046.12H2692.93C2697.9 1046.12 2703.18 1045.72 2708.69 1044.76L2708.46 1043.44ZM2666.47 1040.86C2659.53 1038.76 2654.45 1036.31 2651.74 1034.87L2651.12 1036.04C2653.88 1037.52 2659.05 1040 2666.08 1042.13L2666.47 1040.86" fill="#F2BBFF"/>
<path d="M2337.78 833.988C2337.77 833.946 2335.97 827.701 2330.88 819.301L2329.74 819.991C2332.25 824.125 2333.95 827.727 2335 830.29C2335.54 831.571 2335.91 832.594 2336.16 833.293C2336.27 833.642 2336.36 833.91 2336.43 834.09C2336.47 834.27 2336.5 834.355 2336.5 834.356L2337.78 833.988ZM2313.59 798.777C2309.79 795.476 2305.43 792.283 2300.48 789.375L2299.8 790.525C2304.69 793.39 2308.97 796.534 2312.7 799.783L2313.59 798.777ZM2275.65 779.275C2270.75 778.017 2265.46 777.039 2259.81 776.406L2259.67 777.732C2265.26 778.357 2270.48 779.324 2275.32 780.566L2275.65 779.275ZM2233.01 776.013C2227.93 776.38 2222.59 776.996 2217.03 777.88L2217.25 779.197C2222.77 778.317 2228.07 777.707 2233.11 777.341L2233.01 776.013Z" fill="#F2BBFF"/>
<path d="M1859.19 748.254C1869.49 736.387 1875.75 720.907 1875.75 703.947C1875.75 666.667 1845.53 636.427 1808.25 636.427C1845.53 636.427 1875.75 666.667 1875.75 703.947C1875.75 720.907 1869.49 736.387 1859.19 748.254ZM1797.01 637.374C1788.03 571.56 1731.59 520.867 1663.28 520.867C1731.59 520.867 1788.03 571.56 1797.01 637.374ZM1535.81 611.227H1535.8C1533.32 611.001 1530.79 610.907 1528.25 610.907C1530.79 610.907 1533.32 611.001 1535.8 611.227H1535.81Z" fill="url(#paint22_linear)"/>
<path d="M2215.8 617.109C2220.97 611.172 2224.1 603.438 2224.1 594.95C2224.1 576.315 2208.97 561.191 2190.34 561.191C2208.99 561.191 2224.1 576.315 2224.1 594.95C2224.1 603.438 2220.97 611.172 2215.8 617.109ZM2184.73 561.671C2180.23 528.761 2152 503.421 2117.86 503.421C2152 503.421 2180.23 528.761 2184.73 561.671ZM2054.12 548.589H2054.11C2052.87 548.479 2051.61 548.438 2050.34 548.438C2051.61 548.438 2052.87 548.479 2054.12 548.589Z" fill="url(#paint23_linear)"/>
<path d="M2939.83 918.639C2939.83 903.674 2949.47 890.945 2962.85 886.336C2969.03 851.912 2999.12 825.781 3035.33 825.781C3037.35 825.781 3039.35 825.859 3041.32 826.032C3055.93 784.378 3095.56 754.527 3142.21 754.527C3196.27 754.527 3240.93 794.64 3248.04 846.732C3250.94 846.229 3253.89 845.978 3256.93 845.978C3286.43 845.978 3310.35 869.911 3310.35 899.418C3310.35 899.522 3310.35 899.627 3310.35 899.731V899.114C3310.17 869.745 3286.35 845.978 3256.93 845.978C3253.89 845.978 3250.94 846.229 3248.04 846.732C3240.93 794.64 3196.27 754.527 3142.21 754.527C3095.56 754.527 3055.93 784.378 3041.32 826.032C3039.35 825.859 3037.35 825.781 3035.33 825.781C2999.12 825.781 2969.03 851.912 2962.85 886.336C2949.47 890.945 2939.83 903.674 2939.83 918.639Z" fill="url(#paint24_linear)"/>
<path d="M1811.33 1865.65H906C906 1865.65 955.724 1788.07 1065.64 1788.07C1083.94 1788.07 1103.89 1790.21 1125.59 1795.23C1136.83 1797.83 1147.21 1799.03 1156.88 1799.03C1211.06 1799.03 1242.6 1761.52 1275.1 1724.01C1307.6 1686.51 1341.06 1649 1399.06 1649C1412.59 1649 1427.44 1651.04 1443.93 1655.6C1583.32 1694.07 1582.2 1786.65 1643.39 1786.67C1653.4 1786.67 1665.07 1784.19 1679.31 1778.59C1652.92 1821.71 1647.36 1865.65 1647.36 1865.65H1811.33" fill="url(#paint25_radial)"/>
<path d="M2766.96 1448.69C2766.96 1448.69 2802.48 1510.84 2769.98 1646.17C2769.98 1646.17 2813.67 1700.95 2800.96 1847.93L2766.88 1844.63C2766.88 1844.63 2699.33 1599.6 2697.99 1491.72L2666.84 1473.77L2669.88 1410.25L2766.96 1448.69" fill="#000749"/>
<path d="M1527.22 1795.06C1527.22 1768.8 1550.89 1747.52 1580.1 1747.52C1609.31 1747.52 1632.98 1768.8 1632.98 1795.06C1632.98 1821.32 1609.31 1842.6 1580.1 1842.6C1550.89 1842.6 1527.22 1821.32 1527.22 1795.06V1795.06ZM1702.51 1814.59V1776.17H1671.17C1668.87 1767.17 1664.96 1758.73 1659.73 1751.09V1751.09L1682.02 1731.05L1651.81 1703.88L1629.64 1723.81C1621.18 1719.05 1611.82 1715.47 1601.83 1713.34V1685H1559.09V1713.18C1548.84 1715.3 1539.23 1718.93 1530.56 1723.81L1508.39 1703.88L1478.18 1731.05L1500.47 1751.09L1500.47 1751.09C1495.24 1758.73 1491.33 1767.17 1489.03 1776.17H1457.69V1814.59H1489.2C1491.58 1823.58 1495.56 1831.99 1500.86 1839.59L1478.69 1859.53L1508.91 1886.69L1531.2 1866.65H1531.2C1539.7 1871.36 1549.08 1874.87 1559.09 1876.94V1905.12H1601.83V1876.78C1611.56 1874.7 1620.71 1871.24 1629 1866.65H1629L1651.29 1886.69L1681.51 1859.53L1659.34 1839.59C1664.64 1831.99 1668.62 1823.58 1671 1814.59H1702.51" fill="url(#paint26_linear)"/>
<path d="M1518.54 1795.06C1518.54 1768.8 1542.21 1747.52 1571.41 1747.52C1600.62 1747.52 1624.29 1768.8 1624.29 1795.06C1624.29 1821.32 1600.62 1842.6 1571.41 1842.6C1542.21 1842.6 1518.54 1821.32 1518.54 1795.06ZM1693.82 1814.59V1776.17H1662.48C1660.18 1767.17 1656.27 1758.73 1651.04 1751.09V1751.09L1673.33 1731.05L1643.12 1703.88L1620.95 1723.81C1612.49 1719.05 1603.13 1715.47 1593.14 1713.34V1685H1550.41V1713.18C1540.15 1715.3 1530.54 1718.93 1521.87 1723.81L1499.71 1703.88L1469.49 1731.05L1491.78 1751.09V1751.09C1486.55 1758.73 1482.64 1767.17 1480.34 1776.17H1449V1814.59H1480.51C1482.89 1823.58 1486.87 1831.99 1492.17 1839.59L1470 1859.53L1500.22 1886.69L1522.51 1866.65H1522.51C1531.01 1871.36 1540.39 1874.87 1550.41 1876.94V1905.12H1593.14V1876.78C1602.88 1874.7 1612.02 1871.24 1620.31 1866.65H1620.31L1642.6 1886.69L1672.82 1859.53L1650.65 1839.59C1655.95 1831.99 1659.93 1823.58 1662.31 1814.59H1693.82" fill="url(#paint27_linear)"/>
<path d="M1750.22 1840.06C1750.22 1813.8 1773.89 1792.52 1803.1 1792.52C1832.31 1792.52 1855.98 1813.8 1855.98 1840.06C1855.98 1866.32 1832.31 1887.6 1803.1 1887.6C1773.89 1887.6 1750.22 1866.32 1750.22 1840.06V1840.06ZM1925.51 1859.59V1821.17H1894.17C1891.87 1812.17 1887.96 1803.73 1882.73 1796.09V1796.09L1905.02 1776.05L1874.81 1748.88L1852.64 1768.81C1844.18 1764.05 1834.82 1760.47 1824.83 1758.34V1730H1782.09V1758.18C1771.84 1760.3 1762.23 1763.93 1753.56 1768.81L1731.39 1748.88L1701.18 1776.05L1723.47 1796.09L1723.47 1796.09C1718.24 1803.73 1714.33 1812.17 1712.03 1821.17H1680.69V1859.59H1712.2C1714.58 1868.58 1718.56 1876.99 1723.86 1884.59L1701.69 1904.53L1731.91 1931.69L1754.2 1911.65H1754.2C1762.7 1916.36 1772.08 1919.87 1782.09 1921.94V1950.12H1824.83V1921.78C1834.56 1919.7 1843.71 1916.24 1852 1911.65H1852L1874.29 1931.69L1904.51 1904.53L1882.34 1884.59C1887.64 1876.99 1891.62 1868.58 1894 1859.59H1925.51" fill="url(#paint28_linear)"/>
<path d="M1741.54 1840.06C1741.54 1813.8 1765.21 1792.52 1794.41 1792.52C1823.62 1792.52 1847.29 1813.8 1847.29 1840.06C1847.29 1866.32 1823.62 1887.6 1794.41 1887.6C1765.21 1887.6 1741.54 1866.32 1741.54 1840.06ZM1916.82 1859.59V1821.17H1885.48C1883.18 1812.17 1879.27 1803.73 1874.04 1796.09V1796.09L1896.33 1776.05L1866.12 1748.88L1843.95 1768.81C1835.49 1764.05 1826.13 1760.47 1816.14 1758.34V1730H1773.41V1758.18C1763.15 1760.3 1753.54 1763.93 1744.87 1768.81L1722.71 1748.88L1692.49 1776.05L1714.78 1796.09V1796.09C1709.55 1803.73 1705.64 1812.17 1703.34 1821.17H1672V1859.59H1703.51C1705.89 1868.58 1709.87 1876.99 1715.17 1884.59L1693 1904.53L1723.22 1931.69L1745.51 1911.65H1745.51C1754.01 1916.36 1763.39 1919.87 1773.41 1921.94V1950.12H1816.14V1921.78C1825.88 1919.7 1835.02 1916.24 1843.31 1911.65H1843.31L1865.6 1931.69L1895.82 1904.53L1873.65 1884.59C1878.95 1876.99 1882.93 1868.58 1885.31 1859.59H1916.82" fill="url(#paint29_linear)"/>
<path d="M2532.77 1927.97H2295.21V1566.92C2295.21 1554.25 2305.46 1544 2318.12 1544H2575.43V1885.33C2575.43 1908.88 2556.34 1927.97 2532.77 1927.97Z" fill="white"/>
<path d="M2517.11 1679.07H2345.97C2345.91 1679.06 2345.85 1679.03 2345.78 1679.02C2345.45 1678.94 2345.13 1678.84 2344.75 1678.76C2344.44 1678.68 2344.08 1678.62 2343.7 1678.54C2343.35 1678.47 2342.99 1678.4 2342.62 1678.34C2342.26 1678.28 2341.9 1678.22 2341.52 1678.16C2341.16 1678.1 2340.77 1678.04 2340.38 1677.99C2340.1 1677.95 2339.78 1677.91 2339.47 1677.87C2341.73 1677.34 2342.95 1676.79 2342.95 1676.23L2342.92 1669.54H2517.11C2519.35 1669.54 2521.18 1671.36 2521.18 1673.6V1675C2521.18 1677.24 2519.35 1679.07 2517.11 1679.07Z" fill="#5E9FC9"/>
<path d="M2517.11 1707.16H2343.92L2343.91 1705.91C2343.91 1705.88 2343.91 1705.86 2343.91 1705.84C2343.89 1705.8 2343.88 1705.76 2343.86 1705.72C2343.95 1705.71 2344.03 1705.68 2344.13 1705.67C2346.81 1705.1 2348.23 1704.5 2348.23 1703.88L2348.22 1697.62H2517.11C2519.35 1697.62 2521.18 1699.46 2521.18 1701.7V1703.08C2521.18 1705.32 2519.35 1707.16 2517.11 1707.16Z" fill="#5E9FC9"/>
<path d="M2516.25 1731.55H2343.06L2343.05 1730.29C2343.05 1730.27 2343.05 1730.24 2343.05 1730.23C2343.03 1730.19 2343.02 1730.15 2343 1730.11C2343.09 1730.09 2343.17 1730.07 2343.27 1730.05C2345.95 1729.48 2347.37 1728.88 2347.37 1728.27L2347.36 1722H2516.25C2518.49 1722 2520.33 1723.84 2520.33 1726.08V1727.47C2520.33 1729.71 2518.49 1731.55 2516.25 1731.55Z" fill="#5E9FC9"/>
<path d="M2517.11 1783.6H2342.95L2342.9 1774.07H2517.11C2519.35 1774.07 2521.18 1775.9 2521.18 1778.13V1779.54C2521.18 1781.77 2519.35 1783.6 2517.11 1783.6" fill="#5E9FC9"/>
<path d="M2517.11 1811.7H2348.23L2348.2 1802.15H2517.11C2519.35 1802.15 2521.18 1803.98 2521.18 1806.23V1807.62C2521.18 1809.86 2519.35 1811.7 2517.11 1811.7Z" fill="#5E9FC9"/>
<path d="M2448.81 1839.78H2343.27C2343.75 1839.52 2344 1839.27 2344 1839.02L2343.97 1830.23H2448.81C2451.05 1830.23 2452.9 1832.07 2452.9 1834.31V1835.7C2452.9 1837.94 2451.05 1839.78 2448.81 1839.78" fill="#5E9FC9"/>
<rect x="1811" y="1649" width="489" height="336" rx="20" fill="#110052"/>
<rect x="1832" y="1674" width="436" height="288" fill="url(#paint30_linear)"/>
<path d="M2054.63 1664.14C2053.52 1666.52 2050.71 1667.54 2048.36 1666.42C2046 1665.31 2044.99 1662.46 2046.1 1660.09C2047.22 1657.71 2050.04 1656.68 2052.39 1657.8C2054.74 1658.92 2055.74 1661.76 2054.63 1664.14Z" fill="#71B4FB"/>
<path d="M2461.56 1621.53C2453.28 1637.7 2432.18 1644.58 2414.5 1636.92C2396.76 1629.25 2389.16 1609.88 2397.44 1593.71C2405.78 1577.54 2426.87 1570.61 2444.55 1578.28C2462.23 1585.99 2469.84 1605.31 2461.56 1621.53Z" fill="#5E9FC9"/>
<path d="M2205.06 1021.66C2202.26 1027.71 2195.16 1030.3 2189.23 1027.46C2183.28 1024.62 2180.75 1017.4 2183.55 1011.36C2186.37 1005.31 2193.47 1002.7 2199.4 1005.54C2205.33 1008.39 2207.86 1015.6 2205.06 1021.66Z" fill="#1645B1"/>
<path d="M1461 1888C1461.49 1890.57 1461.74 1893.51 1461.74 1896.45C1461.74 1899.39 1461.49 1901.96 1461 1904.89H1475V1888H1461V1888Z" fill="#F6795A"/>
<path d="M1461 1905V1920.7H1474.98V1905H1461Z" fill="#E54897"/>
<path d="M1475.02 1905.46V1921.16H1620.75V1905.46H1475.02Z" fill="#E54897"/>
<path d="M1475.02 1886.13V1889.49V1902.11V1905.47H1620.75L1621 1886.13H1475.02Z" fill="#F6795A"/>
<path d="M1389.75 1943.21C1409.66 1943.21 1427.6 1937.85 1440.62 1929.11C1451.43 1921.78 1459.05 1912.48 1461.26 1901.77C1461.75 1899.79 1462 1897.54 1462 1895.28V1895V1910.79V1911.07C1462 1913.33 1461.75 1915.3 1461.26 1917.56C1459.05 1928.27 1451.68 1937.57 1440.62 1944.9C1427.6 1953.64 1409.41 1959 1389.75 1959C1349.95 1959 1318 1937.57 1318 1911.07V1895.28C1318 1921.78 1349.95 1943.21 1389.75 1943.21Z" fill="#EA3968"/>
<path d="M1318 1895.5C1317.76 1921.76 1349.95 1943 1389.76 1943C1409.66 1943 1427.6 1937.69 1440.62 1929.03C1451.43 1921.76 1459.05 1912.54 1461.26 1901.93C1461.75 1899.97 1462 1897.74 1462 1895.5C1462 1893.26 1461.75 1891.31 1461.26 1889.07C1456.59 1865.88 1426.61 1848 1390.25 1848C1370.34 1848 1352.4 1853.31 1339.38 1861.97C1326.11 1870.63 1318 1882.65 1318 1895.5ZM1330.78 1895.5C1330.78 1884.6 1337.41 1875.1 1348.23 1867.84C1359.04 1860.85 1373.78 1856.38 1390 1856.38C1406.22 1856.38 1421.21 1860.85 1431.78 1867.84C1442.34 1874.82 1448.98 1884.6 1448.98 1895.5C1448.98 1906.4 1442.34 1915.9 1431.53 1923.16C1420.72 1930.15 1405.97 1934.62 1389.76 1934.62C1373.54 1934.62 1358.55 1930.15 1347.98 1923.16C1337.41 1916.18 1330.78 1906.4 1330.78 1895.5Z" fill="#FA9153"/>
<path d="M2729.86 1561.47L2560.05 1901.04C2558.52 1900.48 2557 1899.88 2555.53 1899.25C2480.12 1867.28 2485.12 1754.25 2554.7 1673.53C2625.63 1591.24 2729.86 1561.47 2729.86 1561.47" fill="url(#paint31_linear)"/>
<path d="M2560.05 1901.04L2729.86 1561.47C2729.86 1561.47 2778.42 1643.04 2758.41 1742.59C2738.41 1842.15 2642 1926.66 2560.05 1901.04Z" fill="url(#paint32_linear)"/>
<path d="M2597.4 1826.36L2706.51 1781.42L2592.76 1835.64L2560.05 1901.05C2558.52 1900.48 2557 1899.88 2555.53 1899.25L2566.56 1877.21L2545.32 1800.57L2570.27 1869.79L2609.24 1791.85L2563.5 1672.18L2613.88 1782.57L2661.21 1687.94L2640.9 1609.44L2666.78 1676.81L2729.87 1561.47L2690.43 1640.34C2690.43 1640.34 2735.82 1623.48 2742.89 1620.75C2735.43 1624.08 2685.79 1649.62 2685.79 1649.62L2647.28 1726.62L2753.84 1686.79L2643.57 1734.04L2597.4 1826.36" fill="white"/>
<path d="M2919.51 1728.31L2563.28 1918.63C2562.43 1917.54 2561.62 1916.43 2560.86 1915.32C2521.89 1858.49 2599.61 1773.2 2707.45 1740.4C2817.4 1706.96 2919.51 1728.31 2919.51 1728.31" fill="url(#paint33_linear)"/>
<path d="M2563.28 1918.63L2919.51 1728.31C2919.51 1728.31 2904.82 1812.06 2824 1880.53C2743.19 1949.01 2611.58 1973.32 2563.28 1918.63Z" fill="url(#paint34_linear)"/>
<path d="M2641.63 1876.76L2757.5 1888.46L2631.9 1881.96L2563.28 1918.62C2562.43 1917.53 2561.62 1916.42 2560.86 1915.31L2583.99 1902.96L2617.15 1834.64L2591.78 1898.8L2673.54 1855.12L2715.32 1743.09L2683.27 1849.92L2782.55 1796.88L2817.65 1727.52L2794.23 1790.64L2919.51 1728.3L2836.78 1772.5C2836.78 1772.5 2883.79 1778.78 2891.17 1779.69C2883.08 1779.09 2827.05 1777.7 2827.05 1777.7L2746.26 1820.86L2856.78 1835.42L2738.47 1825.02L2641.63 1876.76" fill="white"/>
<path d="M2515.81 1917.62C2509.4 1911.19 2505.44 1902.34 2505.44 1892.56H2464.54H2389.09H2348.19H2300.91H2260C2260 1912.12 2275.85 1927.98 2295.42 1927.98H2336.31H2383.49H2383.59H2424.5H2497.73H2538.64V1927.91C2529.74 1927.36 2521.72 1923.54 2515.81 1917.62" fill="#CDCECE"/>
<path d="M1610.2 1114C1609.17 1114 1608.17 1113.7 1607.31 1113.14C1606.46 1112.57 1605.79 1111.77 1605.4 1110.84C1605 1109.9 1604.9 1108.87 1605.1 1107.88C1605.3 1106.88 1605.8 1105.97 1606.52 1105.25L1618.45 1093.5L1606.52 1081.75C1605.55 1080.79 1605 1079.48 1605 1078.12C1605 1076.77 1605.55 1075.46 1606.52 1074.5C1607.5 1073.54 1608.82 1073 1610.2 1073C1611.58 1073 1612.9 1073.54 1613.88 1074.5L1629.48 1089.88C1629.96 1090.35 1630.34 1090.92 1630.6 1091.54C1630.87 1092.16 1631 1092.83 1631 1093.5C1631 1094.17 1630.87 1094.84 1630.6 1095.46C1630.34 1096.08 1629.96 1096.65 1629.48 1097.12L1613.88 1112.5C1613.39 1112.98 1612.82 1113.35 1612.19 1113.61C1611.56 1113.87 1610.88 1114 1610.2 1114Z" fill="white"/>
<path d="M1526.25 1130C1525.56 1130 1524.88 1129.86 1524.24 1129.6C1523.6 1129.34 1523.03 1128.95 1522.54 1128.46C1522.05 1127.97 1521.66 1127.4 1521.4 1126.76C1521.14 1126.12 1521 1125.44 1521 1124.75V1119.5C1521.04 1111.16 1524.37 1103.18 1530.27 1097.28C1536.16 1091.38 1544.15 1088.05 1552.48 1088H1620.75C1622.14 1088 1623.48 1088.55 1624.46 1089.54C1625.45 1090.52 1626 1091.86 1626 1093.25C1626 1094.64 1625.45 1095.98 1624.46 1096.96C1623.48 1097.95 1622.14 1098.5 1620.75 1098.5H1552.5C1546.94 1098.53 1541.61 1100.76 1537.68 1104.69C1533.75 1108.63 1531.53 1113.95 1531.5 1119.52V1124.75C1531.5 1125.44 1531.36 1126.12 1531.1 1126.76C1530.84 1127.4 1530.45 1127.97 1529.96 1128.46C1529.47 1128.95 1528.9 1129.34 1528.26 1129.6C1527.62 1129.86 1526.94 1130 1526.25 1130V1130Z" fill="white"/>
<path d="M1567.8 1171C1567.12 1171 1566.44 1170.87 1565.81 1170.61C1565.18 1170.35 1564.61 1169.98 1564.12 1169.5L1548.52 1154.12C1548.04 1153.65 1547.66 1153.08 1547.4 1152.46C1547.13 1151.84 1547 1151.17 1547 1150.5C1547 1149.83 1547.13 1149.16 1547.4 1148.54C1547.66 1147.92 1548.04 1147.35 1548.52 1146.87L1564.12 1131.5C1565.1 1130.54 1566.42 1130 1567.8 1130C1569.18 1130 1570.5 1130.54 1571.47 1131.5C1572.45 1132.46 1573 1133.76 1573 1135.12C1573 1136.48 1572.45 1137.78 1571.48 1138.75L1559.55 1150.5L1571.48 1162.25C1572.2 1162.97 1572.7 1163.88 1572.9 1164.87C1573.1 1165.87 1573 1166.9 1572.6 1167.84C1572.21 1168.77 1571.54 1169.57 1570.69 1170.14C1569.83 1170.7 1568.83 1171 1567.8 1171Z" fill="white"/>
<path d="M1557.25 1155C1555.86 1155 1554.52 1154.46 1553.54 1153.5C1552.55 1152.54 1552 1151.23 1552 1149.87C1552 1148.52 1552.55 1147.21 1553.54 1146.25C1554.52 1145.29 1555.86 1144.75 1557.25 1144.75H1625.5C1631.06 1144.72 1636.39 1142.55 1640.32 1138.7C1644.25 1134.86 1646.47 1129.66 1646.5 1124.23V1119.13C1646.5 1117.77 1647.05 1116.46 1648.04 1115.5C1649.02 1114.54 1650.36 1114 1651.75 1114C1653.14 1114 1654.48 1114.54 1655.46 1115.5C1656.45 1116.46 1657 1117.77 1657 1119.13V1124.25C1656.96 1132.39 1653.63 1140.19 1647.73 1145.94C1641.84 1151.7 1633.85 1154.96 1625.52 1155L1557.25 1155Z" fill="white"/>
<path d="M2098.15 794.638L2093 789.753C2091.82 788.635 2090.22 788.004 2088.55 788C2086.88 787.996 2085.27 788.618 2084.09 789.731L2048.25 821.062C2046.93 822.165 2046.13 823.714 2046.01 825.374C2045.97 826.199 2046.11 827.022 2046.42 827.792C2046.74 828.562 2047.21 829.263 2047.82 829.851L2055.52 837.225L2055.54 837.238C2056.73 838.362 2058.34 838.995 2060.02 839H2060.25C2061.12 838.954 2061.97 838.745 2062.76 838.387C2063.54 838.028 2064.24 837.527 2064.82 836.911L2098.13 803.117C2099.32 802 2099.99 800.481 2100 798.893C2100.01 797.306 2099.35 795.781 2098.17 794.654L2098.15 794.638Z" fill="white"/>
<path d="M2138.82 784.777L2138.76 784.719L2132.02 778.326C2131.63 777.949 2131.16 777.651 2130.64 777.448C2130.13 777.246 2129.58 777.143 2129.02 777.146C2128.12 777.147 2127.24 777.42 2126.5 777.927C2126.5 777.846 2126.51 777.766 2126.52 777.697C2126.79 776.046 2126.43 774.357 2125.5 772.944C2124.01 771.026 2122.38 769.216 2120.62 767.527L2120.61 767.512C2115.68 762.983 2109.89 759.404 2103.56 756.97C2100.24 755.667 2096.7 754.998 2093.12 755.001C2088.48 754.961 2083.98 756.472 2080.39 759.275C2079.36 760.212 2078.43 761.235 2077.6 762.332C2077.2 762.857 2076.99 763.492 2077 764.141C2077.01 764.79 2077.24 765.419 2077.65 765.935C2078.06 766.45 2078.64 766.824 2079.29 767.002C2079.94 767.179 2080.63 767.15 2081.27 766.919C2081.82 766.721 2082.38 766.556 2082.95 766.423C2084.14 766.182 2085.37 766.109 2086.58 766.206C2089.1 766.458 2091.51 767.306 2093.6 768.673C2094.77 769.619 2095.7 770.807 2096.32 772.149C2096.95 773.49 2097.24 774.95 2097.19 776.417C2096.31 778.801 2094.98 781.005 2093.26 782.915C2092.8 783.496 2092.57 784.217 2092.62 784.945C2092.68 785.673 2093 786.357 2093.54 786.873L2100.31 793.357C2100.88 793.904 2101.64 794.22 2102.45 794.242C2103.25 794.264 2104.03 793.989 2104.63 793.474C2106.55 791.836 2109.46 789.368 2110.48 788.763C2111.35 788.204 2112.33 787.832 2113.37 787.67C2114.14 787.597 2114.91 787.754 2115.59 788.118C2115.59 788.151 2115.59 788.183 2115.58 788.214C2115.57 788.245 2115.55 788.273 2115.53 788.297L2115.17 788.623L2115.11 788.676C2114.32 789.435 2113.87 790.466 2113.87 791.542C2113.86 792.617 2114.31 793.65 2115.1 794.412L2115.12 794.432L2121.86 800.822C2122.25 801.199 2122.72 801.497 2123.24 801.699C2123.75 801.901 2124.3 802.004 2124.86 802C2125.98 802.002 2127.05 801.582 2127.85 800.832L2138.77 790.5C2138.8 790.465 2138.84 790.427 2138.88 790.389C2139.61 789.62 2140.01 788.614 2140 787.573C2139.99 786.532 2139.57 785.533 2138.82 784.777Z" fill="white"/>
<path d="M2980.53 1092.35V1092.33C2980.38 1091.64 2980.04 1091.01 2979.55 1090.51C2979.06 1090.01 2978.44 1089.66 2977.76 1089.49C2972.31 1088.15 2963.73 1089.58 2954.22 1093.44C2945.07 1097.03 2936.71 1102.4 2929.58 1109.23C2927.64 1111.18 2925.83 1113.28 2924.17 1115.49C2920.52 1115.24 2916.85 1115.83 2913.45 1117.24C2902.88 1121.94 2899.87 1133.99 2899.06 1138.94C2898.95 1139.64 2898.99 1140.36 2899.2 1141.04C2899.4 1141.73 2899.76 1142.35 2900.24 1142.87C2900.72 1143.39 2901.31 1143.79 2901.97 1144.04C2902.63 1144.29 2903.34 1144.38 2904.04 1144.31H2904.06L2915.84 1143.01C2915.85 1143.16 2915.87 1143.3 2915.88 1143.43C2916.03 1144.88 2916.67 1146.24 2917.69 1147.27L2923.44 1153.09C2924.46 1154.12 2925.79 1154.77 2927.23 1154.92L2927.62 1154.97L2926.34 1166.87V1166.89C2926.28 1167.5 2926.34 1168.11 2926.51 1168.69C2926.68 1169.27 2926.96 1169.82 2927.34 1170.29C2927.72 1170.76 2928.19 1171.15 2928.72 1171.44C2929.25 1171.73 2929.82 1171.91 2930.42 1171.98C2930.56 1171.99 2930.7 1172 2930.85 1172C2931.1 1172 2931.35 1171.98 2931.61 1171.94C2936.52 1171.14 2948.42 1168.12 2953.06 1157.36C2954.43 1153.94 2955.02 1150.24 2954.79 1146.56C2956.98 1144.88 2959.06 1143.05 2961 1141.08C2967.74 1133.94 2973.05 1125.54 2976.62 1116.34C2980.4 1106.83 2981.83 1098.08 2980.53 1092.35ZM2960.93 1124.75C2959.43 1126.27 2957.51 1127.31 2955.43 1127.73C2953.34 1128.15 2951.18 1127.93 2949.21 1127.11C2947.25 1126.29 2945.57 1124.89 2944.38 1123.1C2943.2 1121.31 2942.57 1119.21 2942.57 1117.06C2942.57 1114.9 2943.2 1112.8 2944.38 1111.01C2945.56 1109.21 2947.24 1107.82 2949.2 1106.99C2951.17 1106.17 2953.33 1105.95 2955.42 1106.37C2957.5 1106.79 2959.42 1107.83 2960.93 1109.35L2960.93 1109.35C2962.95 1111.37 2964.1 1114.1 2964.12 1116.97C2964.14 1119.83 2963.03 1122.59 2961.05 1124.63L2960.93 1124.75Z" fill="white"/>
<path d="M2922.48 1155.07C2921.78 1154.98 2921.08 1155.15 2920.5 1155.55C2919.35 1156.33 2918.2 1157.11 2917.03 1157.86C2916.53 1158.19 2915.93 1158.33 2915.33 1158.28C2914.73 1158.22 2914.17 1157.96 2913.73 1157.55C2913.3 1157.14 2913.01 1156.59 2912.93 1155.99C2912.84 1155.4 2912.96 1154.79 2913.26 1154.27L2915.44 1150.5C2915.75 1150.04 2915.93 1149.5 2915.94 1148.95C2915.96 1148.4 2915.81 1147.85 2915.52 1147.38C2915.24 1146.91 2914.82 1146.53 2914.32 1146.29C2913.82 1146.05 2913.27 1145.95 2912.72 1146.02C2910.29 1146.33 2908.04 1147.43 2906.31 1149.16C2905.66 1149.82 2903.66 1151.82 2902.58 1159.45C2902.27 1161.64 2902.08 1163.84 2902 1166.05C2901.99 1166.43 2902.06 1166.8 2902.19 1167.16C2902.33 1167.51 2902.53 1167.83 2902.79 1168.11C2903.05 1168.38 2903.36 1168.6 2903.71 1168.75C2904.05 1168.91 2904.42 1168.99 2904.8 1169C2904.83 1169 2904.85 1169 2904.88 1169H2904.95C2907.16 1168.92 2909.37 1168.73 2911.56 1168.43C2919.19 1167.35 2921.2 1165.35 2921.85 1164.69C2923.59 1162.96 2924.69 1160.7 2924.98 1158.27C2925.07 1157.51 2924.86 1156.75 2924.39 1156.15C2923.92 1155.55 2923.23 1155.16 2922.48 1155.07V1155.07Z" fill="white"/>
<rect x="1427" y="503" width="459" height="219" fill="url(#paint35_linear)"/>
<rect x="1993" y="541" width="231" height="109" fill="url(#paint36_linear)"/>
<rect x="2939" y="699" width="372" height="180" fill="url(#paint37_linear)"/>
<rect x="3125" y="1337" width="158" height="78" fill="url(#paint38_linear)"/>
</g>
<defs>
<radialGradient id="paint0_radial" cx="0" cy="0" r="1" gradientUnits="userSpaceOnUse" gradientTransform="translate(1804.58 -254.954) scale(5853.14)">
<stop stop-color="#4A2BBD"/>
<stop offset="0.549804" stop-color="#451BEC"/>
<stop offset="1" stop-color="#1A0863"/>
</radialGradient>
<radialGradient id="paint1_radial" cx="0" cy="0" r="1" gradientUnits="userSpaceOnUse" gradientTransform="translate(2178.97 1644.07) rotate(-58.761) scale(2009.31)">
<stop stop-color="#E20081"/>
<stop offset="0.5464" stop-color="#FFB048"/>
<stop offset="1" stop-color="#FFFC9F"/>
</radialGradient>
<radialGradient id="paint2_radial" cx="0" cy="0" r="1" gradientUnits="userSpaceOnUse" gradientTransform="translate(1570.55 1685.55) rotate(-58.7611) scale(1554.93)">
<stop stop-color="#EA3968"/>
<stop offset="0.5464" stop-color="#FF9793"/>
<stop offset="1" stop-color="#F9B564"/>
</radialGradient>
<radialGradient id="paint3_radial" cx="0" cy="0" r="1" gradientUnits="userSpaceOnUse" gradientTransform="translate(2430.72 1626.93) rotate(-58.761) scale(1961.55)">
<stop stop-color="#E20081"/>
<stop offset="0.5464" stop-color="#FFB048"/>
<stop offset="1" stop-color="#FFFC9F"/>
</radialGradient>
<radialGradient id="paint4_radial" cx="0" cy="0" r="1" gradientUnits="userSpaceOnUse" gradientTransform="translate(1643.39 934.586) rotate(-46.0696) scale(1022.37)">
<stop stop-color="#4B89CB"/>
<stop offset="0.145733" stop-color="#72B5FF"/>
<stop offset="0.145833" stop-color="#4E9BD5"/>
<stop offset="0.328125" stop-color="#4B88CB"/>
<stop offset="0.838542" stop-color="#72B5FF"/>
<stop offset="1" stop-color="#4FA4D9"/>
</radialGradient>
<radialGradient id="paint5_radial" cx="0" cy="0" r="1" gradientUnits="userSpaceOnUse" gradientTransform="translate(1866.17 1040.54) rotate(-64.6162) scale(1879.29 1879.28)">
<stop stop-color="#EB4DA7"/>
<stop offset="0.5464" stop-color="#FFC87F"/>
<stop offset="1" stop-color="#FFFDBC"/>
</radialGradient>
<radialGradient id="paint6_radial" cx="0" cy="0" r="1" gradientUnits="userSpaceOnUse" gradientTransform="translate(1866.17 1040.53) rotate(-64.6161) scale(1879.29 1879.29)">
<stop stop-color="#EB4DA7"/>
<stop offset="0.5464" stop-color="#FFC87F"/>
<stop offset="1" stop-color="#FFFDBC"/>
</radialGradient>
<linearGradient id="paint7_linear" x1="2182.48" y1="1718.65" x2="2182.48" y2="1036.58" gradientUnits="userSpaceOnUse">
<stop offset="0.140625" stop-color="#3762C5"/>
<stop offset="1" stop-color="#5689FF" stop-opacity="0.29"/>
</linearGradient>
<radialGradient id="paint8_radial" cx="0" cy="0" r="1" gradientUnits="userSpaceOnUse" gradientTransform="translate(2685.47 512.925) scale(534.242 583.201)">
<stop stop-color="#E20081"/>
<stop offset="0.5464" stop-color="#FFB048"/>
<stop offset="1" stop-color="#FFFC9F"/>
</radialGradient>
<radialGradient id="paint9_radial" cx="0" cy="0" r="1" gradientUnits="userSpaceOnUse" gradientTransform="translate(2514.16 143.175) scale(934.438 1020.07)">
<stop stop-color="#E20081"/>
<stop offset="0.5464" stop-color="#FFB048"/>
<stop offset="1" stop-color="#FFFC9F"/>
</radialGradient>
<radialGradient id="paint10_radial" cx="0" cy="0" r="1" gradientUnits="userSpaceOnUse" gradientTransform="translate(2752.79 438.007) rotate(180) scale(557.998 609.135)">
<stop stop-color="#E20081"/>
<stop offset="0.5464" stop-color="#FFB048"/>
<stop offset="1" stop-color="#FFFC9F"/>
</radialGradient>
<radialGradient id="paint11_radial" cx="0" cy="0" r="1" gradientUnits="userSpaceOnUse" gradientTransform="translate(2689.39 509.792) scale(216.516 236.36)">
<stop stop-color="#7929B7"/>
<stop offset="0.00055627" stop-color="#7929B7"/>
<stop offset="0.0501306" stop-color="#7628B5"/>
<stop offset="1" stop-color="#310B7A"/>
</radialGradient>
<radialGradient id="paint12_radial" cx="0" cy="0" r="1" gradientUnits="userSpaceOnUse" gradientTransform="translate(2700.72 485.456) scale(70.448 76.9038)">
<stop stop-color="#E20081"/>
<stop offset="0.5464" stop-color="#FFB048"/>
<stop offset="1" stop-color="#FFFC9F"/>
</radialGradient>
<radialGradient id="paint13_radial" cx="0" cy="0" r="1" gradientUnits="userSpaceOnUse" gradientTransform="translate(3398.73 1708.01) scale(118.622)">
<stop stop-color="#7929B7"/>
<stop offset="0.00055627" stop-color="#7929B7"/>
<stop offset="0.0501306" stop-color="#7628B5"/>
<stop offset="1" stop-color="#310B7A"/>
</radialGradient>
<linearGradient id="paint14_linear" x1="3644.24" y1="870.491" x2="3558.87" y2="898.529" gradientUnits="userSpaceOnUse">
<stop stop-color="#FFFAC0"/>
<stop offset="0.54393" stop-color="#FFC880"/>
<stop offset="1" stop-color="#EF6262"/>
</linearGradient>
<linearGradient id="paint15_linear" x1="3486.54" y1="896.502" x2="3509.2" y2="1062.92" gradientUnits="userSpaceOnUse">
<stop stop-color="#FFE75C"/>
<stop offset="1" stop-color="#FF2A00"/>
</linearGradient>
<radialGradient id="paint16_radial" cx="0" cy="0" r="1" gradientUnits="userSpaceOnUse" gradientTransform="translate(3624.11 1309.5) scale(323.64 323.64)">
<stop stop-color="#7929B7"/>
<stop offset="0.00055627" stop-color="#7929B7"/>
<stop offset="0.0501306" stop-color="#7628B5"/>
<stop offset="1" stop-color="#310B7A"/>
</radialGradient>
<linearGradient id="paint17_linear" x1="3593.49" y1="776.728" x2="3474.94" y2="832.197" gradientUnits="userSpaceOnUse">
<stop stop-color="#FFFAC0"/>
<stop offset="0.54393" stop-color="#FFC880"/>
<stop offset="1" stop-color="#EF6262"/>
</linearGradient>
<radialGradient id="paint18_radial" cx="0" cy="0" r="1" gradientUnits="userSpaceOnUse" gradientTransform="translate(3377.4 784.46) scale(370.712 370.71)">
<stop stop-color="#7929B7"/>
<stop offset="0.00055627" stop-color="#7929B7"/>
<stop offset="0.0501306" stop-color="#7628B5"/>
<stop offset="1" stop-color="#310B7A"/>
</radialGradient>
<radialGradient id="paint19_radial" cx="0" cy="0" r="1" gradientUnits="userSpaceOnUse" gradientTransform="translate(3485.5 1706.65) scale(219.639)">
<stop stop-color="#7929B7"/>
<stop offset="0.00055627" stop-color="#7929B7"/>
<stop offset="0.0501306" stop-color="#7628B5"/>
<stop offset="1" stop-color="#310B7A"/>
</radialGradient>
<linearGradient id="paint20_linear" x1="2297.65" y1="1578.99" x2="2493.38" y2="1522.42" gradientUnits="userSpaceOnUse">
<stop stop-color="#D68C5A"/>
<stop offset="1" stop-color="#FFC87F"/>
</linearGradient>
<linearGradient id="paint21_linear" x1="2277.62" y1="1579.66" x2="2471.79" y2="1523.59" gradientUnits="userSpaceOnUse">
<stop stop-color="#D68C5A"/>
<stop offset="1" stop-color="#FFC87F"/>
</linearGradient>
<linearGradient id="paint22_linear" x1="1582.31" y1="861.681" x2="1758.01" y2="437.925" gradientUnits="userSpaceOnUse">
<stop stop-color="#352B59"/>
<stop offset="0.00124448" stop-color="#352B59"/>
<stop offset="0.994488" stop-color="#352C59"/>
<stop offset="1" stop-color="#352C59"/>
</linearGradient>
<linearGradient id="paint23_linear" x1="2136.72" y1="630.506" x2="2227.07" y2="412.606" gradientUnits="userSpaceOnUse">
<stop stop-color="#352B59"/>
<stop offset="0.00124448" stop-color="#352B59"/>
<stop offset="0.994488" stop-color="#352C59"/>
<stop offset="1" stop-color="#352C59"/>
</linearGradient>
<linearGradient id="paint24_linear" x1="4709.89" y1="404.405" x2="4922.39" y2="-108.112" gradientUnits="userSpaceOnUse">
<stop stop-color="#352B59"/>
<stop offset="0.00124448" stop-color="#352B59"/>
<stop offset="0.994488" stop-color="#352C59"/>
<stop offset="1" stop-color="#352C59"/>
</linearGradient>
<radialGradient id="paint25_radial" cx="0" cy="0" r="1" gradientUnits="userSpaceOnUse" gradientTransform="translate(784.492 1443.73) scale(1903.73)">
<stop stop-color="#1C4DB4"/>
<stop offset="0.549804" stop-color="#471FE0"/>
<stop offset="1" stop-color="#1A095B"/>
</radialGradient>
<linearGradient id="paint26_linear" x1="1619.19" y1="2107.69" x2="1593.37" y2="1852.45" gradientUnits="userSpaceOnUse">
<stop stop-color="#2E1698"/>
<stop offset="0.00030048" stop-color="#4460B5"/>
<stop offset="0.692708" stop-color="#67BAE1"/>
<stop offset="0.990905" stop-color="#68BCE2"/>
</linearGradient>
<linearGradient id="paint27_linear" x1="1533.55" y1="1729.34" x2="1671.67" y2="2024.93" gradientUnits="userSpaceOnUse">
<stop stop-color="#4259B1"/>
<stop offset="0.00034055" stop-color="#4259B1"/>
<stop offset="0.999239" stop-color="#4566BA"/>
<stop offset="1" stop-color="#4566BA"/>
</linearGradient>
<linearGradient id="paint28_linear" x1="1842.19" y1="2152.69" x2="1816.37" y2="1897.45" gradientUnits="userSpaceOnUse">
<stop stop-color="#2D1597"/>
<stop offset="0.00030048" stop-color="#4460B5"/>
<stop offset="0.838542" stop-color="#66B6E0"/>
<stop offset="0.990905" stop-color="#66B8E1"/>
</linearGradient>
<linearGradient id="paint29_linear" x1="1756.55" y1="1774.34" x2="1894.67" y2="2069.93" gradientUnits="userSpaceOnUse">
<stop stop-color="#4259B1"/>
<stop offset="0.00034055" stop-color="#4259B1"/>
<stop offset="0.999239" stop-color="#4566BA"/>
<stop offset="1" stop-color="#4566BA"/>
</linearGradient>
<linearGradient id="paint30_linear" x1="2050" y1="1674" x2="2050" y2="1962" gradientUnits="userSpaceOnUse">
<stop stop-color="#1645B1"/>
<stop offset="1" stop-color="#5294CA"/>
</linearGradient>
<linearGradient id="paint31_linear" x1="2649.28" y1="1405.16" x2="2609.33" y2="1821.4" gradientUnits="userSpaceOnUse">
<stop stop-color="#50A9DC"/>
<stop offset="0.00034055" stop-color="#4259B1"/>
<stop offset="0.734375" stop-color="#71B4FF"/>
<stop offset="0.997817" stop-color="#71B4FF"/>
</linearGradient>
<linearGradient id="paint32_linear" x1="2792.86" y1="1494.35" x2="2703.41" y2="1818.34" gradientUnits="userSpaceOnUse">
<stop stop-color="#71B4FF"/>
<stop offset="0.00034055" stop-color="#4259B1"/>
<stop offset="0.651042" stop-color="#50A9DC"/>
<stop offset="0.999239" stop-color="#71B4FF"/>
</linearGradient>
<linearGradient id="paint33_linear" x1="2826.68" y1="1698.74" x2="2587.88" y2="2047.72" gradientUnits="userSpaceOnUse">
<stop stop-color="#4A85C9"/>
<stop offset="0.692708" stop-color="#72B5FF"/>
<stop offset="0.99365" stop-color="white"/>
</linearGradient>
<linearGradient id="paint34_linear" x1="3013.27" y1="1703.21" x2="2760.08" y2="1946.06" gradientUnits="userSpaceOnUse">
<stop stop-color="#4B8ACC"/>
<stop offset="0.869792" stop-color="#6DADF9"/>
<stop offset="0.99365" stop-color="#72B5FF"/>
</linearGradient>
<linearGradient id="paint35_linear" x1="1656.5" y1="503" x2="1998" y2="503" gradientUnits="userSpaceOnUse">
<stop stop-color="#20077C"/>
<stop offset="1" stop-color="#20077C" stop-opacity="0"/>
</linearGradient>
<linearGradient id="paint36_linear" x1="2108.5" y1="541" x2="2312.5" y2="541" gradientUnits="userSpaceOnUse">
<stop stop-color="#20077C"/>
<stop offset="1" stop-color="#20077C" stop-opacity="0"/>
</linearGradient>
<linearGradient id="paint37_linear" x1="3125" y1="699" x2="3355.5" y2="699" gradientUnits="userSpaceOnUse">
<stop stop-color="#20077C"/>
<stop offset="1" stop-color="#20077C" stop-opacity="0"/>
</linearGradient>
<linearGradient id="paint38_linear" x1="3204" y1="1337" x2="3344.5" y2="1337" gradientUnits="userSpaceOnUse">
<stop stop-color="#20077C"/>
<stop offset="1" stop-color="#20077C" stop-opacity="0"/>
</linearGradient>
<clipPath id="clip0">
<rect width="3600" height="2266.67" fill="white"/>
</clipPath>
</defs>
</svg>
