<svg width="32768" height="14172" viewBox="0 0 32768 14172" fill="none" xmlns="http://www.w3.org/2000/svg">
<g clip-path="url(#clip0)">
<path opacity="0.206012" fill-rule="evenodd" clip-rule="evenodd" d="M-35.9395 11626.1C-35.9438 11629.6 3.98148 11644.2 7.03979 11645.5C49.9102 11664.6 93.0821 11682.8 136.363 11700.8C207.689 11730.4 279.399 11758.9 351.328 11786.7C450.865 11825.1 550.896 11862.1 651.256 11898C778.816 11943.6 906.924 11987.4 1035.44 12029.6C1190.78 12080.7 1346.75 12129.5 1503.22 12176.3C1686.09 12231.1 1869.68 12283.2 2053.81 12332.9C2264.06 12389.7 2475.05 12443.4 2686.61 12494.2C2923.99 12551.3 3162.13 12604.9 3400.86 12655.1C3665.2 12710.8 3930.26 12762.4 4195.89 12810.4C4486.93 12862.9 4778.69 12911 5070.99 12954.8C5388.54 13002.5 5706.78 13045.2 6025.45 13083.2C6369.35 13124.3 6713.79 13160 7058.63 13190.5C7428.62 13223.3 7799.06 13250.1 8169.75 13271.4C8565.65 13294.1 8961.84 13310.5 9358.2 13320.8C9779.77 13331.7 10201.5 13335.8 10623.2 13333.4C11070.3 13330.9 11517.3 13321 11964.1 13304.2C12436.5 13286.4 12908.6 13260.8 13380.2 13227.8C13877.6 13193 14374.6 13150 14870.8 13099.2C15393.1 13045.7 15914.6 12983.5 16435.2 12913.1C16942.5 12844.5 17451.8 12779.9 17954.8 12680C18054.3 12660.2 18154.1 12641.3 18253.7 12622.3C18407.1 12593.2 18560.6 12564.7 18714.2 12536.6C18915.6 12499.7 19117.1 12463.8 19318.8 12428.5C19562.5 12385.9 19806.3 12344.4 20050.3 12303.9C20330.5 12257.4 20610.9 12212.2 20891.4 12168.4C21202.4 12119.9 21513.5 12073 21824.9 12027.8C22160.8 11979.1 22496.9 11932.4 22833.3 11887.9C23188.5 11840.9 23543.9 11796.3 23899.5 11754.4C24268.2 11710.9 24637.1 11670.3 25006.2 11633C25382.6 11594.9 25759.2 11560.2 26136.1 11529.5C26514.4 11498.6 26893 11471.7 27271.8 11449.5C27646.4 11427.7 28021.2 11410.4 28396.1 11399C28761.2 11387.8 29126.5 11382.1 29491.8 11383.5C29841.8 11384.8 30191.8 11392.5 30541.4 11408.9C30870.7 11424.2 31199.7 11447.2 31527.8 11480.8C31830.9 11511.8 32133.3 11551.8 32433.6 11605C32461 11609.9 32749.1 11654.4 32749 11666.3L32768.2 -3924.14L-16.8197 -3964.35L-35.9395 11626.1Z" fill="url(#paint0_linear)"/>
<path opacity="0.29478" fill-rule="evenodd" clip-rule="evenodd" d="M-35.2637 11076.8C-35.2637 11076.8 9840.56 13889.7 25740.9 13598C25740.9 13598 30096.7 13438.2 32749 11739.4L32767.8 -3654.89L-17.1479 -3695.1L-35.2637 11076.8Z" fill="url(#paint1_linear)"/>
<path opacity="0.346071" fill-rule="evenodd" clip-rule="evenodd" d="M32785 7328.1C32785 7328.1 22898.5 10205 6992.95 9864.49C6992.95 9864.49 2635.84 9688.79 -13.1211 7929.88L6.35212 -7948.79L32803.7 -7908.57L32785 7328.1Z" fill="url(#paint2_linear)"/>
<path opacity="0.346071" fill-rule="evenodd" clip-rule="evenodd" d="M-33.248 9382.81C-33.248 9382.81 9846.15 12310.3 25752.5 12005.9C25752.5 12005.9 30110 11839.4 32763.3 10070.9L32782.9 -5952.91L-14.3913 -5993.13L-33.248 9382.81Z" fill="url(#paint3_linear)"/>
<path opacity="0.880265" fill-rule="evenodd" clip-rule="evenodd" d="M-36.5918 12133C-36.5918 12133 7589.48 11574.4 16907.4 13236.9C16907.4 13236.9 28866.1 15850.5 32760.7 12173.2L32780.6 -4073.88L-16.6668 -4114.11L-36.5918 12133Z" fill="url(#paint4_linear)"/>
<path fill-rule="evenodd" clip-rule="evenodd" d="M-19.8691 -1480.32C-19.8691 -1480.32 7606.2 -2038.92 16924.1 -376.387C16924.1 -376.387 28882.8 2237.24 32777.4 -1440.1L32797.4 -17687.2L0.0558987 -17727.4L-19.8691 -1480.32Z" fill="url(#paint5_linear)"/>
<path opacity="0.318331" fill-rule="evenodd" clip-rule="evenodd" d="M32787.7 5144.15C32787.7 5144.15 25163 4566.85 15841.1 6206.52C15841.1 6206.52 3876.01 8790.8 -9.58594 5103.92L10.3391 -11143.2L32807.6 -11102.9L32787.7 5144.15Z" fill="url(#paint6_linear)"/>
</g>
<defs>
<linearGradient id="paint0_linear" x1="32746.3" y1="13869.6" x2="18746.9" y2="-13545.8" gradientUnits="userSpaceOnUse">
<stop stop-color="#5C9EE8"/>
<stop offset="1" stop-color="#487FC2"/>
</linearGradient>
<linearGradient id="paint1_linear" x1="32746.6" y1="13630.8" x2="18517.1" y2="-13438.1" gradientUnits="userSpaceOnUse">
<stop stop-color="#4FA1FD"/>
<stop offset="1" stop-color="#1D5599"/>
</linearGradient>
<linearGradient id="paint2_linear" x1="-15.5129" y1="9880.79" x2="14981.5" y2="-17625.6" gradientUnits="userSpaceOnUse">
<stop stop-color="#4FA1FD"/>
<stop offset="1" stop-color="#1D5599"/>
</linearGradient>
<linearGradient id="paint3_linear" x1="32760.9" y1="12039.6" x2="17620.3" y2="-15639.4" gradientUnits="userSpaceOnUse">
<stop stop-color="#416084"/>
<stop offset="0.979457" stop-color="#487EC1"/>
<stop offset="1" stop-color="#487FC2"/>
</linearGradient>
<linearGradient id="paint4_linear" x1="33007.6" y1="12370.2" x2="15669.9" y2="-15822.7" gradientUnits="userSpaceOnUse">
<stop stop-color="#072E70"/>
<stop offset="0.286345" stop-color="#113B81"/>
<stop offset="0.598958" stop-color="#18438C"/>
<stop offset="0.8125" stop-color="#1E4C97"/>
<stop offset="1" stop-color="#204F9B"/>
</linearGradient>
<linearGradient id="paint5_linear" x1="33024.4" y1="-1243.1" x2="15686.6" y2="-29436" gradientUnits="userSpaceOnUse">
<stop stop-color="#1C4486"/>
<stop offset="0.32966" stop-color="#4571A5" stop-opacity="0.697803"/>
<stop offset="1" stop-color="#3E6CA5" stop-opacity="0.188491"/>
</linearGradient>
<linearGradient id="paint6_linear" x1="-256.981" y1="5300.31" x2="17149.8" y2="-22850" gradientUnits="userSpaceOnUse">
<stop stop-color="#15499F"/>
<stop offset="0.78125" stop-color="#3675BF" stop-opacity="0.697803"/>
<stop offset="1" stop-color="#1864C1" stop-opacity="0.188491"/>
</linearGradient>
<clipPath id="clip0">
<rect width="32768" height="14172" fill="white"/>
</clipPath>
</defs>
</svg>
