<svg width="1091" height="589" viewBox="0 0 1091 589" fill="none" xmlns="http://www.w3.org/2000/svg">
<g clip-path="url(#clip0)">
<path d="M972.205 48.8926H972.323V48.9196H972.172V48.6695H972.205V48.8926ZM972.348 48.825C972.348 48.8067 972.351 48.7904 972.358 48.7758C972.365 48.7613 972.375 48.75 972.388 48.7421C972.401 48.7342 972.416 48.7303 972.432 48.7303C972.457 48.7303 972.478 48.739 972.493 48.7566C972.509 48.7741 972.517 48.7974 972.517 48.8265V48.8287C972.517 48.8468 972.513 48.8631 972.506 48.8775C972.499 48.8918 972.49 48.903 972.477 48.911C972.464 48.919 972.449 48.9231 972.432 48.9231C972.407 48.9231 972.387 48.9143 972.371 48.8968C972.355 48.8792 972.348 48.8561 972.348 48.8272V48.825ZM972.38 48.8287C972.38 48.8493 972.384 48.8659 972.394 48.8784C972.403 48.8909 972.416 48.8971 972.432 48.8971C972.448 48.8971 972.461 48.8908 972.471 48.8782C972.48 48.8655 972.485 48.8477 972.485 48.825C972.485 48.8046 972.48 48.7881 972.47 48.7755C972.461 48.7628 972.448 48.7564 972.432 48.7564C972.416 48.7564 972.404 48.7626 972.394 48.7751C972.384 48.7876 972.38 48.8055 972.38 48.8287ZM972.549 48.8251C972.549 48.7961 972.556 48.7731 972.569 48.7561C972.583 48.7389 972.6 48.7303 972.623 48.7303C972.645 48.7303 972.663 48.7383 972.676 48.7543L972.677 48.7337H972.706V48.9152C972.706 48.9392 972.699 48.9582 972.685 48.972C972.67 48.9859 972.651 48.9928 972.627 48.9928C972.614 48.9928 972.601 48.99 972.588 48.9842C972.575 48.9785 972.565 48.9707 972.559 48.9607L972.575 48.9416C972.589 48.9585 972.605 48.9669 972.625 48.9669C972.641 48.9669 972.653 48.9625 972.661 48.9538C972.67 48.9451 972.674 48.9329 972.674 48.917V48.9011C972.662 48.9157 972.644 48.9231 972.622 48.9231C972.6 48.9231 972.583 48.9143 972.569 48.8968C972.556 48.8792 972.549 48.8554 972.549 48.8251ZM972.581 48.8287C972.581 48.8497 972.585 48.8662 972.594 48.8782C972.603 48.8901 972.615 48.8961 972.63 48.8961C972.65 48.8961 972.665 48.887 972.674 48.8688V48.7839C972.664 48.7661 972.65 48.7573 972.63 48.7573C972.615 48.7573 972.603 48.7633 972.594 48.7753C972.585 48.7873 972.581 48.8051 972.581 48.8287ZM972.789 48.9196H972.757V48.7337H972.789V48.9196ZM972.754 48.6844C972.754 48.6793 972.756 48.6749 972.759 48.6713C972.762 48.6678 972.767 48.666 972.773 48.666C972.779 48.666 972.784 48.6678 972.787 48.6713C972.79 48.6749 972.792 48.6793 972.792 48.6844C972.792 48.6896 972.79 48.6939 972.787 48.6973C972.784 48.7007 972.779 48.7024 972.773 48.7024C972.767 48.7024 972.762 48.7007 972.759 48.6973C972.756 48.6939 972.754 48.6896 972.754 48.6844ZM972.87 48.7337L972.871 48.7571C972.885 48.7392 972.904 48.7303 972.927 48.7303C972.966 48.7303 972.986 48.7524 972.986 48.7968V48.9196H972.954V48.7966C972.954 48.7832 972.951 48.7733 972.945 48.7669C972.939 48.7605 972.93 48.7573 972.917 48.7573C972.907 48.7573 972.898 48.76 972.89 48.7655C972.882 48.771 972.876 48.7782 972.872 48.7872V48.9196H972.84V48.7337H972.87Z" fill="white"/>
<path d="M1019 48.8549H1018.9L1018.87 48.9202H1018.84L1018.94 48.6701H1018.97L1019.06 48.9202H1019.03L1019 48.8549ZM1018.91 48.8278H1018.99L1018.95 48.7108L1018.91 48.8278ZM1019.25 48.8293C1019.25 48.8576 1019.24 48.8804 1019.23 48.8977C1019.21 48.915 1019.2 48.9237 1019.17 48.9237C1019.15 48.9237 1019.13 48.9165 1019.12 48.9022V48.9917H1019.09V48.7343H1019.12V48.7549C1019.13 48.7389 1019.15 48.7309 1019.17 48.7309C1019.2 48.7309 1019.21 48.7393 1019.23 48.7561C1019.24 48.773 1019.25 48.7964 1019.25 48.8264V48.8293ZM1019.21 48.8257C1019.21 48.8048 1019.21 48.7882 1019.2 48.7761C1019.19 48.7639 1019.18 48.7579 1019.16 48.7579C1019.15 48.7579 1019.13 48.7664 1019.12 48.7835V48.8723C1019.13 48.8892 1019.15 48.8977 1019.16 48.8977C1019.18 48.8977 1019.19 48.8917 1019.2 48.8797C1019.21 48.8675 1019.21 48.8495 1019.21 48.8257ZM1019.44 48.8293C1019.44 48.8576 1019.44 48.8804 1019.42 48.8977C1019.41 48.915 1019.39 48.9237 1019.37 48.9237C1019.35 48.9237 1019.33 48.9165 1019.32 48.9022V48.9917H1019.29V48.7343H1019.32V48.7549C1019.33 48.7389 1019.35 48.7309 1019.37 48.7309C1019.39 48.7309 1019.41 48.7393 1019.42 48.7561C1019.44 48.773 1019.44 48.7964 1019.44 48.8264V48.8293ZM1019.41 48.8257C1019.41 48.8048 1019.41 48.7882 1019.4 48.7761C1019.39 48.7639 1019.38 48.7579 1019.36 48.7579C1019.34 48.7579 1019.33 48.7664 1019.32 48.7835V48.8723C1019.33 48.8892 1019.34 48.8977 1019.36 48.8977C1019.38 48.8977 1019.39 48.8917 1019.4 48.8797C1019.41 48.8675 1019.41 48.8495 1019.41 48.8257ZM1019.52 48.9202H1019.49V48.6562H1019.52V48.9202ZM1019.63 48.8737L1019.67 48.7343H1019.71L1019.63 48.9489C1019.62 48.9798 1019.6 48.9953 1019.58 48.9953L1019.57 48.9948L1019.56 48.9925V48.9668L1019.57 48.9675C1019.58 48.9675 1019.59 48.9653 1019.59 48.9609C1019.6 48.9566 1019.61 48.9485 1019.61 48.937L1019.62 48.9182L1019.55 48.7343H1019.58L1019.63 48.8737Z" fill="white"/>
<path d="M1011.7 59.5399C1012.46 59.5399 1013.07 58.8268 1013.07 57.9472C1013.07 57.0676 1012.46 56.3545 1011.7 56.3545C1010.95 56.3545 1010.34 57.0676 1010.34 57.9472C1010.34 58.8268 1010.95 59.5399 1011.7 59.5399Z" stroke="white" stroke-width="0.029323"/>
<path opacity="0.206012" fill-rule="evenodd" clip-rule="evenodd" d="M0 508.199C0 508.313 1.32796 508.787 1.42969 508.83C2.85575 509.448 4.2918 510.042 5.73148 510.625C8.104 511.585 10.4892 512.512 12.8818 513.414C16.1926 514.662 19.5197 515.863 22.8578 517.028C27.1005 518.509 31.3615 519.929 35.636 521.301C40.8025 522.957 45.9899 524.541 51.1936 526.06C57.2757 527.837 63.3815 529.527 69.5053 531.14C76.4975 532.981 83.5143 534.722 90.5501 536.37C98.4443 538.221 106.364 539.954 114.303 541.582C123.093 543.385 131.908 545.057 140.741 546.608C150.419 548.307 160.121 549.861 169.841 551.278C180.4 552.818 190.982 554.196 201.578 555.423C213.013 556.748 224.466 557.896 235.932 558.877C248.234 559.929 260.551 560.789 272.876 561.468C286.039 562.192 299.211 562.708 312.389 563.027C326.406 563.368 340.426 563.484 354.446 563.389C369.31 563.288 384.172 562.948 399.025 562.382C414.728 561.784 430.423 560.931 446.103 559.839C462.639 558.685 479.158 557.265 495.654 555.59C513.017 553.825 530.353 551.78 547.657 549.466C564.521 547.21 581.448 545.087 598.168 541.811C601.477 541.163 604.791 540.541 608.105 539.92C613.203 538.965 618.305 538.029 623.409 537.109C630.104 535.901 636.803 534.721 643.506 533.564C651.606 532.167 659.711 530.804 667.821 529.475C677.134 527.949 686.453 526.467 695.779 525.028C706.115 523.435 716.457 521.895 726.807 520.412C737.973 518.812 749.147 517.278 760.329 515.814C772.134 514.268 783.948 512.802 795.771 511.422C808.024 509.991 820.287 508.654 832.56 507.423C845.069 506.167 857.589 505.022 870.119 504.005C882.694 502.984 895.28 502.093 907.874 501.357C920.326 500.629 932.785 500.052 945.251 499.664C957.39 499.287 969.533 499.087 981.676 499.116C993.313 499.145 1004.95 499.382 1016.57 499.901C1027.52 500.389 1038.46 501.124 1049.37 502.205C1059.45 503.203 1069.5 504.495 1079.49 506.216C1080.4 506.373 1089.98 507.812 1089.98 508.199V0.336914H0V508.199Z" fill="url(#paint0_linear)"/>
<path opacity="0.29478" fill-rule="evenodd" clip-rule="evenodd" d="M0 490.301C0 490.301 328.449 581.54 857.063 571.402C857.063 571.402 1001.87 566.022 1089.98 510.576V9.10449H0V490.301Z" fill="url(#paint1_linear)"/>
<path opacity="0.346071" fill-rule="evenodd" clip-rule="evenodd" d="M1091 366.878C1091 366.878 762.426 460.988 233.614 450.531C233.614 450.531 88.7493 444.982 0.609375 387.791V-129.46H1091V366.878Z" fill="url(#paint2_linear)"/>
<path opacity="0.346071" fill-rule="evenodd" clip-rule="evenodd" d="M0 435.122C0 435.122 328.573 530.092 857.385 519.54C857.385 519.54 1002.25 513.94 1090.39 456.226V-65.7529H0V435.122Z" fill="url(#paint3_linear)"/>
<path opacity="0.880265" fill-rule="evenodd" clip-rule="evenodd" d="M0 524.709C0 524.709 253.516 506.208 563.368 559.993C563.368 559.993 961.058 644.655 1090.39 524.709V-4.54297H0V524.709Z" fill="url(#paint4_linear)"/>
<path fill-rule="evenodd" clip-rule="evenodd" d="M0 81.252C0 81.252 253.516 62.751 563.368 116.536C563.368 116.536 961.058 201.197 1090.39 81.252V-448H0V81.252Z" fill="url(#paint5_linear)"/>
<path opacity="0.318331" fill-rule="evenodd" clip-rule="evenodd" d="M1091 295.733C1091 295.733 837.483 277.232 527.631 331.017C527.631 331.017 129.941 415.679 0.609375 295.733V-233.519H1091V295.733Z" fill="url(#paint6_linear)"/>
<path d="M289.868 -76.2635C288.808 -75.7744 279.346 -72.7355 279.002 -73.1738C278.787 -73.4527 280.582 -82.7259 280.877 -83.0088C280.961 -83.1297 287.725 -78.131 289.868 -76.2635ZM238.885 126.834C238.885 126.874 241.001 130.586 241.91 132.503C241.954 132.623 242.041 132.943 242.086 133.143C242.13 133.303 242.216 133.422 242.344 133.502C242.472 133.581 242.6 133.54 242.684 133.459L248.216 128.486C248.301 128.405 248.342 128.285 248.384 128.164C248.383 128.044 248.381 127.883 248.295 127.764C248.252 127.724 247.691 126.766 247.39 126.328C246.356 124.853 244.584 121.499 244.584 121.459C244.498 121.34 244.412 121.26 244.284 121.221C244.156 121.222 244.072 121.263 243.987 121.343C243.987 121.343 243.23 122.351 242.851 122.795C242.218 123.441 241.585 124.088 240.909 124.694C240.403 125.179 240.233 125.26 240.021 125.342C239.809 125.464 239.555 125.546 238.964 126.112C238.795 126.314 238.756 126.635 238.885 126.834ZM744.747 -93.9883C744.75 -93.7078 744.964 -93.509 745.262 -93.5113C745.304 -93.5116 745.389 -93.5123 745.432 -93.5527C746.112 -93.6381 751.515 -93.6395 754.876 -93.6252C755.004 -93.6262 755.131 -93.6673 755.258 -93.7885C755.342 -93.8693 755.426 -93.9902 755.425 -94.1505C755.424 -94.2307 755.409 -96.1145 755.363 -96.515L755.147 -101.964C755.146 -102.085 755.06 -102.204 754.974 -102.324C754.888 -102.403 754.76 -102.442 754.633 -102.441H754.59C751.487 -102.137 748.339 -102.032 745.233 -102.129C745.105 -102.128 744.935 -102.086 744.851 -102.006C744.766 -101.925 744.683 -101.764 744.684 -101.644C744.746 -99.1993 744.77 -96.3535 744.747 -93.9883Z" fill="#204F97"/>
<path d="M687.285 61.539C686.74 62.5453 681.274 70.4037 680.72 70.2476C680.379 70.13 675.757 61.7879 675.754 61.4271C675.796 61.3066 684.39 61.3207 687.285 61.539ZM505.255 -68.6987C505.298 -68.659 508.133 -65.4339 509.423 -63.7202C509.509 -63.6006 509.639 -63.3211 509.726 -63.1213C509.812 -62.9616 509.899 -62.842 510.026 -62.8029C510.154 -62.7638 510.282 -62.8049 510.366 -62.9258L514.784 -68.8521C514.868 -68.9329 514.867 -69.0532 514.866 -69.2135C514.865 -69.3338 514.779 -69.4934 514.693 -69.5729C514.65 -69.6127 513.92 -70.4488 513.491 -70.8063C512.162 -72.0387 509.712 -74.9861 509.67 -75.0259C509.583 -75.1454 509.456 -75.1846 509.328 -75.1836C509.2 -75.1826 509.116 -75.1018 509.074 -74.9812C509.074 -74.9812 508.573 -73.855 508.237 -73.3313C507.775 -72.5662 507.271 -71.8408 506.766 -71.1154C506.388 -70.5513 506.219 -70.4297 506.05 -70.3082C505.838 -70.1462 505.627 -70.0244 505.164 -69.3394C505.038 -69.2182 505.083 -68.8978 505.255 -68.6987ZM451.254 144.924C450.998 144.846 450.701 145.008 450.661 145.249C450.661 145.289 450.661 145.329 450.662 145.409C450.582 145.971 449.513 150.469 448.813 153.24C448.771 153.36 448.815 153.48 448.9 153.56C448.986 153.679 449.114 153.719 449.242 153.758C449.327 153.757 451.246 154.183 451.672 154.26L457.381 155.299C457.509 155.338 457.679 155.296 457.764 155.215C457.848 155.135 457.932 155.054 457.974 154.973V154.933C458.293 152.325 458.866 149.675 459.568 147.145C459.61 147.024 459.567 146.904 459.48 146.785C459.394 146.665 459.266 146.626 459.138 146.587C456.667 146.085 453.726 145.466 451.254 144.924ZM450.834 145.648C450.877 145.688 450.92 145.728 451.005 145.727C450.92 145.728 450.877 145.688 450.834 145.648Z" fill="#A1BEDE"/>
<path d="M366.684 144.697C365.805 145.467 357.8 151.095 357.336 150.77C357.059 150.55 355.765 141.226 355.894 140.886C355.977 140.786 364.045 143.561 366.684 144.697ZM243.28 -36.1704C243.306 -36.1193 244.79 -32.178 245.376 -30.1531C245.414 -30.0131 245.434 -29.7086 245.442 -29.493C245.465 -29.3152 245.502 -29.1752 245.608 -29.0973C245.714 -29.0195 245.848 -29.0172 245.972 -29.1037L252.287 -33.2524C252.396 -33.3012 252.439 -33.4145 252.496 -33.5655C252.539 -33.6788 252.516 -33.8566 252.465 -33.9589C252.439 -34.01 252.058 -35.0304 251.787 -35.5039C250.988 -37.089 249.764 -40.6456 249.738 -40.6967C249.701 -40.8367 249.595 -40.9146 249.475 -40.9547C249.355 -40.9948 249.246 -40.946 249.163 -40.846C249.163 -40.846 248.281 -39.9489 247.774 -39.5648C247.061 -38.9942 246.322 -38.4748 245.583 -37.9553C245.021 -37.5469 244.818 -37.487 244.615 -37.4272C244.357 -37.3429 244.114 -37.2965 243.429 -36.8014C243.266 -36.7282 243.191 -36.4127 243.28 -36.1704ZM114.509 147.196C114.297 147.04 113.959 147.098 113.833 147.311C113.819 147.349 113.804 147.386 113.776 147.462C113.495 147.964 110.848 151.847 109.178 154.225C109.094 154.325 109.092 154.452 109.143 154.554C109.18 154.694 109.286 154.772 109.392 154.85C109.472 154.877 111.118 155.894 111.49 156.103L116.474 158.913C116.58 158.991 116.755 159.007 116.864 158.958C116.973 158.909 117.081 158.86 117.15 158.798L117.164 158.76C118.417 156.412 119.924 154.107 121.508 151.955C121.591 151.855 121.594 151.728 121.557 151.588C121.519 151.448 121.414 151.37 121.308 151.292C119.169 150.026 116.633 148.5 114.509 147.196ZM113.85 147.742C113.876 147.793 113.902 147.844 113.982 147.871C113.902 147.844 113.876 147.793 113.85 147.742Z" fill="#A1BEDE"/>
<path d="M384.27 34.099C384.908 34.0941 385.464 34.4105 385.767 35.0094C386.113 35.7683 385.781 36.6928 384.975 37.0197C383.406 37.6731 382.098 38.9258 381.43 40.4541C380.762 41.9824 380.734 43.7062 381.384 45.2244C381.515 45.5842 381.731 45.9433 381.904 46.3428C382.25 47.0216 382.682 47.8199 382.902 48.7001C383.299 50.3405 383.016 52.1465 382.094 53.8371C381.381 55.0852 380.37 56.2955 378.891 57.5093C378.215 58.0757 377.194 58.0034 376.635 57.3663C376.034 56.7296 376.111 55.767 376.788 55.2407C377.971 54.2295 378.772 53.3415 379.274 52.4157C379.861 51.369 380.065 50.2852 379.802 49.3653C379.67 48.8051 379.367 48.2462 379.065 47.6473C378.848 47.208 378.632 46.7688 378.415 46.3295C377.503 44.0918 377.525 41.5263 378.484 39.2742C379.445 37.0622 381.344 35.2037 383.676 34.2238C383.845 34.1423 384.057 34.1006 384.27 34.099ZM367.084 54.7942C366.446 54.8792 365.806 54.6036 365.461 54.045C364.987 53.3272 365.276 52.3629 366.038 51.9161C367.606 51.0623 368.743 49.6507 369.24 48.0835C369.737 46.4764 369.552 44.7141 368.732 43.2373C368.559 42.8778 368.301 42.5592 368.042 42.1603C367.611 41.4822 367.094 40.7646 366.747 39.8855C366.138 38.2868 366.207 36.4023 366.958 34.5927C367.542 33.2254 368.425 31.9359 369.817 30.5223C370.45 29.8761 371.471 29.8281 372.157 30.4241C372.842 30.98 372.893 31.9817 372.26 32.5879C371.163 33.7187 370.448 34.7263 370.031 35.6915C369.572 36.8174 369.496 37.9403 369.844 38.8596C370.061 39.379 370.406 39.9375 370.794 40.4957C371.052 40.8946 371.354 41.3332 371.613 41.7721C372.822 43.9274 373.099 46.5307 372.395 48.9011C371.649 51.2718 369.964 53.329 367.677 54.5491C367.508 54.7107 367.296 54.7925 367.084 54.7942ZM570.342 -14.7101C567.895 -17.417 566.461 -20.9735 566.269 -23.6576C566.032 -26.582 567.235 -30.2389 570.54 -31.8676C571.811 -32.4787 573.383 -32.7713 575.298 -32.786C578.659 -32.7718 580.795 -31.6658 581.877 -29.4695C582.786 -27.5926 582.894 -24.9077 581.164 -23.0907C579.815 -21.6773 577.86 -21.4218 576.405 -22.4128C575.891 -22.7696 575.758 -23.4901 576.137 -23.974C576.516 -24.4579 577.28 -24.584 577.794 -24.2272C578.564 -23.712 579.323 -24.4795 579.408 -24.5603C580.42 -25.6102 580.278 -27.3729 579.715 -28.531C579.066 -29.8888 577.699 -30.5197 575.274 -30.5411C573.742 -30.5294 572.553 -30.3198 571.62 -29.8717C569.629 -28.8944 568.373 -26.3995 568.607 -23.836C568.844 -20.9116 570.923 -16.5584 574.217 -14.2989C576.015 -13.0701 577.847 -12.6834 579.716 -13.0986C581.032 -13.3893 582.345 -14.0808 583.826 -15.1344C586.617 -17.2001 588.764 -19.9022 589.804 -22.7963C590.927 -25.8914 590.644 -29.136 588.916 -32.3696C588.613 -32.9284 588.863 -33.6118 589.456 -33.8568C590.05 -34.142 590.775 -33.9071 591.035 -33.3479C593.023 -29.5952 593.396 -25.6699 592.065 -22.0521C590.858 -18.7559 588.459 -15.651 585.287 -13.3418C583.553 -12.0859 581.901 -11.2715 580.287 -10.8984C577.739 -10.3176 575.182 -10.8591 572.829 -12.4444C571.93 -13.1189 571.073 -13.874 570.342 -14.7101Z" fill="white" fill-opacity="0.2"/>
<path d="M8.23942 221.336C8.84147 221.137 9.47664 221.267 9.97021 221.742C10.5606 222.354 10.5655 223.33 9.91633 223.884C8.65808 224.979 7.85325 226.562 7.74969 228.21C7.64614 229.859 8.21552 231.498 9.3562 232.736C9.60418 233.037 9.93241 233.311 10.2347 233.636C10.7968 234.173 11.4816 234.796 11.9941 235.562C12.9365 236.993 13.2934 238.787 13.0057 240.666C12.7628 242.064 12.2248 243.516 11.2452 245.114C10.8015 245.855 9.80989 246.097 9.06132 245.665C8.27262 245.245 8.01272 244.311 8.47063 243.608C9.24009 242.292 9.69083 241.208 9.84645 240.18C10.0398 239.011 9.85779 237.924 9.29096 237.134C8.97211 236.644 8.49273 236.208 7.99916 235.733C7.64256 235.384 7.28596 235.034 6.92936 234.684C5.29273 232.845 4.4257 230.412 4.55507 227.99C4.69861 225.606 5.85272 223.271 7.72003 221.635C7.85223 221.506 8.03874 221.402 8.23942 221.336ZM-0.864761 246.137C-1.43845 246.411 -2.13971 246.345 -2.65925 245.922C-3.35589 245.387 -3.41511 244.387 -2.84858 243.733C-1.66119 242.448 -1.07363 240.767 -1.14479 239.134C-1.23013 237.463 -2.01435 235.852 -3.30139 234.705C-3.58951 234.417 -3.94373 234.195 -4.32629 233.896C-4.96862 233.386 -5.7054 232.864 -6.33833 232.138C-7.46722 230.811 -8.05312 229.008 -7.96852 227.068C-7.88854 225.597 -7.49927 224.109 -6.67087 222.348C-6.29562 221.545 -5.34652 221.189 -4.49172 221.544C-3.6511 221.861 -3.2566 222.793 -3.64603 223.559C-4.29269 224.962 -4.62064 226.133 -4.68181 227.173C-4.72643 228.377 -4.40982 229.462 -3.76272 230.226C-3.37777 230.651 -2.85825 231.075 -2.29858 231.485C-1.91602 231.783 -1.47914 232.106 -1.0824 232.443C0.806833 234.114 1.969 236.492 2.12297 238.948C2.23681 241.417 1.35424 243.875 -0.387889 245.725C-0.491737 245.929 -0.664079 246.071 -0.864761 246.137ZM167.403 118.579C164.151 116.763 161.565 113.835 160.455 111.355C159.219 108.661 159.093 104.837 161.657 102.291C162.649 101.326 164.034 100.571 165.841 99.9752C169.025 98.9664 171.429 99.3627 173.212 101.111C174.721 102.61 175.751 105.117 174.743 107.361C173.955 109.108 172.194 109.945 170.475 109.45C169.866 109.269 169.49 108.628 169.681 108.055C169.873 107.482 170.552 107.13 171.162 107.311C172.068 107.564 172.522 106.608 172.573 106.505C173.168 105.204 172.424 103.581 171.491 102.656C170.407 101.57 168.896 101.389 166.594 102.106C165.149 102.583 164.096 103.143 163.369 103.85C161.823 105.38 161.498 108.122 162.606 110.475C163.841 113.169 167.313 116.654 171.211 117.789C173.336 118.405 175.204 118.214 176.828 117.253C177.973 116.577 178.976 115.524 180.013 114.077C181.939 111.274 183.036 108.066 183.019 105.012C183.011 101.743 181.622 98.76 178.868 96.2273C178.389 95.7908 178.389 95.0685 178.866 94.6562C179.328 94.206 180.096 94.2077 180.535 94.6575C183.714 97.6022 185.424 101.202 185.415 105.028C185.414 108.513 184.217 112.179 182.015 115.328C180.809 117.043 179.527 118.316 178.129 119.16C175.92 120.484 173.313 120.75 170.539 119.966C169.455 119.601 168.383 119.148 167.403 118.579Z" fill="white" fill-opacity="0.2"/>
<path d="M210.446 189.217C208.778 189.23 207.436 190.515 207.449 192.086C207.462 193.658 208.825 194.922 210.493 194.909C212.161 194.896 213.503 193.612 213.49 192.04C213.477 190.468 212.114 189.205 210.446 189.217Z" fill="white" fill-opacity="0.2"/>
<path d="M206.009 197.99C204.341 198.003 202.999 199.287 203.012 200.859C203.025 202.43 204.388 203.694 206.057 203.681C207.725 203.669 209.067 202.384 209.053 200.812C209.04 199.241 207.677 197.977 206.009 197.99Z" fill="white" fill-opacity="0.2"/>
<path d="M200.423 191.298C198.755 191.311 197.413 192.596 197.426 194.167C197.439 195.739 198.802 197.003 200.471 196.99C202.139 196.977 203.481 195.693 203.468 194.121C203.454 192.549 202.091 191.286 200.423 191.298Z" fill="white" fill-opacity="0.2"/>
<path d="M-24.7078 104.097C-22.6477 106.246 -20.5452 108.395 -18.3575 110.542C-20.7212 112.805 -23.0414 115.188 -24.9335 117.888C-25.4384 118.573 -25.2176 119.534 -24.4907 119.969C-23.7635 120.444 -22.7442 120.236 -22.2819 119.551C-20.5157 117.052 -18.4491 114.872 -16.1694 112.73C-14.1107 114.718 -12.0094 116.707 -9.86594 118.654C-9.2228 119.25 -8.2018 119.243 -7.6112 118.637C-6.97805 118.031 -6.98605 117.069 -7.62886 116.513C-9.72946 114.605 -11.7882 112.616 -13.8469 110.628C-13.3826 110.183 -12.8758 109.739 -12.3686 109.334C-10.637 107.797 -8.82095 106.18 -7.13323 104.483C-6.54262 103.878 -6.55029 102.956 -7.15089 102.359C-7.7937 101.803 -8.8147 101.811 -9.4053 102.417C-11.0511 104.033 -12.825 105.609 -14.5141 107.146C-15.0209 107.59 -15.4852 108.035 -15.9921 108.48C-18.0943 106.371 -20.1966 104.263 -22.2563 102.155C-22.2992 102.115 -22.2992 102.115 -22.3421 102.075C-22.9423 101.518 -23.9212 101.486 -24.555 102.012C-25.2742 102.498 -25.3087 103.461 -24.7078 104.097ZM477.93 119.716L478.109 120.757C478.784 125.201 479.122 130.049 479.211 135.58C479.229 137.784 479.249 140.189 479.187 142.996C479.189 143.276 479.192 143.597 479.195 143.918C479.211 145.922 479.232 148.407 477.581 149.341C476.649 149.87 475.414 149.759 473.961 149.008C471.526 147.784 468.317 145.564 466.467 143.093C464.101 139.985 463.305 136.343 464.254 132.809C465.574 127.868 470.532 120.334 476.91 119.845L477.93 119.716ZM476.247 147.548C476.332 147.547 476.374 147.547 476.417 147.506C476.459 147.466 476.713 147.304 476.876 146.421C476.997 145.658 476.989 144.736 476.982 143.894C476.98 143.574 476.977 143.213 476.974 142.933C477.036 140.166 477.017 137.801 476.998 135.597C476.914 130.587 476.622 126.18 476.035 122.096C471.364 123.214 467.417 129.417 466.343 133.314C465.559 136.206 466.222 139.247 468.201 141.837C469.878 144.029 472.873 146.05 475.009 147.116C475.608 147.432 476.034 147.549 476.247 147.548ZM398.277 195.606C398.32 195.606 398.362 195.606 398.448 195.645C399.471 195.918 400.152 195.993 401.3 195.904C401.598 195.902 401.855 196.1 401.9 196.38C401.902 196.661 401.691 196.903 401.394 196.945C400.076 197.036 399.309 196.961 398.158 196.65C397.86 196.572 397.687 196.292 397.77 196.011C397.853 195.77 398.064 195.608 398.277 195.606ZM402.584 191.685C402.797 191.684 403.011 191.802 403.097 192.002C403.445 192.841 403.622 193.722 403.672 194.643C403.675 194.924 403.464 195.166 403.166 195.168C402.868 195.17 402.611 194.972 402.609 194.691C402.56 193.89 402.383 193.13 402.122 192.37C402.034 192.09 402.16 191.809 402.457 191.726C402.456 191.686 402.542 191.686 402.584 191.685ZM407.71 194.091C407.88 194.09 408.051 194.168 408.137 194.288C408.309 194.527 408.269 194.848 408.058 195.01C407.297 195.577 406.492 196.064 405.602 196.472C405.348 196.594 405.007 196.477 404.877 196.237C404.747 195.998 404.872 195.676 405.126 195.554C405.932 195.187 406.694 194.74 407.37 194.214C407.455 194.133 407.582 194.092 407.71 194.091ZM405.017 197.759C405.23 197.758 405.401 197.877 405.53 198.036C405.746 198.435 406.047 198.794 406.562 199.391C406.691 199.55 406.863 199.749 407.035 199.948C407.207 200.188 407.167 200.509 406.956 200.671C406.702 200.833 406.361 200.795 406.189 200.596C406.018 200.397 405.846 200.198 405.717 200.039C405.158 199.402 404.815 199.003 404.555 198.484C404.426 198.245 404.551 197.923 404.805 197.801C404.847 197.761 404.932 197.76 405.017 197.759ZM402.38 197.9C402.508 197.899 402.594 197.938 402.722 197.977C402.978 198.136 403.023 198.456 402.855 198.698C402.35 199.383 401.888 200.068 401.469 200.793C401.343 201.034 401.004 201.157 400.747 200.999C400.491 200.881 400.36 200.561 400.529 200.319C400.948 199.554 401.452 198.789 401.999 198.063C402.083 197.982 402.21 197.901 402.38 197.9ZM178.958 68.2205C179.001 68.2201 179.043 68.2198 179.129 68.2592C180.152 68.532 180.833 68.6069 181.981 68.5179C182.279 68.5156 182.536 68.7141 182.581 68.9943C182.583 69.2749 182.373 69.517 182.075 69.5594C180.757 69.6497 179.991 69.5754 178.839 69.2636C178.541 69.1857 178.368 68.9064 178.451 68.6252C178.534 68.3841 178.745 68.2221 178.958 68.2205ZM183.265 64.2992C183.478 64.2976 183.692 64.4162 183.778 64.6159C184.126 65.455 184.303 66.3355 184.354 67.2571C184.356 67.5377 184.145 67.7798 183.847 67.7821C183.549 67.7844 183.293 67.5859 183.29 67.3053C183.241 66.504 183.065 65.7438 182.803 64.9842C182.716 64.7043 182.841 64.4227 183.138 64.3403C183.138 64.3002 183.223 64.2995 183.265 64.2992ZM188.391 66.705C188.561 66.7037 188.732 66.7825 188.818 66.9021C188.99 67.1413 188.95 67.4623 188.739 67.6242C187.978 68.1913 187.173 68.6784 186.283 69.0861C186.029 69.2083 185.688 69.0907 185.558 68.8512C185.428 68.6117 185.553 68.2901 185.808 68.1679C186.613 67.8009 187.375 67.3541 188.051 66.8278C188.136 66.747 188.263 66.706 188.391 66.705ZM185.698 70.3733C185.911 70.3717 186.082 70.4906 186.211 70.65C186.427 71.0491 186.728 71.4076 187.244 72.0049C187.372 72.1642 187.544 72.3633 187.716 72.5624C187.888 72.8016 187.848 73.1226 187.637 73.2846C187.383 73.4468 187.042 73.4094 186.871 73.2103C186.699 73.0112 186.527 72.8121 186.398 72.6527C185.84 72.0157 185.496 71.6175 185.236 71.0984C185.107 70.8589 185.232 70.5372 185.486 70.415C185.528 70.3746 185.613 70.374 185.698 70.3733ZM183.062 70.5138C183.189 70.5128 183.275 70.5523 183.403 70.5914C183.659 70.7497 183.704 71.0701 183.536 71.3119C183.031 71.9972 182.569 72.6822 182.15 73.4069C182.024 73.6484 181.685 73.7712 181.428 73.6129C181.172 73.4946 181.042 73.1749 181.21 72.9331C181.629 72.1683 182.133 71.4028 182.68 70.6771C182.765 70.5963 182.891 70.5151 183.062 70.5138ZM50.5238 -7.19316C51.1194 -7.19774 51.7582 -7.12247 52.4405 -6.92729C56.0231 -5.87255 59.545 -1.89119 60.4627 1.0279C60.6375 1.58774 60.7702 2.18799 60.8603 2.78856C64.2953 1.43939 67.4191 -1.51075 67.3419 -5.67891C67.3369 -6.28013 67.8434 -6.76503 68.4812 -6.81002C69.1194 -6.81492 69.6339 -6.33788 69.6389 -5.73666C69.7037 -3.05152 68.6608 -0.558292 66.7208 1.50091C65.2026 3.11594 63.1709 4.37418 60.9218 5.07289C60.7307 7.67982 59.6459 10.2536 57.8316 12.0713C54.8782 15.0602 50.1184 15.698 46.251 16.2088L45.9535 16.2511C45.3161 16.3362 44.7168 15.8999 44.627 15.3394C44.537 14.7388 45.0003 14.1741 45.5952 14.0893L45.8927 14.047C49.5474 13.5379 53.7123 12.9848 56.075 10.6017C57.3406 9.30922 58.1765 7.49902 58.4586 5.6129C55.101 6.03954 50.9242 5.14969 48.1017 3.40767C46.2627 2.25936 45.0551 0.30451 44.9962 -1.65916C44.8968 -3.38201 45.6918 -4.99148 47.1715 -6.1252C48.1872 -6.77435 49.29 -7.18368 50.5238 -7.19316ZM58.5683 3.4475C58.5207 2.84661 58.3881 2.24638 58.2132 1.68654C57.4707 -0.632633 54.4647 -3.97662 51.7349 -4.79742C50.5407 -5.149 49.5636 -4.98114 48.6755 -4.33297C47.5338 -3.48243 47.3301 -2.3986 47.3787 -1.67746C47.4319 -0.395182 48.2508 0.881214 49.4484 1.63361C51.8863 3.17816 55.7215 3.9103 58.5683 3.4475Z" fill="white" fill-opacity="0.2"/>
<path d="M90.7383 373.035C91.2852 372.029 96.7677 364.183 97.3218 364.34C97.6628 364.459 102.267 372.811 102.269 373.171C102.227 373.292 93.6327 373.259 90.7383 373.035ZM272.487 503.664C272.445 503.624 269.617 500.393 268.33 498.677C268.244 498.557 268.115 498.277 268.028 498.077C267.942 497.917 267.856 497.798 267.729 497.758C267.601 497.719 267.473 497.76 267.389 497.88L262.958 503.797C262.874 503.878 262.874 503.998 262.875 504.158C262.876 504.279 262.962 504.438 263.048 504.518C263.09 504.558 263.819 505.396 264.247 505.754C265.573 506.989 268.016 509.942 268.059 509.982C268.145 510.102 268.273 510.141 268.4 510.14C268.528 510.14 268.613 510.059 268.654 509.939C268.654 509.939 269.158 508.813 269.495 508.29C269.959 507.526 270.465 506.802 270.971 506.078C271.35 505.514 271.52 505.393 271.689 505.272C271.901 505.111 272.113 504.989 272.576 504.305C272.703 504.184 272.659 503.864 272.487 503.664ZM326.949 290.159C327.205 290.238 327.502 290.076 327.543 289.835C327.542 289.795 327.542 289.755 327.542 289.675C327.623 289.113 328.702 284.618 329.408 281.848C329.45 281.727 329.406 281.607 329.321 281.528C329.235 281.408 329.107 281.369 328.979 281.329C328.894 281.33 326.977 280.899 326.551 280.822L320.844 279.771C320.716 279.731 320.546 279.772 320.461 279.853C320.377 279.934 320.292 280.014 320.25 280.095V280.135C319.926 282.742 319.347 285.391 318.639 287.92C318.597 288.04 318.64 288.16 318.726 288.28C318.812 288.4 318.94 288.439 319.068 288.479C321.538 288.986 324.478 289.611 326.949 290.159ZM327.37 289.435C327.327 289.395 327.284 289.355 327.199 289.356C327.284 289.355 327.327 289.395 327.37 289.435Z" fill="#A1BEDE"/>
<path d="M411.52 290.568C412.401 289.799 420.419 284.189 420.882 284.515C421.159 284.736 422.432 294.062 422.303 294.402C422.219 294.502 414.158 291.709 411.52 290.568ZM534.535 471.701C534.509 471.65 533.033 467.705 532.451 465.679C532.414 465.539 532.395 465.234 532.387 465.019C532.365 464.841 532.328 464.701 532.222 464.623C532.116 464.545 531.982 464.542 531.858 464.628L525.534 468.763C525.425 468.812 525.382 468.925 525.325 469.076C525.281 469.189 525.304 469.367 525.355 469.469C525.381 469.521 525.759 470.542 526.03 471.016C526.825 472.603 528.041 476.162 528.067 476.213C528.104 476.353 528.209 476.431 528.33 476.472C528.45 476.512 528.559 476.463 528.642 476.364C528.642 476.364 529.526 475.468 530.034 475.085C530.748 474.516 531.488 473.999 532.228 473.481C532.791 473.073 532.994 473.014 533.197 472.955C533.455 472.871 533.699 472.825 534.384 472.331C534.548 472.259 534.623 471.943 534.535 471.701ZM663.701 288.612C663.912 288.769 664.25 288.712 664.377 288.499C664.391 288.461 664.406 288.423 664.435 288.348C664.716 287.846 667.372 283.97 669.047 281.594C669.131 281.495 669.134 281.368 669.082 281.266C669.046 281.126 668.94 281.047 668.834 280.969C668.754 280.942 667.11 279.922 666.738 279.712L661.761 276.891C661.655 276.813 661.48 276.797 661.371 276.845C661.262 276.894 661.153 276.942 661.085 277.004L661.07 277.042C659.813 279.387 658.301 281.69 656.712 283.839C656.629 283.938 656.626 284.065 656.663 284.205C656.699 284.345 656.805 284.423 656.911 284.501C659.047 285.772 661.58 287.304 663.701 288.612ZM664.361 288.068C664.335 288.016 664.31 287.965 664.229 287.938C664.31 287.965 664.335 288.016 664.361 288.068Z" fill="#A1BEDE"/>
<path d="M360.663 415.056C360.025 415.06 359.47 414.742 359.168 414.142C358.823 413.383 359.158 412.459 359.964 412.134C361.535 411.484 362.846 410.234 363.517 408.707C364.188 407.18 364.22 405.457 363.573 403.937C363.443 403.577 363.228 403.217 363.055 402.817C362.711 402.138 362.28 401.339 362.062 400.458C361.669 398.817 361.956 397.011 362.881 395.323C363.597 394.076 364.611 392.868 366.092 391.657C366.77 391.092 367.791 391.167 368.348 391.805C368.948 392.443 368.869 393.406 368.191 393.931C367.006 394.939 366.203 395.825 365.698 396.75C365.109 397.796 364.903 398.879 365.164 399.8C365.295 400.36 365.596 400.919 365.898 401.519C366.113 401.959 366.329 402.398 366.544 402.838C367.451 405.078 367.425 407.643 366.46 409.893C365.495 412.103 363.592 413.958 361.258 414.933C361.088 415.014 360.876 415.055 360.663 415.056ZM377.894 394.398C378.532 394.314 379.172 394.591 379.516 395.151C379.988 395.87 379.696 396.833 378.933 397.278C377.364 398.129 376.224 399.538 375.723 401.104C375.223 402.71 375.404 404.473 376.221 405.951C376.393 406.311 376.651 406.63 376.908 407.03C377.338 407.709 377.853 408.427 378.199 409.307C378.804 410.907 378.731 412.792 377.976 414.6C377.389 415.966 376.503 417.253 375.108 418.664C374.474 419.309 373.453 419.355 372.769 418.757C372.085 418.2 372.036 417.198 372.67 416.593C373.769 415.465 374.487 414.459 374.906 413.494C375.367 412.369 375.445 411.247 375.099 410.327C374.883 409.807 374.54 409.247 374.153 408.688C373.895 408.289 373.595 407.85 373.337 407.41C372.132 405.252 371.861 402.649 372.57 400.28C373.321 397.911 375.01 395.857 377.3 394.642C377.469 394.481 377.682 394.399 377.894 394.398ZM174.486 463.464C176.928 466.176 178.354 469.736 178.541 472.42C178.771 475.345 177.56 479 174.251 480.621C172.979 481.229 171.406 481.519 169.492 481.529C166.131 481.508 163.997 480.397 162.919 478.199C162.014 476.32 161.913 473.635 163.646 471.821C164.999 470.411 166.954 470.16 168.407 471.154C168.92 471.512 169.052 472.232 168.672 472.715C168.292 473.199 167.527 473.323 167.014 472.965C166.245 472.448 165.484 473.214 165.399 473.295C164.385 474.343 164.523 476.105 165.084 477.265C165.73 478.624 167.095 479.258 169.521 479.284C171.052 479.276 172.242 479.069 173.175 478.623C175.169 477.65 176.43 475.158 176.202 472.594C175.971 469.669 173.902 465.311 170.612 463.045C168.817 461.812 166.986 461.421 165.116 461.832C163.799 462.12 162.484 462.809 161.002 463.859C158.206 465.919 156.053 468.617 155.007 471.508C153.878 474.601 154.153 477.846 155.875 481.083C156.176 481.643 155.925 482.326 155.331 482.57C154.737 482.853 154.012 482.617 153.754 482.057C151.773 478.3 151.409 474.374 152.748 470.759C153.961 467.466 156.367 464.366 159.544 462.064C161.281 460.811 162.935 460.001 164.549 459.631C167.099 459.056 169.655 459.603 172.004 461.193C172.902 461.87 173.758 462.626 174.486 463.464Z" fill="white" fill-opacity="0.2"/>
<path d="M737.098 228.631C736.496 228.828 735.861 228.697 735.369 228.221C734.779 227.608 734.777 226.632 735.427 226.079C736.688 224.987 737.496 223.406 737.603 221.757C737.71 220.109 737.144 218.469 736.006 217.228C735.759 216.927 735.431 216.652 735.13 216.327C734.569 215.789 733.885 215.163 733.374 214.397C732.435 212.964 732.082 211.169 732.374 209.29C732.62 207.893 733.161 206.442 734.144 204.846C734.589 204.106 735.581 203.866 736.329 204.3C737.117 204.721 737.375 205.656 736.915 206.358C736.143 207.673 735.69 208.755 735.532 209.784C735.336 210.952 735.516 212.039 736.081 212.831C736.399 213.321 736.877 213.758 737.37 214.234C737.726 214.584 738.081 214.935 738.437 215.285C740.07 217.128 740.932 219.563 740.797 221.984C740.648 224.368 739.489 226.701 737.618 228.333C737.486 228.462 737.299 228.565 737.098 228.631ZM746.256 203.849C746.83 203.576 747.531 203.644 748.05 204.068C748.746 204.605 748.803 205.605 748.235 206.258C747.045 207.54 746.453 209.219 746.521 210.853C746.603 212.525 747.383 214.137 748.668 215.287C748.956 215.575 749.309 215.798 749.691 216.098C750.332 216.61 751.068 217.133 751.699 217.86C752.825 219.189 753.407 220.994 753.319 222.934C753.236 224.404 752.843 225.892 752.011 227.65C751.634 228.453 750.684 228.807 749.83 228.45C748.99 228.131 748.598 227.198 748.989 226.433C749.638 225.031 749.969 223.862 750.032 222.822C750.079 221.618 749.765 220.532 749.12 219.767C748.736 219.341 748.217 218.916 747.658 218.505C747.276 218.205 746.84 217.881 746.444 217.544C744.559 215.869 743.401 213.489 743.253 211.032C743.144 208.563 744.032 206.107 745.778 204.261C745.883 204.057 746.055 203.915 746.256 203.849ZM577.714 331.044C580.962 332.867 583.541 335.801 584.646 338.283C585.876 340.98 585.993 344.805 583.424 347.345C582.431 348.307 581.043 349.059 579.236 349.651C576.049 350.653 573.646 350.252 571.867 348.5C570.361 346.998 569.336 344.489 570.349 342.246C571.141 340.501 572.904 339.668 574.622 340.167C575.231 340.35 575.605 340.991 575.413 341.564C575.22 342.136 574.539 342.487 573.931 342.304C573.024 342.049 572.569 343.005 572.517 343.107C571.92 344.407 572.66 346.032 573.591 346.958C574.673 348.047 576.183 348.232 578.487 347.519C579.933 347.045 580.987 346.488 581.716 345.782C583.265 344.255 583.596 341.514 582.494 339.158C581.264 336.462 577.8 332.969 573.904 331.826C571.78 331.206 569.912 331.393 568.286 332.351C567.139 333.023 566.134 334.075 565.094 335.519C563.162 338.318 562.058 341.524 562.069 344.578C562.069 347.847 563.452 350.833 566.2 353.371C566.678 353.809 566.677 354.531 566.199 354.942C565.736 355.392 564.968 355.388 564.53 354.937C561.358 351.986 559.655 348.383 559.672 344.556C559.681 341.072 560.886 337.408 563.095 334.264C564.304 332.551 565.589 331.281 566.988 330.441C569.201 329.121 571.808 328.861 574.581 329.651C575.664 330.018 576.735 330.473 577.714 331.044Z" fill="white" fill-opacity="0.2"/>
<path d="M534.819 260.314C536.487 260.304 537.832 259.023 537.822 257.451C537.813 255.879 536.452 254.613 534.784 254.622C533.116 254.631 531.771 255.913 531.781 257.484C531.791 259.056 533.151 260.323 534.819 260.314Z" fill="white" fill-opacity="0.2"/>
<path d="M539.272 251.549C540.941 251.54 542.285 250.258 542.275 248.686C542.266 247.115 540.906 245.848 539.237 245.857C537.569 245.867 536.225 247.148 536.234 248.72C536.244 250.292 537.604 251.558 539.272 251.549Z" fill="white" fill-opacity="0.2"/>
<path d="M544.848 258.254C546.516 258.245 547.86 256.963 547.851 255.392C547.841 253.82 546.481 252.553 544.813 252.562C543.144 252.572 541.8 253.853 541.809 255.425C541.819 256.997 543.179 258.263 544.848 258.254Z" fill="white" fill-opacity="0.2"/>
<path d="M769.791 345.94C767.735 343.787 765.638 341.634 763.454 339.481C765.823 337.223 768.148 334.846 770.046 332.15C770.553 331.465 770.334 330.504 769.608 330.068C768.882 329.591 767.862 329.797 767.398 330.481C765.627 332.976 763.555 335.152 761.271 337.289C759.217 335.296 757.12 333.303 754.98 331.351C754.339 330.753 753.318 330.759 752.726 331.363C752.091 331.968 752.097 332.93 752.739 333.488C754.835 335.4 756.89 337.393 758.944 339.386C758.479 339.829 757.971 340.273 757.463 340.677C755.728 342.209 753.909 343.823 752.217 345.516C751.625 346.12 751.631 347.042 752.23 347.64C752.872 348.198 753.893 348.192 754.485 347.588C756.134 345.975 757.911 344.402 759.604 342.869C760.112 342.426 760.577 341.982 761.085 341.539C763.182 343.651 765.28 345.764 767.335 347.877C767.378 347.917 767.378 347.917 767.421 347.957C768.02 348.515 768.999 348.549 769.634 348.025C770.354 347.54 770.39 346.578 769.791 345.94ZM267.188 329.237L267.011 328.196C266.346 323.751 266.018 318.902 265.942 313.371C265.928 311.167 265.913 308.762 265.981 305.956C265.979 305.675 265.977 305.354 265.975 305.034C265.963 303.03 265.948 300.544 267.601 299.613C268.534 299.087 269.769 299.201 271.22 299.954C273.652 301.183 276.857 303.41 278.702 305.885C281.061 308.999 281.849 312.642 280.892 316.175C279.561 321.112 274.587 328.635 268.208 329.112L267.188 329.237ZM268.931 301.41C268.846 301.41 268.804 301.411 268.761 301.451C268.719 301.491 268.465 301.653 268.3 302.536C268.177 303.298 268.183 304.22 268.188 305.062C268.19 305.382 268.192 305.743 268.194 306.024C268.126 308.79 268.14 311.155 268.154 313.359C268.227 318.369 268.51 322.777 269.088 326.862C273.761 325.754 277.722 319.559 278.804 315.665C279.595 312.775 278.938 309.732 276.965 307.137C275.292 304.942 272.302 302.914 270.168 301.844C269.57 301.527 269.144 301.409 268.931 301.41ZM347.004 253.519C346.962 253.52 346.919 253.52 346.834 253.48C345.811 253.205 345.13 253.129 343.982 253.215C343.684 253.217 343.427 253.018 343.383 252.738C343.381 252.457 343.593 252.215 343.89 252.174C345.209 252.086 345.975 252.162 347.125 252.476C347.424 252.555 347.596 252.835 347.512 253.116C347.429 253.357 347.217 253.518 347.004 253.519ZM342.689 257.431C342.476 257.432 342.263 257.313 342.176 257.113C341.831 256.274 341.655 255.393 341.607 254.471C341.605 254.19 341.816 253.949 342.114 253.947C342.412 253.946 342.669 254.145 342.67 254.425C342.718 255.226 342.893 255.987 343.153 256.747C343.239 257.027 343.113 257.309 342.816 257.39C342.816 257.431 342.731 257.431 342.689 257.431ZM337.568 255.014C337.398 255.015 337.228 254.936 337.142 254.816C336.97 254.577 337.011 254.256 337.222 254.094C337.985 253.529 338.79 253.044 339.681 252.638C339.936 252.516 340.277 252.635 340.406 252.874C340.535 253.114 340.409 253.435 340.155 253.557C339.349 253.922 338.586 254.367 337.908 254.892C337.823 254.973 337.696 255.014 337.568 255.014ZM340.269 251.352C340.056 251.353 339.885 251.234 339.757 251.074C339.541 250.675 339.241 250.315 338.727 249.717C338.598 249.557 338.427 249.358 338.256 249.158C338.084 248.919 338.125 248.598 338.336 248.437C338.591 248.275 338.931 248.313 339.103 248.512C339.274 248.712 339.445 248.911 339.574 249.071C340.131 249.709 340.474 250.108 340.732 250.628C340.861 250.868 340.736 251.189 340.481 251.311C340.439 251.351 340.354 251.351 340.269 251.352ZM342.906 251.217C342.778 251.218 342.693 251.178 342.565 251.139C342.309 250.98 342.264 250.659 342.433 250.418C342.939 249.734 343.403 249.05 343.824 248.326C343.95 248.085 344.29 247.963 344.546 248.122C344.802 248.24 344.932 248.56 344.763 248.802C344.342 249.566 343.836 250.33 343.288 251.055C343.203 251.135 343.076 251.216 342.906 251.217ZM566.048 381.378C566.006 381.378 565.963 381.378 565.878 381.338C564.855 381.063 564.174 380.987 563.026 381.074C562.728 381.075 562.471 380.876 562.427 380.596C562.425 380.315 562.636 380.074 562.934 380.032C564.252 379.944 565.019 380.02 566.169 380.335C566.468 380.413 566.639 380.693 566.556 380.974C566.473 381.215 566.261 381.376 566.048 381.378ZM561.733 385.289C561.52 385.291 561.306 385.172 561.22 384.972C560.875 384.132 560.699 383.251 560.651 382.329C560.649 382.049 560.86 381.807 561.158 381.805C561.456 381.804 561.712 382.003 561.714 382.283C561.762 383.085 561.936 383.845 562.196 384.605C562.283 384.886 562.157 385.167 561.86 385.249C561.86 385.289 561.775 385.289 561.733 385.289ZM556.612 382.873C556.442 382.874 556.271 382.794 556.186 382.675C556.014 382.435 556.055 382.114 556.266 381.953C557.029 381.387 557.834 380.902 558.725 380.496C558.979 380.374 559.321 380.493 559.45 380.733C559.579 380.972 559.453 381.294 559.199 381.415C558.392 381.781 557.629 382.226 556.952 382.751C556.867 382.831 556.74 382.872 556.612 382.873ZM559.313 379.21C559.1 379.211 558.929 379.092 558.8 378.932C558.585 378.533 558.285 378.174 557.771 377.575C557.642 377.416 557.471 377.216 557.3 377.017C557.128 376.777 557.168 376.456 557.38 376.295C557.634 376.133 557.975 376.171 558.146 376.371C558.318 376.57 558.489 376.77 558.618 376.929C559.175 377.567 559.518 377.966 559.776 378.486C559.905 378.726 559.78 379.047 559.525 379.169C559.483 379.209 559.398 379.21 559.313 379.21ZM561.95 379.075C561.822 379.076 561.737 379.036 561.609 378.997C561.352 378.838 561.308 378.518 561.477 378.276C561.983 377.592 562.447 376.908 562.868 376.184C562.994 375.943 563.334 375.821 563.59 375.98C563.846 376.099 563.975 376.419 563.807 376.66C563.386 377.424 562.88 378.188 562.331 378.913C562.247 378.994 562.12 379.074 561.95 379.075ZM694.32 457.068C693.724 457.071 693.085 456.994 692.404 456.798C688.823 455.735 685.31 451.746 684.399 448.825C684.225 448.265 684.094 447.665 684.005 447.064C680.567 448.406 677.437 451.349 677.505 455.517C677.509 456.118 677.001 456.602 676.363 456.646C675.725 456.649 675.211 456.171 675.208 455.57C675.149 452.885 676.197 450.394 678.141 448.339C679.663 446.727 681.698 445.473 683.948 444.779C684.145 442.173 685.235 439.601 687.053 437.788C690.013 434.805 694.774 434.177 698.643 433.675L698.94 433.633C699.578 433.55 700.176 433.987 700.265 434.548C700.354 435.149 699.889 435.712 699.294 435.796L698.997 435.838C695.341 436.339 691.175 436.883 688.807 439.261C687.538 440.551 686.699 442.359 686.412 444.245C689.771 443.825 693.946 444.724 696.765 446.472C698.601 447.624 699.805 449.582 699.859 451.546C699.955 453.269 699.156 454.876 697.674 456.007C696.657 456.654 695.553 457.061 694.32 457.068ZM686.298 446.41C686.344 447.011 686.476 447.611 686.649 448.171C687.387 450.492 690.386 453.843 693.114 454.669C694.307 455.024 695.285 454.858 696.174 454.212C697.318 453.363 697.524 452.28 697.477 451.559C697.426 450.276 696.61 448.998 695.414 448.243C692.979 446.693 689.146 445.953 686.298 446.41Z" fill="white" fill-opacity="0.2"/>
<path d="M903.056 197.884C901.571 200.465 900.097 203.084 898.649 205.787C895.814 204.152 892.877 202.593 889.755 201.533C888.954 201.24 888.094 201.722 887.881 202.541C887.628 203.372 888.114 204.293 888.901 204.545C891.795 205.539 894.467 206.912 897.162 208.5C895.83 211.033 894.51 213.608 893.242 216.212C892.849 216.995 893.143 217.973 893.89 218.371C894.649 218.809 895.571 218.532 895.925 217.758C897.167 215.208 898.499 212.674 899.831 210.14C900.387 210.461 900.956 210.823 901.487 211.197C903.447 212.429 905.509 213.718 907.611 214.863C908.357 215.26 909.24 214.994 909.644 214.251C909.999 213.477 909.705 212.5 908.958 212.102C906.945 210.976 904.934 209.715 902.986 208.524C902.417 208.162 901.86 207.841 901.292 207.479C902.726 204.871 904.16 202.261 905.607 199.694C905.633 199.641 905.633 199.641 905.66 199.588C906.026 198.856 905.782 197.907 905.1 197.446C904.432 196.892 903.499 197.13 903.056 197.884ZM1028.93 684.755L1027.99 685.219C1023.91 687.112 1019.35 688.795 1014.07 690.43C1011.96 691.066 1009.65 691.759 1006.94 692.486C1006.67 692.567 1006.37 692.66 1006.06 692.752C1004.14 693.329 1001.76 694.046 1000.4 692.723C999.631 691.976 999.392 690.759 999.705 689.155C1000.2 686.475 1001.43 682.771 1003.28 680.303C1005.6 677.16 1008.88 675.376 1012.54 675.297C1017.65 675.179 1026.27 677.827 1028.53 683.812L1028.93 684.755ZM1001.75 690.94C1001.77 691.021 1001.78 691.061 1001.84 691.091C1001.89 691.12 1002.11 691.318 1003.01 691.227C1003.77 691.13 1004.65 690.864 1005.46 690.621C1005.77 690.529 1006.11 690.425 1006.38 690.344C1009.05 689.628 1011.32 688.947 1013.43 688.311C1018.22 686.827 1022.36 685.311 1026.12 683.603C1023.74 679.433 1016.68 677.382 1012.64 677.444C1009.64 677.501 1006.91 678.99 1004.97 681.616C1003.34 683.84 1002.24 687.281 1001.81 689.63C1001.68 690.294 1001.69 690.736 1001.75 690.94ZM933.762 629.564C933.775 629.604 933.787 629.646 933.773 629.738C933.798 630.797 933.917 631.472 934.324 632.549C934.41 632.834 934.292 633.137 934.036 633.258C933.767 633.34 933.474 633.205 933.351 632.931C932.894 631.691 932.751 630.935 932.728 629.743C932.719 629.434 932.939 629.189 933.232 629.191C933.487 629.202 933.701 629.36 933.762 629.564ZM938.734 632.599C938.795 632.803 938.741 633.041 938.573 633.181C937.866 633.749 937.07 634.167 936.199 634.473C935.93 634.554 935.64 634.42 935.554 634.134C935.469 633.849 935.587 633.546 935.855 633.466C936.61 633.194 937.291 632.811 937.946 632.347C938.191 632.186 938.497 632.227 938.658 632.489C938.698 632.477 938.722 632.559 938.734 632.599ZM937.861 638.194C937.91 638.357 937.882 638.542 937.791 638.659C937.61 638.891 937.291 638.943 937.076 638.786C936.318 638.214 935.626 637.578 934.985 636.838C934.796 636.628 934.814 636.267 935.006 636.076C935.2 635.884 935.544 635.915 935.733 636.124C936.31 636.794 936.953 637.4 937.648 637.903C937.749 637.961 937.825 638.071 937.861 638.194ZM933.585 636.637C933.646 636.841 933.58 637.039 933.463 637.207C933.141 637.527 932.881 637.916 932.452 638.578C932.335 638.747 932.192 638.967 932.049 639.188C931.868 639.42 931.548 639.471 931.334 639.314C931.107 639.116 931.047 638.779 931.19 638.557C931.333 638.337 931.476 638.117 931.593 637.948C932.048 637.233 932.334 636.792 932.76 636.397C932.954 636.206 933.297 636.235 933.486 636.445C933.536 636.474 933.56 636.556 933.585 636.637ZM932.711 634.145C932.748 634.268 932.734 634.361 932.733 634.495C932.652 634.785 932.357 634.919 932.078 634.825C931.279 634.533 930.492 634.281 929.678 634.081C929.412 634.028 929.199 633.737 929.279 633.446C929.32 633.167 929.59 632.952 929.87 633.046C930.722 633.234 931.598 633.504 932.448 633.825C932.549 633.884 932.662 633.983 932.711 634.145ZM994.576 383.333C994.588 383.373 994.6 383.414 994.585 383.507C994.61 384.566 994.73 385.241 995.137 386.318C995.222 386.603 995.104 386.906 994.848 387.027C994.579 387.109 994.288 386.974 994.164 386.7C993.707 385.461 993.563 384.703 993.541 383.511C993.531 383.202 993.752 382.959 994.045 382.96C994.299 382.971 994.514 383.129 994.576 383.333ZM999.546 386.368C999.608 386.572 999.554 386.811 999.387 386.95C998.678 387.518 997.883 387.935 997.012 388.242C996.744 388.323 996.452 388.189 996.366 387.903C996.281 387.618 996.399 387.316 996.667 387.235C997.423 386.962 998.103 386.581 998.759 386.117C999.004 385.954 999.309 385.996 999.472 386.257C999.51 386.246 999.534 386.328 999.546 386.368ZM998.674 391.963C998.723 392.126 998.694 392.312 998.604 392.427C998.423 392.66 998.103 392.711 997.889 392.554C997.131 391.982 996.438 391.347 995.797 390.607C995.608 390.398 995.626 390.036 995.82 389.844C996.013 389.653 996.357 389.683 996.545 389.893C997.124 390.564 997.766 391.17 998.461 391.671C998.562 391.73 998.637 391.84 998.674 391.963ZM994.397 390.406C994.458 390.61 994.393 390.808 994.276 390.976C993.953 391.295 993.694 391.685 993.264 392.347C993.148 392.515 993.005 392.736 992.862 392.956C992.68 393.189 992.361 393.241 992.147 393.083C991.92 392.885 991.86 392.547 992.003 392.327C992.146 392.106 992.289 391.885 992.405 391.717C992.86 391.002 993.146 390.56 993.572 390.166C993.766 389.975 994.109 390.004 994.298 390.214C994.348 390.243 994.373 390.324 994.397 390.406ZM993.523 387.914C993.56 388.037 993.546 388.13 993.545 388.263C993.465 388.555 993.17 388.687 992.89 388.594C992.091 388.301 991.304 388.049 990.491 387.85C990.224 387.797 990.011 387.505 990.091 387.215C990.133 386.936 990.404 386.722 990.682 386.815C991.534 387.003 992.41 387.273 993.26 387.595C993.362 387.652 993.474 387.751 993.523 387.914ZM1030.97 238.909C1031.14 239.48 1031.25 240.115 1031.25 240.824C1031.24 244.559 1028.41 249.055 1025.86 250.754C1025.38 251.079 1024.84 251.374 1024.29 251.629C1026.54 254.549 1030.25 256.72 1034.23 255.478C1034.81 255.305 1035.41 255.655 1035.64 256.255C1035.82 256.866 1035.51 257.494 1034.93 257.667C1032.37 258.482 1029.68 258.179 1027.16 256.895C1025.19 255.89 1023.41 254.292 1022.11 252.329C1019.55 252.876 1016.78 252.556 1014.53 251.324C1010.83 249.327 1008.88 244.937 1007.31 241.367L1007.18 241.094C1006.92 240.505 1007.18 239.808 1007.69 239.565C1008.24 239.309 1008.91 239.597 1009.16 240.144L1009.28 240.417C1010.8 243.783 1012.49 247.625 1015.44 249.226C1017.04 250.079 1019.01 250.373 1020.9 250.116C1019.55 247.012 1019.23 242.753 1020.12 239.556C1020.7 237.469 1022.24 235.761 1024.11 235.155C1025.74 234.576 1027.5 234.889 1029.01 235.991C1029.91 236.784 1030.62 237.729 1030.97 238.909ZM1023.01 249.614C1023.57 249.4 1024.11 249.104 1024.6 248.78C1026.62 247.417 1028.99 243.594 1029.01 240.744C1029.01 239.499 1028.58 238.608 1027.71 237.937C1026.57 237.079 1025.47 237.188 1024.79 237.436C1023.58 237.847 1022.58 238.991 1022.2 240.352C1021.4 243.125 1021.77 247.011 1023.01 249.614Z" fill="white" fill-opacity="0.2"/>
<path d="M878.621 533.757C877.615 533.21 869.768 527.727 869.925 527.173C870.044 526.832 878.396 522.228 878.757 522.226C878.877 522.268 878.845 530.862 878.621 533.757ZM1009.26 352.014C1009.22 352.057 1005.99 354.884 1004.27 356.171C1004.15 356.257 1003.87 356.386 1003.67 356.473C1003.51 356.559 1003.39 356.645 1003.35 356.772C1003.31 356.9 1003.35 357.028 1003.48 357.112L1009.39 361.543C1009.47 361.628 1009.59 361.627 1009.75 361.626C1009.87 361.625 1010.03 361.539 1010.11 361.454C1010.15 361.411 1010.99 360.682 1011.35 360.255C1012.58 358.928 1015.54 356.485 1015.58 356.442C1015.7 356.357 1015.74 356.229 1015.74 356.101C1015.73 355.973 1015.65 355.889 1015.53 355.847C1015.53 355.847 1014.41 355.343 1013.89 355.006C1013.12 354.543 1012.4 354.037 1011.67 353.531C1011.11 353.151 1010.99 352.982 1010.87 352.812C1010.71 352.601 1010.58 352.389 1009.9 351.925C1009.78 351.798 1009.46 351.842 1009.26 352.014ZM795.754 297.543C795.833 297.287 795.671 296.99 795.431 296.949C795.39 296.949 795.35 296.949 795.27 296.95C794.709 296.868 790.213 295.79 787.444 295.083C787.323 295.041 787.203 295.085 787.123 295.17C787.004 295.256 786.964 295.384 786.925 295.512C786.925 295.597 786.495 297.514 786.417 297.94L785.366 303.648C785.327 303.775 785.369 303.945 785.449 304.03C785.53 304.115 785.611 304.199 785.691 304.241H785.73C788.337 304.565 790.987 305.145 793.516 305.853C793.637 305.894 793.756 305.851 793.876 305.765C793.995 305.68 794.035 305.552 794.074 305.424C794.582 302.953 795.207 300.014 795.754 297.543ZM795.032 297.122C794.992 297.164 794.951 297.207 794.951 297.292C794.951 297.207 794.992 297.164 795.032 297.122Z" fill="#A1BEDE"/>
<path d="M796.165 212.973C795.397 212.092 789.787 204.074 790.113 203.611C790.334 203.334 799.66 202.061 799.999 202.191C800.099 202.274 797.306 210.336 796.165 212.973ZM977.303 89.966C977.252 89.9917 973.308 91.4676 971.282 92.0494C971.141 92.0862 970.837 92.1055 970.621 92.1135C970.443 92.136 970.303 92.1729 970.225 92.2786C970.147 92.3843 970.145 92.5189 970.231 92.6422L974.366 98.9665C974.414 99.0754 974.527 99.1187 974.678 99.1763C974.792 99.2196 974.969 99.1971 975.072 99.1458C975.123 99.1202 976.144 98.742 976.618 98.4712C978.205 97.6764 981.764 96.4601 981.816 96.4344C981.956 96.3976 982.034 96.2918 982.074 96.1717C982.114 96.0515 982.066 95.9426 981.966 95.8593C981.966 95.8593 981.071 94.9751 980.688 94.4673C980.119 93.7529 979.601 93.0128 979.083 92.2727C978.676 91.7105 978.617 91.507 978.557 91.3036C978.474 91.0457 978.428 90.8022 977.934 90.1166C977.861 89.9532 977.546 89.8779 977.303 89.966ZM794.221 -39.2082C794.377 -39.4197 794.32 -39.7577 794.107 -39.8843C794.07 -39.8987 794.032 -39.9131 793.956 -39.9419C793.455 -40.2238 789.578 -42.8795 787.203 -44.5549C787.103 -44.6382 786.977 -44.6414 786.874 -44.5901C786.734 -44.5532 786.656 -44.4475 786.578 -44.3418C786.551 -44.2617 785.531 -42.6179 785.321 -42.2462L782.499 -37.2684C782.421 -37.1626 782.405 -36.988 782.454 -36.8791C782.502 -36.7702 782.551 -36.6613 782.613 -36.5924L782.651 -36.578C784.996 -35.3207 787.298 -33.8086 789.447 -32.2197C789.547 -32.1364 789.673 -32.1332 789.813 -32.17C789.953 -32.2069 790.032 -32.3127 790.11 -32.4184C791.38 -34.554 792.912 -37.087 794.221 -39.2082ZM793.676 -39.8682C793.625 -39.8425 793.574 -39.8169 793.547 -39.7368C793.574 -39.8169 793.625 -39.8425 793.676 -39.8682Z" fill="#A1BEDE"/>
<path d="M907.043 351.989C907.263 352.588 907.153 353.218 906.692 353.705C906.095 354.288 905.112 354.287 904.532 353.639C903.387 352.384 901.766 351.575 900.102 351.463C898.438 351.351 896.806 351.907 895.597 353.032C895.302 353.277 895.037 353.601 894.72 353.899C894.198 354.454 893.593 355.131 892.838 355.635C891.429 356.563 889.633 356.907 887.731 356.61C886.315 356.361 884.834 355.819 883.192 354.837C882.431 354.392 882.153 353.406 882.564 352.665C882.96 351.884 883.893 351.632 884.616 352.09C885.968 352.862 887.074 353.316 888.115 353.476C889.299 353.675 890.388 353.5 891.165 352.942C891.647 352.628 892.071 352.155 892.533 351.667C892.873 351.315 893.213 350.963 893.553 350.611C895.351 348.997 897.773 348.15 900.217 348.292C902.623 348.448 905.014 349.608 906.725 351.471C906.858 351.603 906.97 351.789 907.043 351.989ZM881.758 342.806C881.462 342.235 881.505 341.539 881.914 341.025C882.43 340.337 883.435 340.284 884.113 340.85C885.446 342.036 887.159 342.63 888.802 342.568C890.483 342.493 892.079 341.724 893.192 340.452C893.471 340.168 893.684 339.817 893.972 339.439C894.465 338.804 894.966 338.076 895.676 337.451C896.975 336.338 898.772 335.767 900.728 335.862C902.213 335.95 903.725 336.345 905.526 337.178C906.348 337.555 906.738 338.499 906.408 339.346C906.117 340.179 905.191 340.565 904.407 340.174C902.972 339.524 901.782 339.192 900.732 339.125C899.518 339.074 898.435 339.382 897.688 340.02C897.272 340.4 896.863 340.913 896.469 341.467C896.181 341.845 895.87 342.277 895.544 342.669C893.924 344.535 891.568 345.675 889.099 345.814C886.616 345.913 884.11 345.022 882.189 343.282C881.98 343.178 881.831 343.006 881.758 342.806ZM1015.86 510.624C1017.58 507.405 1020.44 504.854 1022.9 503.766C1025.57 502.555 1029.42 502.452 1032.07 505.012C1033.08 506.002 1033.88 507.383 1034.54 509.179C1035.67 512.348 1035.35 514.732 1033.65 516.493C1032.19 517.983 1029.7 518.991 1027.4 517.977C1025.61 517.185 1024.71 515.431 1025.15 513.727C1025.32 513.123 1025.95 512.754 1026.53 512.947C1027.12 513.14 1027.49 513.817 1027.33 514.421C1027.11 515.32 1028.09 515.775 1028.19 515.827C1029.52 516.425 1031.13 515.696 1032.03 514.775C1033.09 513.705 1033.22 512.205 1032.42 509.916C1031.89 508.478 1031.29 507.429 1030.56 506.703C1028.97 505.159 1026.19 504.82 1023.86 505.907C1021.19 507.118 1017.79 510.545 1016.78 514.41C1016.23 516.516 1016.48 518.372 1017.51 519.99C1018.23 521.131 1019.32 522.133 1020.81 523.171C1023.7 525.099 1026.97 526.207 1030.04 526.208C1033.34 526.219 1036.29 524.857 1038.75 522.137C1039.18 521.664 1039.9 521.668 1040.34 522.144C1040.8 522.606 1040.83 523.368 1040.39 523.801C1037.53 526.941 1033.96 528.618 1030.11 528.587C1026.6 528.566 1022.86 527.357 1019.62 525.152C1017.85 523.944 1016.53 522.664 1015.63 521.272C1014.22 519.07 1013.87 516.48 1014.56 513.729C1014.9 512.655 1015.32 511.593 1015.86 510.624Z" fill="white" fill-opacity="0.2"/>
<path d="M523.915 41.7717C524.306 42.2712 524.398 42.913 524.118 43.5378C523.741 44.3004 522.825 44.6347 522.084 44.211C520.628 43.3968 518.866 43.1741 517.28 43.6337C515.693 44.0934 514.343 45.1831 513.563 46.675C513.364 47.01 513.217 47.4115 513.013 47.8059C512.698 48.5162 512.342 49.3716 511.795 50.1126C510.766 51.4831 509.198 52.4252 507.332 52.7896C505.935 53.0331 504.386 53.0174 502.552 52.6354C501.704 52.4683 501.141 51.6169 501.295 50.7661C501.423 49.8821 502.215 49.3219 503.031 49.5151C504.53 49.7946 505.702 49.8527 506.723 49.6516C507.888 49.4388 508.85 48.9001 509.402 48.0996C509.755 47.6341 510.004 47.0354 510.283 46.4106C510.492 45.9568 510.701 45.503 510.909 45.0492C512.087 42.8874 514.084 41.2493 516.407 40.5526C518.7 39.8821 521.288 40.1792 523.459 41.3838C523.624 41.4648 523.785 41.6052 523.915 41.7717ZM497.497 41.5834C497.045 41.1362 496.87 40.4539 497.093 39.8219C497.361 38.9855 498.282 38.5918 499.089 38.9039C500.699 39.5875 502.48 39.5725 503.993 38.9535C505.537 38.3085 506.788 37.0261 507.433 35.4271C507.606 35.0589 507.696 34.6502 507.848 34.1892C508.111 33.4122 508.353 32.5426 508.822 31.7016C509.69 30.1907 511.189 29.0299 513.044 28.454C514.455 28.0323 515.987 27.8958 517.924 28.0806C518.807 28.1622 519.463 28.9353 519.417 29.8598C519.403 30.7582 518.659 31.4444 517.806 31.3367C516.267 31.2022 515.055 31.289 514.056 31.5828C512.907 31.9478 511.993 32.6125 511.493 33.4795C511.222 33.9855 510.999 34.6175 510.803 35.2829C510.651 35.7438 510.494 36.2642 510.312 36.7513C509.378 39.094 507.532 40.9913 505.273 41.9661C502.987 42.9076 500.375 42.9076 498.046 41.8929C497.818 41.8642 497.627 41.7499 497.497 41.5834ZM674.41 156.851C675.02 153.177 676.902 149.754 678.861 147.871C680.979 145.798 684.536 144.387 687.799 145.94C689.041 146.547 690.22 147.596 691.392 149.095C693.417 151.751 693.856 154.148 692.813 156.416C691.913 158.343 689.901 160.16 687.448 159.97C685.538 159.818 684.155 158.443 684.04 156.658C684.005 156.023 684.481 155.453 685.085 155.44C685.689 155.426 686.25 155.947 686.285 156.582C686.353 157.52 687.407 157.624 687.521 157.638C688.946 157.758 690.223 156.509 690.778 155.319C691.434 153.931 691.094 152.448 689.641 150.524C688.704 149.325 687.821 148.523 686.91 148.078C684.947 147.14 682.257 147.76 680.416 149.598C678.298 151.671 676.191 156.116 676.44 160.169C676.578 162.377 677.39 164.07 678.843 165.274C679.866 166.123 681.196 166.712 682.908 167.198C686.197 168.064 689.587 168.012 692.456 166.964C695.53 165.852 697.868 163.537 699.321 160.09C699.57 159.491 700.25 159.247 700.799 159.556C701.379 159.84 701.637 160.563 701.362 161.128C699.664 165.115 696.855 167.94 693.25 169.225C689.97 170.401 686.115 170.514 682.407 169.505C680.385 168.95 678.754 168.173 677.488 167.143C675.495 165.511 674.364 163.147 674.164 160.271C674.141 159.128 674.206 157.966 674.41 156.851Z" fill="white" fill-opacity="0.2"/>
<path d="M249.502 403.607C249.162 403.071 249.134 402.423 249.475 401.829C249.926 401.108 250.87 400.866 251.566 401.361C252.934 402.316 254.665 402.712 256.289 402.412C257.914 402.112 259.365 401.162 260.289 399.754C260.52 399.441 260.706 399.056 260.949 398.684C261.332 398.008 261.772 397.192 262.389 396.509C263.549 395.248 265.203 394.466 267.096 394.288C268.51 394.184 270.05 394.354 271.837 394.916C272.664 395.166 273.14 396.069 272.902 396.9C272.687 397.767 271.844 398.246 271.051 397.973C269.587 397.546 268.427 397.372 267.391 397.471C266.21 397.567 265.2 398.008 264.571 398.75C264.173 399.178 263.866 399.749 263.527 400.343C263.274 400.774 263.021 401.205 262.769 401.635C261.382 403.67 259.233 405.102 256.852 405.565C254.504 406.004 251.958 405.452 249.917 404.038C249.761 403.941 249.615 403.786 249.502 403.607ZM275.771 406.414C276.176 406.904 276.283 407.601 275.998 408.207C275.649 409.013 274.693 409.313 273.921 408.923C272.387 408.083 270.613 407.921 269.046 408.387C267.446 408.876 266.074 410.028 265.273 411.555C265.065 411.904 264.935 412.302 264.738 412.746C264.399 413.493 264.072 414.334 263.522 415.124C262.508 416.542 260.901 417.548 258.998 417.937C257.553 418.217 256.015 418.201 254.105 417.825C253.235 417.656 252.659 416.822 252.796 415.906C252.899 415.014 253.708 414.405 254.546 414.596C256.064 414.883 257.279 414.917 258.302 414.723C259.481 414.474 260.457 413.903 261.04 413.09C261.36 412.614 261.645 412.007 261.906 411.364C262.103 410.921 262.31 410.418 262.54 409.952C263.702 407.713 265.727 406.008 268.071 405.262C270.439 404.552 273.038 404.811 275.255 406.052C275.479 406.103 275.658 406.236 275.771 406.414ZM111.162 274.169C110.191 277.764 107.979 280.984 105.843 282.663C103.529 284.516 99.85 285.567 96.7571 283.698C95.5815 282.971 94.5124 281.81 93.4948 280.202C91.7432 277.359 91.5441 274.93 92.8069 272.776C93.8936 270.948 96.0758 269.34 98.4979 269.772C100.383 270.113 101.623 271.618 101.561 273.406C101.532 274.041 101.002 274.561 100.4 274.514C99.7976 274.468 99.291 273.894 99.3192 273.259C99.3445 272.319 98.306 272.111 98.194 272.085C96.7879 271.825 95.3934 272.941 94.7231 274.07C93.9327 275.386 94.1239 276.895 95.3789 278.954C96.1923 280.24 96.9915 281.126 97.8538 281.659C99.7141 282.787 102.452 282.437 104.467 280.79C106.78 278.938 109.317 274.724 109.471 270.666C109.553 268.455 108.913 266.69 107.587 265.348C106.653 264.401 105.388 263.683 103.732 263.03C100.546 261.842 97.167 261.558 94.2082 262.316C91.0391 263.118 88.4831 265.189 86.6954 268.475C86.3882 269.047 85.6873 269.222 85.1717 268.86C84.6227 268.52 84.4377 267.775 84.7673 267.24C86.8524 263.441 89.9277 260.908 93.6424 259.987C97.0229 259.142 100.87 259.412 104.46 260.784C106.417 261.537 107.963 262.472 109.12 263.622C110.942 265.444 111.832 267.908 111.746 270.79C111.656 271.93 111.476 273.08 111.162 274.169Z" fill="white" fill-opacity="0.2"/>
<path d="M702.966 -9.28175C701.639 -6.6168 700.328 -3.91195 699.046 -1.12721C696.117 -2.58729 693.091 -3.96585 689.91 -4.83427C689.094 -5.07786 688.265 -4.54563 688.101 -3.71439C687.899 -2.86929 688.44 -1.98027 689.241 -1.77661C692.189 -0.958695 694.94 0.249589 697.726 1.67138C696.55 4.2809 695.389 6.93038 694.28 9.6059C693.936 10.4127 694.289 11.371 695.058 11.7221C695.843 12.1132 696.746 11.7807 697.052 10.9877C698.138 8.366 699.314 5.75648 700.489 3.14696C701.065 3.43376 701.654 3.76049 702.207 4.10108C704.238 5.21164 706.374 6.37436 708.541 7.38956C709.311 7.74072 710.176 7.422 710.534 6.65511C710.841 5.86216 710.488 4.90386 709.718 4.5527C707.641 3.54971 705.558 2.41304 703.541 1.34242C702.951 1.01568 702.376 0.728881 701.786 0.40215C703.06 -2.28887 704.334 -4.97988 705.623 -7.63098C705.646 -7.68476 705.646 -7.68475 705.669 -7.73853C705.99 -8.49156 705.689 -9.42384 704.98 -9.84265C704.279 -10.3552 703.362 -10.0625 702.966 -9.28175ZM858.108 469.069L857.189 469.589C853.235 471.726 848.786 473.683 843.611 475.635C841.542 476.397 839.285 477.228 836.623 478.119C836.36 478.216 836.059 478.326 835.758 478.437C833.878 479.13 831.546 479.989 830.108 478.751C829.296 478.052 828.983 476.853 829.198 475.232C829.527 472.526 830.532 468.756 832.233 466.179C834.359 462.902 837.517 460.923 841.165 460.622C846.261 460.195 855.027 462.315 857.643 468.152L858.108 469.069ZM831.345 476.889C831.375 476.969 831.389 477.009 831.442 477.035C831.494 477.061 831.732 477.245 832.619 477.1C833.377 476.957 834.242 476.638 835.032 476.347C835.333 476.236 835.672 476.111 835.935 476.014C838.559 475.138 840.779 474.321 842.847 473.558C847.534 471.786 851.583 470.022 855.229 468.09C852.598 464.072 845.426 462.452 841.395 462.758C838.408 462.997 835.77 464.649 834.001 467.387C832.505 469.706 831.615 473.208 831.333 475.579C831.238 476.249 831.272 476.69 831.345 476.889ZM759.767 419.745C759.782 419.785 759.797 419.825 759.788 419.919C759.877 420.974 760.037 421.64 760.509 422.691C760.612 422.97 760.512 423.279 760.263 423.416C760 423.513 759.701 423.397 759.56 423.131C759.03 421.921 758.841 421.174 758.745 419.985C758.718 419.678 758.922 419.421 759.215 419.404C759.47 419.401 759.694 419.545 759.767 419.745ZM764.913 422.474C764.987 422.673 764.947 422.915 764.788 423.064C764.116 423.674 763.347 424.139 762.497 424.497C762.234 424.594 761.935 424.478 761.832 424.198C761.729 423.919 761.829 423.61 762.092 423.513C762.83 423.196 763.486 422.773 764.112 422.27C764.346 422.093 764.654 422.116 764.832 422.368C764.869 422.354 764.898 422.434 764.913 422.474ZM764.381 428.111C764.44 428.27 764.423 428.458 764.34 428.579C764.173 428.822 763.857 428.893 763.633 428.749C762.842 428.224 762.112 427.632 761.428 426.932C761.227 426.734 761.222 426.373 761.404 426.17C761.585 425.967 761.93 425.976 762.131 426.174C762.749 426.808 763.427 427.374 764.151 427.833C764.255 427.885 764.337 427.991 764.381 428.111ZM760.018 426.816C760.092 427.016 760.038 427.217 759.931 427.392C759.629 427.73 759.393 428.135 759.005 428.822C758.899 428.997 758.769 429.226 758.64 429.455C758.473 429.698 758.157 429.769 757.934 429.625C757.695 429.44 757.615 429.107 757.745 428.878C757.874 428.649 758.003 428.42 758.11 428.245C758.52 427.504 758.779 427.046 759.18 426.626C759.362 426.423 759.707 426.432 759.907 426.63C759.96 426.656 759.989 426.736 760.018 426.816ZM758.995 424.382C759.039 424.502 759.031 424.595 759.038 424.729C758.975 425.024 758.689 425.175 758.405 425.098C757.589 424.855 756.788 424.651 755.964 424.501C755.695 424.465 755.464 424.187 755.527 423.892C755.551 423.611 755.808 423.38 756.093 423.456C756.954 423.592 757.845 423.808 758.713 424.078C758.817 424.13 758.937 424.222 758.995 424.382ZM805.552 170.282C805.566 170.322 805.581 170.362 805.573 170.456C805.662 171.511 805.822 172.178 806.293 173.228C806.396 173.508 806.296 173.816 806.048 173.953C805.784 174.05 805.485 173.934 805.345 173.668C804.814 172.458 804.625 171.712 804.53 170.523C804.502 170.215 804.707 169.959 804.999 169.942C805.254 169.938 805.478 170.082 805.552 170.282ZM810.698 173.011C810.771 173.21 810.732 173.452 810.573 173.601C809.901 174.211 809.132 174.676 808.282 175.035C808.018 175.132 807.719 175.015 807.616 174.735C807.514 174.456 807.614 174.147 807.877 174.05C808.614 173.733 809.27 173.31 809.897 172.807C810.131 172.63 810.438 172.653 810.616 172.905C810.654 172.891 810.683 172.971 810.698 173.011ZM810.165 178.648C810.224 178.807 810.208 178.995 810.124 179.116C809.957 179.359 809.642 179.43 809.418 179.286C808.627 178.761 807.897 178.169 807.212 177.469C807.011 177.271 807.007 176.91 807.188 176.707C807.37 176.504 807.715 176.513 807.916 176.711C808.533 177.345 809.211 177.911 809.935 178.37C810.04 178.422 810.121 178.528 810.165 178.648ZM805.803 177.353C805.876 177.553 805.822 177.754 805.716 177.929C805.413 178.268 805.178 178.672 804.79 179.359C804.683 179.534 804.554 179.763 804.424 179.992C804.258 180.235 803.942 180.306 803.718 180.162C803.48 179.978 803.4 179.644 803.529 179.415C803.658 179.186 803.788 178.957 803.894 178.782C804.305 178.041 804.564 177.583 804.965 177.163C805.146 176.961 805.491 176.969 805.692 177.167C805.744 177.194 805.774 177.273 805.803 177.353ZM804.78 174.919C804.824 175.039 804.816 175.133 804.822 175.266C804.76 175.561 804.474 175.712 804.189 175.636C803.374 175.392 802.573 175.188 801.749 175.038C801.479 175.002 801.249 174.724 801.311 174.429C801.336 174.148 801.593 173.917 801.877 173.994C802.739 174.13 803.629 174.346 804.497 174.615C804.602 174.667 804.721 174.759 804.78 174.919ZM833.131 23.9193C833.337 24.4783 833.482 25.105 833.529 25.8131C833.746 29.5414 831.189 34.2014 828.752 36.0515C828.284 36.4053 827.764 36.7329 827.229 37.0206C829.66 39.7977 833.492 41.741 837.389 40.2599C837.953 40.052 838.581 40.3649 838.838 40.95C839.059 41.5489 838.784 42.1943 838.219 42.4022C835.714 43.3706 833.015 43.2315 830.421 42.1014C828.388 41.2182 826.518 39.7312 825.1 37.8504C822.582 38.5515 819.793 38.4002 817.469 37.3068C813.658 35.5371 811.449 31.2728 809.662 27.8054L809.522 27.5398C809.226 26.9685 809.434 26.2571 809.931 25.9832C810.466 25.6955 811.154 25.9407 811.435 26.472L811.575 26.7377C813.29 30.0054 815.217 33.7384 818.259 35.1569C819.903 35.9114 821.889 36.0864 823.76 35.7146C822.223 32.6987 821.65 28.4668 822.335 25.2217C822.795 23.1029 824.227 21.3058 826.055 20.5868C827.643 19.9111 829.426 20.1155 830.993 21.1251C831.947 21.8617 832.705 22.7613 833.131 23.9193ZM825.835 35.0861C826.384 34.8383 826.904 34.5107 827.372 34.1569C829.304 32.6744 831.435 28.7153 831.286 25.8687C831.213 24.626 830.725 23.763 829.815 23.1462C828.628 22.3591 827.539 22.5336 826.877 22.823C825.688 23.3063 824.764 24.5084 824.46 25.8897C823.83 28.7062 824.437 32.5632 825.835 35.0861Z" fill="white" fill-opacity="0.2"/>
</g>
<defs>
<linearGradient id="paint0_linear" x1="1089.98" y1="579.973" x2="638.327" y2="-320.006" gradientUnits="userSpaceOnUse">
<stop stop-color="#5C9EE8"/>
<stop offset="1" stop-color="#487FC2"/>
</linearGradient>
<linearGradient id="paint1_linear" x1="1089.98" y1="572.189" x2="630.757" y2="-316.745" gradientUnits="userSpaceOnUse">
<stop stop-color="#4FA1FD"/>
<stop offset="1" stop-color="#1D5599"/>
</linearGradient>
<linearGradient id="paint2_linear" x1="0.609336" y1="451.342" x2="482.594" y2="-453.53" gradientUnits="userSpaceOnUse">
<stop stop-color="#4FA1FD"/>
<stop offset="1" stop-color="#1D5599"/>
</linearGradient>
<linearGradient id="paint3_linear" x1="1090.39" y1="520.358" x2="601.537" y2="-389.094" gradientUnits="userSpaceOnUse">
<stop stop-color="#416084"/>
<stop offset="0.979457" stop-color="#487EC1"/>
<stop offset="1" stop-color="#487FC2"/>
</linearGradient>
<linearGradient id="paint4_linear" x1="1098.61" y1="531.116" x2="537.952" y2="-396.795" gradientUnits="userSpaceOnUse">
<stop stop-color="#072E70"/>
<stop offset="0.286345" stop-color="#113B81"/>
<stop offset="0.598958" stop-color="#18438C"/>
<stop offset="0.8125" stop-color="#1E4C97"/>
<stop offset="1" stop-color="#204F9B"/>
</linearGradient>
<linearGradient id="paint5_linear" x1="1098.61" y1="87.6594" x2="537.952" y2="-840.252" gradientUnits="userSpaceOnUse">
<stop stop-color="#1C4486"/>
<stop offset="0.32966" stop-color="#4571A5" stop-opacity="0.697803"/>
<stop offset="1" stop-color="#3E6CA5" stop-opacity="0.188491"/>
</linearGradient>
<linearGradient id="paint6_linear" x1="-7.60763" y1="302.141" x2="553.047" y2="-625.771" gradientUnits="userSpaceOnUse">
<stop stop-color="#15499F"/>
<stop offset="0.78125" stop-color="#3675BF" stop-opacity="0.697803"/>
<stop offset="1" stop-color="#1864C1" stop-opacity="0.188491"/>
</linearGradient>
<clipPath id="clip0">
<rect width="1091" height="589" fill="white"/>
</clipPath>
</defs>
</svg>
