<svg width="6873" height="3056" viewBox="0 0 6873 3056" fill="none" xmlns="http://www.w3.org/2000/svg">
<rect width="6873" height="2547" fill="white"/>
<g clip-path="url(#clip0)">
<path opacity="0.206012" fill-rule="evenodd" clip-rule="evenodd" d="M7.10327e-08 2453.63C-0.000890017 2454.42 8.36356 2457.74 9.00423 2458.04C17.9857 2462.37 27.0303 2466.53 36.0979 2470.61C51.0409 2477.34 66.0643 2483.82 81.1336 2490.14C101.987 2498.88 122.944 2507.31 143.97 2515.46C170.694 2525.84 197.533 2535.79 224.459 2545.4C257.003 2557.01 289.679 2568.11 322.459 2578.76C360.772 2591.22 399.234 2603.06 437.811 2614.38C481.859 2627.29 526.062 2639.51 570.386 2651.07C620.118 2664.06 670.01 2676.23 720.024 2687.65C775.406 2700.31 830.936 2712.07 886.59 2722.97C947.564 2734.91 1008.69 2745.83 1069.93 2755.81C1136.45 2766.65 1203.13 2776.36 1269.9 2785.01C1341.94 2794.35 1414.11 2802.46 1486.36 2809.39C1563.87 2816.84 1641.48 2822.94 1719.14 2827.79C1802.09 2832.95 1885.1 2836.65 1968.13 2838.99C2056.46 2841.48 2144.81 2842.4 2233.16 2841.84C2326.83 2841.27 2420.48 2839.01 2514.09 2835.16C2613.06 2831.11 2711.97 2825.28 2810.79 2817.78C2915 2809.86 3019.11 2800.07 3123.08 2788.5C3232.5 2776.32 3341.77 2762.17 3450.84 2746.15C3557.13 2730.53 3663.82 2715.84 3769.2 2693.09C3790.06 2688.59 3810.95 2684.28 3831.84 2679.96C3863.98 2673.33 3896.13 2666.84 3928.3 2660.45C3970.51 2652.07 4012.73 2643.88 4054.98 2635.86C4106.03 2626.16 4157.12 2616.7 4208.24 2607.49C4266.94 2596.91 4325.69 2586.63 4384.46 2576.66C4449.61 2565.62 4514.79 2554.95 4580.03 2544.67C4650.41 2533.58 4720.84 2522.96 4791.32 2512.82C4865.72 2502.12 4940.18 2491.97 5014.7 2482.44C5091.92 2472.54 5169.21 2463.29 5246.56 2454.8C5325.4 2446.13 5404.32 2438.23 5483.28 2431.23C5562.53 2424.2 5641.85 2418.08 5721.23 2413.03C5799.7 2408.04 5878.22 2404.12 5956.78 2401.51C6033.28 2398.96 6109.8 2397.66 6186.33 2397.97C6259.65 2398.26 6332.98 2400.01 6406.24 2403.72C6475.23 2407.22 6544.15 2412.44 6612.9 2420.07C6676.39 2427.12 6739.74 2436.23 6802.67 2448.33C6808.4 2449.43 6868.76 2459.55 6868.75 2462.26L6873 -1084.38L4.24473 -1093L7.10327e-08 2453.63Z" fill="#5C9EE8"/>
<path opacity="0.29478" fill-rule="evenodd" clip-rule="evenodd" d="M0 2375.21C0 2375.21 2069.1 3008.08 5400.48 2942.19C5400.48 2942.19 6313.11 2906.16 6868.81 2523.82L6873 -940.461L4.02195 -949L0 2375.21Z" fill="#4FA1FD"/>
<path opacity="0.346071" fill-rule="evenodd" clip-rule="evenodd" d="M6876.86 1525.35C6876.86 1525.35 4782.44 2171.29 1412.99 2095.11C1412.99 2095.11 489.97 2055.74 -71.1641 1660.94L-66.7928 -1903.45L6881.06 -1894.93L6876.86 1525.35Z" fill="#4FA1FD"/>
<path opacity="0.346071" fill-rule="evenodd" clip-rule="evenodd" d="M-75.4531 1987.09C-75.4531 1987.09 2017.38 2644.1 5387.01 2575.52C5387.01 2575.52 6310.12 2538.06 6872.22 2141.05L6876.63 -1455.93L-71.2203 -1464.45L-75.4531 1987.09Z" fill="#416084"/>
<path opacity="0.880265" fill-rule="evenodd" clip-rule="evenodd" d="M0 2576.1C0 2576.1 1598.96 2451.63 3552.6 2821.61C3552.6 2821.61 6059.93 3403.31 6876.58 2584.55L6881 -1032.55L4.42682 -1041L0 2576.1Z" fill="#072E70"/>
<path fill-rule="evenodd" clip-rule="evenodd" d="M-72.4492 -451.427C-72.4492 -451.427 1543.08 -576.938 3516.98 -203.883C3516.98 -203.883 6050.3 382.629 6875.4 -442.906L6879.87 -4090L-67.9765 -4098.52L-72.4492 -451.427Z" fill="#1C4486"/>
<path opacity="0.318331" fill-rule="evenodd" clip-rule="evenodd" d="M6876.58 1085.44C6876.58 1085.44 5277.93 954.17 3323.38 1327.5C3323.38 1327.5 814.633 1915.87 0 1076.8L4.42682 -2621L6881 -2612.36L6876.58 1085.44Z" fill="#15499F"/>
</g>
<defs>
<clipPath id="clip0">
<rect width="6873" height="3056" fill="white"/>
</clipPath>
</defs>
</svg>
